<?xml version="1.0" encoding="utf-8"?>
<!-- Generator: Adobe Illustrator 25.2.3, SVG Export Plug-In . SVG Version: 6.00 Build 0)  -->
<svg version="1.1" id="圖層_1" xmlns="http://www.w3.org/2000/svg" xmlns:xlink="http://www.w3.org/1999/xlink" x="0px" y="0px"
	 viewBox="0 0 972 300" style="enable-background:new 0 0 972 300;" xml:space="preserve">
<style type="text/css">
	.st0{fill:#9E7555;}
	.st1{fill:#D6CF4A;}
	.st2{fill:#3B220B;}
	.st3{fill:#442916;}
	.st4{fill:#D0997E;}
	.st5{fill:#CE9478;}
	.st6{fill:#D0987D;}
	.st7{fill:#CF987D;}
	.st8{fill:#CF967B;}
	.st9{fill:#D8AA93;}
	.st10{fill:#D29D83;}
	.st11{fill:#D9AB95;}
	.st12{fill:#DDB4A0;}
	.st13{fill:#D29D84;}
	.st14{fill:#CF977C;}
	.st15{fill:#D19A80;}
	.st16{fill:#E3C3B3;}
	.st17{fill:#D8AA94;}
	.st18{fill:#CD9377;}
	.st19{fill:#D6A78F;}
	.st20{fill:#EAD2C6;}
	.st21{fill:#E0BCAA;}
	.st22{fill:#D8AB94;}
	.st23{fill:#D4A087;}
	.st24{fill:#D6A68F;}
	.st25{fill:#D5A48C;}
	.st26{fill:#D6A58D;}
	.st27{fill:#DFB9A6;}
	.st28{fill:#DEB7A5;}
	.st29{fill:#D4A289;}
	.st30{fill:#D5A58D;}
	.st31{fill:#ECD6CA;}
	.st32{fill:#E4C5B6;}
	.st33{fill:#F9F4F1;}
	.st34{fill:#E1BEAC;}
	.st35{fill:#E6CABC;}
	.st36{fill:#FBF7F5;}
	.st37{fill:#ECD5CA;}
	.st38{fill:#DDB6A3;}
	.st39{fill:#E8CDC0;}
	.st40{fill:#EDD9CF;}
	.st41{fill:#EAD2C7;}
	.st42{fill:#E7CBBD;}
	.st43{fill:#D8A992;}
	.st44{fill:#E2C1B0;}
	.st45{fill:#EEDAD1;}
	.st46{fill:#EEDBD2;}
	.st47{fill:#DBB09B;}
	.st48{fill:#E9D0C4;}
	.st49{fill:#F1E2DA;}
	.st50{fill:#D6A58E;}
	.st51{fill:#DAB09B;}
	.st52{fill:#E2C0AF;}
	.st53{fill:#E8CEC0;}
	.st54{fill:#D3A086;}
	.st55{fill:#D7A892;}
	.st56{fill:#EAD3C7;}
	.st57{fill:#E0BCAB;}
	.st58{fill:#ECD6CB;}
	.st59{fill:#D6A790;}
	.st60{fill:#E4C4B5;}
	.st61{fill:#DEB8A5;}
	.st62{fill:#F0E0D8;}
	.st63{fill:#E8CEC1;}
	.st64{fill:#D9AD97;}
	.st65{fill:#ECD7CC;}
	.st66{fill:#E1BEAD;}
	.st67{fill:#EFDDD4;}
	.st68{fill:#DBB29E;}
	.st69{fill:#FAF6F3;}
	.st70{fill:#E9CFC3;}
	.st71{fill:#E3C2B2;}
	.st72{fill:#D29E85;}
	.st73{fill:#E2BFAF;}
	.st74{fill:#ECD7CD;}
	.st75{fill:#E4C3B4;}
	.st76{fill:#F0DFD6;}
	.st77{fill:#F2E5DE;}
	.st78{fill:#F6ECE8;}
	.st79{fill:#FDFCFB;}
	.st80{fill:#F5EAE5;}
	.st81{fill:#F6EDE9;}
	.st82{fill:#DCB29D;}
	.st83{fill:#E9CFC2;}
	.st84{fill:#E5C8B9;}
	.st85{fill:#E4C6B7;}
	.st86{fill:#E3C2B1;}
	.st87{fill:#EFDCD3;}
	.st88{fill:#F2E2DB;}
	.st89{fill:#E8CDBF;}
	.st90{fill:#F3E5DF;}
	.st91{fill:#EBD3C8;}
	.st92{fill:#F6ECE7;}
	.st93{fill:#D19C82;}
	.st94{fill:#EDD7CD;}
	.st95{fill:#EFDDD5;}
	.st96{fill:#F0DED6;}
	.st97{fill:#EDDAD0;}
	.st98{fill:#DFB9A7;}
	.st99{fill:#E0BBA9;}
	.st100{fill:#FDFBFA;}
	.st101{fill:#DEB8A6;}
	.st102{fill:#F4E9E3;}
	.st103{fill:#F1E1D9;}
	.st104{fill:#DDB7A4;}
	.st105{fill:#F2E4DD;}
	.st106{fill:#F7EEEA;}
	.st107{fill:#E5C6B7;}
	.st108{fill:#F3E6E0;}
	.st109{fill:#F2E3DB;}
	.st110{fill:#F0DFD7;}
	.st111{fill:#D7A891;}
	.st112{fill:#E6C9BB;}
	.st113{fill:#F5EAE4;}
	.st114{fill:#DBB19D;}
	.st115{fill:#E0BDAB;}
	.st116{fill:#EFDED5;}
	.st117{fill:#E6C8BA;}
	.st118{fill:#F0E0D7;}
	.st119{fill:#EEDBD1;}
	.st120{fill:#DFBAA7;}
	.st121{fill:#F2E3DC;}
	.st122{fill:#E2C1B1;}
	.st123{fill:#E5C6B6;}
	.st124{fill:#EEDAD0;}
	.st125{fill:#D3A087;}
	.st126{fill:#F6EBE6;}
	.st127{fill:#D29E84;}
	.st128{fill:#D29C83;}
	.st129{fill:#CD9276;}
	.st130{fill:#D4A38B;}
	.st131{fill:#D7A993;}
	.st132{fill:#D4A088;}
	.st133{fill:#D4A189;}
	.st134{fill:#D5A38B;}
	.st135{fill:#D9AC96;}
	.st136{fill:#D7A791;}
	.st137{fill:#D6A68E;}
	.st138{fill:#E5C7B9;}
	.st139{fill:#D39E86;}
	.st140{fill:#DEB7A4;}
	.st141{fill:#DDB5A1;}
	.st142{fill:#DAAF9A;}
	.st143{fill:#F4E7E1;}
	.st144{fill:#D19B81;}
	.st145{fill:#D39E85;}
	.st146{fill:#D39F86;}
	.st147{fill:#D4A28A;}
	.st148{fill:#F8F2EF;}
	.st149{fill:#D9AC97;}
	.st150{fill:#FAF6F4;}
	.st151{fill:#DCB39F;}
	.st152{fill:#F9F4F2;}
	.st153{fill:#F8F1ED;}
	.st154{fill:#DAAF9B;}
	.st155{fill:#EAD3C8;}
	.st156{fill:#F1E1DA;}
	.st157{fill:#FBF8F6;}
	.st158{fill:#E7CCBE;}
	.st159{fill:#F8F0EC;}
	.st160{fill:#E7CCBF;}
	.st161{fill:#EAD1C6;}
	.st162{fill:#DCB4A1;}
	.st163{fill:#DCB3A0;}
	.st164{fill:#DBB29F;}
	.st165{fill:#D3A088;}
	.st166{fill:#D6A791;}
	.st167{fill:#F7EFEB;}
	.st168{fill:#E4C5B7;}
	.st169{fill:#DCB4A0;}
	.st170{fill:#FBF7F6;}
	.st171{fill:#FDFBFB;}
	.st172{fill:#D5A38A;}
	.st173{fill:#FCF9F8;}
	.st174{fill:#F6EBE7;}
	.st175{fill:#D8AB95;}
	.st176{fill:#DAAE99;}
	.st177{fill:#DBB19C;}
	.st178{fill:#D09A7F;}
	.st179{fill:#FCFBFA;}
	.st180{fill:#D9AD98;}
	.st181{fill:#F4E8E2;}
	.st182{fill:#DEB9A7;}
	.st183{fill:#D4A188;}
	.st184{fill:#EDD8CE;}
	.st185{fill:#D7A992;}
	.st186{fill:#D5A48B;}
	.st187{fill:#DDB6A2;}
	.st188{fill:#DCB29E;}
	.st189{fill:#ECD6CC;}
	.st190{fill:#FCFAF9;}
	.st191{fill:#E2BFAE;}
	.st192{fill:#E6C8B9;}
	.st193{fill:#EAD2C5;}
	.st194{fill:#F9F3F0;}
	.st195{fill:#E4C5B5;}
	.st196{fill:#F4E7E0;}
	.st197{fill:#E1BFAE;}
	.st198{fill:#D8A993;}
	.st199{fill:#DAAE98;}
	.st200{fill:#E9D0C3;}
	.st201{fill:#E1BDAC;}
	.st202{fill:#F6EDE8;}
	.st203{fill:#D6A690;}
	.st204{fill:#FBF6F4;}
	.st205{fill:#DFB8A6;}
	.st206{fill:#EEDCD2;}
	.st207{fill:#F8F1EE;}
	.st208{fill:#DBB29D;}
	.st209{fill:#F1E0D8;}
	.st210{fill:#EEDCD3;}
	.st211{fill:#D39F85;}
	.st212{fill:#D7A790;}
	.st213{fill:#E3C2B3;}
	.st214{fill:#FAF5F2;}
	.st215{fill:#FBF7F4;}
	.st216{fill:#FCFAFA;}
	.st217{fill:#D29C82;}
	.st218{fill:#CE9579;}
	.st219{fill:#DBB09C;}
	.st220{fill:#DFBAA8;}
	.st221{fill:#EBD4C9;}
	.st222{fill:#DCB39E;}
	.st223{fill:#DDB5A2;}
	.st224{fill:#DEB7A3;}
	.st225{fill:#F5E9E4;}
	.st226{fill:#D9AE98;}
	.st227{fill:#F7EEE9;}
	.st228{fill:#E2C0B0;}
	.st229{fill:#F9F2F0;}
	.st230{fill:#E3C1B1;}
	.st231{fill:#F3E6DF;}
	.st232{fill:#FAF5F3;}
	.st233{fill:#D7A890;}
	.st234{fill:#EAD1C5;}
	.st235{fill:#E4C4B4;}
	.st236{fill:#E1BEAE;}
	.st237{fill:#D0987E;}
	.st238{fill:#D39F87;}
	.st239{fill:#E7CBBE;}
	.st240{fill:#F9B897;}
	.st241{fill:#F7B290;}
	.st242{fill:#F9B696;}
	.st243{fill:#F8B696;}
	.st244{fill:#F8B494;}
	.st245{fill:#FFC9AD;}
	.st246{fill:#FBBC9D;}
	.st247{fill:#FFC9AF;}
	.st248{fill:#FFD0B8;}
	.st249{fill:#FBBC9E;}
	.st250{fill:#F8B595;}
	.st251{fill:#FAB999;}
	.st252{fill:#FFDBC9;}
	.st253{fill:#F6B18F;}
	.st254{fill:#FFC7AA;}
	.st255{fill:#FFE5D8;}
	.st256{fill:#FFD6C1;}
	.st257{fill:#FFCAAF;}
	.st258{fill:#FDBFA1;}
	.st259{fill:#FFC6AA;}
	.st260{fill:#FEC4A7;}
	.st261{fill:#FFC4A8;}
	.st262{fill:#FFD3BE;}
	.st263{fill:#FFD2BD;}
	.st264{fill:#FDC2A4;}
	.st265{fill:#FEC5A8;}
	.st266{fill:#FFE7DA;}
	.st267{fill:#FFDCCB;}
	.st268{fill:#FFFAF7;}
	.st269{fill:#FFD7C3;}
	.st270{fill:#FFE0D0;}
	.st271{fill:#FFFBF9;}
	.st272{fill:#FFE6DA;}
	.st273{fill:#FFD2BC;}
	.st274{fill:#FFE1D3;}
	.st275{fill:#FFE9DF;}
	.st276{fill:#FFE5D9;}
	.st277{fill:#FFE0D1;}
	.st278{fill:#FFC7AC;}
	.st279{fill:#FFDAC6;}
	.st280{fill:#FFE9E0;}
	.st281{fill:#FFEBE1;}
	.st282{fill:#FFCDB4;}
	.st283{fill:#FFE4D6;}
	.st284{fill:#FFEFE7;}
	.st285{fill:#FFC4A9;}
	.st286{fill:#FFCEB5;}
	.st287{fill:#FFD9C5;}
	.st288{fill:#FFE2D3;}
	.st289{fill:#FCBFA0;}
	.st290{fill:#FFC7AD;}
	.st291{fill:#FFE6D9;}
	.st292{fill:#FFD6C3;}
	.st293{fill:#FFE7DB;}
	.st294{fill:#FFC7AB;}
	.st295{fill:#FFDBCA;}
	.st296{fill:#FFD3BD;}
	.st297{fill:#FFEEE5;}
	.st298{fill:#FFE2D4;}
	.st299{fill:#FFCBB1;}
	.st300{fill:#FFE8DC;}
	.st301{fill:#FFD7C4;}
	.st302{fill:#FFECE2;}
	.st303{fill:#FFCFB8;}
	.st304{fill:#FFFBF8;}
	.st305{fill:#FFE2D5;}
	.st306{fill:#FFDAC8;}
	.st307{fill:#FBBD9F;}
	.st308{fill:#FFD7C5;}
	.st309{fill:#FFE8DD;}
	.st310{fill:#FFDAC9;}
	.st311{fill:#FFEDE3;}
	.st312{fill:#FFF1EA;}
	.st313{fill:#FFF5F0;}
	.st314{fill:#FFFEFD;}
	.st315{fill:#FFF4EE;}
	.st316{fill:#FFF6F1;}
	.st317{fill:#FFCEB6;}
	.st318{fill:#FFDFCE;}
	.st319{fill:#FFDDCD;}
	.st320{fill:#FFDAC7;}
	.st321{fill:#FFEEE7;}
	.st322{fill:#FFE1D2;}
	.st323{fill:#FFF0EA;}
	.st324{fill:#FFF5EF;}
	.st325{fill:#FABB9C;}
	.st326{fill:#FFE7DC;}
	.st327{fill:#FFECE3;}
	.st328{fill:#FFEAE0;}
	.st329{fill:#FFD3BF;}
	.st330{fill:#FFD5C0;}
	.st331{fill:#FFFDFC;}
	.st332{fill:#FFF3ED;}
	.st333{fill:#FFEEE6;}
	.st334{fill:#FFF0E9;}
	.st335{fill:#FFF6F2;}
	.st336{fill:#FFDCCC;}
	.st337{fill:#FFF1EB;}
	.st338{fill:#FFEDE4;}
	.st339{fill:#FFDFCF;}
	.st340{fill:#FFF4ED;}
	.st341{fill:#FFCEB7;}
	.st342{fill:#FFDECE;}
	.st343{fill:#FFEEE4;}
	.st344{fill:#FFEBE0;}
	.st345{fill:#FFD5BF;}
	.st346{fill:#FFEFE8;}
	.st347{fill:#FCBFA2;}
	.st348{fill:#FBBD9E;}
	.st349{fill:#FBBB9D;}
	.st350{fill:#F6B08E;}
	.st351{fill:#FDC3A6;}
	.st352{fill:#FFC8AE;}
	.st353{fill:#FDBFA3;}
	.st354{fill:#FDC0A4;}
	.st355{fill:#FEC3A6;}
	.st356{fill:#FFCAB0;}
	.st357{fill:#FFC6AC;}
	.st358{fill:#FFC6A9;}
	.st359{fill:#FFDDCE;}
	.st360{fill:#FCBDA0;}
	.st361{fill:#FFD1BA;}
	.st362{fill:#FABA9B;}
	.st363{fill:#FCBD9F;}
	.st364{fill:#FCBEA0;}
	.st365{fill:#FDC2A5;}
	.st366{fill:#FFF9F6;}
	.st367{fill:#FFCAB1;}
	.st368{fill:#FFFAF8;}
	.st369{fill:#FFF8F4;}
	.st370{fill:#FFCDB5;}
	.st371{fill:#FFFCFA;}
	.st372{fill:#FFF7F3;}
	.st373{fill:#FFE4D8;}
	.st374{fill:#FFD0BA;}
	.st375{fill:#FFCFB9;}
	.st376{fill:#FCBFA3;}
	.st377{fill:#FFDCCD;}
	.st378{fill:#FFD0B9;}
	.st379{fill:#FFFBFA;}
	.st380{fill:#FFFDFD;}
	.st381{fill:#FEC3A5;}
	.st382{fill:#FFFCFB;}
	.st383{fill:#FFF3EF;}
	.st384{fill:#FFCBB3;}
	.st385{fill:#F9B998;}
	.st386{fill:#FFCBB2;}
	.st387{fill:#FFF2EC;}
	.st388{fill:#FFD4C0;}
	.st389{fill:#FDC0A3;}
	.st390{fill:#FFE8DE;}
	.st391{fill:#FFC8AD;}
	.st392{fill:#FEC4A6;}
	.st393{fill:#FFD2BB;}
	.st394{fill:#FFDECD;}
	.st395{fill:#FFE5D7;}
	.st396{fill:#FFDCCA;}
	.st397{fill:#FFD8C5;}
	.st398{fill:#FFE4D5;}
	.st399{fill:#FFF6F0;}
	.st400{fill:#FFC6AB;}
	.st401{fill:#FFD2BE;}
	.st402{fill:#FFECE1;}
	.st403{fill:#FFF8F5;}
	.st404{fill:#FFCFB7;}
	.st405{fill:#FCBE9F;}
	.st406{fill:#FBBB9C;}
	.st407{fill:#F7B391;}
	.st408{fill:#FFCDB6;}
	.st409{fill:#FFD1BB;}
	.st410{fill:#FFF2ED;}
	.st411{fill:#FFCCB2;}
	.st412{fill:#FFD9C6;}
	.st413{fill:#FFF8F6;}
	.st414{fill:#FFD9C7;}
	.st415{fill:#FFE4D7;}
	.st416{fill:#F9B697;}
	.st417{fill:#FCBEA2;}
	.st418{fill:#FFE0D2;}
	.st419{fill:#C69C6D;}
	.st420{fill:#FFFFFF;}
	.st421{fill:none;stroke:#000000;stroke-miterlimit:10;}
	.st422{fill:none;stroke:#000000;stroke-miterlimit:10;stroke-dasharray:2.0129,2.0129;}
	.st423{fill:#5C4025;}
	.st424{fill:none;stroke:#FFFFFF;stroke-miterlimit:10;stroke-dasharray:3.9915,3.9915;}
	.st425{fill:#996429;}
	.st426{fill:#C78545;}
	.st427{fill:#362D28;}
	.st428{fill:#5B7588;}
	.st429{fill:#F5F5F5;}
	.st430{fill:#2A1C1A;}
	.st431{fill:#B58C7D;}
	.st432{fill:#FFDB9F;}
	.st433{fill:#FFCA92;}
	.st434{fill:#FFDBA0;}
	.st435{fill:#FFC991;}
	.st436{fill:#FFD69D;}
	.st437{fill:#FFCF99;}
	.st438{fill:#FFD69E;}
	.st439{fill:#FFDDA1;}
	.st440{fill:#FFD9A0;}
	.st441{fill:#FEC58D;}
	.st442{fill:#FFD79A;}
	.st443{fill:#FEC791;}
	.st444{fill:#FFCE97;}
	.st445{fill:#FFD39C;}
	.st446{fill:#FFD5AC;}
	.st447{fill:#FFD4AC;}
	.st448{fill:#FFD5AD;}
	.st449{fill:#FFCF97;}
	.st450{fill:#FFD9A2;}
	.st451{fill:#FFD093;}
	.st452{fill:#FFD4AA;}
	.st453{fill:#FFCD9A;}
	.st454{fill:#FFDFBF;}
	.st455{fill:#FFDDA4;}
	.st456{fill:#FFD29B;}
	.st457{fill:#FFC783;}
	.st458{fill:#FFCC87;}
	.st459{fill:#FFCA85;}
	.st460{fill:#FFCD87;}
	.st461{fill:#FFCC89;}
	.st462{fill:#FFD5AE;}
	.st463{fill:#FFE2C7;}
	.st464{fill:#FFE6C9;}
	.st465{fill:#FFCB82;}
	.st466{fill:#FFEAD5;}
	.st467{fill:#FFCC85;}
	.st468{fill:#FFCEA0;}
	.st469{fill:#FFCF89;}
	.st470{fill:#FFD2A6;}
	.st471{fill:#FFD190;}
	.st472{fill:#FFCD89;}
	.st473{fill:#FFE3C7;}
	.st474{fill:#FFCB87;}
	.st475{fill:#FFE5CA;}
	.st476{fill:#FFE2C3;}
	.st477{fill:#FFCDA0;}
	.st478{fill:#FFECD9;}
	.st479{fill:#FFCB84;}
	.st480{fill:#FFD1A2;}
	.st481{fill:#FFE3C4;}
	.st482{fill:#FFD18E;}
	.st483{fill:#FFE2C6;}
	.st484{fill:#FFC983;}
	.st485{fill:#FFC77C;}
	.st486{fill:#FFD3A9;}
	.st487{fill:#FFCA81;}
	.st488{fill:#FFCEA3;}
	.st489{fill:#FFC97E;}
	.st490{fill:#FFC481;}
	.st491{fill:#FFE4C7;}
	.st492{fill:#FFCB86;}
	.st493{fill:#FFC982;}
	.st494{fill:#FFFDF6;}
	.st495{fill:#FFEEDC;}
	.st496{fill:#FFE4CA;}
	.st497{fill:#FFF9F2;}
	.st498{fill:#CCE2C1;}
	.st499{fill:#CFE4C5;}
	.st500{fill:#DBECD1;}
	.st501{fill:#D0E5C7;}
	.st502{fill:#E5F4DD;}
	.st503{fill:#D5E9CD;}
	.st504{fill:#D7EACE;}
	.st505{fill:#D7EACF;}
	.st506{fill:#DEEFD6;}
	.st507{fill:#E6F4DE;}
	.st508{fill:#EFFBEA;}
	.st509{fill:#D7EBCF;}
	.st510{fill:#D5E9CC;}
	.st511{fill:#DAEDD2;}
	.st512{fill:#E4F3DC;}
	.st513{fill:#DCEDD2;}
	.st514{fill:#D3E7CA;}
	.st515{fill:#EFFBE9;}
	.st516{fill:#D9ECD1;}
	.st517{fill:#F1FCEB;}
	.st518{fill:#DDEED5;}
	.st519{fill:#F5FDF1;}
	.st520{fill:#F8FDF5;}
	.st521{fill:#EEFBE7;}
	.st522{fill:#ECFAE6;}
	.st523{fill:#E6F5DF;}
	.st524{fill:#DDEED3;}
	.st525{fill:#F5FDF2;}
	.st526{fill:#D8EBD0;}
	.st527{fill:#E7F6E0;}
	.st528{fill:#E5F4DE;}
	.st529{fill:#F2FCEC;}
	.st530{fill:#F3FCED;}
	.st531{fill:#F9FEF7;}
	.st532{fill:#E6F5DE;}
	.st533{fill:#F2FCEE;}
	.st534{fill:#F7FDF4;}
	.st535{fill:#E9F7E2;}
	.st536{fill:#F2FCED;}
	.st537{fill:#E9F7E1;}
	.st538{fill:#FAFEF9;}
	.st539{fill:#D4E8CB;}
	.st540{fill:#F7FDF5;}
	.st541{fill:#E0F0D8;}
	.st542{fill:#F5FCF0;}
	.st543{fill:#F5FBF0;}
	.st544{fill:#ECF9E7;}
	.st545{fill:#DFEFD7;}
	.st546{fill:#F0FCEB;}
	.st547{fill:#F6FDF3;}
	.st548{fill:#F0FBEA;}
	.st549{fill:#EBF8E4;}
	.st550{fill:#F4FCEF;}
	.st551{fill:#F3FCEF;}
	.st552{fill:#FDFFFD;}
	.st553{fill:#FBFEF9;}
	.st554{fill:#F5FDF3;}
	.st555{fill:#FBFEFA;}
	.st556{fill:#F7FDF3;}
	.st557{fill:#E3F3DC;}
	.st558{fill:#EEFBE9;}
	.st559{fill:#E8F6E1;}
	.st560{fill:#ECFAE5;}
	.st561{fill:#FAFEF8;}
	.st562{fill:#F4FCF0;}
	.st563{fill:#E1F1DA;}
	.st564{fill:#EAF8E3;}
	.st565{fill:#EAF8E4;}
	.st566{fill:#E1F1D9;}
	.st567{fill:#F6FDF2;}
	.st568{fill:#E2F2DA;}
	.st569{fill:#CEE4C4;}
	.st570{fill:#D2E6C8;}
	.st571{fill:#D0E5C6;}
	.st572{fill:#D1E6C7;}
	.st573{fill:#D2E6C9;}
	.st574{fill:#D1E6C8;}
	.st575{fill:#D3E7C9;}
	.st576{fill:#D2E7C9;}
	.st577{fill:#E0F1D8;}
	.st578{fill:#F9FEF6;}
	.st579{fill:#F8FEF6;}
	.st580{fill:#FCFEFB;}
	.st581{fill:#F0FCEC;}
	.st582{fill:#E3F2DB;}
	.st583{fill:#F0FBEC;}
	.st584{fill:#DCEDD4;}
	.st585{fill:#D8EBCF;}
	.st586{fill:#DBEED3;}
	.st587{fill:#FDFFFC;}
	.st588{fill:#FEFFFD;}
	.st589{fill:#F8FEF5;}
	.st590{fill:#F8FDF6;}
	.st591{fill:#E1F1D8;}
	.st592{fill:#ECF9E5;}
	.st593{fill:#E4F4DC;}
	.st594{fill:#D6E9CD;}
	.st595{fill:#FEFFFE;}
	.st596{fill:#E2F2DB;}
	.st597{fill:#FFFFFE;}
	.st598{fill:#F4FDF1;}
	.st599{fill:#D9ECD0;}
	.st600{fill:#FAFEF6;}
	.st601{fill:#F1FCEC;}
	.st602{fill:#DFF0D7;}
	.st603{fill:#D7EBCE;}
	.st604{fill:#F3FCEE;}
	.st605{fill:#EEFAE8;}
	.st606{fill:#F5FCF1;}
	.st607{fill:#E3F3DB;}
	.st608{fill:#773300;}
	.st609{fill:#EEC68B;}
	.st610{fill:#E6B47B;}
	.st611{fill:#EDC58B;}
	.st612{fill:#E9BB7F;}
	.st613{fill:#EFC98D;}
	.st614{fill:#E3AF77;}
	.st615{fill:#EFC98F;}
	.st616{fill:#E4B077;}
	.st617{fill:#EBC186;}
	.st618{fill:#E1AB72;}
	.st619{fill:#E9BB83;}
	.st620{fill:#E9BC83;}
	.st621{fill:#E3AF74;}
	.st622{fill:#E8B87F;}
	.st623{fill:#F2CF95;}
	.st624{fill:#ECC288;}
	.st625{fill:#ECC388;}
	.st626{fill:#F2CE98;}
	.st627{fill:#EEC78F;}
	.st628{fill:#F1CC93;}
	.st629{fill:#E6B47C;}
	.st630{fill:#EBBF83;}
	.st631{fill:#EBC086;}
	.st632{fill:#ECC08C;}
	.st633{fill:#E3A660;}
	.st634{fill:#F0CA92;}
	.st635{fill:#E4B176;}
	.st636{fill:#E7B886;}
	.st637{fill:#F0CA9A;}
	.st638{fill:#EBC18C;}
	.st639{fill:#EBB269;}
	.st640{fill:#EAB066;}
	.st641{fill:#FBF3EA;}
	.st642{fill:#E9BC80;}
	.st643{fill:#FBF4E8;}
	.st644{fill:#E5A968;}
	.st645{fill:#FBF0E0;}
	.st646{fill:#EECA9A;}
	.st647{fill:#EDBE83;}
	.st648{fill:#E8BA87;}
	.st649{fill:#FAF2EA;}
	.st650{fill:#F4DFC8;}
	.st651{fill:#EFC997;}
	.st652{fill:#EBBC84;}
	.st653{fill:#EBB36E;}
	.st654{fill:#F3D4AE;}
	.st655{fill:#FAF0E3;}
	.st656{fill:#E9BC8C;}
	.st657{fill:#E6B686;}
	.st658{fill:#EABB82;}
	.st659{fill:#F5DBB7;}
	.st660{fill:#FAEFE4;}
	.st661{fill:#F6D9A9;}
	.st662{fill:#EDBD7F;}
	.st663{fill:#F6E6D5;}
	.st664{fill:#E6B889;}
	.st665{fill:#E9BF94;}
	.st666{fill:#E6AB69;}
	.st667{fill:#FBF1E6;}
	.st668{fill:#FBF5EE;}
	.st669{fill:#F7ECDE;}
	.st670{fill:#F8EDE0;}
	.st671{fill:#EBB573;}
	.st672{fill:#EAC18C;}
	.st673{fill:#ECC8A3;}
	.st674{fill:#EBB26E;}
	.st675{fill:#F7E9D9;}
	.st676{fill:#FAEFE3;}
	.st677{fill:#F0D6B7;}
	.st678{fill:#F6E7D2;}
	.st679{fill:#FBF2E1;}
	.st680{fill:#F4DBB3;}
	.st681{fill:#F7E5CD;}
	.st682{fill:#F7E7D2;}
	.st683{fill:#ECC8A2;}
	.st684{fill:#EFCFA9;}
	.st685{fill:#F8EBDC;}
	.st686{fill:#EDCBA6;}
	.st687{fill:#E1A058;}
	.st688{fill:#F4DDC3;}
	.st689{fill:#EAB16D;}
	.st690{fill:#F0D2B0;}
	.st691{fill:#E5B37D;}
	.st692{fill:#F8E9D9;}
	.st693{fill:#EBB36C;}
	.st694{fill:#EEBD7C;}
	.st695{fill:#F6E7D6;}
	.st696{fill:#E2A363;}
	.st697{fill:#EAAC63;}
	.st698{fill:#F6D8B3;}
	.st699{fill:#F9E7D4;}
	.st700{fill:#F4E0C8;}
	.st701{fill:#F8EFE5;}
	.st702{fill:#F9EBDC;}
	.st703{fill:#F3D3A2;}
	.st704{fill:#F4DBC4;}
	.st705{fill:#F1D0B0;}
	.st706{fill:#EEC59D;}
	.st707{fill:#F9EFE3;}
	.st708{fill:#EDB877;}
	.st709{fill:#F2D3A9;}
	.st710{fill:#F7EEE2;}
	.st711{fill:#F2D2A5;}
	.st712{fill:#EBB46E;}
	.st713{fill:#F4DBBF;}
	.st714{fill:#F7E4CF;}
	.st715{fill:#EAB57D;}
	.st716{fill:#F7EADB;}
	.st717{fill:#FDFAF4;}
	.st718{fill:#EEC195;}
	.st719{fill:#F9E3BF;}
	.st720{fill:#F2D1AC;}
	.st721{fill:#F7DDC5;}
	.st722{fill:#F8EADB;}
	.st723{fill:#F9ECE0;}
	.st724{fill:#F0CC97;}
	.st725{fill:#F7E4C8;}
	.st726{fill:#F6E0CB;}
	.st727{fill:#F2D2B3;}
	.st728{fill:#EFBA83;}
	.st729{fill:#EECCA4;}
	.st730{fill:#EBAB71;}
	.st731{fill:#F2D1AE;}
	.st732{fill:#F6DFCA;}
	.st733{fill:#EAB26D;}
	.st734{fill:#E9AE66;}
	.st735{fill:#E9AF67;}
	.st736{fill:#EBB26A;}
	.st737{fill:#E9B26B;}
	.st738{fill:#EBB771;}
	.st739{fill:#EAB36C;}
	.st740{fill:#EAB269;}
	.st741{fill:#E9B16A;}
	.st742{fill:#EBB975;}
	.st743{fill:#EBB46D;}
	.st744{fill:#EBB46B;}
	.st745{fill:#EBB46C;}
	.st746{fill:#EAB570;}
	.st747{fill:#EBB671;}
	.st748{fill:#F0CE9C;}
	.st749{fill:#EBB56E;}
	.st750{fill:#EBB872;}
	.st751{fill:#ECBA77;}
	.st752{fill:#EAB168;}
	.st753{fill:#E2A460;}
	.st754{fill:#E3A661;}
	.st755{fill:#E4A660;}
	.st756{fill:#E3A55F;}
	.st757{fill:#FBF8F3;}
	.st758{fill:#E2A562;}
	.st759{fill:#E4A864;}
	.st760{fill:#F7F0E4;}
	.st761{fill:#E5A760;}
	.st762{fill:#EBC084;}
	.st763{fill:#E7AC63;}
	.st764{fill:#ECBC78;}
	.st765{fill:#ECB570;}
	.st766{fill:#EDBB78;}
	.st767{fill:#E9B470;}
	.st768{fill:#E9B370;}
	.st769{fill:#ECB973;}
	.st770{fill:#ECBB78;}
	.st771{fill:#E8AE65;}
	.st772{fill:#EAB370;}
	.st773{fill:#E9B16D;}
	.st774{fill:#F2D5A9;}
	.st775{fill:#EBB068;}
	.st776{fill:#FAECD8;}
	.st777{fill:#E9B068;}
	.st778{fill:#E8AA61;}
	.st779{fill:#ECBA75;}
	.st780{fill:#E9B169;}
	.st781{fill:#EAB167;}
	.st782{fill:#E7AA61;}
	.st783{fill:#FCF9F2;}
	.st784{fill:#E7AB63;}
	.st785{fill:#E3A55E;}
	.st786{fill:#E6AB65;}
	.st787{fill:#E7AC66;}
	.st788{fill:#E5A961;}
	.st789{fill:#E5A962;}
	.st790{fill:#E5A75E;}
	.st791{fill:#E5AB66;}
	.st792{fill:#E6AC68;}
	.st793{fill:#F5E6CF;}
	.st794{fill:#F1DDBF;}
	.st795{fill:#ECB771;}
	.st796{fill:#EDBF7F;}
	.st797{fill:#ECB770;}
	.st798{fill:#F4D9B0;}
	.st799{fill:#EBB166;}
	.st800{fill:#F3DAB1;}
	.st801{fill:#F5E3C4;}
	.st802{fill:#E6B98A;}
	.st803{fill:#E0A05B;}
	.st804{fill:#E09F5B;}
	.st805{fill:#FAF4ED;}
	.st806{fill:#E2A463;}
	.st807{fill:#E8BD8E;}
	.st808{fill:#E1A25F;}
	.st809{fill:#EFD6B9;}
	.st810{fill:#E1A059;}
	.st811{fill:#EFD4B6;}
	.st812{fill:#EDCCA6;}
	.st813{fill:#F6F0E5;}
	.st814{fill:#EBCBA6;}
	.st815{fill:#EDCDA9;}
	.st816{fill:#ECB66F;}
	.st817{fill:#ECB56D;}
	.st818{fill:#EDB973;}
	.st819{fill:#EEBC78;}
	.st820{fill:#ECB874;}
	.st821{fill:#EDB771;}
	.st822{fill:#EDB66D;}
	.st823{fill:#ECB46D;}
	.st824{fill:#F5E1BD;}
	.st825{fill:#E8B97E;}
	.st826{fill:#F5E5CF;}
	.st827{fill:#E0A05E;}
	.st828{fill:#DF9E5A;}
	.st829{fill:#E0A05D;}
	.st830{fill:#F7EFE3;}
	.st831{fill:#F5F2EA;}
	.st832{fill:#EDD3B5;}
	.st833{fill:#E7AD6A;}
	.st834{fill:#E7AA64;}
	.st835{fill:#E7AB62;}
	.st836{fill:#E3A45E;}
	.st837{fill:#E3A65F;}
	.st838{fill:#E2A762;}
	.st839{fill:#E1A460;}
	.st840{fill:#F6E8D8;}
	.st841{fill:#E5A863;}
	.st842{fill:#EDB76E;}
	.st843{fill:#EFBA73;}
	.st844{fill:#FBF1DF;}
	.st845{fill:#EFBB75;}
	.st846{fill:#EBB774;}
	.st847{fill:#EAB36F;}
	.st848{fill:#EFBB76;}
	.st849{fill:#EDB774;}
	.st850{fill:#F2D4AB;}
	.st851{fill:#F6E5CB;}
	.st852{fill:#E9B774;}
	.st853{fill:#E7AC64;}
	.st854{fill:#FAF7F2;}
	.st855{fill:#FBF9F4;}
	.st856{fill:#E9B069;}
	.st857{fill:#F8EEE2;}
	.st858{fill:#F6ECDD;}
	.st859{fill:#F5DFC4;}
	.st860{fill:#F8E9D5;}
	.st861{fill:#FAF9F3;}
	.st862{fill:#FAF8F3;}
	.st863{fill:#F8EEE1;}
	.st864{fill:#F6E7CF;}
	.st865{fill:#E8AE67;}
	.st866{fill:none;stroke:#442916;stroke-miterlimit:10;}
	.st867{fill:#262D4B;}
	.st868{fill-rule:evenodd;clip-rule:evenodd;}
	.st869{fill-rule:evenodd;clip-rule:evenodd;fill:#FFDED9;}
	.st870{fill-rule:evenodd;clip-rule:evenodd;fill:#9E7555;}
	.st871{fill:#A36336;}
	.st872{fill-rule:evenodd;clip-rule:evenodd;fill:#A36336;}
	.st873{fill-rule:evenodd;clip-rule:evenodd;fill:#E9B069;}
	.st874{fill-rule:evenodd;clip-rule:evenodd;fill:#FFFFFF;}
	.st875{fill-rule:evenodd;clip-rule:evenodd;fill:#FFEFE3;}
	.st876{fill-rule:evenodd;clip-rule:evenodd;fill:#F2B8B0;}
	.st877{fill:#EBCCB5;}
	.st878{fill:#4F4641;}
	.st879{fill:#231F20;}
	.st880{fill:#FF940E;stroke:#D1D3D4;stroke-miterlimit:10;}
	.st881{fill:#FF8848;}
	.st882{fill:none;stroke:#2C2722;stroke-width:2.5;stroke-linecap:round;stroke-linejoin:round;stroke-miterlimit:10;}
	.st883{fill:#2C2722;}
	.st884{fill:#F4EDDC;}
	.st885{fill:#FFFFFF;stroke:#362E27;stroke-width:1.5385;stroke-linecap:round;stroke-linejoin:round;stroke-miterlimit:10;}
	.st886{fill:#362E27;}
	.st887{fill:#FFFFFF;stroke:#362E27;stroke-width:2.3077;stroke-linejoin:round;stroke-miterlimit:10;}
	.st888{clip-path:url(#XMLID_3_);fill:#F79C7D;}
	.st889{fill:none;stroke:#F79C7D;stroke-width:2.3077;stroke-linecap:round;stroke-linejoin:round;stroke-miterlimit:10;}
	.st890{fill:#F79C7D;}
	.st891{fill:#FF9821;}
	.st892{fill:#006368;}
	.st893{fill:#6C3510;}
	.st894{fill:#FFFFFF;stroke:#553B2C;stroke-miterlimit:10;}
	.st895{fill:#553B2C;}
	.st896{fill:none;stroke:#553B2C;stroke-miterlimit:10;}
	.st897{fill:#B88C43;}
	.st898{fill:#B2967E;}
	.st899{fill:#FFD8BD;}
	.st900{fill:#FFC3BB;}
	.st901{fill:#C7CBCC;}
	.st902{fill:#FCE5B1;}
	.st903{fill:#8D7065;}
	.st904{fill:#E66E54;}
	.st905{fill:#A3BFBF;}
	.st906{fill:#FFD2B0;}
	.st907{fill:none;}
	.st908{fill:#F9D4C1;}
	.st909{clip-path:url(#SVGID_2_);fill:#F2735A;}
	.st910{clip-path:url(#SVGID_2_);fill:#EF927F;}
	.st911{clip-path:url(#SVGID_2_);fill:#FFC2B6;}
	.st912{clip-path:url(#SVGID_2_);}
	.st913{fill:#8C3A2C;}
	.st914{fill:#502806;}
	.st915{fill-rule:evenodd;clip-rule:evenodd;fill:#91AD70;}
	.st916{fill-rule:evenodd;clip-rule:evenodd;fill:#947A6D;}
	.st917{fill-rule:evenodd;clip-rule:evenodd;fill:#D6CF4A;}
	.st918{fill-rule:evenodd;clip-rule:evenodd;fill:#86473F;}
	.st919{fill-rule:evenodd;clip-rule:evenodd;fill:#B19693;}
	.st920{fill-rule:evenodd;clip-rule:evenodd;fill:#9A5034;}
	.st921{fill-rule:evenodd;clip-rule:evenodd;fill:#563F2E;}
	.st922{fill-rule:evenodd;clip-rule:evenodd;fill:#FFB11B;}
	.st923{fill-rule:evenodd;clip-rule:evenodd;fill:#516E41;}
	.st924{fill-rule:evenodd;clip-rule:evenodd;fill:#24936E;}
	.st925{fill-rule:evenodd;clip-rule:evenodd;fill:#00896C;}
	.st926{fill-rule:evenodd;clip-rule:evenodd;fill:#268785;}
	.st927{fill-rule:evenodd;clip-rule:evenodd;fill:#33A6B8;}
	.st928{fill-rule:evenodd;clip-rule:evenodd;fill:#D05A6E;}
	.st929{fill:#001015;}
</style>
<g>
	<g>
		<g>
			<g>
				<path class="st420" d="M587.71,135.37c0-13.05-0.32-25.63-0.79-35.69c-0.79-15.25-1.57-16.98-1.57-16.98s5.97,0.47,9.75,0.47
					h22.33c28.62,0,41.19,16.04,41.19,32.08c0,23.59-22.8,35.69-44.18,35.69c-2.83,0-5.82-0.16-8.49-0.63
					c0.16,14.15,0.63,28.46,2.52,42.93c-3.93,0.63-7.23,1.57-10.53,1.57c-5.5,0-10.22-2.2-10.22-10.69V135.37z M611.3,143.23
					c18.08,0,27.67-13.36,27.67-26.57c0-12.74-8.81-25.16-27.67-25.16h-4.87c0,0-0.63,26.57-0.63,39.62v11.79
					C607.68,143.23,609.57,143.23,611.3,143.23z"/>
				<path class="st420" d="M677.34,155.34c0-31.92-3.3-40.25-3.93-40.88c2.67-0.78,5.19-1.42,7.7-1.42
					c7.23,0,12.74,3.62,12.74,10.06c0,2.36-1.1,5.82-1.1,5.82l0.63,0.16c4.4-9.91,15.25-16.04,23.74-16.04
					c6.13,0,7.71,2.67,7.71,6.13c0,3.46-0.63,7.86-1.89,11.16l-0.79,0.31c-5.03-2.52-8.96-4.4-12.58-4.4
					c-12.26,0-15.72,12.73-15.72,30.19c0,30.97,3.3,36.63,3.62,36.79c-3.93,0.63-7.7,1.57-11.01,1.57c-5.82,0-9.91-2.36-9.91-12.11
					C676.55,173.26,677.34,163.99,677.34,155.34z"/>
				<path class="st420" d="M740.23,155.18c0-35.85-3.62-40.73-3.77-40.73c2.67-0.78,5.19-1.42,7.71-1.42
					c7.08,0,13.37,3.77,13.37,10.06c0,16.67-0.79,35.54-0.79,47.17c0,7.07,0.16,16.51,7.86,16.51c3.14,0,5.97-2.2,5.97-2.2
					l0.63,0.47c0,0-3.93,9.75-17.45,9.75c-6.92,0-14.15-3.3-14.15-12.73C739.6,173.1,740.23,163.99,740.23,155.18z M737.72,89.14
					c0-5.82,4.88-10.69,10.54-10.69c5.82,0,10.69,4.87,10.69,10.69c0,5.66-4.88,10.54-10.69,10.54
					C742.59,99.68,737.72,94.8,737.72,89.14z"/>
				<path class="st420" d="M787.09,154.71c0-7.86-0.32-16.04-0.63-23.58c-0.79-15.25-3.14-16.67-3.14-16.67
					c2.67-0.78,5.19-1.42,7.71-1.42c7.23,0,12.26,3.77,12.26,8.65c0,2.04-0.63,3.93-0.63,3.93l0.63,0.16
					c3.62-8.18,16.19-13.52,27.52-13.52c20.76,0,22.96,11.16,22.96,22.64s-0.63,21.86-0.63,35.38c0,7.07,0.16,16.51,7.86,16.51
					c3.15,0,5.98-2.2,5.98-2.2l0.63,0.47c0,0-3.93,9.75-17.45,9.75c-6.92,0-14.15-3.3-14.15-12.73c0-13.52,0.47-22.96,0.47-38.99
					c0-10.85-0.32-21.23-13.84-21.23c-8.49,0-18.87,7.71-18.87,22.49c0,14.15,0.63,24.84,0.63,39.78c0,8.49-4.4,10.69-9.91,10.69
					c-3.3,0-7.39-0.78-11.16-1.57C784.41,192.76,787.09,182.85,787.09,154.71z"/>
				<path class="st420" d="M882.69,137.1c0-13.36-1.1-13.99-7.23-15.88v-6.6c6.76,0,21.7-13.21,23.74-18.4l3.62,1.26l-3.14,17.14
					h12.89c6.45,0,8.49-1.57,8.49-1.57c0.16,0.94,0.16,3.46,0.16,4.25c0,6.6-3.14,8.02-8.81,8.02c-1.73,0-12.73-0.31-12.73-0.31
					s-0.47,18.55-0.47,30.5c0,15.57,1.41,28.77,13.52,28.77c7.71,0,16.67-7.39,16.67-7.39l0.78,0.63c0,0-5.19,18.08-24.37,18.08
					c-18.4,0-23.74-12.89-23.74-30.5C882.06,154.87,882.69,143.07,882.69,137.1z"/>
			</g>
		</g>
		<g>
			<path class="st420" d="M98.75,80.74c14.31,0,35.22,5.66,35.22,14.94c0,3.46-3.3,9.43-6.29,12.58h-0.94
				c-8.02-12.42-20.28-18.71-31.92-18.71c-17.45,0-33.65,14.62-33.65,44.81c0,23.9,12.89,47.33,38.99,47.33
				c12.26,0,25-3.77,35.85-12.89l0.47,0.47c-2.99,14.15-20.28,26.26-40.41,26.26c-37.27,0-54.25-26.26-54.25-53.62
				C41.83,111.24,62.9,80.74,98.75,80.74z"/>
			<path class="st420" d="M191.67,112.19c26.42,0,39.94,18.39,39.94,37.42c0,23.43-14.47,45.91-41.51,45.91
				c-26.42,0-39.94-19.34-39.94-39.78C150.16,133.25,164.47,112.19,191.67,112.19z M191.67,188.29c13.99,0,20.76-17.93,20.76-35.85
				c0-16.51-7.39-33.02-22.49-33.02c-13.99,0-20.6,16.83-20.6,33.65C169.35,170.83,176.74,188.29,191.67,188.29z"/>
			<path class="st420" d="M244.82,229.48c-2.04,0-3.93-0.47-5.5-1.41v-0.79c9.75-3.77,14.31-10.06,14.31-70.76
				c0-27.36-1.1-31.45-7.23-33.81l-4.09-1.57v-6.6c6.6,0,10.69-1.42,10.69-9.43c0-15.41,7.86-30.66,28.77-30.66
				c10.69,0,15.25,8.65,15.25,8.65l-0.63,0.79c0,0-4.09-1.1-6.92-1.1c-9.75,0-19.18,5.5-19.18,20.13v4.25
				c0,2.04-0.47,7.39-0.47,7.39h11.32c6.45,0,8.49-1.57,8.49-1.57c0.16,0.94,0.16,3.46,0.16,4.25c0,6.6-3.14,8.02-8.81,8.02
				c-1.26,0-9.12-0.16-10.54-0.16c-0.47,6.13-0.63,12.11-0.63,17.77c0,16.04,0.47,32.39,0.47,55.03
				C270.29,217.85,258.18,229.48,244.82,229.48z M298.12,229.48c-2.04,0-3.93-0.47-5.5-1.41v-0.79
				c9.75-3.77,14.31-10.06,14.31-70.76c0-27.36-1.1-31.45-7.23-33.81l-4.09-1.57v-6.6c6.6,0,10.69-1.42,10.69-9.43
				c0-23.9,12.89-34.59,31.6-34.59c15.72,0,25.94,7.71,25.94,18.24l-0.79,0.47c-3.46-5.66-11.79-8.18-19.5-8.18
				c-8.49,0-19.97,4.56-19.97,21.86v4.25c0,2.04-0.47,7.39-0.47,7.39h11.32c6.45,0,8.49-1.57,8.49-1.57
				c0.16,0.94,0.16,3.46,0.16,4.25c0,6.6-3.14,8.02-8.81,8.02c-1.26,0-9.12-0.16-10.53-0.16c-0.47,6.13-0.63,12.11-0.63,17.77
				c0,16.04,0.47,32.39,0.47,55.03C323.59,217.85,311.49,229.48,298.12,229.48z"/>
			<path class="st420" d="M386.81,112.19c20.76,0,28.93,11.79,28.93,22.48c0,15.72-16.51,21.38-30.35,21.38
				c-9.12,0-17.29-4.4-17.29-4.4l-0.63,0.31c0,18.87,8.81,31.76,25,31.76c12.89,0,24.69-8.96,24.69-8.96l0.79,0.79
				c0,0-5.35,19.97-31.76,19.97c-21.07,0-36.64-16.51-36.64-39.62C349.54,134.2,363.85,112.19,386.81,112.19z M382.25,148.19
				c7.08,0,14.78-3.93,14.78-13.68c0-7.39-3.3-15.09-12.27-15.09c-11.16,0-17.14,19.03-17.14,25
				C367.62,145.68,375.64,148.19,382.25,148.19z"/>
			<path class="st420" d="M467.63,112.19c20.76,0,28.93,11.79,28.93,22.48c0,15.72-16.51,21.38-30.35,21.38
				c-9.12,0-17.29-4.4-17.29-4.4l-0.63,0.31c0,18.87,8.81,31.76,25,31.76c12.89,0,24.69-8.96,24.69-8.96l0.79,0.79
				c0,0-5.35,19.97-31.76,19.97c-21.07,0-36.64-16.51-36.64-39.62C430.36,134.2,444.67,112.19,467.63,112.19z M463.07,148.19
				c7.08,0,14.78-3.93,14.78-13.68c0-7.39-3.3-15.09-12.27-15.09c-11.16,0-17.14,19.03-17.14,25
				C448.44,145.68,456.46,148.19,463.07,148.19z"/>
			<path class="st420" d="M518.42,137.03c0-13.36-1.1-13.99-7.23-15.88v-6.6c6.76,0,21.7-13.21,23.74-18.4l3.62,1.26l-3.14,17.14
				h12.89c6.45,0,8.49-1.57,8.49-1.57c0.16,0.94,0.16,3.46,0.16,4.25c0,6.6-3.15,8.02-8.81,8.02c-1.73,0-12.74-0.31-12.74-0.31
				s-0.47,18.55-0.47,30.5c0,15.57,1.42,28.77,13.52,28.77c7.71,0,16.67-7.39,16.67-7.39l0.79,0.63c0,0-5.19,18.08-24.37,18.08
				c-18.4,0-23.74-12.89-23.74-30.5C517.79,154.8,518.42,143,518.42,137.03z"/>
		</g>
	</g>
</g>
</svg>
