<?xml version="1.0" encoding="utf-8"?>
<!-- Generator: Adobe Illustrator 25.2.3, SVG Export Plug-In . SVG Version: 6.00 Build 0)  -->
<svg version="1.1" id="Layer_1" xmlns="http://www.w3.org/2000/svg" xmlns:xlink="http://www.w3.org/1999/xlink" x="0px" y="0px"
	 viewBox="0 0 320 320" style="enable-background:new 0 0 320 320;" xml:space="preserve">
<style type="text/css">
	.st0{clip-path:url(#SVGID_2_);}
	.st1{fill:#FFE4D7;}
	.st2{fill:#FFD2B0;}
	.st3{fill:#F9D4C1;}
	.st4{fill:#FCE5B1;}
	.st5{fill:#8D7065;}
	.st6{fill:#B2967E;}
	.st7{fill:#FFC3BB;}
</style>
<g>
	<g>
		<defs>
			<circle id="SVGID_1_" cx="160" cy="160" r="160"/>
		</defs>
		<clipPath id="SVGID_2_">
			<use xlink:href="#SVGID_1_"  style="overflow:visible;"/>
		</clipPath>
		<g class="st0">
			<path class="st1" d="M118.5,243.4c-13.3,3.1-29.7,5-31.3,17.8c-0.1,1.1-0.1,2.1,0,3.2c0.9,11.5,3.2,22.8,6.8,33.7
				c1.5,4.6,2.7,8.4,3.4,13.1c0.9,6.6,3.7,4.1,9.6,5.7c3.7,1,7.5,2.1,11.3,2.8c7.3,1.3,14.7,2,21.7,4.3c3.5,1.1,6.7,2.7,10.2,3.4
				c1.9,0.4,8.1,2.6,9.6,2.1c0.4-0.1,0.6-0.5,0.9-0.8c2-2.4,5.3-3.2,8.3-3.8c6.1-1.2,12.5-1.1,18.4-2.4c6.3-1.4,12.3-2.9,18.7-3.4
				c7.3-0.5,12-2.6,12.9-10.4c0.8-7.1,1.4-14.3,2.3-21.5c1.2-9.3,4.6-21.9,3.1-31.1c-0.7-4.6-1.5-3.4-6.1-3.4c-4.1,0-8.4-0.4-12-2.5
				c-5.4-3-12.2-9.6-16.9-13.9c-4.8-4.4-6.6-9.3-7-15.8c-0.6-10.7,14.8-16.2,20.9-23.3c8.5-10,15.8-22.4,18.7-35.3
				c2.2-10,4.7-27.7-0.9-36.8c-1.7-2.7-4.1-4.9-6.6-7c-35.8-30.9-77-49.2-123.1-26.2c-1.7,0.8-3.4,1.8-4.3,3.4
				c-0.7,1.2-0.8,2.6-1,3.9c-1.3,11.8-1.1,23.5-1.8,35.2c-0.5,9.2-3.2,17.8-3.1,27.3c0.1,14.7,4.2,29.9,13,41.8
				c3.3,4.5,7.5,10.4,12.7,12.7c8.8,4,21.8,4.6,31.4,6.2c1.5,5.8-1.7,12.1-6.4,15.9C128.8,240.6,123.9,242.1,118.5,243.4z"/>
			<path class="st2" d="M173.1,177.9c-5.1,7.7-6.4,15.3-2.6,23c2.5,6.8,6.9,11.8,12.3,15.6c2.6-8.3,15.1-13.3,20.4-19.5
				c6.1-7.1,11.5-15.4,15.1-24.3C204.1,164.4,184,163.8,173.1,177.9z"/>
			<path class="st2" d="M123.3,198.4c1.3-6.4,0-12.8-2.6-17.9c-8.1-12.2-26.7-13.9-38.5-7c1.7,10.7,5.6,21.1,12,29.8
				c3.3,4.5,7.5,10.4,12.7,12.7c0.2,0.1,0.4,0.2,0.6,0.2c3-2,6-4.3,9.4-6.4C120.7,207.3,120.7,202.2,123.3,198.4z"/>
			<path class="st3" d="M182.6,222c-0.1-0.6-0.1-1.1-0.1-1.7c-0.1-2.2,0.5-4.2,1.5-6c-16.2,5-33.5,6.2-50.8,7.2
				c1.8,0.2,3.5,0.5,5.1,0.7c1,4-0.2,8.2-2.5,11.7C152,236.1,168.6,230.7,182.6,222z"/>
			<path class="st4" d="M54.4,239c-2.2,0-4.4,0.2-6.4,0.9c-6.2,2.3-8.5,9.6-8.6,15.6c-0.2,9.2,3.7,18,8.4,25.9
				c4.8-8.9,12.8-15.9,22.2-19.6c4.5,14.2,4.4,29.9-0.4,44.1c-1.3,4-0.9,8.1-1.4,12.2c-0.6,5.3-2.5,10.5-2.1,16
				c0.3,4.7,2.3,9.4,4.7,13.3c1.4,2.3,3,4,4.8,5.9c0.9,1,2.6,4.1,3.7,4.5c0.6,0.2,1.2,0,1.7-0.1c2.1-0.4,4.3,0.1,6.4,0.5
				c9.3,1.6,17.6-0.4,26.7-0.4c10.6,0.1,21.4,1.1,32,1.6c9,0.4,17.1-1.8,26.1-1.9c8.6,0,17.2,0.1,25.8-0.4
				c7.1-0.4,14.6,0.6,21.8,0.6c6.2,0.1,12.5,0.1,18.7,0.2c0.5,0,1,0,1.4-0.4c0.3-0.3,0.4-0.7,0.4-1.1c0.6-4.5,1.1-8.9,1.7-13.4
				s1.2-9.1,1.4-13.6c1.5-26.1-7.3-51.6-16-76.2c-3.6,9.9-2.8,20.8-3.7,31.3c-1,11.8-4.3,23.3-9.6,33.9c-11.1,0.5-22.4,2.6-33.3,4.5
				c-8,1.4-15.8,4-23.9,4.2c-6.3,0.2-12.2-2.6-18.2-4.4c-3.9-1.2-7.9-2-12-2.9c-6.1-1.3-12.3-3.1-18.5-3.8c-4.9-0.5-9-0.9-11.2-6.2
				c-3.3-7.9-3.3-15.5-4.6-23.7c-1-6.5-1.2-13.9-2.8-20.2c3,11.6,10.8,21.9,21.2,27.8c0.6,0.4,1.3,0.7,2,0.7
				c0.7,0.1,1.4-0.2,2.1-0.5c8.4-3.6,14.5-11.7,16.6-20.5c2.5-10.7-2-13.1-10.4-18.3c-7-4.3-12.5-4.5-20.4-5.4
				c-3.4-0.4-4.5-1.6-7-3.3c-1.2-0.8-1.8-1.5-3.4-1.7c-0.5-0.1-3.4,0.5-3.5,0.4c-2.7-2.2-6.3-2.8-9.7-3.4
				c-6.7-1.2-13.5-2.4-20.3-2.9C56,239.1,55.2,239,54.4,239z"/>
			<path class="st4" d="M225.3,251.3c-1.1,1.7-0.1,4-0.4,6.7c3.1-0.5,5.6,2.5,7.1,5.3c3.3,6.2,4.9,13.1,6.5,19.9
				c1.8,7.8,3.6,15.6,4.9,23.4c0.9,5.8,0.8,11.6,1.5,17.3c0.9,6.7,3.6,13.5,6.4,19.7c1.7,3.7,3.8,7.5,7.5,9.4
				c2.1,1.1,4.5,1.4,6.8,1.3c8-0.2,15.3-4.3,22.3-8.3c-4.8,0-8.5-4.4-10.5-8.8c-5-11.2-3.9-22.3-5.6-34.1c8-2.9,14.5-9.9,17.5-17.6
				c1.6-4.1,2.7-9.5-0.8-12.4c-2.3-1.9-5.6-1.7-8.6-1.8c-4.9-0.3-9.6-1.9-13.7-4.6c-3.6-2.4-6.5-5.7-9.9-8.2
				c-3.5-2.6-7.8-4.4-12-3.6c-1.1-3.4-4.7-5.5-8.3-6c-2.2-0.3-6.6,0-8.6,0.9C226.3,250.2,225.7,250.7,225.3,251.3z"/>
			<path class="st1" d="M276.1,336.6c1.9,3.3,4.7,6.6,8.5,6.9c-0.1-3.2-4.2-43.2-7.2-42.5c-3.8,0.9-6.5,2.9-9.9,4.6
				c1.3-0.6,4.9,14.4,5,15.8C273,327.1,273.1,331.3,276.1,336.6z"/>
			<path class="st1" d="M246.1,357.5c6.6-0.3,17.8,0.7,19.3,0.7c2,0.1,4-0.1,6.1-0.2c4.4-0.3,8.9-0.2,13.3,0.6
				c0.1-3.4-0.1-6.9-0.5-10.3c-5,3.3-10.9,5.2-16.9,5.4c-3.3,0.1-6.8-0.3-9.7-1.8c-4.2-2.2-4.3-5.6-6.6-9.2
				c-2.1-3.4-4.7-6.6-6.4-10.3c-1.1,8.7-2.3,17.4-3.4,26.2C241.4,357.9,243.3,357.6,246.1,357.5z"/>
			<path class="st1" d="M44.8,286.7c-5.9,10.1-10,21.4-11.3,33c-1.2,11.1-2.2,22.3-2.8,33.5c-0.1,1.3-0.1,2.7-0.2,4
				c0,0,30.1,1.2,33.6,1c1.8-0.1,13.4-1.2,14.1-0.4c-4.6-6-8.7-11.3-10.2-18.9c-1.4-7-1-14.3,0.2-21.2c1.4-7.7,3.8-15.2,4.3-23
				c0.7-11,1.6-20.8-2.4-31.4c-0.1-0.3-0.3-0.6-0.6-0.8c-0.2-0.1-0.5-0.1-0.8,0c-4.1,0.8-6.9,3.5-10.1,6c-1.5,1.2-3,2.4-4.3,3.8
				c-1,1.1-1.8,2.3-2.6,3.6c-1.5,2.3-3,4.6-4.5,6.9c-8.7,13.3-11.7,31.8-12.8,47.4"/>
			<g>
				<path class="st5" d="M30.5,360c28.7,0,57.3-0.1,86-0.1c45.4-0.1,90.9-0.1,136.3-0.2c10.5,0,20.9,0,31.4,0c2.4,0,2.4-3.7,0-3.7
					c-28.7,0-57.3,0.1-86,0.1c-45.4,0.1-90.9,0.1-136.3,0.2c-10.5,0-20.9,0-31.4,0C28.1,356.3,28.1,360,30.5,360L30.5,360z"/>
			</g>
			<path class="st6" d="M94.4,212.7c1.1-3.3,1.1-8.7-1-11.7c-1-1.4-2.4-2.5-3.5-3.9c-1.5-1.9-2.3-4.2-3.1-6.5c-4-12.8-5-26.3-6-39.7
				c-2.6,4.6-5.6,9-7.6,13.9c-3.6,9-3.7,23.6,4.2,30.2c1.4,1.1,3,2,4.3,3.2c2.1,1.7,3.7,4.1,4.6,6.7c0.9,2.7,0.9,6-0.9,8.2
				s-5.9,2.5-7.4,0c0.6,4.2,5.5,7.3,9.6,5.8C91.4,217.7,93.5,215.4,94.4,212.7z"/>
			<path class="st6" d="M208.7,184.5c2.3-4.1,4.2-8.7,5.4-13c3.7-12.8,0.6-26.7-9.1-35.5c-9.7-8.8-24.6-1.3-35.9-7.3
				c-9.7-5.2-16.6-14.9-22.2-24.1c-2.2-3.6-4.2-10.9-7.3-13.7c-4-3.5-7.7-1.7-13-3c-0.6-0.1-1.3-0.3-1.8,0c-0.5,0.2-0.8,0.7-1.1,1.2
				c-3.7,6.2-7,12.4-10.3,18.7c-4.4,8.2-5.2,18.9-2.6,27.7c0.8,2.6,1.8,5.2,1.6,8c-0.3,2.7-2.4,5.5-5.2,5.2c-1-0.1-1.9-0.6-2.8-1
				c-5.4-2.6-11.6-3.6-17.6-2.9c-1.5,0.2-3.2,0.4-4.4-0.5c-0.9-0.7-1.3-1.9-1.6-3.1c-1.2-4.7-2.5-9.3-3.7-14
				c-0.5-1.7-0.9-3.5-1.4-5.2c-4.3-16.2-4.3-27.6,4.3-42c6.7-11.3,16.4-20.6,28.1-26.5c17.4-8.8,39.3-13.4,58.8-13.9
				c17.4-0.4,35.5,6.7,51.5,13.1c5.1,2,10.2,4.3,14.5,7.8c11.1,8.9,21.3,20.7,26.9,33.9c10.6,24.7,11.6,51.8,1.2,76.9
				c-1.2,2.8-2.5,5.6-4.5,7.9c-2.4,2.7-8.3,8.2-11.9,9c0.2,2,0.4,3.9,0.6,5.9c1.7-0.5,2.9,1.6,3.4,3.3c1.3,4.3,3.5,8.2,3.4,12.7
				c-0.1,6.5-0.9,13.1-3,19.2c-1.1,3.1-2.4,6-4.2,8.7c-2.1,3.1-4.9,5.9-7.2,9.1c2.3,2.3,4.2,5,5.6,7.9c-2.1-0.3-4.2-0.7-6.3-1
				c-1.1-0.2-2.3-0.4-3.4-0.1c-1.6,0.4-2.9,1.6-4.4,2.4s-3.6,0.8-4.5-0.6c-0.3-0.6-0.3-1.2-0.5-1.8c-1.2-5.5-8.9-4.2-13-4.3
				c-3.9-0.1-8.1,0.1-11.6-1.7c-13.6-7-8-28.7,2.1-35.8c0.5-0.3,0.9-0.6,1.2-1.1c0.5-0.9,0.4-2,0.2-3c-1.2-7.1-0.4-14.1,3.5-20.1
				C207.4,186.8,208,185.7,208.7,184.5z"/>
			<path class="st7" d="M76.7,123.5C80.6,88,124,82.8,153,88c15.8,2.6,28.9,6.6,42.1,14.5c9.2,3.9,18.4,9.2,26.3,17.1
				c3.9,5.3,2.6,17.1,6.6,18.4c14.5,3.9,27.6,22.4,21,36.8c-1.3,1.3-3.9,3.9-5.3,5.3c-4.1,3.6-3.6,6.2-1,8.2c4.4-3.2,10-5,13.7-9
				c2.1-2.3,3.4-5.1,4.5-7.9c10.4-25,9.5-52.2-1.2-76.9c-5.7-13.2-15.9-24.9-26.9-33.9c-4.3-3.5-9.4-5.7-14.5-7.8
				c-16-6.4-34.1-13.5-51.5-13.1c-19.5,0.5-41.4,5-58.8,13.9c-11.7,6-21.4,15.2-28.1,26.5c-8.6,14.5-8.5,25.8-4.3,42
				c0.2,0.7,0.4,1.4,0.5,2C76.5,124,76.7,123.8,76.7,123.5z"/>
			<path class="st1" d="M224.6,141.8c0.1,0,0.2-0.1,0.3-0.1c3.8-1.4,7.1-3.8,11.1-1.9c1.3,0.6,2.5,1.5,3.6,2.5
				c7.9,7.1,10.7,20.5,7.8,30.5c-1.5,5.3-4.6,10-9.7,12.6c-6.3,3.2-12,0-18.4,1.5c4.2-9.6,6.7-18.9,6.7-29.5c0-4.7-2-9.2-2.3-13.9
				c0-0.4,0-0.8,0.2-1.1C224,142,224.3,141.9,224.6,141.8z"/>
			<g>
				<path class="st5" d="M81.8,145.5c-4.8,26.8,0.5,60.2,28.5,71.9c17.8,7.4,38.3,7.4,56.8,3.1c14-3.3,27.7-9.4,36.6-21.1
					c10-13,11-29.7,7.9-45.3c-0.5-2.3-4.1-1.4-3.6,1c3.3,16.5,1.4,34-11,46.3c-13.8,13.7-35.7,18.2-54.4,18.2
					c-19.8,0-41.3-5.7-51.4-24.2c-8.1-14.7-8.6-32.8-5.8-49C85.8,144.1,82.2,143.1,81.8,145.5L81.8,145.5z"/>
			</g>
			<g>
				<path class="st5" d="M177.4,163.6c8,0,8-12.4,0-12.4C169.5,151.2,169.4,163.6,177.4,163.6L177.4,163.6z"/>
			</g>
			<g>
				<path class="st5" d="M110.5,164.7c8,0,8-12.4,0-12.4S102.5,164.7,110.5,164.7L110.5,164.7z"/>
			</g>
			<g>
				<path class="st5" d="M143.9,188.6c2.4,0,2.4-3.7,0-3.7C141.5,184.9,141.5,188.6,143.9,188.6L143.9,188.6z"/>
			</g>
			<g>
				<path class="st5" d="M129.9,88.4c1.7,11.6,5.5,22.7,12.2,32.4c5.6,8.2,14.6,20.3,25.1,21.8c2.3,0.3,3.4-3.2,1-3.6
					c-10-1.5-19.8-14.9-24.8-23c-5.4-8.7-8.4-18.4-9.9-28.6C133.1,85,129.5,86,129.9,88.4L129.9,88.4z"/>
			</g>
			<g>
				<path class="st5" d="M136.6,87.9c3.3,5.1,5.4,10.8,8,16.3c2.7,5.7,6.3,10.3,10.7,14.8c9.8,10,23,14.9,37,13.5
					c2.4-0.2,2.4-4,0-3.7c-14.9,1.5-27.5-4.6-37.3-15.6c-7.1-8-9.5-18.3-15.2-27.1C138.5,84.1,135.2,85.9,136.6,87.9L136.6,87.9z"/>
			</g>
			<g>
				<path class="st5" d="M171.6,102.6c7.1,19.1,26.9,26,38,41.8c4,5.7,6.5,12.6,5.6,19.7c-0.9,7.4-5.8,13-8.8,19.5
					c-3.5,7.6-3.8,17.1,4.2,21.9c2.1,1.2,3.9-2,1.9-3.2c-13.2-7.9,3.4-24.8,5.8-34.3c2.4-9.4-0.8-19.1-6.5-26.7
					c-11-14.6-30.1-21.6-36.7-39.6C174.3,99.4,170.7,100.3,171.6,102.6L171.6,102.6z"/>
			</g>
			<g>
				<path class="st5" d="M201.3,196.8c-2.2,11.9,1.4,23.9,11.9,30.8c2,1.3,3.9-1.9,1.9-3.2c-9.1-5.9-12.1-16.4-10.2-26.6
					C205.3,195.5,201.7,194.5,201.3,196.8L201.3,196.8z"/>
			</g>
			<g>
				<path class="st5" d="M240.5,184.5c4.3,8.1,1.6,18.8-0.2,27.3c-1.7,7.8-5.2,23-16.1,21.1c-2.3-0.4-3.4,3.2-1,3.6
					c11.4,2,16.7-9.1,19.3-18.3c3-10.6,6.6-25.3,1.1-35.6C242.6,180.5,239.4,182.4,240.5,184.5L240.5,184.5z"/>
			</g>
			<g>
				<path class="st5" d="M222.1,196c-0.3,12-4.5,23-12.4,32.1c-1.6,1.8,1.1,4.5,2.6,2.6c8.5-9.8,13.1-21.8,13.5-34.8
					C225.9,193.6,222.1,193.6,222.1,196L222.1,196z"/>
			</g>
			<g>
				<path class="st5" d="M201.6,210.4c-12.1,7.4-14.3,22.9-4.9,33.4c1.6,1.8,4.2-0.9,2.6-2.6c-7.8-8.8-5.9-21.5,4.1-27.6
					C205.5,212.4,203.6,209.2,201.6,210.4L201.6,210.4z"/>
			</g>
			<g>
				<path class="st5" d="M199,230c3.4,7.1,9.2,13.9,17.5,15c6.5,0.8,12.7-2,16-7.7c1.2-2.1-2-4-3.2-1.9c-3,5.2-9.1,7.1-14.7,5.3
					c-5.9-1.9-9.7-7.2-12.3-12.6C201.2,226,198,227.9,199,230L199,230z"/>
			</g>
			<g>
				<path class="st5" d="M213.8,243.4c-0.6,1.3-1.2,2.7-1.8,4c-0.4,0.9-0.3,2,0.7,2.5c0.8,0.5,2.1,0.3,2.5-0.7
					c0.6-1.3,1.2-2.7,1.8-4c0.4-0.9,0.3-2-0.7-2.5C215.5,242.2,214.2,242.4,213.8,243.4L213.8,243.4z"/>
			</g>
			<g>
				<path class="st5" d="M236.6,229c0.6,8.8-1.6,17-6.6,24.4c-1.3,2,1.9,3.9,3.2,1.9c5.2-7.8,7.7-16.8,7.1-26.2
					C240.2,226.6,236.4,226.6,236.6,229L236.6,229z"/>
			</g>
			<g>
				<path class="st5" d="M237.9,248.3c9.1-9.3,19-25.9,5.1-35.9c-1.9-1.4-3.8,1.8-1.9,3.2c11.8,8.5,1.2,22.9-5.8,30.1
					C233.6,247.4,236.2,250.1,237.9,248.3L237.9,248.3z"/>
			</g>
			<g>
				<path class="st5" d="M243.1,194.2c7.7,7.3,7.9,17.8,5.2,27.3c-0.7,2.3,2.9,3.3,3.6,1c3.1-10.8,2.4-22.8-6.2-31
					C244,189.9,241.3,192.5,243.1,194.2L243.1,194.2z"/>
			</g>
			<g>
				<path class="st5" d="M123.1,87.1c-6.9,10.6-12.1,22.8-14.4,35.2c-1.2,6.3-4.1,24.7,4.9,26.9c2.3,0.6,3.3-3,1-3.6
					c-4.3-1-3.4-12.5-3.2-15.6c0.4-5.1,1.5-10,2.9-14.9c2.7-9.2,6.8-18.1,12.1-26.1C127.6,86.9,124.4,85,123.1,87.1L123.1,87.1z"/>
			</g>
			<g>
				<path class="st5" d="M95.5,105.3c-3.9,9.7-8.3,23.5-3.3,33.7c3.7,7.6,12.2,10.8,20.1,8.6c2.3-0.6,1.3-4.2-1-3.6
					c-9.8,2.7-17.1-4.6-17.4-14.2c-0.3-8,2.3-16.1,5.2-23.4C100,104,96.4,103.1,95.5,105.3L95.5,105.3z"/>
			</g>
			<g>
				<path class="st5" d="M88.5,96.2c-8.8,8.8-12.5,24.6-11.3,36.7c1,9.6,9.6,19.2,19.6,13.2c2-1.3,0.2-4.5-1.9-3.2
					c-6.2,3.8-12-1.6-13.6-7.6c-1.3-4.9-0.3-10.4,0.5-15.2c1.3-7.8,3.5-15.5,9.2-21.2C92.8,97.1,90.2,94.5,88.5,96.2L88.5,96.2z"/>
			</g>
			<g>
				<path class="st5" d="M79.1,122.8c-16.2-20.9,0.6-46.4,18.5-59c19.4-13.7,43.2-21.9,67-22.6c22.2-0.7,44.5,5.7,62.7,18.6
					c17.9,12.7,33.7,34.3,37.9,56.1c2.3,12.1,1.4,24.8-1.5,36.7c-2.7,11-7.8,29.8-19.5,34.1c-2.2,0.8-1.3,4.4,1,3.6
					c10.2-3.7,14.9-15.2,18.4-24.7c4.4-11.7,6.8-24.4,6.6-36.9c-0.5-25-14.5-49.6-33.1-65.9c-40-35.1-101.4-31.6-143-1.1
					c-19.5,14.3-35,41.6-17.7,63.8C78,127.3,80.6,124.6,79.1,122.8L79.1,122.8z"/>
			</g>
			<g>
				<path class="st5" d="M84.4,143.9c-7.2,9.7-15.3,21.4-15.9,33.9c-0.3,5.1,0.9,10.4,3.9,14.7c1.6,2.3,3.7,4.1,5.7,6
					c0.9,0.9,1.9,1.8,2.8,2.7c1.5,1.3,2.4,2.9,2.8,4.8c2,3.5-0.1,5-6.2,4.5c-0.4-2.4-3.9-1.4-3.6,1c0.7,4.5,5.7,7.1,9.8,5
					c5.9-3,4.9-10.8,1.9-15.3c-2.3-3.4-5.7-5.8-8.4-8.8c-4.4-4.9-5.6-11-4.6-17.4c1.7-10.7,8.7-20.7,15-29.3
					C89.1,143.9,85.9,142,84.4,143.9L84.4,143.9z"/>
			</g>
			<g>
				<path class="st5" d="M70.4,207.3c2.5,6.4,6.5,14.6,14.7,14c7.7-0.5,11.2-8.2,12-14.9c0.3-2.4-3.4-2.4-3.7,0
					c-0.6,5.2-3.8,12.5-10.4,11c-5.1-1.1-7.3-6.9-9-11.2C73.1,204.1,69.5,205.1,70.4,207.3L70.4,207.3z"/>
			</g>
			<g>
				<path class="st5" d="M84.7,110.2c4-12.7,19.4-16.6,30.9-19.2c15.4-3.5,29.9-3,44.9,1.8c24.7,7.9,58.3,18.4,66.2,46.3
					c0.6,2.3,4.2,1.3,3.6-1c-4-14.2-13.9-23.8-26.3-31.4c-14-8.6-31.1-14.4-46.8-18.8c-16.1-4.5-32.1-3.4-48.2,0.9
					c-11.4,3.1-24,8.1-27.9,20.4C80.4,111.5,83.9,112.5,84.7,110.2L84.7,110.2z"/>
			</g>
			<g>
				<path class="st5" d="M224.7,142.6c13.8-7.8,23.1,11.8,22.7,22.7c-0.4,12.6-11.3,23.5-24.3,19.8c-2.3-0.7-3.3,2.9-1,3.6
					c16.1,4.5,29.6-9.7,29-25.4c-0.5-13.5-12.7-32.8-28.3-23.9C220.7,140.6,222.6,143.8,224.7,142.6L224.7,142.6z"/>
			</g>
			<g>
				<path class="st5" d="M216.1,132.1c10.1,9.4,9.9,28.8,6.3,41.1c-2.8,9.4-15.5,18.8-9.7,29.2c1.2,2.1,4.4,0.2,3.2-1.9
					c-4.1-7.3,5.4-15,8.2-21.3c2.4-5.4,3.5-11.3,3.8-17.2c0.6-11.2-0.6-24.5-9.2-32.6C217,127.9,214.3,130.5,216.1,132.1
					L216.1,132.1z"/>
			</g>
			<g>
				<path class="st5" d="M137,222.8c2.7,10.5-9,17-17.5,19.2c-7.1,1.8-15.5,3.5-22.7,3.8c-2.4,0.1-2.4,3.8,0,3.7
					c5.7-0.2,11.2-1.8,16.8-2.7c5.3-0.8,10.4-1.9,15.2-4.4c7.9-4.1,14.3-11.3,11.9-20.7C140,219.5,136.4,220.5,137,222.8L137,222.8z
					"/>
			</g>
			<g>
				<path class="st5" d="M74.3,256.7c-40.7,14.7-41.1,64.8-46.7,100.2c-0.4,2.3,3.2,3.4,3.6,1c5.3-33.7,5.1-83.5,44.1-97.6
					C77.5,259.5,76.6,255.9,74.3,256.7L74.3,256.7z"/>
			</g>
			<g>
				<path class="st5" d="M180.8,216.2c-1.6,13.2,3.9,22.5,15.4,28.7c2.1,1.1,4-2.1,1.9-3.2c-10.4-5.6-15-13.6-13.5-25.5
					C184.8,213.9,181.1,213.9,180.8,216.2L180.8,216.2z"/>
			</g>
			<g>
				<path class="st5" d="M245.6,257.1c-3.2-2.6-6.7-4.7-10.5-6.1c-2.2-0.9-3.2,2.7-1,3.6c3.2,1.2,6.2,3,8.9,5.2
					C244.8,261.2,247.4,258.6,245.6,257.1L245.6,257.1z"/>
			</g>
			<g>
				<path class="st5" d="M196.8,244.1c5.5,8.1,15,9.5,24.2,8.7c2.4-0.2,2.4-3.9,0-3.7c-7.7,0.7-16.2,0.1-20.9-6.8
					C198.6,240.3,195.4,242.1,196.8,244.1L196.8,244.1z"/>
			</g>
			<g>
				<path class="st5" d="M98.6,317.6c19.8,2.1,39.2,6.3,58.1,12.7c2.3,0.8,3.3-2.8,1-3.6c-19.2-6.5-39-10.7-59.1-12.8
					C96.2,313.7,96.3,317.4,98.6,317.6L98.6,317.6z"/>
			</g>
			<g>
				<path class="st5" d="M162.9,330.2c16.4-8,36.3-8.1,54.2-10.1c2.4-0.3,2.4-4,0-3.7c-18.5,2.1-39,2.3-56.1,10.7
					C158.8,328,160.7,331.2,162.9,330.2L162.9,330.2z"/>
			</g>
			<g>
				<path class="st5" d="M217.6,316.4c6.6-20.4,9.6-41.6,8.9-63.1c-0.1-2.4-3.8-2.4-3.7,0c0.7,21.1-2.3,42-8.7,62.1
					C213.3,317.6,216.9,318.6,217.6,316.4L217.6,316.4z"/>
			</g>
			<g>
				<path class="st5" d="M68,263.6c15.4,28.7-21.8,72.9,11.1,95.2c2,1.3,3.9-1.9,1.9-3.2c-16.2-11-12.5-32.7-8.8-49
					c3.4-15,6.6-30.7-1-44.9C70.1,259.6,66.8,261.5,68,263.6L68,263.6z"/>
			</g>
			<g>
				<path class="st5" d="M83.7,259.7c6.1,17.3,7.8,35.8,4.3,53.8c-1.6,8.4-5,16-7.5,24.2c-2,6.4-2.3,12.8,1.1,18.7
					c1.2,2.1,4.4,0.2,3.2-1.9c-4.9-8.7,0.2-17.9,3.1-26.3c2.5-7.4,4.2-15.1,5-22.8c1.7-15.8-0.4-31.7-5.7-46.7
					C86.5,256.5,82.9,257.4,83.7,259.7L83.7,259.7z"/>
			</g>
			<g>
				<path class="st5" d="M93.2,248.4c-3.6,2.2-5.8,5.9-5.9,10.1c-0.1,2.4,3.6,2.4,3.7,0c0.1-2.9,1.6-5.4,4.1-6.9
					C97.1,250.4,95.3,247.2,93.2,248.4L93.2,248.4z"/>
			</g>
			<g>
				<path class="st5" d="M73.1,258c4.6,2.7,9.8,3.5,15,2.2c2.3-0.6,1.3-4.2-1-3.6c-4.2,1.1-8.4,0.4-12.1-1.8
					C72.9,253.5,71,256.8,73.1,258L73.1,258z"/>
			</g>
			<g>
				<path class="st5" d="M95.2,249.8c5.8,1.2,11.4,2.8,16.9,5c4.6,1.8,12.8,4.4,16.2,8.2c4.2,4.7,0.4,14.7-2.1,19.2
					c-2.9,5-7.1,8.8-12.2,11.4c-2.1,1.1-0.3,4.3,1.9,3.2c10.9-5.5,19.8-18.5,17.6-31.2c-1.1-6.2-7-8.3-12.1-10.8
					c-8-3.9-16.4-6.7-25.1-8.6C93.9,245.7,92.9,249.3,95.2,249.8L95.2,249.8z"/>
			</g>
			<g>
				<path class="st5" d="M88.9,260.3c13.9,4.6,24.8,19.3,24.2,34.2c-0.1,2.4,3.6,2.4,3.7,0c0.6-16.6-11.5-32.7-27-37.8
					C87.6,255.9,86.7,259.5,88.9,260.3L88.9,260.3z"/>
			</g>
			<g>
				<path class="st5" d="M114.4,293.5c-12.4-4.9-21.9-22-24.5-34.7c-0.5-2.3-4.1-1.4-3.6,1c1.8,8.8,6.2,16.4,11.3,23.6
					c4.6,6.5,8.3,10.7,15.8,13.7C115.6,298,116.6,294.4,114.4,293.5L114.4,293.5z"/>
			</g>
			<g>
				<path class="st5" d="M86.4,243.8c-6.9-4.3-14.8-5.8-22.8-6c-6.2-0.2-14.8-1.4-19.6,3.3c-10.2,10-5.4,29.6,1.3,39.8
					c1.3,2,4.5,0.1,3.2-1.9c-3.9-6-6.3-12.6-6.4-19.8c-0.1-4.9,0.6-12.5,4.8-15.8c4.2-3.3,13.3-2.2,18.5-1.9
					c6.7,0.4,13.2,1.8,19,5.4C86.5,248.3,88.4,245.1,86.4,243.8L86.4,243.8z"/>
			</g>
			<g>
				<path class="st5" d="M48.8,277.8c0.4-6.2,1.7-11.5,8-14.1c5.1-2.1,10.7-3.3,15.9-4.8c2.3-0.7,1.3-4.3-1-3.6
					c-6.6,1.9-15.4,3-20.9,7.5c-4.5,3.7-5.4,9.5-5.8,15C45,280.2,48.7,280.2,48.8,277.8L48.8,277.8z"/>
			</g>
			<g>
				<path class="st5" d="M225.8,261c3.2-1.9,6.6-3.1,10.3-3.2c2-0.1,4.4,0.2,6.1-1.2c3.9-3.3-0.7-8.2-4-9.5c-2.2-0.9-3.2,2.7-1,3.6
					c1.2,0.4,2.6,1.2,1.9,2.5c-0.5,1.1-0.5,0.6-1.5,0.8c-1.5,0.2-3.1,0.1-4.6,0.3c-3.2,0.5-6.2,1.7-9,3.4
					C221.8,259,223.7,262.2,225.8,261L225.8,261z"/>
			</g>
			<g>
				<path class="st5" d="M241.8,255.8c9.4-0.5,16,5.1,22.6,10.9c5.2,4.6,9.9,5.7,17,4.9c3.6-0.4,5.5-1.4,5.9,3.1
					c0.2,2.1,0.2,4.3,0.1,6.4c-0.6,9.3-6.9,16.9-15.7,19.8c-2.3,0.7-1.3,4.3,1,3.6c7.3-2.4,13.7-7.7,16.6-15c2-5,3.3-14.8,0.7-20
					c-0.9-1.9-2-2.3-4.1-2.3c-3.1-0.1-6.1,1.1-9.3,1c-4.9-0.2-7.6-2.2-11.1-5.2c-6.9-6.1-14.3-11.3-23.9-10.8
					C239.4,252.2,239.4,255.9,241.8,255.8L241.8,255.8z"/>
			</g>
			<g>
				<path class="st5" d="M268.5,296.3c4.7,12.5,1.5,26.2,6.1,38.8c2.8,7.5,8,13.1,16.4,11.4c-0.6-1-1.2-2.1-1.8-3.1
					c-7.6,6.2-24.8,12.6-33.2,4.9c-1.8-1.6-4.4,1-2.6,2.6c10.3,9.4,29,2.8,38.4-4.9c1.6-1.3-0.2-3.4-1.8-3.1
					c-10.9,2.2-13.6-12.9-14.3-20.7c-0.8-9.2-0.3-18.1-3.6-26.9C271.2,293.1,267.6,294.1,268.5,296.3L268.5,296.3z"/>
			</g>
			<g>
				<path class="st5" d="M226.7,259.8c7.7,17.3,13.2,33.6,14.5,52.6c1,13.5,2.5,27.2,11.9,37.6c1.6,1.8,4.2-0.9,2.6-2.6
					c-11.6-12.9-9.8-31-11.8-47c-1.9-14.9-7.9-28.7-14-42.4C228.9,255.8,225.7,257.7,226.7,259.8L226.7,259.8z"/>
			</g>
			<g>
				<path class="st5" d="M228.4,249.2c-1.9-0.2-3.9-0.1-5.8,0.4c-2.3,0.6-1.3,4.2,1,3.6c1.6-0.4,3.2-0.5,4.8-0.3
					c1,0.1,1.9-0.9,1.9-1.9C230.2,250,229.4,249.4,228.4,249.2L228.4,249.2z"/>
			</g>
			<g>
				<path class="st5" d="M243.4,357.2c0.3-10,3.8-19.5,2.8-29.6c-0.2-2.4-4-2.4-3.7,0c1,10-2.5,19.6-2.8,29.6
					C239.6,359.6,243.3,359.6,243.4,357.2L243.4,357.2z"/>
			</g>
			<g>
				<path class="st5" d="M75.5,254.6c-1.7-3.6,15.3-7.8,17.5-6.1c1.9,1.5,3.8-1.8,1.9-3.2c-4.2-3.3-12.8,0.5-17,2.2
					c-4,1.6-7.7,4.3-5.6,9C73.3,258.7,76.5,256.8,75.5,254.6L75.5,254.6z"/>
			</g>
			<g>
				<path class="st5" d="M103.4,314.5c-8.9-13-10-28.5-10.7-43.7c-0.1-2.4-3.8-2.4-3.7,0c0.8,15.9,2,32.1,11.2,45.6
					C101.5,318.3,104.8,316.4,103.4,314.5L103.4,314.5z"/>
			</g>
			<g>
				<path class="st5" d="M274.3,302.5c4.9,13.2,7.8,26.9,8.5,41c0.1,2.4,3.8,2.4,3.7,0c-0.7-14.4-3.6-28.5-8.6-42
					C277.1,299.2,273.4,300.2,274.3,302.5L274.3,302.5z"/>
			</g>
			<g>
				<path class="st5" d="M282.6,350.4c0,2.4,0,4.8,0,7.2c0,2.4,3.7,2.4,3.7,0s0-4.8,0-7.2C286.3,348,282.6,347.9,282.6,350.4
					L282.6,350.4z"/>
			</g>
			<g>
				<path class="st5" d="M234.4,254.5c-8.4,3.1,7.7,12.6,10,14.4c11.2,8.8,22.5,18.3,26.3,32.5c0.6,2.3,4.2,1.3,3.6-1
					c-2.5-9.1-7.8-16.8-14.5-23.3c-3.7-3.7-7.8-6.9-11.9-10.2c-2.1-1.7-10.1-9.8-12.5-8.9C237.6,257.3,236.6,253.7,234.4,254.5
					L234.4,254.5z"/>
			</g>
			<g>
				<path class="st5" d="M228.5,259c3.6,10.2,6.6,22.4,14.4,30.3c7.1,7.3,17.2,10.8,26.6,14.1c2.3,0.8,3.2-2.8,1-3.6
					c-8.8-3-18.3-6.3-24.9-13.1c-7.3-7.5-10.1-19-13.5-28.7C231.3,255.7,227.7,256.7,228.5,259L228.5,259z"/>
			</g>
			<g>
				<path class="st5" d="M235.5,153.9c-4.9,3-8.9,7.1-11.6,12.1c-1.1,2.1,2.1,4,3.2,1.9c2.4-4.5,5.9-8.2,10.3-10.8
					C239.5,155.9,237.6,152.7,235.5,153.9L235.5,153.9z"/>
			</g>
			<ellipse class="st3" cx="140.5" cy="162.9" rx="11.6" ry="5"/>
		</g>
	</g>
</g>
</svg>
