<?xml version="1.0" encoding="utf-8"?>
<!-- Generator: Adobe Illustrator 25.2.3, SVG Export Plug-In . SVG Version: 6.00 Build 0)  -->
<svg version="1.1" id="Layer_1" xmlns="http://www.w3.org/2000/svg" xmlns:xlink="http://www.w3.org/1999/xlink" x="0px" y="0px"
	 viewBox="0 0 320 320" style="enable-background:new 0 0 320 320;" xml:space="preserve">
<style type="text/css">
	.st0{clip-path:url(#SVGID_2_);}
	.st1{fill:#FFD8BD;}
	.st2{fill:#B2967E;}
	.st3{fill:#FFE4D7;}
	.st4{fill:#FFC3BB;}
	.st5{fill:#F9D4C1;}
	.st6{fill:#C7CBCC;}
	.st7{fill:#8D7065;}
	.st8{fill:#F9B7B2;}
	.st9{fill:#F2C3AF;}
	.st10{fill:#FCE5B1;}
	.st11{fill:#FFFFFF;}
</style>
<g>
	<g>
		<defs>
			<circle id="SVGID_1_" cx="160" cy="160" r="160"/>
		</defs>
		<clipPath id="SVGID_2_">
			<use xlink:href="#SVGID_1_"  style="overflow:visible;"/>
		</clipPath>
		<g class="st0">
			<path class="st1" d="M94.3,130.7c-3.9,6.9-3.8,15.3-4.5,23.2c-0.1,1.2-0.2,2.4-0.6,3.5c-1.4,4.2-11.9,12.7-10.3,17.5
				c-1.9-5.9-10.9-6.7-15.1-10.6c-5.7-5.2-4.6-11.5-4.5-18.7c0.1-2.2,0.1-4.4,0.2-6.6c0.1-2.2,0.1-4.4,0.6-6.5
				c0.3-1.6,0.9-3.1,1.1-4.7c0.2-1.3,0.2-2.6,0.4-3.8c1.2-7.2,7.1-11.4,12.5-15.4c6.4-4.8,10.1-8.7,14.2-15.4
				c9.5-15.8,22-34.4,38.8-43.3c8.6-4.6,21.1-2.4,30.7-1.5c12.2,1.2,24.3,3.4,36,7.2c6,2,11.8,4.3,17.4,7.1c6,2.9,8.1,6,12.7,10.3
				c10,9.4,7.8,25.9,9.1,38.4c0.9,8.2,2.5,16.4,4.9,24.3c1.5,5,4,9.7,6.9,14.1c2.1,3.3,5.6,7.5,6.5,11.3c0.4,1.9,0.2,3.9-0.1,5.9
				c-0.9,6.4-2.5,12.7-3.2,19.1c-0.9,7.8-1.7,15.8,0.7,23.4c0.8,2.7,2.1,5.3,3.4,7.9c7.1,14,18.4,26.6,23.6,41.8
				c5.3,15.4,1.3,33.7-6.8,47.3c-0.1,0.2-0.2,0.3-0.4,0.4c-0.2,0-0.4-0.2-0.5-0.3c-3.1-4-6.2-8.1-9.3-12.1c-0.4-0.6-0.9-1.2-1.6-1.3
				c-0.5-0.1-1,0-1.6,0.1c-6.2,1.3-10.9-2.2-16.5,2.2c-3,2.3-6.6,4.2-10.4,4.2c-2.9,0-5.7-1.1-8.4-2.1c-6.2-2.4-12.7-4.9-17.2-9.8
				c-3.5-3.8-8.3-1.1-12-5.3c-0.4-0.5-0.9-1.1-1.5-1.4c-0.7-0.3-1.5-0.3-2.2-0.2c-15.4,1.3-27.6,8.6-43.4,4.4
				c-16.7-4.5-18.6,13.8-30.3,19.6c-1.7,0.9-3.9,1.1-5.6,0c-2.5-1.5-2.7-4.9-3.3-7.8c-1.2-5.9-4.6-11-7.9-16c-1-1.5-2.1-3.1-3.8-3.6
				c-1.2-0.4-2.5-0.1-3.8,0.2c-2.4,0.7-4.7,1.7-7.1,2.3c-2.4,0.6-5.1,0.7-7.3-0.5c-7.8-4.2-1.5-15.8-0.2-21.7
				c2.5-10.8,8-19.5,11.4-30c4.4-13.6,2.2-31.2-0.4-45c-1.2,3.4-2.8,6.5-3.9,9.9c-3,8.9-3.9,18.9-0.4,27.6c1.4,3.6,1.9,7.7-2.5,6.9
				c-0.2,0-5.9-5.3-6.6-5.9c-6-5.4-8.7-12.5-7.5-20.6c1.1-7.6,5.1-14.4,9.6-20.6c3.3-4.6,7-9.2,8.4-14.7c1.3-5.2,0.5-10.7,1.8-15.8
				c1-4.1,3.2-7.7,5.4-11.3c3.9-6.3,7.7-12.5,11.6-18.8"/>
			<path class="st2" d="M83.8,173.4c-0.6-2.8,1.2-5.5,2.1-8.3c0.9-2.7,0.3-6.7-2.6-7.1c2.4,0.1,4.6-1.5,5.8-3.5
				c6.5-10.3,1.2-27,8.5-36c3.5-4.3,9.1-3.5,13.8-1.4c7.5,3.4,9.4,4.5,17.9,3.7c5.3-0.5,10,1.2,15.3,1.8c1,0.1,2.1,0.3,3.1,0.6
				c0.8,0.3,1.6,0.7,2.3,1.1c12.3,6.2,24.8,0.5,34,13.6c0.9,1.3,15.5,2.3,18.1,3.1c5.9,1.9,11.5,4.7,16.8,8c5,3.1,9.6,7.5,14.8,10
				c4.7,2.2,16.3,3.3,16.9,10c0.1,0.7,0,1.5-0.1,2.2c-0.6,4.4-2.2,8.3-3.1,12.2c4.3-0.8,8.4-2.5,12.6-4c1.7-3.8,3.4-7.8,3.3-12
				c0-4.1-1.7-7.9-3.3-11.7c-1.1-2.5-2.2-5.1-3.3-7.6c-0.4-0.8-0.7-1.7-1.4-2.3c-0.5-0.5-1.2-0.7-1.8-1.1
				c-9.4-5.2-6.3-30.3-7.5-39.3c-1.3-9.9-6.5-19.1-10.4-28.3c-0.6-1.4-1.2-2.7-2-3.9c-6.5-8.9-29.9-14.3-39.9-17.6
				c-11.7-3.8-23.8-6-36-7.2c-9.6-1-22.2-3.1-30.7,1.5c-16.8,9-29.3,27.5-38.8,43.3c-4.1,6.8-7.7,10.7-14.2,15.4
				c-5.4,4-11.3,8.3-12.5,15.4c-0.2,1.3-0.2,2.6-0.4,3.8c-0.3,1.6-0.8,3.1-1.1,4.7c-0.5,2.1-0.5,4.3-0.6,6.5
				c-0.1,2.2-0.1,4.4-0.2,6.6c-0.1,4.6-1.1,11.3,1.5,15.5c4.4,7,13.8,7.6,18.5,14.2c-0.9-1.3,10.5-19.1,11.4-22.3
				c0.5-1.7,0.8-3.5,1.1-5.2"/>
			<path class="st3" d="M179,250.6c-0.3,0.7-0.5,1.4-0.8,2.1c-0.6,1.6-1.1,3.2-1.4,4.9c-1.4,8.4,4.4,16.1,9.6,22
				c5,5.8,9.6,1.6,14.3,8.1c0.5,0.7,8.8,6.4,9.6,5.1c-2.8,4.4-2.2,10.2-4.1,15c-4.8,12.2-16.8,12.8-28.1,13.6c-4.7,0.3-9.3,0.7-14,1
				c-15.2,1.1-33.8-3.3-47.3-10.2c-5.3-2.7-7.5-4.4-7.2-10.4c0.1-1.3,2.5-23.5,1.4-22.8c5.7-3.5,5.4-9.7,10.1-13.4
				c0.1,0,9-7.2,7.3-7.2c4,0,7.7-3,9.2-6.8c1.2-2.9,3.5-14.7,1-17.5c-2.1-2.3-7.6-1.4-10.4-2.5c-2.9-1.1-5.7-2.7-8.3-4.4
				c-6.4-4.2-13.6-6.1-17.6-12.9c-3.4-5.8-6.9-11.8-8.3-18.4c-2.9-13.4,4.1-25,6.8-37.6c0.1-0.6,0.3-1.1,0.6-1.6
				c0.5-0.5,1.2-0.6,1.9-0.8c7-1.9,10.5-10.3,12.5-16.4c1.5-4.6,3.3-10.4,8.2-11.2c-3.6,12.6,3,27.1-3.1,38.6
				c6.5-7.2,9.9-17.2,9-26.8c-0.3-2.8-0.8-5.5-0.7-8.3c0.2-2.8,1.3-5.7,3.7-7.1c3.9-2.4,4.1-3.7,8.8-3.2c1,0.1,18.8,4.9,18.6,3.9
				c1.2,6.1,2.3,12.1,3.1,18.3c2.8,22.1,11.3,40,37.1,37.6c-1.2,14.2-5,27.9-9.8,41.4C187.2,232.4,182.5,241.1,179,250.6z"/>
			<path class="st4" d="M171.7,188.6c-2.4,6-2.4,11.9,0,17.9c2.4,3.6,4.8,8.3,9.5,10.7c3.3,1.5,6.6,2.9,9.8,4.3
				c2.4-7,5.2-14.2,5.8-21.7c0.2-2.3,0-19.4,2.5-19.7c-5,0.7-10.2,0.3-15.1-1.1c-0.4-0.1-0.9-0.3-1.4-0.2c-0.5,0.1-0.9,0.3-1.4,0.6
				C177.1,182,173.4,183.5,171.7,188.6z"/>
			<path class="st4" d="M117.2,179.7c-4.8-5.7-12.5-8.6-20.6-7c0,0.2-0.1,0.4-0.1,0.6c-2,8.2-4.5,13.8-2.6,22.8
				c1.7,7.9,6.8,14.4,11.5,20.7c0.4,0.5,0.8,1,1.4,1.2c0.7,0.2,1.5-0.2,2.2-0.6c3.4-2.1,6.3-5,8.6-8.3c3.6-5.4,5.4-12.2,4.4-18.6
				C121.2,186.2,119.6,182.6,117.2,179.7z"/>
			<path class="st3" d="M201.9,193.4c0.1,5.5,0,10.9-0.9,15.9c0.1-0.6,5.4-3.7,6.2-4.5c2.1-2.1,3.6-4.6,5-7.3
				c0.9-1.8,4-8.4,3.3-10.6c-0.8-2.4-10.8-4.6-13.5-5.5c-0.1,0-0.3-0.1-0.4-0.1c-0.4,0.1-0.5,0.7-0.5,1.1
				C201.6,186.1,201.9,189.7,201.9,193.4z"/>
			<path class="st5" d="M160.9,230.8c-4,0.9-8.2,0.9-12.2,2.3c-3.1,1.1-8.9,3.9-12.1,2.8c0.4,0.1,0.6,10.5,0.5,11.5
				c-0.7,5.8-5.9,12.6,3.3,11.5c12.6-1.5,23.8-16.8,26.4-28.2c0.1-0.5,0.1-1.3-0.4-1.5c-0.3-0.1-0.7,0-1,0.2
				C163.9,230,162.4,230.5,160.9,230.8z"/>
			<path class="st6" d="M166.8,357.4c-6.6,0.5-13.3,1.1-19.9,1c-10.2-0.3-20.6-0.8-31-0.7c-11.1,0.3-23.4-1.6-34.1,0.1
				c-0.9-8.7-0.5-17.8-0.7-26.6c0-0.9,0-1.9,0.4-2.7c0.6-1.1,1.8-1.6,2.7-2.4c1.7-1.4,2.5-3.6,3.1-5.8c1.8-5.9,2.9-12,3.4-18.2
				c0-7-0.4-13.6-1.2-20.6c-0.1-1.2-0.7-2.7-1.9-2.5c2.5,0.1,4.9,0.2,7.4,0.3c5.2,6,9.1,13.2,11.3,20.8c1.1,3.8,1.8,8,4.7,10.7
				c2.2,2.1,5.3,2.9,8.2,3.7c8.8,2.3,16.9,6.4,25.4,8.8c9.8,2.7,19.2-0.9,29-1.7c9.3-0.8,16.9-0.5,25.5-5.8c1.4-0.8,2.7-1.8,3.8-2.9
				c6.1-5.8,6.3-14.5,7.4-22.3c9.5,1.4,4.8,11,5.1,17.3c0.4,7.5,4.6,13.7,6.3,20.9c0.6,2.7,0.3,5.5,0.3,8.3c0,7.2,2,13.9,5,20.4
				c-14.3,1.1-30.1-0.4-44.7-0.8C177.3,356.6,172,356.9,166.8,357.4z"/>
			<path class="st3" d="M61,356.8c11-0.5,22.1-1.1,22.6,1.5c-1.5-8.1-1.5-18.8,0.9-26.7c2-6.7,5.1-11.5,5.5-18.9
				c0.8-12.3,0.8-23.2-0.5-35.5c-4.2,2-8.9,2.9-13.5,2.6c-1.2-0.1-2.6-0.3-3.7,0.3c-5.1,2.6-12.1,12.7-15.4,17.7
				c-11.2,17.3-17.1,36.4-17.7,57C39.2,357.7,50,357.3,61,356.8z"/>
			<path class="st3" d="M242.6,358.2c12.7,0,25.5-0.1,38.2-0.1c-4.1-19.4-7.9-48.5-21.4-64c-1.7,1.1-17.2,2.4-15-1.4
				c-2,3.5-6,5.5-10.1,5.9c-4,0.4-8-0.6-11.8-1.9c-2.8-1-5.7-2.3-7.2-4.9c-2.1,10.1-1.1,20.6,5,29.5c0.7,1.1,1.6,2.1,2,3.3
				c0.4,1.3,0.3,2.7,0.3,4c-0.3,6.5-0.5,20.5,2.9,26.2C228.7,360.1,235.4,358.2,242.6,358.2z"/>
			<g>
				<path class="st7" d="M95,164.9c-0.6,8.8-4.5,16.8-3.9,25.8c0.5,7.3,3,14.3,6.9,20.4c8.2,12.7,21.6,21.2,35.8,25.7
					c2.3,0.7,3.3-2.9,1-3.6c-13.8-4.3-26.9-12.8-34.4-25.4c-3.7-6.2-5.8-13.4-5.6-20.7c0.2-7.6,3.4-14.6,3.9-22.2
					C98.9,162.5,95.2,162.6,95,164.9L95,164.9z"/>
			</g>
			<g>
				<path class="st7" d="M88.7,118.8c-9.2,13.6-18.1,28.1-15.4,45.1c0.4,2.4,4,1.4,3.6-1c-2.5-15.9,6.5-29.7,15-42.3
					C93.3,118.7,90,116.8,88.7,118.8L88.7,118.8z"/>
			</g>
			<g>
				<path class="st7" d="M79.8,123.4c5.1-0.6,9.8-2.3,14.7-3.7c3.4-1,7.2-2,10.7-1.9c3.7,0.1,6.2,1.8,9.3,3.3
					c9.1,4.6,19.4-2.1,28,2.9c2.1,1.2,4-2,1.9-3.2c-4.5-2.6-8.8-2.4-13.8-1.8c-2.7,0.3-5.3,0.9-8,0.7c-3.9-0.2-5.5-2.2-8.5-4.1
					c-9.7-6-24.2,2.9-34.3,4C77.4,120,77.4,123.7,79.8,123.4L79.8,123.4z"/>
			</g>
			<g>
				<path class="st7" d="M146.8,123.1c2.1,3,4.4,4.4,8.1,4.4c5.1,0.1,9.8-0.2,14.8,1.6c4.9,1.8,8.1,5,12.1,8.1
					c3.8,2.9,11.5,1.6,14.2,5.5c1.4,2,4.6,0.1,3.2-1.9c-1.9-2.7-4.1-3.6-7.3-4.3c-3.7-0.8-6.2-0.9-9.2-3.5c-1.3-1.1-2.6-2.3-4-3.3
					c-3.5-2.4-7.5-4.2-11.6-5.2c-4.6-1.1-14.1,0.9-17.1-3.2C148.6,119.2,145.4,121.1,146.8,123.1L146.8,123.1z"/>
			</g>
			<g>
				<path class="st7" d="M200,142c10.4,2.2,19.8,9.4,28.8,14.9c2.1,1.2,3.9-2,1.9-3.2c-9.3-5.6-18.8-12.9-29.6-15.2
					C198.7,137.9,197.7,141.5,200,142L200,142z"/>
			</g>
			<g>
				<path class="st7" d="M79,173.8c-2.3-2.7-4-5.3-7.3-6.9c-3-1.5-7.2-2.6-7.8-6.5c-0.4-2.4-4-1.4-3.6,1c0.6,3.3,3.1,5.6,6,7
					c1.8,0.9,3.7,1.6,5.4,2.7c1.9,1.4,3.1,3.5,4.6,5.2C77.9,178.2,80.5,175.6,79,173.8L79,173.8z"/>
			</g>
			<g>
				<path class="st7" d="M62.3,159.4c-3.2-6.2,0.4-10,0-16c-0.4-6.1-2.6-10.1,0-16.3c0.9-2.2-2.3-4.1-3.2-1.9
					c-1.2,2.8-2.1,5.5-2.2,8.6c-0.1,3.4,1.2,6.4,1.4,9.8c0.1,3.3-1.5,6.2-1.5,9.5c0,3,0.9,5.6,2.3,8.2
					C60.2,163.4,63.4,161.6,62.3,159.4L62.3,159.4z"/>
			</g>
			<g>
				<path class="st7" d="M63,127.3c2.3-2.7,6.7-1.4,9.8-1.8c3.1-0.4,5.6-1.8,8-3.7c1.9-1.5-0.8-4.2-2.6-2.6c-3.4,2.8-7,2.5-11.1,2.8
					c-2.6,0.1-4.9,0.7-6.7,2.7C58.8,126.5,61.4,129.1,63,127.3L63,127.3z"/>
			</g>
			<g>
				<path class="st7" d="M85,97.9c-1.3,2.5-3,4.6-5.6,5.9c-2.1,1.1-4.6,1.4-6.5,2.9c-0.9,0.7-1.5,1.5-2.5,2.2c-1,0.8-2.1,1-3.1,1.7
					c-1.5,1-2,2-2.1,3.8c-0.1,2.4,3.6,2.4,3.7,0c0-0.5,4.2-2.6,4.9-3.2c2.1-2.1,3.6-2.5,6.2-3.6c3.6-1.6,6.4-4.3,8.2-7.8
					C89.3,97.6,86.1,95.7,85,97.9L85,97.9z"/>
			</g>
			<g>
				<path class="st7" d="M66.1,113.1c-3.6,3.5-6.2,7.8-7.7,12.6c-0.7,2.3,2.9,3.3,3.6,1c1.3-4.2,3.6-7.9,6.7-10.9
					C70.5,114.1,67.8,111.4,66.1,113.1L66.1,113.1z"/>
			</g>
			<g>
				<path class="st7" d="M87.7,100.9c3.9-12.1,8.7-21.4,17.5-30.6c8-8.3,16.4-15.4,26.9-20.4c2.2-1,0.3-4.2-1.9-3.2
					c-11.5,5.4-20.4,13.3-29.1,22.5c-8.6,9.1-13.2,18.8-17,30.7C83.3,102.2,86.9,103.2,87.7,100.9L87.7,100.9z"/>
			</g>
			<g>
				<path class="st7" d="M131.9,49.3c10.6-0.8,21.1-0.7,31.6,0.6c2.4,0.3,2.4-3.5,0-3.7c-10.5-1.2-21-1.4-31.6-0.6
					C129.5,45.7,129.5,49.4,131.9,49.3L131.9,49.3z"/>
			</g>
			<g>
				<path class="st7" d="M165.2,50.6c11.1,0.5,23.5,3.5,33.8,7.6c8.8,3.4,19.3,9,26.4,15.1c1.8,1.5,4.5-1.1,2.6-2.6
					c-7.3-6.2-17.3-11.5-26.1-15.2c-11.2-4.7-24.6-8-36.8-8.5C162.8,46.8,162.8,50.5,165.2,50.6L165.2,50.6z"/>
			</g>
			<g>
				<path class="st7" d="M134.7,236.6c11.2,0.9,21.5-2.6,31.9-6.3c2.2-0.8,1.3-4.4-1-3.6c-10,3.6-20,7-30.9,6.2
					C132.3,232.7,132.3,236.4,134.7,236.6L134.7,236.6z"/>
			</g>
			<g>
				<path class="st7" d="M112.9,168.4c8,0,8-12.4,0-12.4C104.9,156,104.9,168.4,112.9,168.4L112.9,168.4z"/>
			</g>
			<g>
				<path class="st7" d="M173.2,174.7c8,0,8-12.4,0-12.4C165.2,162.2,165.2,174.7,173.2,174.7L173.2,174.7z"/>
			</g>
			<g>
				<path class="st7" d="M135.7,207.8c2.4,0,2.4-3.7,0-3.7C133.3,204.1,133.3,207.8,135.7,207.8L135.7,207.8z"/>
			</g>
			<g>
				<path class="st7" d="M105.5,98.8c31.1-6.5,63.5-2,91.6,12.7c2.1,1.1,4-2.1,1.9-3.2c-29-15.2-62.4-19.8-94.5-13.1
					C102.2,95.7,103.2,99.3,105.5,98.8L105.5,98.8z"/>
			</g>
			<g>
				<path class="st7" d="M180.3,61.5c14.3,9,30.2,14,46.3,18.6c2.3,0.7,3.3-2.9,1-3.6c-15.8-4.5-31.4-9.4-45.4-18.2
					C180.1,57,178.2,60.3,180.3,61.5L180.3,61.5z"/>
			</g>
			<g>
				<path class="st7" d="M158.2,127.8c3.8,5.4,3.2,13.6,4,19.9c0.7,5.3,1.6,10.6,3.6,15.6c3.4,8.4,9.6,15.4,18.4,17.8
					c2.3,0.6,3.3-3,1-3.6c-11-3-16.2-13.5-18.4-23.8c-1.8-8.6-0.3-20.3-5.5-27.7C160,123.9,156.8,125.8,158.2,127.8L158.2,127.8z"/>
			</g>
			<g>
				<path class="st7" d="M168.9,136.9c1.8,14.9,4.7,39.7,20.6,46.6c2.2,1,4.1-2.3,1.9-3.2c-14.4-6.3-17.1-29.7-18.7-43.4
					C172.4,134.5,168.7,134.5,168.9,136.9L168.9,136.9z"/>
			</g>
			<g>
				<path class="st7" d="M196.6,183.2c0.6,10.9-2.8,19.5-6.8,29.4c-3.2,7.9-4.1,15.4-1.6,23.6c0.7,2.3,4.3,1.3,3.6-1
					c-3.1-10.2,0.4-18.3,4.3-27.7c3.3-7.9,4.7-15.8,4.3-24.3C200.2,180.8,196.5,180.8,196.6,183.2L196.6,183.2z"/>
			</g>
			<g>
				<path class="st7" d="M198.5,183.4c1.4,7.5,2.6,15.1,1,22.6c-1.2,5.8-4.1,11-5.8,16.6c-2.6,8-2.8,16.8,3.1,23.3
					c0.9-0.9,1.8-1.8,2.6-2.6c-1.5-1.5-3.1-3-4.6-4.5c-1.7-1.7-4.4,1-2.6,2.6c1.5,1.5,3.1,3,4.6,4.5c1.7,1.7,4.2-0.9,2.6-2.6
					c-8.3-9.3-1-21.6,2.3-31.3c3.4-9.9,2.2-19.5,0.4-29.6C201.7,180,198.1,181,198.5,183.4L198.5,183.4z"/>
			</g>
			<g>
				<path class="st7" d="M202.4,211.1c9.9-5.1,15-15.5,12.6-26.5c-0.5-2.3-4.1-1.4-3.6,1c2.1,9.4-2.6,17.9-10.9,22.3
					C198.4,208.9,200.3,212.2,202.4,211.1L202.4,211.1z"/>
			</g>
			<g>
				<path class="st7" d="M133.9,119c-12.1,12-0.1,31.5-11.3,43.4c-1.7,1.7,1,4.4,2.6,2.6c11.6-12.2-0.3-31.8,11.3-43.4
					C138.3,120,135.6,117.3,133.9,119L133.9,119z"/>
			</g>
			<g>
				<path class="st7" d="M125,120.9c-3.7,7.3-3.4,14.8-2.6,22.7c1,9.7,2.3,20.7-6.3,27.5c-1.9,1.5,0.8,4.1,2.6,2.6
					c16.3-12.8,1.5-35,9.5-50.9C129.3,120.6,126.1,118.7,125,120.9L125,120.9z"/>
			</g>
			<g>
				<path class="st7" d="M202.4,221c0.6,8.7-0.3,17-2.6,25.4c-2.1,7.6-4.9,15.1-5.4,23.1c-0.7,11.9,5.2,24,17.9,25.7
					c2.4,0.3,2.4-3.4,0-3.7c-17.9-2.3-14.7-24.5-11.1-36.6c3.3-11.3,5.7-22,4.9-33.8C206,218.6,202.3,218.6,202.4,221L202.4,221z"/>
			</g>
			<g>
				<path class="st7" d="M213.8,211.8c0,18.2-3.1,35.4-5.6,53.3c-1.8,13.1,0.1,26.4,9.7,36.2c1.7,1.7,4.3-0.9,2.6-2.6
					c-11.9-12.1-9.6-28.3-6.8-43.5c2.6-14.3,3.9-28.8,3.8-43.3C217.5,209.4,213.8,209.3,213.8,211.8L213.8,211.8z"/>
			</g>
			<g>
				<path class="st7" d="M211.1,280.3c2.3,7.4,5.7,15.2,13.4,18.4c8,3.3,12.9-1.8,20.2-4.3c2.3-0.8,1.3-4.4-1-3.6
					c-5.2,1.8-10.1,6.5-16,5.1c-7.6-1.9-10.8-9.9-12.9-16.6C213.9,277.1,210.3,278,211.1,280.3L211.1,280.3z"/>
			</g>
			<g>
				<path class="st7" d="M241.3,286.8c-1.8,0.7-4.4,1.9-6.4,1.6c-5.4-0.6-5.9-6.2-6-10c-0.1-4.6,0.7-9.3,1.2-14
					c1.2-10.3,2.9-20.6,4.8-30.8c0.4-2.3-3.2-3.4-3.6-1c-2.8,14.7-6.4,30.7-6.2,45.7c0.2,11.3,6.5,16,17.1,12
					C244.5,289.6,243.5,286,241.3,286.8L241.3,286.8z"/>
			</g>
			<g>
				<path class="st7" d="M226.7,262.7c-0.8,11.6,9.1,26.4,19.4,31.3c2.2,1,4.1-2.2,1.9-3.2c-9.2-4.4-18.3-17.8-17.6-28.1
					C230.6,260.3,226.9,260.3,226.7,262.7L226.7,262.7z"/>
			</g>
			<g>
				<path class="st7" d="M245.9,295.3c4.4,0.3,8.7,0.6,13.1,1c2.4,0.2,2.4-3.6,0-3.7c-4.4-0.3-8.7-0.6-13.1-1
					C243.5,291.4,243.5,295.1,245.9,295.3L245.9,295.3z"/>
			</g>
			<g>
				<path class="st7" d="M233.7,223.2c4.6,11.7,4.1,24.2,7,36.3c1.2,5.1,3,10.1,6,14.4c4.6,6.7,10.2,11.4,11.1,20
					c0.3,2.4,4,2.4,3.7,0c-1.4-13.4-13.3-20.8-16.8-33.5c-3.4-12.6-2.6-25.9-7.4-38.2C236.4,220,232.8,221,233.7,223.2L233.7,223.2z
					"/>
			</g>
			<g>
				<path class="st7" d="M128.8,241.4c1.4,8.5,0.9,20.3-9.7,22.2c-2.4,0.4-1.4,4,1,3.6c12.7-2.3,14-16.4,12.3-26.8
					C132,238,128.4,239,128.8,241.4L128.8,241.4z"/>
			</g>
			<g>
				<path class="st7" d="M182.5,230.5c1,7.4-3.7,13.1-6.5,19.5c-2.3,5.2-3,10.5-1.1,15.9c1.9,5.7,6.1,10.3,10.7,13.9
					c2.9,2.3,7.8,7.1,11.8,4.7c2.1-1.2,0.2-4.5-1.9-3.2c-1.3,0.8-5.4-2.8-6.3-3.5c-3-2.2-6-4.7-8.1-7.9c-3.5-5.1-4.5-11-2.3-16.9
					c2.8-7.6,8.6-13.9,7.5-22.5C185.9,228.2,182.2,228.1,182.5,230.5L182.5,230.5z"/>
			</g>
			<g>
				<path class="st7" d="M221.3,306.9c-0.8,16.9-1.4,33.8,3.1,50.2c0.6,2.3,4.2,1.3,3.6-1c-4.4-16.1-3.8-32.7-3-49.2
					C225.2,304.5,221.4,304.5,221.3,306.9L221.3,306.9z"/>
			</g>
			<g>
				<path class="st7" d="M101,287.9c1,11.5,4.2,20.1,14.8,25.9c11.3,6.1,24.6,9.4,37.3,10.8c13.5,1.5,27.3,0.7,40.5-2.5
					c4.8-1.2,8.3-2.9,10.9-7.3c3.4-5.8,5.2-12.9,7.6-19.2c0.9-2.2-2.8-3.2-3.6-1c-2.1,5.5-3.8,11.3-6.4,16.6
					c-3.1,6.3-8.7,7.2-15,8.4c-10.5,2-21.2,2.4-31.8,1.4c-10.6-1-21.1-3.5-30.9-7.5c-5-2-10.2-4.3-13.9-8.3
					c-4.5-4.8-5.2-11.1-5.8-17.4C104.5,285.5,100.7,285.5,101,287.9L101,287.9z"/>
			</g>
			<g>
				<path class="st7" d="M98.8,214.5c2.4,9.2,2.7,18.5,0.6,27.8c-1.5,6.5-4.1,12.9-3.2,19.7c1,7.9,6.8,10.1,10.8,16.2
					c4.7,7,2.5,16.2-0.2,23.5c-0.8,2.3,2.8,3.2,3.6,1c2.3-6.1,3.9-12.8,2.6-19.3c-0.6-3.1-1.9-6-3.8-8.5c-2.8-3.6-6.9-5.7-8.6-10.2
					c-3.2-8.3,2.1-18,3.3-26.3c1.2-8.4,0.6-16.7-1.5-24.9C101.8,211.2,98.2,212.2,98.8,214.5L98.8,214.5z"/>
			</g>
			<g>
				<path class="st7" d="M75.1,278.5c-6.6-21.8,11.6-39.1,13.7-59.9c1.1-10.6-1.9-21.3,0-31.8c1.8-10,7.4-18.7,13-26.9
					c1.4-2-1.9-3.9-3.2-1.9c-5.4,8-10.7,16.3-13,25.8c-2.5,10.7,0.3,21.6-0.3,32.5c-1.4,22.2-20.8,39.9-13.8,63.2
					C72.2,281.8,75.8,280.8,75.1,278.5L75.1,278.5z"/>
			</g>
			<g>
				<path class="st7" d="M73.9,280.4c2.9,0.9,5.8,1.4,8.9,0.9c4.6-0.7,8.1-4.4,12.3-0.9c6.3,5.2,8.7,16.7,10.1,24.3
					c0.4,2.4,4,1.4,3.6-1c-1.5-8.4-4.5-19-10.4-25.5c-1.8-2-4-3.5-6.7-3.5c-1.7,0-3.1,0.8-4.6,1.3c-4.3,1.6-7.5,2.2-12,0.8
					C72.5,276.1,71.6,279.7,73.9,280.4L73.9,280.4z"/>
			</g>
			<g>
				<path class="st7" d="M88.4,279.9c0.9,16.3,2.2,35.4-6.2,50.1c-1.2,2.1,2,4,3.2,1.9c8.8-15.3,7.7-35,6.8-52
					C92,277.5,88.3,277.5,88.4,279.9L88.4,279.9z"/>
			</g>
			<g>
				<path class="st7" d="M114.6,237.5c2.4,14.4,5.8,28.7-5.2,40.4c-1.6,1.8,1,4.4,2.6,2.6c12-12.9,8.8-28.1,6.1-44.1
					C117.8,234.1,114.2,235.1,114.6,237.5L114.6,237.5z"/>
			</g>
			<g>
				<path class="st7" d="M136,234.2c-1,6.3,2,19.7-7,21c-2.4,0.3-1.4,3.9,1,3.6c11.4-1.7,8.4-15.8,9.7-23.6
					C140,232.9,136.4,231.9,136,234.2L136,234.2z"/>
			</g>
			<g>
				<path class="st7" d="M99.9,154.6C87.1,176,65.9,204,83.5,229c1.4,2,4.6,0.1,3.2-1.9c-16.6-23.7,4.3-50.4,16.5-70.6
					C104.4,154.4,101.2,152.6,99.9,154.6L99.9,154.6z"/>
			</g>
			<g>
				<path class="st7" d="M85.6,157.7c-2.9,10.2-7.9,19.5-14.5,27.8c-4.1,5.2-7.6,8.8-8.3,15.7c-1.5,14.5,9.3,22.9,20.6,29.6
					c2.1,1.2,3.9-2,1.9-3.2c-11.4-6.8-25.7-19-16.3-33.7c3.6-5.5,8.4-10.2,11.8-15.9c3.7-6.1,6.5-12.5,8.4-19.4
					C89.8,156.4,86.2,155.4,85.6,157.7L85.6,157.7z"/>
			</g>
			<g>
				<path class="st7" d="M123.6,121.6c-6.9,5.4-8.1,13.8-11.7,21.3c-5,10.2-15.4,12.8-25.7,14.8c-2.4,0.5-1.4,4.1,1,3.6
					c8.9-1.8,18.7-4,24.7-11.4c6.3-7.8,6.2-19.3,14.3-25.7C128.1,122.7,125.5,120.1,123.6,121.6L123.6,121.6z"/>
			</g>
			<g>
				<path class="st7" d="M96.5,117.9c-8.3,11.5-2.2,30.2-14,39.3c-1.9,1.4,0,4.7,1.9,3.2c13.1-10.1,6.4-28.4,15.3-40.7
					C101.1,117.8,97.9,115.9,96.5,117.9L96.5,117.9z"/>
			</g>
			<g>
				<path class="st7" d="M179.8,146.5c2.5,12.1,5.5,25.2,15.6,33.4c4.4,3.6,9,4.3,14.2,6.1c9.6,3.4,11.1,13.6,10.5,22.6
					c-0.2,2.4,3.6,2.4,3.7,0c0.8-11.3-2.3-22.9-14.2-26.4c-8.1-2.4-14-5.5-18.5-13c-4.3-7.2-5.9-15.5-7.6-23.6
					C182.9,143.2,179.3,144.2,179.8,146.5L179.8,146.5z"/>
			</g>
			<g>
				<path class="st7" d="M203.5,154.2c1.4,9.7,6.2,17.9,12.6,25.1c4.4,4.9,7.7,9.5,7.8,16.4c0.1,5.9-2.1,11.3-5.4,16
					c-1.4,2,1.9,3.8,3.2,1.9c5.5-7.8,7.8-18.2,4-27.3c-2.3-5.3-6.7-8.9-10.1-13.4c-4.5-5.9-7.4-12.4-8.5-19.7
					C206.7,150.8,203.1,151.9,203.5,154.2L203.5,154.2z"/>
			</g>
			<g>
				<path class="st7" d="M248.5,170.5c-1.7,8.6-3.5,17.1-5.1,25.7c-1.2,6.2-1.9,11.9,0.9,17.8c1,2.2,4.2,0.3,3.2-1.9
					c-3.2-6.9-0.5-14.9,0.9-21.9c1.2-6.2,2.5-12.5,3.7-18.7C252.6,169.1,249,168.1,248.5,170.5L248.5,170.5z"/>
			</g>
			<g>
				<path class="st7" d="M244.6,189.6c0,10.2,1.9,20.2,5.9,29.7c3.8,8.9,9.5,16.5,14.8,24.5c6.2,9.3,11,19,11.4,30.5
					c0.4,11.5-3.9,22.1-10,31.8c-1.3,2,1.9,3.9,3.2,1.9c10.9-17.2,14.1-37.3,4.7-55.9c-4.8-9.4-11.7-17.5-16.9-26.6
					c-6.2-11-9.2-23.1-9.3-35.7C248.3,187.2,244.6,187.2,244.6,189.6L244.6,189.6z"/>
			</g>
			<g>
				<path class="st7" d="M81.4,320.5c-1.6,11.8-1.9,23.7-0.9,35.5c0.2,2.4,3.9,2.4,3.7,0c-1-11.5-0.8-23.1,0.8-34.5
					C85.3,319.2,81.7,318.1,81.4,320.5L81.4,320.5z"/>
			</g>
			<g>
				<path class="st7" d="M214,292.4c-1.3,12.1-1.9,25,6.4,34.8c1.5,1.8,4.2-0.8,2.6-2.6c-7.5-9-6.5-21.3-5.3-32.2
					C218,290,214.3,290.1,214,292.4L214,292.4z"/>
			</g>
			<g>
				<path class="st7" d="M231.6,158.5c3.7,3.1,7.7,5.5,12.3,7.1c6.1,2.2,10.8,4.7,13.1,11.2c0.8,2.3,4.4,1.3,3.6-1
					c-1.5-4.3-4.1-8-8-10.6c-2.2-1.4-4.5-2.1-6.9-3c-4.3-1.5-7.9-3.5-11.4-6.4C232.4,154.3,229.8,157,231.6,158.5L231.6,158.5z"/>
			</g>
			<g>
				<path class="st7" d="M249.1,185.6c5.3-0.8,11.2-2.5,12.7-8.3c0.6-2.3-3-3.3-3.6-1c-1.1,4.4-6.2,5.1-10,5.7
					C245.8,182.4,246.8,186,249.1,185.6L249.1,185.6z"/>
			</g>
			<g>
				<path class="st7" d="M210.3,110.3c8.1,4.5,15.4,9.9,22.1,16.2c1.7,1.7,4.4-1,2.6-2.6c-6.9-6.6-14.5-12.2-22.9-16.8
					C210.1,105.9,208.2,109.1,210.3,110.3L210.3,110.3z"/>
			</g>
			<g>
				<path class="st7" d="M230.3,73.3c13.3,17.3,19.1,39.1,15.7,60.8c-0.4,2.4,3.2,3.4,3.6,1c3.5-22.6-2.1-45.5-16.1-63.6
					C232,69.6,228.8,71.4,230.3,73.3L230.3,73.3z"/>
			</g>
			<g>
				<path class="st7" d="M250.7,144.3c8.6,7.8,11.4,19.5,7.4,30.4c-0.8,2.3,2.8,3.2,3.6,1c4.5-12,1.1-25.4-8.3-34
					C251.6,140,248.9,142.6,250.7,144.3L250.7,144.3z"/>
			</g>
			<g>
				<path class="st7" d="M260.4,177.7c-0.6,0.5-1.3,1.1-1.9,1.6c-0.8,0.6-0.7,2,0,2.6c0.8,0.8,1.9,0.6,2.6,0
					c0.6-0.5,1.3-1.1,1.9-1.6c0.8-0.6,0.7-2,0-2.6C262.3,177,261.2,177.1,260.4,177.7L260.4,177.7z"/>
			</g>
			<g>
				<path class="st7" d="M73.3,277.7c-25.3,17.5-36.9,49.9-34.4,80c0.2,2.4,3.9,2.4,3.7,0c-2.4-28.7,8.3-60.1,32.6-76.8
					C77.2,279.5,75.3,276.3,73.3,277.7L73.3,277.7z"/>
			</g>
			<g>
				<path class="st7" d="M257.1,296.3c8.2,6.5,10.6,16.8,13.4,26.4c3.3,11.2,6.2,22.5,7.1,34.2c0.2,2.4,3.9,2.4,3.7,0
					c-1-12.8-4.3-25.1-7.9-37.4c-2.8-9.5-5.7-19.4-13.7-25.8C257.9,292.2,255.2,294.8,257.1,296.3L257.1,296.3z"/>
			</g>
			<ellipse class="st5" cx="143.5" cy="170.5" rx="9.7" ry="4.6"/>
		</g>
	</g>
</g>
</svg>
