<?xml version="1.0" encoding="utf-8"?>
<!-- Generator: Adobe Illustrator 25.2.3, SVG Export Plug-In . SVG Version: 6.00 Build 0)  -->
<svg version="1.1" id="Layer_1" xmlns="http://www.w3.org/2000/svg" xmlns:xlink="http://www.w3.org/1999/xlink" x="0px" y="0px"
	 viewBox="0 0 320 320" style="enable-background:new 0 0 320 320;" xml:space="preserve">
<style type="text/css">
	.st0{clip-path:url(#SVGID_2_);}
	.st1{fill:#F9DFC4;}
	.st2{fill:#FFE4D7;}
	.st3{fill:#F9D4C1;}
	.st4{fill:#FFC3BB;}
	.st5{fill:#C7CBCC;}
	.st6{fill:#FFFFFF;}
	.st7{fill:#8D7065;}
	.st8{fill:#FFAB97;}
	.st9{fill:#89979B;}
</style>
<g>
	<g>
		<defs>
			<circle id="SVGID_1_" cx="160" cy="160" r="160"/>
		</defs>
		<clipPath id="SVGID_2_">
			<use xlink:href="#SVGID_1_"  style="overflow:visible;"/>
		</clipPath>
		<g class="st0">
			<path class="st1" d="M268.5,274.1c0,13.1-5.2,24.4-11.3,35.5c-1.6,2.8-3.1,5.8-3.7,8.9c-0.8,4.8,1,10,4.6,13.2
				c-4.6,0.2-9.4-0.5-13.4-2.8c-4-2.4-5.9-6-7.5-10.2c-1.6-4.3-0.5-7.6-0.8-12.1c-0.3-5.5-8.3-10.5-13.1-11.5
				c-5.7-1.1-8.6,1.7-14.1,0.5c-10.5-2.4-22-15.4-29.3-22.8c-9.5-9.6-35.2-16.8-46.6-7.3c-2.8,2.3-4.8,5.4-7.1,8.3
				c-4.5,5.8-9.8,11.1-15.8,15.3c-3,2.2-6.2,4.1-9.7,5.4c-2.8,1.1-7.1,0.9-9.6,2.2c-0.3,0.2-0.5,0.6-0.6,0.9
				c-0.8,2.1-2.1,3.9-3.7,5.6c-3.2,3.4-7.4,5.8-12,6.8c-4.3,0.9-8.1,1.7-12.4,0.7c2.3,0.5,5.9-8.1,6.3-9.7c1.1-3.9,0.9-8.5,0.1-12.4
				c-2,2.9-4,5.8-6.3,8.4c-2.4,2.8-5.1,5.3-7.8,7.8c-4.4,4.1-8.9,7.4-12.2,12.4c-1.7,2.6-12.2,16.7-10.9,19.5
				c-3.9-8.1-2.9-18.4,2.5-25.6c1.9-2.6,5.2-4.5,6.7-7.3c1.8-3.4,1.4-8.9,0.8-12.6c-1.1-7.1-5.6-12.2-7.1-18.8
				c-1.5-6.5-0.6-13.5,1.6-19.7c3.5-9.9,10.3-17.2,15.4-26.1c5.8-10.1,9.8-21.2,11.7-32.7c0.8-5.1-1-8.9-1.3-13.8
				c-0.4-6-0.6-11.9-1.5-17.8c-1.1-7.1-4.3-15.8-4.1-22.9c0.3-8.9,6.2-19.7,9.3-28c8-21.7,22.9-40.5,44.6-49.7
				c11.6-4.9,25-6.3,36.7-1.7c2.3,0.9,4.5,2,7,2.1c2.4,0.2,4.7-0.6,6.9-1.2c8.5-2.3,17.1-4.7,26-4.6c7.7,0.1,16.6,5.6,23.2,9.5
				c5.8,3.5,11.1,8,15.4,13.2c4.6,5.5,6.9,12.2,11,17.8c8.5,11.4,14.6,23.4,18,37.4c4,16.8,2.8,31.4,2.8,48.2
				c-2.1,11.4-6.4,23.2-6.2,34.9c0.2,11.1,6.9,22.1,11.1,32.3C265.4,257.7,268.7,265.7,268.5,274.1z"/>
			<path class="st2" d="M161.8,301.3c-3.7-1.6-7-1.7-10.7-3c0-3.4,0.2-6.7-0.4-10.1c-0.1-0.9-0.3-1.8-0.8-2.6
				c-0.5-0.8-1.2-1.4-1.9-1.9c-4.6-3.8-22.3-15.4-17.3-23.3c0.5-0.8,1.2-1.4,1.6-2.3c0.5-1,0.4-2.2,0.4-3.3
				c-0.2-5.3-0.6-10.6-1.2-15.8c-7.8-2.3-15.3-5.7-22.2-9.9c-1.9-1.2-16.5-13.1-16.1-13.9c3.2-6.8,5.3-17,5.3-24.5
				c0-8.4-2.1-17.1-6.6-24.3c-1.9-3-4.3-5.9-4.9-9.4c-0.4-2.5,0.2-5,0.8-7.5c1.8-7.8,4-16.1,10.2-21.1c-2.8,2.3-0.2,15,0.8,18.2
				c1.8,5.7,4.8,11.2,10.3,14.1c0.7,0.4,1.6,0.7,2.4,0.7c0.8-0.1,1.7-0.7,1.8-1.5c0-0.3,0-0.7-0.1-1c-1.5-6.1-2.8-13.1-2-19.4
				c0.8-6.6,2.3-13.1,5.1-19.1c0.7-1.6,10.4-14.7,10.6-14.4c1.8,4.2-1.8,13.9-1.9,18.7c-0.2,7.9,0.4,15.7,1.8,23.5
				c1.2,6.7,2.4,9.9,7.7,14.2c4.2,3.4,8.5,5,13.5,1.7c2.3,1.1,5.5-1.1,5.2-3.7c-0.3-3-3.4-5.4-4.2-8.4c-0.9-3.5-0.5-8.7-0.6-12.3
				c-0.3-11.1,2-19.6,6-29.7c-2.1,5.4,5.8,20.2,8.1,25.1c3.4,6.9,7.7,14.9,16.6,15.2c-0.5-6-6.4-11.4-6.8-18.4c-0.1-1.9,1.5-6.7,1-8
				c3.5,8.8,8.2,17.1,14,24.6c6.5,8.4,19.6,13.3,29.5,8.3c-1.2-1.3-2.8-2.3-4.5-2.7c-0.8-0.2-1.7-0.3-2.4-0.7
				c-2.3-1.3-4.9-8.8-6.1-11.2c-2.3-4.5-4-9.3-4.9-14.3c0.9,5.4,14.6,16.5,18.3,21.5c8,10.9,15.8,21.9,19.4,35.1
				c1.4,5,2,10.2,1.9,15.4c-0.1,5.7-6.3,8.4-10.7,10.8c-1.4,0.8-18.7,5-18.2,3.4c-1.4,5.2-11,12.6-15.6,15.5
				c-5.3,3.4-11.6,6.2-17.8,7.6c-0.2,0-0.4,0.1-0.6,0.2c-0.2,0.2-0.2,0.5-0.2,0.7c-0.7,8.6,1,17.4,4.7,25.1
				c-1.1,5.1-2.9,10-5.2,14.6c-1,2.1-2.2,4.1-2.8,6.4c-0.7,2.7,2.4,9.1,0.2,11.2c-1,0.9-2.4,1.1-3.7,1.6c-2.5,0.8-4.7,2.6-6.1,4.9
				C162.4,301.5,162.1,301.4,161.8,301.3z"/>
			<path class="st3" d="M175.7,246.9c-0.3-2.7-0.4-5.4-0.2-8c-14,3.8-29.1,2.9-43.9,0.7c0.6,5.1,1,10.2,1.2,15.3
				c0,1.1,0.1,2.3-0.4,3.3c-0.2,0.5-0.5,0.9-0.8,1.3C146.8,262.5,164.4,257.7,175.7,246.9z"/>
			<path class="st4" d="M127.2,197.1c-6.4-9.2-17.6-11.9-28.8-10.3c0.1,1.3,0.2,2.5,0.2,3.8c0,7.5-2.1,17.7-5.3,24.5
				c-0.4,0.8,14.2,12.7,16.1,13.9c4.1,2.5,8.4,4.8,12.9,6.6C132.2,225.2,136.4,210.3,127.2,197.1z"/>
			<path class="st4" d="M197.2,186.4c-11.2,2.4-20.2,10.5-19.1,24.4c0.4,4.6,1.7,9.1,3.8,13.1c2.8,5.3,3.9,7.1,8.7,6.4
				c6.6-1,17.4-10,19.1-16.4c-0.2,0.7,11.5-1.4,12.5-1.7c2.5-0.7,10.4-3,11-6.4c0.6-3.3-7.1-9.8-9.3-11.6
				C216.6,188.1,206.8,184.4,197.2,186.4z"/>
			<path class="st5" d="M200.1,255.2c2.9,2.3,6.4,3.9,10,4.6c2.3,0.5,4.7,0.6,6.7,1.8c2,1.2,3.3,4,1.9,6c6.4,1.7,12.7,3.7,18.9,6
				c1.1,0.4,2.2,0.9,2.7,1.9c0.3,0.7,0.3,1.4,0.2,2.1c-0.4,8.1-1.5,15.2-3.3,23c-1.8,7.7-2.8,16,1.6,23.1c4.1,6.5,11,9.1,18.4,8.3
				c-2.4-3.9-4.9-9.8-3.9-14.4c1-4.8,3.6-9.1,6.1-13.3c2.5-4.1,4.5-11.4,8.6-14c1-0.6,14.2,30.6,14.9,32.7c0.9,2.5,9,33.8,8.1,33.9
				c-9.2,0.4-18.3,0.8-27.5,1c-0.7,0-1.4,0-2.1,0.1c-5.9,0.3-11.8,0.9-17.8,0.8c-5.3-0.1-10-1.5-15.3-1.5c-12.9,0-25.7,0.2-38.6,0.5
				c-25.2,0.5-50.6,1.4-75.6,1.3c-20.8,0-41.5,0.1-62.3-0.8c-7.5-0.3-15.1-0.7-22.6-1c-1.6-0.1,5.3-29.1,6.4-31.7
				c4.7-11.2,13.8-16.7,22.4-24.8c4.3-4,8.6-8.2,10.9-13.6c0.6,3.6,1.1,8.5,0.1,12.2c-1.1,4.3-3.7,7.5-6.9,10.4
				c7,5.1,19.4-2,24.3-7.4c8.6-9.4,13.9-26,6.7-37.6c4.3-4.3,8.5-8.6,12.8-12.9c2-2.1,4.1-4.1,6.6-5.6c2.8-1.7,6-2.5,9.2-2.4
				c2,0,7.3,0.3,8.9,1.6c3.6,2.8,1.3,12.3-2.1,14.6c5.1,10.5,11.1,21.9,21.9,26.4c0.4,2.6-0.4,5.3,0.1,7.8c0.3,1.8,9.1,8.8,10.8,7
				c2.5-2.6,5.9-4.2,9.5-4.6c-2.9-9.2,2.8-20,7.4-28c0.6-1,1.3-2.1,1.4-3.3c0.1-0.8,0-1.7-0.2-2.6c-0.9-5.6-3.7-12.9-2.6-18.4
				c0.1-0.4,0.2-0.8,0.5-1.1c0.3-0.2,0.7-0.2,1.1-0.2c3.9,0,10.6,1.1,13.5,3.8c1.7,1.5,2.9,3.4,4.4,5.1
				C197.7,253.2,198.8,254.3,200.1,255.2z"/>
			<path class="st6" d="M152.2,358.8c5.8-0.3,11.7-0.7,17.6-1.4c1.6-0.2,3.2-0.3,4.7-0.4c-4.5-16.9-6.5-34.7-10.5-51.5
				C152.7,320.3,153.8,340.3,152.2,358.8z"/>
			<g>
				<path class="st7" d="M219.6,166c-1.2,17-2.7,34.3-13.1,48.6c-9.3,12.8-23,19.7-38.3,22.3c-27.5,4.7-57.6-0.3-74.3-24.8
					c-1.3-2-4.6-0.1-3.2,1.9c17.7,26,49.1,31.6,78.5,26.5c15.6-2.7,29.6-9.8,39.4-22.6c11.7-15.1,13.5-33.6,14.7-51.9
					C223.5,163.6,219.8,163.6,219.6,166L219.6,166z"/>
			</g>
			<g>
				<path class="st7" d="M121.9,182.5c8,0,8-12.4,0-12.4S113.9,182.5,121.9,182.5L121.9,182.5z"/>
			</g>
			<g>
				<path class="st7" d="M233.8,177.2c-8.5,0.4-15.9,6.2-18.1,14.5c-0.6,2.3,3,3.3,3.6,1c1.8-6.6,7.6-11.4,14.5-11.7
					C236.2,180.8,236.2,177.1,233.8,177.2L233.8,177.2z"/>
			</g>
			<g>
				<path class="st8" d="M222.4,206.1c-4.9,0.8-3.2-5.5-1.3-7.9c1-1.3,2.7-2.6,4.2-1.8c3,1.7,0.3,9.1-2.8,9.7
					C222.5,206.1,222.4,206.1,222.4,206.1z"/>
				<g>
					<path class="st7" d="M222.4,204.2c-1.5,0.2-1.5-0.4-1.2-1.8c0.3-1.4,1.1-3.5,2.5-4.1c1.6-0.7,0.9,2.1,0.7,2.9
						c-0.4,1.1-1.1,2.9-2.4,3.1c-2.4,0.4-1.4,4,1,3.6c6.2-1,8-15.4,0.4-13.5c-5.7,1.4-9.2,14.5-0.9,13.5
						C224.7,207.7,224.8,204,222.4,204.2z"/>
				</g>
			</g>
			<g>
				<path class="st7" d="M179.7,178.1c4.5-3.1,9.7-3.6,14.8-1.5c2.2,0.9,3.2-2.7,1-3.6c-5.9-2.4-12.4-1.7-17.6,1.9
					C175.9,176.2,177.7,179.4,179.7,178.1L179.7,178.1z"/>
			</g>
			<g>
				<path class="st4" d="M152,209c1.3,1.7,1.9,3.8,2.9,5.7c1,1.9,2.7,3.7,4.8,3.8c2.4,0.1,4.5-2.2,4.9-4.6s-0.2-4.9-0.8-7.2"/>
				<g>
					<path class="st7" d="M150.4,209.9c2.7,3.8,4.4,11.8,10.8,10.2c6.4-1.6,5.8-9.1,4.4-14c-0.6-2.3-4.2-1.3-3.6,1
						c0.6,2.3,2.2,10.7-2.8,9.3c-3.1-0.9-4-6-5.6-8.3C152.3,206.1,149,207.9,150.4,209.9L150.4,209.9z"/>
				</g>
			</g>
			<g>
				<path class="st7" d="M141.7,209c8.3,2.7,16.8,1.9,24.6-2.1c2.1-1.1,0.2-4.3-1.9-3.2c-6.9,3.5-14.4,4.1-21.7,1.7
					C140.4,204.6,139.4,208.2,141.7,209L141.7,209z"/>
			</g>
			<g>
				<path class="st7" d="M152.8,97.2c-6.9,18.8-13.1,44.7-0.9,62.7c1.3,2,4.6,0.1,3.2-1.9c-11.6-17.1-5.3-42,1.3-59.8
					C157.2,95.9,153.6,95,152.8,97.2L152.8,97.2z"/>
			</g>
			<g>
				<path class="st7" d="M135.5,119.6c-1.5,16.4-0.3,34.3,14,44.9c1.9,1.4,3.8-1.8,1.9-3.2c-13.1-9.7-13.5-26.9-12.2-41.7
					C139.5,117.2,135.8,117.2,135.5,119.6L135.5,119.6z"/>
			</g>
			<g>
				<path class="st7" d="M132.7,94.9c-6,12.4-10.5,28.5-10.1,42.4c0.3,11.3,5.8,22.3,16.8,26.3c2.3,0.8,3.2-2.8,1-3.6
					c-12-4.4-15-17.9-13.7-29.3c1.2-11.3,4.4-23.8,9.3-34C137,94.6,133.8,92.7,132.7,94.9L132.7,94.9z"/>
			</g>
			<g>
				<path class="st7" d="M153.5,97.2c0.6,12.5,3.8,25.6,8.2,37.3c3.5,9.4,9.5,17.7,19.5,20.6c2.3,0.7,3.3-2.9,1-3.6
					c-11.1-3.2-15.8-13.8-18.8-24c-2.9-9.9-5.6-19.9-6.1-30.2C157.1,94.9,153.4,94.8,153.5,97.2L153.5,97.2z"/>
			</g>
			<g>
				<path class="st7" d="M168.6,110.9c-0.5,16.9,1.5,34.8,14.9,46.6c1.8,1.6,4.4-1,2.6-2.6c-12.7-11.2-14.3-28.1-13.8-44
					C172.4,108.5,168.6,108.5,168.6,110.9L168.6,110.9z"/>
			</g>
			<g>
				<path class="st7" d="M169.4,112.3c3.2,10.8,8.7,20.4,14.9,29.7c2.7,4.1,5.3,8.8,9,12.1c3.6,3.2,8.1,4.5,12.7,5.7
					c2.3,0.6,3.3-3,1-3.6c-5.7-1.4-10.4-3.3-14.1-8.2c-2.7-3.7-5.2-7.6-7.7-11.4c-5.1-7.9-9.5-16.2-12.2-25.3
					C172.3,109,168.7,110,169.4,112.3L169.4,112.3z"/>
			</g>
			<g>
				<path class="st7" d="M199.9,149.3c3.9,4.5,9.2,7.4,15,8.4c2.3,0.4,3.4-3.2,1-3.6c-5.3-0.9-9.8-3.4-13.4-7.5
					C201,144.9,198.4,147.5,199.9,149.3L199.9,149.3z"/>
			</g>
			<g>
				<path class="st7" d="M192,108.2c3.1,17.5,8.4,44.3,28,50.6c2.3,0.7,3.3-2.9,1-3.6c-17.9-5.7-22.6-31.9-25.4-48
					C195.2,104.8,191.6,105.8,192,108.2L192,108.2z"/>
			</g>
			<g>
				<path class="st7" d="M211.4,216.8c6.6,0.2,12.4-2,18-5.3c4.5-2.6,9-5.2,11-10.2c0.9-2.2-2.7-3.2-3.6-1c-1.7,4.2-7.2,6.9-11,8.9
					c-4.6,2.5-9.1,4-14.4,3.8C209,213,209,216.7,211.4,216.8L211.4,216.8z"/>
			</g>
			<g>
				<path class="st7" d="M121.9,107c-9.7,14.5-19.2,37.7-9.4,54.4c1.2,2.1,4.4,0.2,3.2-1.9c-9.1-15.4,0.5-37.3,9.4-50.6
					C126.4,106.9,123.2,105,121.9,107L121.9,107z"/>
			</g>
			<g>
				<path class="st7" d="M102.1,115.4c-4.7,9.4-6.4,19.8-4.3,30.1c1.4,7.1,5.2,18,14.2,17.2c2.4-0.2,2.4-3.9,0-3.7
					c-8.6,0.7-10.9-14-11.3-20.1c-0.5-7.6,1.2-14.9,4.6-21.7C106.4,115.1,103.1,113.2,102.1,115.4L102.1,115.4z"/>
			</g>
			<g>
				<path class="st7" d="M96.3,123.6c-6.8,10.8-12,22.7-9.2,35.6c2.9,13.4,12,25.2,8.9,39.4c-2.5,11.2-9.7,20.6-12.8,31.5
					c-3.6,12.7,1.9,22.2,7.6,33.2c1.1,2.1,4.3,0.2,3.2-1.9c-3.3-6.4-7.7-12.8-8.4-20.1c-0.5-5.5,1-10.9,3.1-15.9
					c3.9-9.7,10.1-18.7,11.5-29.2c1.4-10.6-3.3-20-6.9-29.6c-2.4-6.5-4-13-2.9-19.9c1.2-7.8,5-14.7,9.1-21.3
					C100.7,123.5,97.5,121.6,96.3,123.6L96.3,123.6z"/>
			</g>
			<g>
				<path class="st7" d="M151.2,59.4c-21.9-11-46.2-1.6-63,14.2c-16.6,15.6-27.6,37-31,59.5c-1.6,10.7-1.6,21.6,0.3,32.3
					c1.3,7.5,3.8,14.7,4.3,22.3c0.6,7.6-1.1,14.9-4.2,21.8c-9.2,20.4-28.3,37.7-25,62c0.8,6.1,3.7,11.1,6.1,16.7
					c2.2,5.1,3.2,10,0.4,15.2c-1.7,3.1-4.2,5.6-6.4,8.4c-6.7,8.5-8.5,18.8-2.2,28.1c1.3,2,4.6,0.1,3.2-1.9
					c-3.6-5.5-4.7-12.3-1.8-18.3c2.2-4.7,6.2-8.1,9.1-12.3c5.5-8.1,3.5-15.6-0.4-23.9c-11.9-25.4,5.1-44.4,17-65.6
					c4.6-8.2,8.1-17.1,8.2-26.6c0-12.1-4.8-23.7-5.7-35.8c-1.6-22,4.5-44.3,16.8-62.5c15.2-22.7,44.6-44.3,72.6-30.3
					C151.5,63.7,153.4,60.5,151.2,59.4L151.2,59.4z"/>
			</g>
			<g>
				<path class="st7" d="M60.7,261.5c2,7.7,4.3,15.5,6,23.3c1.9,8.6,2.3,18.9-5.8,24.5c-1.1,0.8-1.3,3.2,0.4,3.4
					c25.2,3.5,44.1-23.4,34.8-46.6c-0.9-2.2-4.5-1.2-3.6,1c8,20.2-7.6,45.2-30.3,42c0.1,1.1,0.3,2.3,0.4,3.4
					c16.8-11.7,5.5-36.7,1.5-52C63.7,258.2,60.1,259.2,60.7,261.5L60.7,261.5z"/>
			</g>
			<g>
				<path class="st7" d="M177.6,246c5.3,0,9.8-0.2,13.6,3.7c2,2,3.5,4.1,5.8,5.8c2.6,2,5.5,3.5,8.6,4.8c3.5,1.5,9.6,2.3,11.9,5.4
					c1.4,1.9,4.6,0.1,3.2-1.9c-2.2-3-4.8-3.9-8.3-5.1c-5.2-1.7-10.3-3.6-14.5-7.2c-2.6-2.3-4-6.3-7-8c-3.5-2-9.6-1.3-13.4-1.3
					C175.2,242.2,175.2,246,177.6,246L177.6,246z"/>
			</g>
			<g>
				<path class="st7" d="M130.1,243.8c-8.2-1.3-12.7-2.8-19.4,2.5c-6.7,5.4-11.9,12.5-18.9,17.6c-1.9,1.4-0.1,4.6,1.9,3.2
					c5-3.6,9-8.2,13.4-12.4c2.5-2.5,5.2-5.3,8.3-7.2c4.3-2.6,9.1-0.8,13.7-0.1C131.4,247.7,132.4,244.2,130.1,243.8L130.1,243.8z"/>
			</g>
			<g>
				<path class="st7" d="M173.9,240c0.3,8,1.4,15.9,3.1,23.7c0.5,2.3,4.1,1.3,3.6-1c-1.7-7.5-2.7-15-3-22.7
					C177.5,237.6,173.8,237.6,173.9,240L173.9,240z"/>
			</g>
			<g>
				<path class="st7" d="M129.9,242c0.3,5.5,2,14.9-2.3,19.2c-1.7,1.7,0.9,4.3,2.6,2.6c5.4-5.3,3.8-15,3.4-21.8
					C133.5,239.7,129.8,239.6,129.9,242L129.9,242z"/>
			</g>
			<g>
				<path class="st7" d="M219,268.7c6.4,2.9,12.7,5.8,19.1,8.6c2.2,1,4.1-2.2,1.9-3.2c-6.4-2.9-12.7-5.8-19.1-8.6
					C218.7,264.5,216.8,267.7,219,268.7L219,268.7z"/>
			</g>
			<g>
				<path class="st7" d="M265.8,292.3c13.2,19.7,21.4,42.1,23.8,65.8c0.2,2.4,4,2.4,3.7,0c-2.5-24.3-10.7-47.4-24.3-67.7
					C267.7,288.4,264.5,290.3,265.8,292.3L265.8,292.3z"/>
			</g>
			<g>
				<path class="st7" d="M65.3,287.6c-0.3,7.3-11.5,15.1-16.6,19.4c-4.7,3.9-8.6,8.2-11.7,13.5c-2.9,5.1-5,10.7-6.4,16.4
					c-0.3,1.3-2.5,17.8-2.3,17.7c-2.3,0.8-1.3,4.4,1,3.6c4.1-1.4,3-10.8,3.6-14c1.4-7.9,3.6-15.7,7.8-22.5
					c4.4-7.3,10.9-11.6,16.9-17.4c4.5-4.3,11.1-9.9,11.4-16.6C69.2,285.2,65.4,285.2,65.3,287.6L65.3,287.6z"/>
			</g>
			<g>
				<path class="st9" d="M150.9,297.4c-6.2,8.4-10.4,18-12.1,28.3c-0.8,5-2.4,8.9-4.1,13.5c-1.9,5.2-2,10.8-3.8,16
					c-0.8,2.3,2.8,3.2,3.6,1c1.6-4.6,1.8-9.4,3.1-14.1c1.4-4.8,3.7-8.5,4.5-13.5c1.7-10.9,5.5-20.6,12.1-29.4
					C155.6,297.3,152.3,295.5,150.9,297.4L150.9,297.4z"/>
			</g>
			<g>
				<path class="st9" d="M173.5,294.9c5.1,20.3,9.8,40.7,14.5,61.2c0.5,2.3,4.1,1.3,3.6-1c-4.7-20.4-9.4-40.8-14.5-61.2
					C176.5,291.5,172.9,292.5,173.5,294.9L173.5,294.9z"/>
			</g>
			<g>
				<path class="st9" d="M169.7,303c0.6,0.4,3.5,2.6,1.5,3c-1.4,0.3-1.2-1.6-0.3-2.1c2-1.3,0.2-4.5-1.9-3.2
					c-1.9,1.2-2.9,3.4-2.4,5.6s2.5,3.6,4.7,3.5c2.3-0.2,4.2-1.8,4.3-4.2c0.1-2.6-2-4.5-4-5.7C169.5,298.6,167.6,301.8,169.7,303
					L169.7,303z"/>
			</g>
			<g>
				<path class="st9" d="M180.2,345.1c0.6,0,1.2,0.1,1.2,0.8c0,0.5-0.2,0.9-0.7,1c-0.9,0.1-1.7-1.1-0.8-1.8c0.8-0.6,1.2-1.6,0.7-2.5
					c-0.5-0.8-1.7-1.3-2.5-0.7c-1.9,1.4-2.8,3.8-1.7,6.1c0.9,2,3.3,3.1,5.5,2.5c2.2-0.5,3.6-2.6,3.4-4.9c-0.2-2.5-2.4-4.5-5-4.3
					c-1,0.1-1.9,0.8-1.9,1.9C178.4,344.2,179.2,345.2,180.2,345.1L180.2,345.1z"/>
			</g>
			<g>
				<path class="st9" d="M140.1,350c2.1,0,4.1,0,6.2,0c2.4,0,2.4-3.7,0-3.7c-2.1,0-4.1,0-6.2,0C137.7,346.2,137.7,350,140.1,350
					L140.1,350z"/>
			</g>
			<g>
				<path class="st9" d="M152.9,308.2c0.6,0,0.6,0,1.2,0.1c0.2,0.1,0.7,0.3,0.8,0.5c0.8,0.7,1.9,0.8,2.6,0c0.7-0.7,0.8-2,0-2.6
					c-1.3-1.1-2.9-1.8-4.7-1.7c-1,0-1.9,0.8-1.9,1.9C151,307.3,151.9,308.2,152.9,308.2L152.9,308.2z"/>
			</g>
			<g>
				<path class="st9" d="M238.2,329.1c-0.8,9.3-0.2,18.4,1.8,27.4c0.5,2.3,4.1,1.4,3.6-1c-1.9-8.8-2.4-17.5-1.7-26.4
					C242.1,326.7,238.4,326.7,238.2,329.1L238.2,329.1z"/>
			</g>
			<g>
				<path class="st9" d="M243,347.3c3.4-5.5,8.8-8.9,13.7-12.8c2.2-1.8,4.3-3.7,6.1-6c2.3-2.9,3.8-6.1,7.2-8
					c-0.9-0.7-1.8-1.4-2.7-2.1c-0.6,2-1.4,3.7-2.6,5.5c-1.4,2,1.9,3.8,3.2,1.9c1.4-2,2.3-4,3-6.4c0.4-1.6-1.3-2.9-2.7-2.1
					c-6,3.4-9,10.6-14.5,14.9c-5.1,4-10.4,7.6-13.8,13.3C238.5,347.5,241.7,349.4,243,347.3L243,347.3z"/>
			</g>
			<g>
				<path class="st9" d="M187.7,338.2c9.1,0.3,18.5,1.2,27.6,0.9c3.5-0.1,6.4-1.8,9.8-2.2c5.2-0.5,8.8,2.6,13.4,4
					c2.3,0.7,3.3-2.9,1-3.6c-3.6-1.1-6.6-3.8-10.4-4.4s-7.2,1.3-10.9,2c-9.6,1.8-20.8-0.1-30.5-0.5
					C185.3,334.4,185.3,338.1,187.7,338.2L187.7,338.2z"/>
			</g>
			<g>
				<path class="st9" d="M70,325c2.1,10.4,3.2,20.8,3.3,31.4c0,2.4,3.8,2.4,3.7,0c-0.2-10.9-1.3-21.7-3.5-32.4
					C73.1,321.6,69.5,322.6,70,325L70,325z"/>
			</g>
			<g>
				<path class="st9" d="M136.9,328.9c-11-1.8-20.7,3.4-31.5,3.9c-5.7,0.3-11.1-1.7-16.7-1.6c-5.3,0-10.5,1.2-15.6,2.3
					c-2.3,0.5-1.4,4.1,1,3.6c5.5-1.2,11.1-2.5,16.8-2.2c5,0.3,9.6,1.8,14.6,1.6c10.3-0.5,20-5.8,30.5-4
					C138.3,332.9,139.3,329.3,136.9,328.9L136.9,328.9z"/>
			</g>
			<g>
				<path class="st9" d="M123.5,331.9c0.3,8.1,0.5,16.3,0.5,24.4c0,2.4,3.7,2.4,3.7,0c0-8.1-0.2-16.3-0.5-24.4
					C127.1,329.5,123.4,329.5,123.5,331.9L123.5,331.9z"/>
			</g>
			<g>
				<path class="st9" d="M123.7,343c-3.5,1.3-7,2.6-10.5,4c-4.3,1.8-8.8,5.3-13.4,5.9c-4.4,0.6-7.4-2.4-11.5-3.5
					c-4.1-1.1-8.5-0.4-12.1-3.1c-1.9-1.4-3.8,1.8-1.9,3.2c3.8,2.8,7.8,2.3,12.2,3.2c4.1,0.9,7.5,4.2,11.8,4.4
					c3.5,0.2,6.1-1.7,9.1-3.3c5.5-3,11.5-5.2,17.4-7.3C126.9,345.8,125.9,342.2,123.7,343L123.7,343z"/>
			</g>
			<g>
				<path class="st9" d="M193.5,339c0.6,4.1,1.3,8.2,1.9,12.3c0.1,0.6,0.7,1.2,1.3,1.3c4.2,0.7,8.4,1.5,12.6,2.2
					c3.2,0.6,7.3,2,10.7,1.6c1.8-0.2,3.2-1.4,4.7-2.1c4.7-2.2,9.6-2.7,14.6-2.1c2.4,0.3,2.4-3.5,0-3.7c-3.5-0.4-7-0.4-10.4,0.4
					c-5.2,1.2-8.3,3.8-14,3.2c-4.1-0.5-9.9-1-13.8-2.4c-3.9-1.4-3.5-7.8-4.1-11.6C196.8,335.7,193.2,336.7,193.5,339L193.5,339z"/>
			</g>
			<g>
				<path class="st9" d="M196.3,352.3c0.4,1.3,0.4,2.7,0.3,4.1c-0.1,1,0.9,1.9,1.9,1.9c1.1,0,1.8-0.9,1.9-1.9c0.2-1.7,0-3.4-0.5-5.1
					C199.2,349,195.6,350,196.3,352.3L196.3,352.3z"/>
			</g>
			<g>
				<path class="st7" d="M176,289.9c3.2-5.4,24.3,20,25.9,22.2c0.7,1,2,1.3,2.9,0.4c5-5.3,9.4-10.5,10.5-17.9
					c1.5-10.1,2.1-19.2,6.1-28.7c0.9-2.2-2.7-3.2-3.6-1c-2.9,7-4.7,14.2-5.5,21.7c-0.4,3.8-0.3,7.8-1.6,11.4
					c-1.7,4.7-5.2,8.3-8.5,11.8c1,0.1,2,0.3,2.9,0.4c-3.6-5.3-25.5-33.6-32.3-22.2C171.6,290,174.8,291.9,176,289.9L176,289.9z"/>
			</g>
			<g>
				<path class="st7" d="M149.4,290.4c-5.9,0.1-10,4.4-13.9,8.5c-4.9,5.2-9,11.1-12.3,17.4c0.8-0.2,1.7-0.4,2.5-0.7
					c-8.5-5.4-10.4-15.8-14-24.5c-3.8-9.3-8.4-18.1-13.8-26.6c-1.3-2-4.5-0.2-3.2,1.9c6.7,10.6,12.1,21.7,16.4,33.5
					c2.7,7.5,5.7,14.5,12.7,18.9c0.8,0.5,2.1,0.2,2.5-0.7c2.5-4.8,5.4-9.3,8.9-13.5c3.4-4.1,8.3-10.5,14.1-10.6
					C151.8,294.1,151.8,290.3,149.4,290.4L149.4,290.4z"/>
			</g>
			<g>
				<path class="st7" d="M28.9,360c29.7,0,59.3-0.1,89-0.1c46.9,0,93.7-0.1,140.6-0.1c10.9,0,21.8,0,32.7,0c2.4,0,2.4-3.7,0-3.7
					c-29.7,0-59.3,0.1-89,0.1c-46.9,0-93.7,0.1-140.6,0.1c-10.9,0-21.8,0-32.7,0C26.5,356.3,26.5,360,28.9,360L28.9,360z"/>
			</g>
			<g>
				<path class="st7" d="M124,254.3c2.4,8,6.2,15.3,11.6,21.6c2.6,3,5.5,5.7,8.6,8.1c2.1,1.6,4.5,2.4,5,5.3c0.4,2.3-0.7,5.9-1,8.3
					s3.4,2.4,3.7,0c0.4-3.3,2.2-8.5,0.6-11.7c-1.4-2.9-6-4.6-8.3-6.6c-8.1-6.9-13.7-15.9-16.7-26C126.9,251,123.3,251.9,124,254.3
					L124,254.3z"/>
			</g>
			<g>
				<path class="st7" d="M179.9,256.1c-0.2,9.3-4.7,17.2-8.8,25.2c-3.3,6.3-1.9,9.5,0.2,16.2c0.7,2.3,4.3,1.3,3.6-1
					c-1.5-4.9-2.6-8.3-0.6-13.4c1.4-3.3,3.5-6.4,5-9.7c2.6-5.6,4.2-11.2,4.4-17.4C183.7,253.7,180,253.7,179.9,256.1L179.9,256.1z"
					/>
			</g>
			<g>
				<path class="st7" d="M173.3,292.8c-3.1,2.4-6.1,3.5-9.6,5.1c-0.8,0.4-1.5,0.3-2.1,1.2c-0.6,1-0.4,2.5-0.3,3.6
					c0.4,5.9,1.9,11.8,3.1,17.6c2.6,12.6,5.3,25.5,9.2,37.8c0.7,2.3,4.3,1.3,3.6-1c-3.5-10.9-5.9-22.2-8.3-33.4
					c-1.3-6-2.6-12-3.5-18.1c-0.2-1.5-0.7-4.1-0.1-4.6c0.3-0.3,4.2-1.3,5-1.7c2.1-1.1,3.9-2.4,5.7-3.8
					C177.8,294,175.2,291.4,173.3,292.8L173.3,292.8z"/>
			</g>
			<g>
				<path class="st7" d="M153,299.5c2.6,1.4,5.3,2.5,8.1,3.6c-0.5-0.6-0.9-1.2-1.4-1.8c-1.2,10.8-6.5,20.4-7.6,31.1
					c-0.6,5.5-2.4,10.6-3.2,16c-0.4,2.5-1.2,7.4,0.3,9.6c1.4,2,4.6,0.1,3.2-1.9c-1-1.5,0.1-7.4,0.4-8.7c0.4-2,1.2-3.9,1.7-5.9
					c1.2-4.5,1-9.2,2-13.7c1.9-9.1,5.9-17.1,6.9-26.5c0.1-0.9-0.7-1.5-1.4-1.8c-2.5-0.9-4.9-2-7.2-3.2
					C152.8,295.2,150.9,298.4,153,299.5L153,299.5z"/>
			</g>
			<g>
				<path class="st7" d="M157.3,63.5c21-10.5,46.6-2.5,62.8,13.2c17.2,16.6,26.1,40.4,32.4,63c3.7,13.5,5.9,27.4,3.4,41.3
					c-2,11-6.2,21.6-7.5,32.7c-1.3,10.6,0.9,19.9,6.7,28.8c7.3,11.3,13.4,21.3,12.1,35.4c-0.7,7.1-2.5,14.4-6,20.7
					c-2.8,5.1-6.3,9.9-8.5,15.4c-3.4,8.4-1.7,17,6.8,21.3c2.1,1.1,4-2.1,1.9-3.2c-15.2-7.7-0.5-24.3,4.3-34
					c4.4-9.1,6.3-20.5,5.1-30.5c-1.5-12.1-8.9-20.2-14.6-30.4c-6.9-12.4-4.3-25.6-0.8-38.6c3.3-12.4,6.2-24.2,5.1-37.2
					c-1-12.1-4.4-23.9-8.3-35.4c-7-20.9-16.8-42.4-34.5-56.5c-17.3-13.8-41.9-19.5-62.3-9.3C153.3,61.4,155.1,64.6,157.3,63.5
					L157.3,63.5z"/>
			</g>
			<g>
				<path class="st7" d="M199.9,124.3c11.4,19.7,29.7,36.1,35.3,58.9c3.3,13.4-0.4,23.9-5.7,36.1c-3.3,7.8-5.8,16.1-3.4,24.6
					c2.8,9.7,8.5,18,10.9,28c1.8,7.3,1.9,13.8,0.3,21.2c-1.1,5-2.6,9.9-3.1,15c-0.8,7.6,0.5,15.9,6.6,21.1c6.6,5.6,16,5.7,24.1,7.4
					c2.3,0.5,3.3-3.1,1-3.6c-9.6-2-22.8-1.8-26.9-12.8c-4-10.8,1.9-22.3,3.2-33c1.1-8.9-1.5-18.4-4.6-26.7
					c-3.9-10.4-10.6-18.4-7.9-30.2c2.3-9.9,8.5-18.5,10.2-28.6c1.4-8.6,0-17.4-2.9-25.6c-7.2-20.2-23.2-35.4-33.8-53.7
					C201.9,120.3,198.7,122.2,199.9,124.3L199.9,124.3z"/>
			</g>
			<ellipse class="st3" cx="153" cy="183.4" rx="9.8" ry="4.4"/>
		</g>
	</g>
</g>
</svg>
