<?xml version="1.0" encoding="utf-8"?>
<!-- Generator: Adobe Illustrator 25.2.3, SVG Export Plug-In . SVG Version: 6.00 Build 0)  -->
<svg version="1.1" id="Layer_1" xmlns="http://www.w3.org/2000/svg" xmlns:xlink="http://www.w3.org/1999/xlink" x="0px" y="0px"
	 viewBox="0 0 320 320" style="enable-background:new 0 0 320 320;" xml:space="preserve">
<style type="text/css">
	.st0{clip-path:url(#SVGID_2_);}
	.st1{fill:#B2967E;}
	.st2{fill:#FFE4D7;}
	.st3{fill:#FFD2B0;}
	.st4{fill:#F9D4C1;}
	.st5{fill:#FFFFFF;}
	.st6{fill:#8D7065;}
	.st7{fill:#E66E54;}
	.st8{fill:#FCE5B1;}
	.st9{fill:#A3BFBF;}
</style>
<g>
	<g>
		<defs>
			<circle id="SVGID_1_" cx="160" cy="160" r="160"/>
		</defs>
		<clipPath id="SVGID_2_">
			<use xlink:href="#SVGID_1_"  style="overflow:visible;"/>
		</clipPath>
		<g class="st0">
			<path class="st1" d="M191,235.8c2.4-0.5,4.5,1.4,6.7,2.3c2.3,0.9,5.8-0.6,5-2.9c3.7,2.6,8.4,3.5,12.8,2.6
				c-1.7-0.5-2.3-2.8-1.7-4.5s2.1-2.9,3.4-4.1c8.1-7.5,12.6-18,16.8-28.1c5.5,11.1,3.3,25.5-5.2,34.5c7.2,2.7,15.6,0.3,21.5-4.6
				c6.1-4.9,9.2-11.5,13-18.1c0.6,2.3,0.5,4.9,0.6,7.3c0,0.2,0,0.5,0.1,0.7c0.5,1,2,0.5,2.9-0.2c4.6-3.9,7.2-9.7,8-15.6
				c1.5-10.6-1.3-23.5-6.3-32.9c-5.3-9.8-2.8-21.6-4.8-32.2c-3.3-17.3-12.3-33.1-21.7-47.8c-4.2-6.6-11.8-10-17.1-15.9
				c-3.8-4.2-6.8-6.4-12.3-8.6c-5.8-2.3-12-5.6-18.1-7c-4.6-1.1-10-0.5-14.8-0.5c-3.8-0.1-7.9-0.5-11.7-0.2c-1.7,0.2-5.6,2.2-6.8,2
				c-0.5-0.1-1-0.5-1.4-0.8c-3.7-3-5.6-4.9-10.1-5.6c-4-0.6-8.5-0.8-12.6-0.8c-19.7-0.1-40.5,16.3-50.2,33
				c-6.6,11.3-6.5,23.3-10.3,35.3c-2.2,7.1-4.5,14.9-8.4,21.2c-8.8,14.5-22.2,29.8-19.8,48.2c0.8,5.9,4.2,11.7,9.8,13.8
				c-4.4-15.4,2.5-31.5,9.2-46.1c0,13.1-0.1,26.2-0.1,39.3c0,7.1-0.9,13.4,3.6,19.5c4,5.4,10.7,9.1,17.5,8.8
				c-9.7-9.6-14.4-23.9-12.5-37.4c5.3,5.6,10.6,11.3,14.2,18.1c4.5,8.5,6,20.1,2.1,29.1c6.3-4,11.5-9.6,14.9-16.1
				c3.1,5.6,9.2,9.4,15.7,9.8c0.2,1.6-0.1,3.2-0.8,4.7c5.5,0.4,11.1-2.9,13.2-8c3,2.2,5.9,2.1,9.2,2.9c3.9,0.9,7.9,2.9,11.6,4.3
				c9.8,3.5,20.3,6.8,30.5,3.2C188.4,237.7,189.3,236.2,191,235.8z"/>
			<path class="st2" d="M159.7,328.1c19.2,1,44.2-15.8,48.1-34.7c0.9-4.4,2-12.8,1.1-17c-1.2-5.6,0.2-4-6-7.4
				c-2.8-1.5-5.9-2.6-8.8-4c-12.9-5.8-10.6-19.5-11.4-31.7c-0.5-7.9,7.2-6.5,12.3-8.9c6.2-2.9,11.9-6.9,16.9-11.4
				c5.3-4.7,9.2-9.9,9.7-17.1c4.7,0.5,8.8-3.2,11.9-6.8c0.8-0.9,1.7-2,1.9-3.2c0.1-0.8-0.1-1.7-0.2-2.5c-0.9-3.8-1.7-7.7-2.6-11.5
				c-0.4-1.7-0.8-3.5-1.9-4.8c-1.1-1.4-3-2.2-4.6-1.5c0-2.3,0.9-7.3-0.4-9.3s-3.4-1.6-5.7-2.2c-6.9-1.7-10.9-6.1-14.4-13.2
				c-2.8-5.7-5.9-11.3-8.1-17.2c-1.7-4.4-3-9.1-5.8-13c-2.7-3.9-7.2-6.9-12-6.4c6.1,14.6,7.4,31.1,3.8,46.4
				c-0.7,2.8-1.5,5.7-3.3,8.1s-4.4,4.1-7.4,4.1c6-19.8,1.2-42.5-12.3-58.2c0.1,8.8-0.7,17.5-2.2,26.2c-1.5,8.6-4.6,18-12.4,21.9
				c0.8-1.5,1.3-3.2,1.3-4.9c-2.7,2.9-6.3,4.9-10.1,5.8c5.9-1.4,9.1-15.7,10-20.5c1.5-8.3,0.9-16.4,0.4-24.8c-2.2,5-4.5,10-7.2,14.8
				c-1.8,3.2-4.6,5.7-6.3,8.9c-1.3,2.4-7.7,29.6-5.6,30c-3.7-0.7-6.4-4.1-7.6-7.7c-1.2-3.6-1-7.5-0.8-11.2c-0.1,3-7.5,7.5-9.8,8.8
				c-5,2.8-12.9,3.1-16.4,8.2c-1.6,2.3-1.9,5.3-2.1,8.1c-0.6,6.9-1.2,13.9-1.8,20.8c-0.1,0.9-0.1,2,0.3,2.8c1.1,0.3,7.6-0.8,8.1,0.5
				c3.8,9.8,10.1,18.5,18.4,25c5.9,4.6,18.9,14,26.6,13.5c0.5,0-4.1,26.8-7,29.9c-6.8,7.4-23.3,4.7-26.5,16.2
				c-2.9,10.3,8.9,24.8,15.9,31C135.7,317.4,145.2,327.3,159.7,328.1z"/>
			<path class="st3" d="M138.2,210.5c3.7-11.2,0-26.1-12.4-29.8c-13.4-3.8-26.8,0.5-35.7,10.1c0,0.4,0.1,0.8,0.4,1.2
				c1.1,0.3,7.6-0.8,8.1,0.5c3.8,9.8,10.1,18.5,18.4,25c2.6,2.1,6.7,5.1,11,7.7C132.2,220.9,135.8,216.3,138.2,210.5z"/>
			<path class="st3" d="M186.7,190.7c-4,12.6,0.9,24.1,9.7,33.1c5.7-2.8,10.9-6.5,15.6-10.8c5.3-4.7,9.2-9.9,9.7-17.1
				c4.7,0.5,8.8-3.2,11.9-6.8c0.8-0.9,1.7-2,1.9-3.2c0-0.3,0-0.5,0-0.8C219,174.6,193.1,172.4,186.7,190.7z"/>
			<path class="st4" d="M182.9,238c0-1.6-0.1-3.1-0.2-4.7c-0.2-3.5,1.2-5.2,3.3-6.2c-16.8,3.3-33.9,3.5-51,1.8
				c3.1,1.3,6.1,2.2,8.5,2c0.3,0-1.4,10.9-3.5,19.7C155.4,250.6,170.4,247.1,182.9,238z"/>
			<path class="st5" d="M82.3,288.6c-20.5,18.7-33.6,41.4-35,69.7c-0.1,2.2,100.3-1.2,108.6-1.4c38.9-0.7,77.8-0.3,116.6,1.2
				c3.1-19.5-4.4-39.6-16.6-55.2c-5.4-7-11.2-14.3-19.3-17.9c-2.8-1.3-25.6-10.4-25.4-11.9c-3.3,24.4-12.7,43.5-38.6,50.1
				c-3.7,1-7.5,1.8-11.4,2c-15.7,0.7-33.8-15.8-41.3-28.6c-3.6-6.2-6.5-12.8-8.5-19.6c-0.3-1-0.7-2.2-1.7-2.7
				c-2.2-1.1-23.7,11.2-26.5,13.6C82.9,288,82.6,288.3,82.3,288.6z"/>
			<g>
				<path class="st6" d="M219.3,143.1c6.7,13,7.7,28.9,4.6,43.1c-3.2,15.1-11.2,26.7-24.9,34c-24.8,13.3-60.5,14.1-82.9-4.7
					c-17.2-14.4-21.2-37.1-18.3-58.3c0.3-2.3-3.3-3.4-3.6-1c-2.7,19.6-0.2,39.9,12.8,55.5c10.1,12.1,25.2,18.7,40.5,20.9
					c30.3,4.2,67.6-7,78-38.5c5.5-16.9,5-36.9-3.1-52.9C221.4,139.1,218.2,141,219.3,143.1L219.3,143.1z"/>
			</g>
			<g>
				<path class="st6" d="M128.4,176.1c8,0,8-12.4,0-12.4C120.5,163.7,120.4,176.1,128.4,176.1L128.4,176.1z"/>
			</g>
			<g>
				<path class="st6" d="M198.2,176.1c8,0,8-12.4,0-12.4C190.2,163.7,190.2,176.1,198.2,176.1L198.2,176.1z"/>
			</g>
			<g>
				<path class="st6" d="M165.2,199.6c2.4,0,2.4-3.7,0-3.7C162.8,195.9,162.8,199.6,165.2,199.6L165.2,199.6z"/>
			</g>
			<g>
				<path class="st6" d="M47.7,360c25.5,0,51-0.1,76.5-0.1c40.5,0,81-0.1,121.4-0.1c9.4,0,18.8,0,28.2,0c2.4,0,2.4-3.7,0-3.7
					c-25.5,0-51,0.1-76.5,0.1c-40.5,0-81,0.1-121.4,0.1c-9.4,0-18.8,0-28.2,0C45.3,356.3,45.3,360,47.7,360L47.7,360z"/>
			</g>
			<g>
				<path class="st6" d="M180.5,230.6c-1,9.8-1.8,20.6,4.2,29.1c5.7,8.1,15.9,8.4,23.3,14.2c1.9,1.5,4.5-1.1,2.6-2.6
					c-6-4.8-14.2-5.7-20-10.6c-8.7-7.4-7.5-19.9-6.4-30.1C184.4,228.3,180.7,228.3,180.5,230.6L180.5,230.6z"/>
			</g>
			<g>
				<path class="st6" d="M140.3,231.4c0.2,9.8,2.4,23.8-7,29.7c-7.4,4.6-16.2,7.6-24.2,11.2c-2.2,1-0.3,4.2,1.9,3.2
					c5.5-2.5,11-4.9,16.4-7.4c4.4-2,9-3.9,12.4-7.4c6.5-7,4.4-20.5,4.3-29.3C143.9,229,140.2,229,140.3,231.4L140.3,231.4z"/>
			</g>
			<g>
				<path class="st6" d="M109.6,273.4c-35.9,12-62.2,45.3-65.6,83c-0.2,2.4,3.5,2.4,3.7,0c3.3-36,28.6-68,62.8-79.4
					C112.8,276.2,111.9,272.6,109.6,273.4L109.6,273.4z"/>
			</g>
			<g>
				<path class="st6" d="M228.2,326.6c0.6,10.2,1.1,20.4,1.7,30.6c0.1,2.4,3.9,2.4,3.7,0c-0.6-10.2-1.1-20.4-1.7-30.6
					C231.8,324.2,228.1,324.2,228.2,326.6L228.2,326.6z"/>
			</g>
			<g>
				<path class="st6" d="M91.2,324.4c-1.9,11.2-2.6,22.3-2.2,33.7c0.1,2.4,3.8,2.4,3.7,0c-0.5-11,0.2-21.8,2-32.7
					C95.2,323,91.6,322,91.2,324.4L91.2,324.4z"/>
			</g>
			<g>
				<path class="st6" d="M165.9,105.2c7.1,16.3,9.8,33.9,8,51.7c-0.2,2.4,3.5,2.4,3.7,0c1.8-18.4-1.2-36.6-8.5-53.5
					C168.2,101.2,164.9,103.1,165.9,105.2L165.9,105.2z"/>
			</g>
			<g>
				<path class="st6" d="M173.8,164.1c11.3,0.7,11.5-14.2,12.1-22c0.9-13.4-0.2-26.9-4.6-39.6c-0.8-2.2-4.4-1.3-3.6,1
					c3.1,8.9,4.6,18.1,4.8,27.6c0.1,6.6,1.3,30-8.6,29.4C171.4,160.2,171.4,163.9,173.8,164.1L173.8,164.1z"/>
			</g>
			<g>
				<path class="st6" d="M192.4,159.8c0.2-6.4-0.2-12.7-1.6-18.9c-1.4-6.7-4.7-12.9-5.7-19.7c-0.3-2.4-3.9-1.4-3.6,1
					c0.9,6,3.7,11.5,5.1,17.4c1.7,6.6,2.2,13.4,2,20.2C188.6,162.2,192.3,162.2,192.4,159.8L192.4,159.8z"/>
			</g>
			<g>
				<path class="st6" d="M180.4,105.1c22.1,10.4,14.8,48.8,42,53.1c2.3,0.4,3.4-3.2,1-3.6c-15-2.4-19.1-18.2-23.7-30.4
					c-3.5-9.2-8.3-18-17.5-22.3C180.1,100.9,178.2,104.1,180.4,105.1L180.4,105.1z"/>
			</g>
			<g>
				<path class="st6" d="M198.5,104.5c7.1,10.1,7.9,21.8,10.3,33.5c1.7,8.5,6,16.9,15.3,18.7c2.3,0.5,3.3-3.1,1-3.6
					c-12.2-2.4-12.7-16.6-14.4-26.4c-1.5-8.6-3.8-16.9-9-24.1C200.3,100.7,197.1,102.5,198.5,104.5L198.5,104.5z"/>
			</g>
			<g>
				<path class="st6" d="M209.7,117.7c6.3,9.4,11.2,19.5,14.5,30.3c2.2,7.3,3.8,14.9,10.1,19.9c1.9,1.5,4.5-1.1,2.6-2.6
					c-7.3-5.8-8.2-16.3-11.3-24.5c-3.3-8.8-7.6-17.1-12.8-24.9C211.6,113.9,208.3,115.7,209.7,117.7L209.7,117.7z"/>
			</g>
			<g>
				<path class="st6" d="M221.9,156.9c7.4,11,12.7,23.3,14.9,36.5c2.1,12,2.7,26.6-7.2,35.4c-1.8,1.6,0.8,4.2,2.6,2.6
					c9.7-8.6,10.4-22.3,8.9-34.3c-1.9-15.1-7.5-29.4-16-42C223.8,153,220.5,154.9,221.9,156.9L221.9,156.9z"/>
			</g>
			<g>
				<path class="st6" d="M247,170.1c11.8,20.6,4.6,46.1-16.3,57.3c-2.1,1.1-0.2,4.4,1.9,3.2c22.6-12.2,30.4-40.2,17.6-62.4
					C249,166.1,245.8,168,247,170.1L247,170.1z"/>
			</g>
			<g>
				<path class="st6" d="M230.3,197.9c-0.8,13.2-10,22.8-18.8,31.7c-1.7,1.7,0.9,4.3,2.6,2.6c9.6-9.7,19.1-20.1,19.9-34.4
					C234.1,195.5,230.4,195.5,230.3,197.9L230.3,197.9z"/>
			</g>
			<g>
				<path class="st6" d="M210.3,213.5c-3.4,7.6-5,21.1,4.6,24.8c2.2,0.9,3.2-2.7,1-3.6c-6.9-2.7-4.6-14.4-2.4-19.3
					C214.5,213.2,211.3,211.3,210.3,213.5L210.3,213.5z"/>
			</g>
			<g>
				<path class="st6" d="M197,224.5c2.4,8.8,10.2,15,19.3,15.3c2.4,0.1,2.4-3.6,0-3.7c-7.4-0.3-13.8-5.5-15.7-12.6
					C199.9,221.2,196.3,222.2,197,224.5L197,224.5z"/>
			</g>
			<g>
				<path class="st6" d="M206.6,235.3c-6.3,1.1-12.5-1.5-16.1-6.8c-1.3-2-4.6-0.1-3.2,1.9c4.5,6.8,12.3,10,20.3,8.5
					C209.9,238.4,208.9,234.8,206.6,235.3L206.6,235.3z"/>
			</g>
			<g>
				<path class="st6" d="M184.4,239.6c4.1-0.1,8.2-0.9,12.1-2.2c2.3-0.8,1.3-4.4-1-3.6c-3.6,1.2-7.3,1.9-11.1,2.1
					C182,235.9,182,239.7,184.4,239.6L184.4,239.6z"/>
			</g>
			<g>
				<path class="st6" d="M165.8,62.7c14-4.7,28.9-0.4,41.9,5.6c12.1,5.7,23.1,13.8,31.2,24.5c8.3,11,13.8,23.9,18.5,36.8
					c2.5,6.9,4,13.6,4.8,21c0.5,5.3,1.3,10.3,3.9,15.1c1.1,2.1,4.4,0.2,3.2-1.9c-3.7-6.8-3.1-14.4-4.4-21.8
					c-1.4-7.7-4.4-15.2-7.3-22.5c-5.1-12.5-11.3-24.8-20.6-34.8c-16.6-18-47.5-33.8-72.1-25.6C162.6,59.9,163.6,63.5,165.8,62.7
					L165.8,62.7z"/>
			</g>
			<g>
				<path class="st6" d="M250.9,137.9c1,6.2,2,12.6,4.9,18.3c3.1,6.2,8.3,11.1,11.3,17.4c6.7,14.3,8.8,35.1-4.4,46.3
					c-1.8,1.6,0.8,4.2,2.6,2.6c12-10.2,12.2-26.7,8.5-40.9c-2-7.7-5.6-13.9-10.3-20.3c-5.6-7.5-7.6-15.3-9.1-24.4
					C254.2,134.6,250.6,135.6,250.9,137.9L250.9,137.9z"/>
			</g>
			<g>
				<path class="st6" d="M262.8,188.7c2.5,8,2.3,15.5,1,23.7c-0.8,4.9-2.1,23.6-10.1,22c-2.3-0.5-3.3,3.1-1,3.6
					c9.4,1.9,11.6-8.4,13-15.3c2.4-11.8,4.5-23.2,0.8-34.9C265.6,185.5,262.1,186.4,262.8,188.7L262.8,188.7z"/>
			</g>
			<g>
				<path class="st6" d="M261.7,208.9c-5.1,13.5-14.6,27.8-31,26.2c-2.4-0.2-2.4,3.5,0,3.7c18.1,1.7,28.9-14,34.6-29
					C266.1,207.7,262.5,206.7,261.7,208.9L261.7,208.9z"/>
			</g>
			<g>
				<path class="st6" d="M161.8,60.2c-20.9-14.7-52.3-4.1-69.2,12c-10.1,9.6-15.6,22-20.3,34.9c-3,8.2-5.6,16.6-7.7,25.1
					c-1.5,5.9-3.3,11.6-0.4,17.4c1.1,2.2,4.3,0.3,3.2-1.9c-3.1-6.3,1.2-16.3,3-22.6c1.8-6.1,3.8-12.2,6-18.1
					c4.4-12,9.5-23.2,18.9-32.1C111,60,140.5,49.8,160,63.5C161.8,64.8,163.7,61.5,161.8,60.2L161.8,60.2z"/>
			</g>
			<g>
				<path class="st6" d="M130.1,57.9c-14.1,0.3-28.3,12-37.7,21.7c-4.7,4.8-8.7,10.3-11.1,16.6c-3.2,8.2-4,17.1-6,25.6
					c-2.1,9.1-5.1,18.2-9.8,26.4c-3.8,6.8-9.8,11.9-12.7,19.2c-4.7,11.8-9.6,30.3,2.8,39c2,1.4,3.8-1.9,1.9-3.2
					c-8.4-5.8-6-16.6-4-25c2-8.2,5-14.2,10.3-20.7c7.9-9.9,12.3-22.4,15.1-34.6c3.4-14.3,4.5-27.8,14.7-39.2
					c8.6-9.5,23.1-21.8,36.4-22.1C132.5,61.6,132.5,57.9,130.1,57.9L130.1,57.9z"/>
			</g>
			<g>
				<path class="st6" d="M65.8,157.5c-4.5,9.7-7,20-9.2,30.5c-1.6,7.7-3.1,16.4,3.8,22c1.8,1.5,4.5-1.1,2.6-2.6
					c-7.3-6-3.2-17-1.4-24.8c1.8-8,4-15.8,7.5-23.2C70.1,157.2,66.8,155.4,65.8,157.5L65.8,157.5z"/>
			</g>
			<g>
				<path class="st6" d="M67.2,151.9c-2.3,16.5-4.7,33.2-2.4,49.8c1.5,11.3,5.5,24.4,18.1,27.2c2.3,0.5,3.3-3.1,1-3.6
					c-14-3.1-15.7-21.2-16.2-33c-0.6-13.2,1.3-26.4,3.1-39.5C71.1,150.6,67.6,149.5,67.2,151.9L67.2,151.9z"/>
			</g>
			<g>
				<path class="st6" d="M74.6,180.9c-1.1,15.1-1.3,37.9,12.8,47.5c2,1.3,3.9-1.9,1.9-3.2c-12.8-8.6-12-30.8-11-44.3
					C78.5,178.6,74.8,178.6,74.6,180.9L74.6,180.9z"/>
			</g>
			<g>
				<path class="st6" d="M92.1,156.1c-2.7,10.4-4.4,21.1-4.7,31.9c-0.2,6.5-0.6,15.5,7.6,16.9c2.3,0.4,3.4-3.2,1-3.6
					c-2.8-0.5-4.7-4.6-4.9-7c-0.1-1.7,0-3.4,0-5.1c0.1-3.4,0.3-6.8,0.6-10.2c0.7-7.4,2.1-14.7,4-21.8
					C96.3,154.7,92.7,153.7,92.1,156.1L92.1,156.1z"/>
			</g>
			<g>
				<path class="st6" d="M87.3,155.3c-0.6,5.9-4.5,11.7-6.3,17.4c-1.6,5.3-2.7,10.7-3.2,16.2c-0.3,3.8-0.8,7.9,2,10.8
					c3.2,3.3,9,4.5,13.3,5.1c2.3,0.3,3.4-3.3,1-3.6c-2.2-0.3-4.2-0.7-6.3-1.4c-4.7-1.6-6-5.3-6.4-9.9c-0.3-4.1,1.2-9.2,2.3-13.2
					c1.9-7.3,6.5-14,7.3-21.5C91.3,152.9,87.6,152.9,87.3,155.3L87.3,155.3z"/>
			</g>
			<g>
				<path class="st6" d="M85.8,204.3c2.7,4.5,5.3,9,6.6,14.1c0.6,2.4,0.9,4.9,0.8,7.4c-0.1,1.6-0.6,8.6-2.9,9c-2.4,0.4-1.4,4,1,3.6
					c4.8-0.8,5.7-9.9,5.7-13.6c0-8.2-3.8-15.6-7.9-22.4C87.7,200.4,84.5,202.3,85.8,204.3L85.8,204.3z"/>
			</g>
			<g>
				<path class="st6" d="M87.6,239.8c6-2.3,11.7-3.4,16-8.5c3.8-4.5,5.6-10.2,5.7-16.1c0-2.4-3.7-2.4-3.7,0
					c-0.1,5.3-1.8,10.5-5.5,14.5c-3.6,3.9-8.7,4.7-13.5,6.6C84.4,237.1,85.3,240.7,87.6,239.8L87.6,239.8z"/>
			</g>
			<g>
				<path class="st6" d="M159.7,105.9c7.4,10.1,11.1,21.9,14.7,33.8c0.7,2.3,4.3,1.3,3.6-1c-3.6-12.2-7.5-24.3-15.1-34.7
					C161.6,102.2,158.3,104,159.7,105.9L159.7,105.9z"/>
			</g>
			<g>
				<path class="st6" d="M157.9,105.2c0.6,16.6,0.8,34.9-12.2,47.1c-1.7,1.7,0.9,4.3,2.6,2.6c13.7-13,13.9-32.2,13.3-49.8
					C161.5,102.8,157.8,102.8,157.9,105.2L157.9,105.2z"/>
			</g>
			<g>
				<path class="st6" d="M147.2,106c0.4,8.5-0.5,16.9-2,25.3c-1.2,6.7-1.9,14.2-7.5,18.8c-1.8,1.5,0.8,4.2,2.6,2.6
					c5.5-4.6,6.8-11.4,8-18.1c1.7-9.5,3-18.9,2.5-28.6C150.9,103.6,147.1,103.6,147.2,106L147.2,106z"/>
			</g>
			<g>
				<path class="st6" d="M147.6,144.5c-2.8,3.6-6.5,8.5-11.7,7.6c-2.3-0.4-3.4,3.2-1,3.6c6.8,1.1,11.5-3.6,15.4-8.6
					C151.6,145.2,149,142.6,147.6,144.5L147.6,144.5z"/>
			</g>
			<g>
				<path class="st6" d="M146.7,106.2c-6,10.8-11.5,21.9-16.4,33.4c-3.4,8-6.1,17.1-0.4,24.7c1.4,1.9,4.7,0,3.2-1.9
					c-6.6-8.8-0.1-20,3.7-28.6c4-8.8,8.3-17.3,13-25.7C151,106,147.8,104.1,146.7,106.2L146.7,106.2z"/>
			</g>
			<g>
				<path class="st6" d="M124.8,131.2c-3.1,6-7.7,14.5-5.9,21.5c1.6,6.3,6.3,11.3,12.4,13.4c2.3,0.8,3.2-2.8,1-3.6
					c-6.5-2.3-10.7-8.8-9.6-15.6c0.8-4.8,3.1-9.5,5.3-13.8C129.2,130.9,125.9,129.1,124.8,131.2L124.8,131.2z"/>
			</g>
			<g>
				<path class="st6" d="M126.9,128c-3.8,4.6-7.5,9.3-11.3,13.9c-3.6,4.4-7.2,8.3-12.9,9.9c-2.3,0.7-1.3,4.2,1,3.6
					c11.6-3.3,18.7-15.9,25.8-24.8C131.1,128.8,128.4,126.1,126.9,128L126.9,128z"/>
			</g>
			<g>
				<path class="st6" d="M123,109.2c-5.8,6.3-10.2,13.5-14,21.2c-4.1,8.3-7.8,22.7-19.3,22.4c-2.5-0.1-2.3,3.5,0,3.7
					c4.7,0.6,9.3,0.5,14-0.1c2.3-0.3,2.4-4,0-3.7c-4.7,0.6-9.3,0.7-14,0.1c0,1.2,0,2.5,0,3.7c9.3,0.2,14.4-7.1,18.1-14.8
					c5.1-10.6,9.8-21.1,17.9-29.9C127.2,110.1,124.6,107.4,123,109.2L123,109.2z"/>
			</g>
			<g>
				<path class="st6" d="M115.6,96.1c-9.5,9.3-16.6,20.7-20.4,33.5c-2.2,7.6-3,14.9-8.7,21c-3.6,3.8-7.3,7.1-8.1,12.5
					c-0.3,2.3,3.3,3.4,3.6,1c0.9-6,6.2-9.2,9.7-13.7c3.6-4.7,4.7-10.3,6.1-15.9c3.3-13.7,10.4-25.8,20.4-35.7
					C120,97,117.3,94.4,115.6,96.1L115.6,96.1z"/>
			</g>
			<g>
				<path class="st6" d="M89,190.6c2,2,4.7,3.1,7.6,2.9c2.4-0.2,2.4-3.9,0-3.7c-1.9,0.1-3.6-0.5-4.9-1.8
					C90,186.2,87.3,188.9,89,190.6L89,190.6z"/>
			</g>
			<g>
				<path class="st6" d="M223.7,197c5.7-0.7,10.6-3.8,13.5-8.8c1.2-2.1-2-4-3.2-1.9c-2.2,3.8-5.9,6.4-10.3,6.9
					C221.3,193.5,221.3,197.3,223.7,197L223.7,197z"/>
			</g>
			<g>
				<path class="st6" d="M106.8,276.6c9.8,25.6,28.7,52.9,59.5,51.3c2.4-0.1,2.4-3.9,0-3.7c-29,1.6-46.7-24.5-55.9-48.5
					C109.6,273.4,106,274.4,106.8,276.6L106.8,276.6z"/>
			</g>
			<g>
				<path class="st6" d="M171.9,326.1c11.5-0.1,21.4-9,28-17.7c7.5-9.8,11.6-21.6,12.3-33.8c0.1-2.4-3.6-2.4-3.7,0
					c-0.6,10.4-3.8,20.2-9.6,28.8c-5.9,8.8-15.8,18.9-27,19C169.5,322.3,169.5,326.1,171.9,326.1L171.9,326.1z"/>
			</g>
			<g>
				<path class="st6" d="M210.6,274c17.6,6.4,34.1,16.5,45.2,31.9c5,7,8.9,14.9,10.9,23.3c2,8.6,1.9,17.3,4.3,25.9
					c0.6,2.3,4.2,1.3,3.6-1c-2.7-9.7-2.4-19.9-5.3-29.6c-2.6-8.3-6.8-16.1-12.1-22.9c-11.6-14.9-28-24.7-45.5-31.1
					C209.3,269.6,208.4,273.2,210.6,274L210.6,274z"/>
			</g>
			<g>
				<path class="st7" d="M170.4,271.1c0.3-0.7,0.9-1.3,1.6-1.5s1.6,0,2,0.7c0.7,1.1-0.1,2.5-1.1,3.4c-0.6,0.5-1.2,1-1.8,1.4
					c-0.1,0.1-0.3,0.2-0.4,0.2c-0.1,0-0.3-0.1-0.4-0.1c-0.4-0.2-0.7-0.4-1.1-0.6c-0.7-0.4-1.4-1-1.7-1.8s-0.2-1.8,0.4-2.3
					s1.8-0.1,1.9,0.7"/>
				<g>
					<path class="st6" d="M171.2,271.6c0.2-0.4,0.6-1,1.1-1.1c0.6-0.1,1.2,0.2,1.1,0.9c-0.1,1-1.2,1.8-2,2.3
						c-0.4,0.3-0.6,0.5-1.1,0.4c-0.3-0.1-0.8-0.5-1-0.7c-0.4-0.3-0.8-0.6-0.9-1.1c-0.1-0.2-0.2-0.5-0.1-0.8c0.2-0.5,0.5-0.5,0.7-0.2
						c0.3,1.2,2.1,0.7,1.8-0.5c-0.6-2.3-3.7-1.9-4.3,0.2c-0.3,1.2,0.2,2.4,1.1,3.3c0.8,0.8,2.3,2,3.5,1.7s2.5-1.6,3.2-2.5
						c0.8-0.9,1.3-2.2,0.8-3.4c-1.1-2.7-4.4-1.6-5.5,0.4C169,271.7,170.6,272.6,171.2,271.6L171.2,271.6z"/>
				</g>
			</g>
			<g>
				<path class="st8" d="M166.6,272c-0.9-0.6-2.2-0.3-2.8,0.5c-0.6,0.9-0.4,2.2,0.5,2.8c0.9,0.6,2.2,0.4,2.8-0.5
					c0.4-0.6,0.5-1.5-0.1-2"/>
				<g>
					<path class="st6" d="M167.1,271.2c-1.2-0.8-2.9-0.5-3.9,0.6s-0.8,2.9,0.2,4c1,1,2.7,1.1,3.8,0.3c1.2-0.9,1.5-2.7,0.5-3.8
						c-0.8-0.9-2.1,0.4-1.3,1.3c0.7,0.8-1.1,1.7-1.7,0.8c-0.8-1,0.5-2.2,1.5-1.5C167.2,273.4,168.1,271.8,167.1,271.2L167.1,271.2z"
						/>
				</g>
			</g>
			<g>
				<path class="st6" d="M176.2,271.7c0.5-0.7,1.8-0.2,1.4,0.7C177.2,273.6,175.8,272.8,176.2,271.7c0.3-1-1.5-1.5-1.9-0.4
					c-0.4,1.4,0.4,2.9,1.7,3.4c1.4,0.5,2.8-0.3,3.3-1.6c0.5-1.3,0.1-2.7-1.2-3.3c-1.3-0.6-2.8-0.2-3.6,0.9
					C173.9,271.8,175.5,272.7,176.2,271.7L176.2,271.7z"/>
			</g>
			<g>
				<path class="st8" d="M178.3,270.5c0.6-1.1,2.1-1.7,3.3-1.3c0.9,0.3,1.7,1.3,1.3,2.2c-0.4,0.9-1.6,1-2.5,0.9
					c-0.4-0.1-0.8-0.1-1.1-0.4s-0.4-0.8-0.2-1.1"/>
				<g>
					<path class="st6" d="M179.1,271c0.5-0.8,2.2-1.4,2.8-0.4c0.8,1.3-2,0.5-2.1,0.7c0.5-1.1-1.1-2-1.6-0.9c-1.6,3.1,5,4.2,5.6,1
						c0.3-1.5-1-2.8-2.4-3.1c-1.6-0.3-3.1,0.4-4,1.8C176.9,271,178.5,272,179.1,271L179.1,271z"/>
				</g>
			</g>
			<g>
				<path class="st9" d="M182.8,269.5c0.2-0.9,0.7-1.8,1.6-2.2c0.9-0.4,2-0.3,2.6,0.4c0.7,0.7,0.8,1.9,0.1,2.6
					c-0.3,0.3-0.7,0.5-1.1,0.7c-0.5,0.2-1.2,0.2-1.7,0s-1-0.7-1-1.3"/>
				<g>
					<path class="st6" d="M183.7,269.8c0.2-1.1,1.6-2.5,2.7-1.4c1.4,1.5-1.9,2.5-2.1,1.3c-0.2-1.2-2-1.2-1.9,0
						c0.5,3.8,6.8,2.5,6-1.2c-0.3-1.5-1.8-2.5-3.2-2.3c-1.7,0.1-3,1.5-3.3,3.1C181.6,270.4,183.4,270.9,183.7,269.8L183.7,269.8z"/>
				</g>
			</g>
			<g>
				<path class="st6" d="M187.5,267.3c0.3-1.1,2.2-1.8,2.5-0.3c0.2,1.2-1.3,1.5-1.8,0.5c-0.5-1.1-2.1-0.1-1.6,0.9
					c0.5,1.2,2.1,1.8,3.3,1.5c1.4-0.4,2.1-1.8,1.9-3.2c-0.2-1.4-1.4-2.4-2.9-2.4s-2.8,1.1-3.3,2.6
					C185.4,267.9,187.2,268.4,187.5,267.3L187.5,267.3z"/>
			</g>
			<g>
				<path class="st3" d="M189.7,264.6c0.1-0.6,0.6-1.2,1.1-1.6c1.2-0.8,3.2-0.2,3.6,1.2c0.5,1.4-0.8,3.1-2.2,2.9
					c-0.5-0.1-1.1-0.5-1-1"/>
				<g>
					<path class="st6" d="M190.6,264.8c0.3-1.2,1.8-1.7,2.7-0.8c0.4,0.4,0.4,1,0.1,1.5c-0.1,0.2-0.3,0.4-0.5,0.5
						c-0.1,0-0.8,0.3-0.7,0c0.1-1.2-1.8-1.2-1.9,0c-0.2,1.7,1.9,2.3,3.2,1.7c1.4-0.6,2.3-2.2,1.9-3.7c-0.3-1.4-1.7-2.3-3.1-2.4
						c-1.7-0.1-3.1,1-3.5,2.6C188.5,265.5,190.3,266,190.6,264.8L190.6,264.8z"/>
				</g>
			</g>
			<g>
				<path class="st8" d="M193,261.9c0.7-0.5,0.6-1.7,0-2.2c-0.6-0.6-1.6-0.7-2.4-0.6c-0.5,0.1-1.1,0.2-1.4,0.7
					c-0.3,0.5,0.1,1.2,0.6,1.1"/>
				<g>
					<path class="st6" d="M193.6,262.6c0.9-0.7,1-2,0.5-2.9c-0.6-1.1-1.9-1.5-3.1-1.5c-1.1,0-2.5,0.4-2.8,1.6
						c-0.3,1,0.5,2.2,1.6,2.1c1.2-0.1,1.2-2,0-1.9c0.2,0.1,0.3,0.1,0.2,0.2c0,0.1,0,0.1,0.1,0c0.1,0,0.3-0.1,0.5-0.1
						c0.4-0.1,0.8-0.1,1.2,0c0.5,0.1,1.2,0.7,0.6,1.2C191.4,262,192.7,263.3,193.6,262.6L193.6,262.6z"/>
				</g>
			</g>
			<g>
				<path class="st9" d="M161.2,272.1c0.9,0.1,1.3,1.3,1,2.1c-0.4,0.8-1.3,1.3-2.2,1.3c-0.4,0-0.8,0-1.2-0.2
					c-0.8-0.4-1.3-1.3-1.2-2.2c0.1-0.9,0.8-1.7,1.7-2s2.2,0.1,2.2,1.1"/>
				<g>
					<path class="st6" d="M161,273c0.6,0.2,0.4,0.9,0.1,1.2c-0.6,0.5-1.7,0.6-2.2,0s-0.2-1.4,0.3-1.9c0.2-0.2,1.4-0.7,1.4-0.1
						c0,1.2,1.9,1.2,1.9,0c-0.1-1.9-2.3-2.5-3.8-1.8c-1.8,0.9-2.6,3.2-1.3,4.9c1.2,1.6,3.9,1.4,5.2,0c1.2-1.3,0.8-3.7-1.1-4.2
						C160.3,270.9,159.8,272.7,161,273L161,273z"/>
				</g>
			</g>
			<g>
				<path class="st7" d="M152.7,271.6c0.1-0.7,0.8-1.2,1.6-1.3c0.7,0,1.4,0.3,2,0.8c0.5,0.4,0.9,0.8,0.9,1.4c0.1,0.8-0.5,1.4-1.1,2
					c-0.7,0.6-1.4,1.2-2.2,1.7c-0.3,0.2-0.7,0.4-1,0.5c-1.1,0.2-2.1-0.9-2.7-1.9c-0.4-0.6-0.9-1.3-1.1-2s-0.1-1.6,0.4-2.2
					s1.4-0.7,2-0.4c0.7,0.3,1.1,1.1,1,1.8"/>
				<g>
					<path class="st6" d="M153.6,271.8c0.2-0.7,1.2-0.5,1.8-0.3c0.9,0.4,0.7,1.4,0.3,2.1c-0.4,0.6-1.5,1.4-2.2,1.7
						c-1.3,0.5-1.8-0.1-2.5-1.1c-0.3-0.4-0.6-0.9-0.8-1.4c-0.2-0.3-0.2-0.5-0.2-0.8c-0.2-0.9,0.4-0.9,1.6-0.1c0,1.2,1.8,1.2,1.9,0
						c0-2.9-3.9-4.1-5.1-1.3c-1,2.4,1.4,6.5,4,6.8c1.5,0.2,3-1.1,4-2c1.1-0.9,2.2-2.1,1.6-3.6c-0.9-2.7-5.2-3.4-6.2-0.5
						C151.4,272.5,153.2,273,153.6,271.8L153.6,271.8z"/>
				</g>
			</g>
			<g>
				<path class="st8" d="M148.8,271.6c-0.7-0.9-1.9-1.5-2.9-1.1c-1.1,0.3-1.9,1.6-1.5,2.6c0.1,0.4,0.4,0.7,0.7,1
					c0.7,0.6,1.8,0.7,2.6,0.3c0.8-0.4,1.4-1.3,1.4-2.3"/>
				<g>
					<path class="st6" d="M149.4,271c-0.9-1.2-2.6-1.9-4.1-1.3c-1.3,0.5-2.3,2-2,3.5c0.4,1.6,2.1,2.5,3.6,2.3c1.8-0.2,2.9-1.7,3-3.4
						c0-1.2-1.8-1.2-1.9,0c0,0.8-0.6,1.6-1.5,1.6c-0.7,0-1.5-0.5-1.4-1.2c0.1-0.6,0.6-1,1.1-1.1c0.7-0.1,1.4,0.4,1.8,1
						C148.8,273.2,150.2,271.9,149.4,271L149.4,271z"/>
				</g>
			</g>
			<g>
				<path class="st3" d="M144,271c-0.3-1.3-2.1-1.8-3.2-1.2c-0.3,0.2-0.6,0.4-0.8,0.7c-0.5,0.9-0.1,2.1,0.8,2.6s2,0.5,2.9,0.1"/>
				<g>
					<path class="st6" d="M144.9,270.8c-0.8-2.4-4.6-3-5.8-0.6c-0.6,1.1-0.2,2.5,0.7,3.3c1.1,1.1,2.8,1.1,4.2,0.6
						c1.1-0.4,0.6-2.2-0.5-1.8c-0.7,0.2-1.4,0.4-2.1,0.1c-0.4-0.2-0.8-0.8-0.6-1.3c0.4-1,2.1-0.7,2.4,0.2
						C143.4,272.4,145.2,271.9,144.9,270.8L144.9,270.8z"/>
				</g>
			</g>
			<g>
				<path class="st3" d="M140,269.7c0.4-1.2-0.2-2.5-1.3-3.1c-1.1-0.5-2.6,0-3.1,1s-0.1,2.6,1,3.1s2.6,0,3-1.1"/>
				<g>
					<path class="st6" d="M140.9,270c0.4-1.7-0.4-3.6-2.1-4.2c-1.6-0.6-3.5,0.2-4.2,1.7s0,3.4,1.4,4.2c1.5,0.8,3.6,0.1,4.3-1.5
						c0.5-1.1-1.1-2-1.6-0.9c-0.8,1.6-3.2,0.6-2.4-1.1c0.3-0.6,1.1-0.9,1.8-0.7c0.9,0.3,1.2,1.2,1,2
						C138.8,270.6,140.6,271.1,140.9,270L140.9,270z"/>
				</g>
			</g>
			<g>
				<path class="st8" d="M136.1,265.8c0.7-1,0-2.7-1.2-3s-2.6,0.5-3,1.7c-0.4,1.1,0,2.4,1,2.9s2.4,0.2,2.8-0.8"/>
				<g>
					<path class="st6" d="M136.9,266.2c0.9-1.4,0.3-3.3-1.1-4.1c-1.6-0.9-3.6,0-4.5,1.4c-0.9,1.5-0.5,3.6,1,4.6
						c1.4,0.9,3.4,0.5,4.2-1.1c0.5-1.1-1.1-2-1.6-0.9c-0.3,0.6-1,0.8-1.6,0.5c-0.7-0.4-0.8-1.5-0.4-2.1c0.3-0.6,1.1-1.1,1.8-0.8
						c0.6,0.3,0.9,1,0.5,1.6C134.6,266.3,136.3,267.3,136.9,266.2L136.9,266.2z"/>
				</g>
			</g>
			<g>
				<path class="st9" d="M131.3,262.5c-0.2-1.1,0-2.4,0.8-3.1c0.8-0.8,2.3-0.8,3,0.1c0.6,0.8,0.3,1.9,0.8,2.8"/>
				<g>
					<path class="st6" d="M132.2,262.3c-0.2-1,0.2-2.7,1.6-2.5c0.6,0.1,0.7,0.7,0.8,1.2c0.1,0.6,0.2,1.2,0.5,1.8
						c0.5,1.1,2.1,0.1,1.6-0.9s-0.2-2.2-1-3.1c-0.6-0.7-1.7-1-2.6-0.8c-2.3,0.4-3,2.8-2.7,4.8C130.6,263.9,132.3,263.4,132.2,262.3
						L132.2,262.3z"/>
				</g>
			</g>
			<g>
				<path class="st6" d="M105.9,219.8c2.2,7.6,8.6,13.4,16.4,14.7c2.3,0.4,3.4-3.2,1-3.6c-6.6-1.1-11.9-5.6-13.8-12.1
					C108.8,216.5,105.2,217.5,105.9,219.8L105.9,219.8z"/>
			</g>
			<g>
				<path class="st6" d="M124.8,231.7c-2.4-3-3.4-6.7-3.2-10.5c0.1-2.4-3.6-2.4-3.7,0c-0.2,4.9,1.4,9.3,4.3,13.1
					C123.6,236.2,126.2,233.6,124.8,231.7L124.8,231.7z"/>
			</g>
			<g>
				<path class="st6" d="M125.3,226.8c-0.4,3.3-1.5,6.9-5,7.8c-2,0.5-1.6,3.7,0.5,3.7c6.2-0.1,13.6-1.2,15.5-8.2
					c0.6-2.3-3-3.3-3.6-1c-1.4,5.2-7.5,5.4-11.9,5.4c0.2,1.2,0.3,2.4,0.5,3.7c5.3-1.4,7.2-6.4,7.8-11.4
					C129.3,224.4,125.6,224.5,125.3,226.8L125.3,226.8z"/>
			</g>
			<ellipse class="st4" cx="163.6" cy="174.7" rx="10.1" ry="4.8"/>
		</g>
	</g>
</g>
</svg>
