<?xml version="1.0" encoding="utf-8"?>
<!-- Generator: Adobe Illustrator 25.2.3, SVG Export Plug-In . SVG Version: 6.00 Build 0)  -->
<svg version="1.1" id="Layer_1" xmlns="http://www.w3.org/2000/svg" xmlns:xlink="http://www.w3.org/1999/xlink" x="0px" y="0px"
	 viewBox="0 0 320 320" style="enable-background:new 0 0 320 320;" xml:space="preserve">
<style type="text/css">
	.st0{clip-path:url(#SVGID_2_);}
	.st1{fill:#B2967E;}
	.st2{fill:#F9D4C1;}
	.st3{fill:#F9B7B2;}
	.st4{fill:#F2C3AF;}
	.st5{fill:#FCE5B1;}
	.st6{fill:#8D7065;}
	.st7{fill:#FFFFFF;}
</style>
<g>
	<g>
		<defs>
			<circle id="SVGID_1_" cx="160" cy="160" r="160"/>
		</defs>
		<clipPath id="SVGID_2_">
			<use xlink:href="#SVGID_1_"  style="overflow:visible;"/>
		</clipPath>
		<g class="st0">
			<path class="st1" d="M247.8,230.2c3.8-4.2,6.7-9.4,7.9-15c1.7-7.5,0.9-16,1-23.6c0.5,1.5,1,3.1,1.5,4.6c0.6,2,1.3,4,1.7,6
				c1.1,5.3,0,10.5,0.6,15.8c0.6,5.1-0.4,9.6-2.9,14.3c4.1,1,8.7-1,11-4.5c2.6-4,4.3-8.3,4.5-13.1c0.2-8.4-0.2-16.1-2.3-24.2
				c-2.3-8.7-5.2-17.3-6.9-26.2c-3.5-17.9-2.6-36.8-10.8-53.5c-9.5-19.3-14.7-35.6-32.7-48.9c-6.3-4.6-11-10.3-18.6-12.7
				c-8.7-2.8-17.9-2.9-26.9-3c-9.6-0.1-18,2.4-27.4,2.1c-11.6-0.3-22.9,1-33.9,4.8c-2.8,1-5.7,2.1-8.1,3.8c-3.6,2.5-6.3,6-9.5,9.1
				c-3.2,3.1-7,5.7-10.2,8.8c-18.6,17.7-17,45.9-19.8,69.4c-2.1,17.5-10.2,32.1-13.5,49.3c-0.8,3.9-1.5,7.8-1.6,11.8
				c-0.3,13.5,3.5,27.6,17.7,30.6c-5-2.6-8.2-7.9-9.4-13.3c-1.2-5.5-0.5-11.2,0.8-16.7c0.4-1.6,0.9-3.3,2.3-4.1
				c-1,0.6,3.7,13.6,4.2,15c1.7,4.5,2.4,8.1,5.8,11.8c2.1,2.3,4.4,4.4,7.3,5.5c2.9,1.1,6.4,0.8,8.8-1.2c0.3-0.2,0.6-0.6,0.5-1
				c0-0.3-0.3-0.5-0.5-0.7c-3-2.8-8.4-7-7.4-11.8c-0.2,0.9,5.3,5.4,6.4,6.1c3.9,2.6,7.4,2.5,11.7,2.6c0.2,1.1,0.7,2,1.4,2.9
				c1.5,2.1,3.4,4.1,5.8,5.2c2.4,1.1,5.3,1.4,7.6,0.1c0.1-0.1,0.3-0.2,0.3-0.3c0.1-0.1,0-0.3-0.1-0.5c-1.2-3.3-1.8-6.9-1.6-10.4
				c0.1-1.4,1.8-8.8,1.3-9.2c1,0.9,2.3,1.4,3.7,1.3c-0.8,0.1,1.9,9.4,2.2,10.2c1.4,3.6,3.6,8.7,7.5,10.2c1.8,0.7,2.7-0.4,4.3-0.5
				c1.9-0.2,2.4-0.2,4.7,0.9c0.2-4.7,0.5-9.4,0.7-14.1c12.2,2.8,25.1,2.5,37.2-0.8c0.6-0.2,1.3-0.3,1.7,0.1c0.2,0.2,0.3,0.5,0.3,0.8
				c1.1,5.8,0.4,12.6,0.4,18.4c2.9,0.1,5.9-1,8.2-2.9c0.7-0.6,4.4-6,4.5-6c1.6,0.2,3.2,0.5,4.7,0.3c4.3-0.6,7.5-4.3,10.1-7.4
				c2.1-2.5,3.1-5.1,4.4-8.1c1.2-2.9,2.9-6.2,6-6.8c0,9.4-3.2,18.8-9,26.2c-0.4,0.6,6.4-0.5,6.8-0.6c2.5-0.8,4.6-1.4,6.7-3.2
				c6.3,3.2,14.2,3.1,20.5-0.2c2,1.7,5.1,0.1,7.1-1.8C246.8,231.2,247.3,230.7,247.8,230.2z"/>
			<path class="st2" d="M152.3,225c1.3,0,2.6-0.1,4-0.1c26.6-1.4,50.5-13.9,63.7-37.6c4.6-0.6,9.8-3.8,13.4-6.9
				c0.4-0.4,0.8-0.8,1-1.3c0.2-0.6-0.1-1.3-0.4-1.9c-3.8-7.9-5.8-16.3-9.6-24.3c-2.5-5.4-8.1-6.3-12.4-9.5c-4.2-3.2-7.5-8-9.8-12.7
				c-2.9-5.9-6.2-11.8-8.5-18c-1.8-4.6-3.2-9.5-6-13.6c-2.9-4.1-7.6-7.3-12.5-6.7c6.3,15.3,7.8,32.5,4,48.6c-0.7,3-1.6,6-3.4,8.4
				c-1.8,2.5-4.7,4.3-7.7,4.3c6.3-20.7,1.3-44.5-12.9-60.9c0.1,9.2-0.7,18.4-2.3,27.4c-1.6,9-4.9,18.8-13,22.9
				c0.8-1.6,1.3-3.3,1.4-5.1c-2.8,3-6.5,5.1-10.6,6.1c6.2-1.5,9.5-16.5,10.4-21.4c1.6-8.7,0.9-17.1,0.4-25.9
				c-2.3,5.3-4.7,10.5-7.6,15.5c-1.9,3.4-4.8,5.9-6.6,9.3c-2.9,5.7-5.7,13.5-5.8,19.9c-0.1,5.1,2.7,9.5,2.5,14.4
				c-3.7,0.8-7.2-1-9.2-4.2c-1.9-3.1-2.3-6.9-2.5-10.6c-0.3-8,0.6-15.9,1.4-23.9c-4.8,11.5-9.7,37.3-24,40.7
				c-11.9,2.8-12,12.5-11.7,24.1c9.7-0.3,10.9,1.6,15.3,9.7c4,7.3,9.4,13.8,16,19C121.9,220.9,136.3,225.1,152.3,225z"/>
			<path class="st3" d="M130.2,180.5c-2.6-5.1-7.7-7.7-12.8-10.3c-11.5-2.1-26.5,1.8-32.3,12.5c3.6,1.1,5.1,3.7,8,9.1
				c4,7.3,9.4,13.8,16,19c4.7,3.7,9.5,6.6,14.6,8.8c2.4-2.8,4.6-6,6.6-9.5C135.4,199.7,134.1,189.5,130.2,180.5z"/>
			<path class="st3" d="M190.5,174.1c-15.7,10.5-13,29.2-3.2,43.8c13.7-6.6,25.3-17.4,32.7-30.7c2.9-0.4,6-1.7,8.8-3.5
				C222.8,168.3,202,166,190.5,174.1z"/>
			<path class="st2" d="M136,229.5c-0.1,2.1-0.3,4.2-0.4,4.5c-0.7,3.8-1.5,7.6-2.4,11.4c8.1,0,16.2-0.9,24-3.2
				c4-1.1,7.8-2.6,11.5-4.4c0.4-0.2,8.6-4.5,8.6-3.8c-0.1-2.7,1.1-10.6-1.9-11.9c-2.5-1.1-9.7,2.2-12.6,2.5
				c-4.9,0.7-9.8,0.7-14.6,0.3c-1.2-0.1-12.9-1.5-12.9-2.6c0,7.6,1.6,15.4,0.9,23c1.3-0.2,2.6-1,3.3-2.1"/>
			<path class="st2" d="M71.2,282.3c-2.8,1.5-5.6,3.1-8.4,4.8c-2.6,1.6-5.3,3.2-7.3,5.6c-2.2,2.5-3.4,5.7-4.5,8.9
				c-7,19.3-8.3,36.3-9.6,56.6c0.1-1.9,58.6,0,63.8-0.2c14.9-0.4,29.8-1,44.7-1.3c28.5-0.5,57.1-0.5,85.5,0.3
				c5.8,0.1,11.5,0.3,17.3,0.5c2.8,0.1,11.7,1.9,13.5,0.3c2.9-2.6,1.8-13.1,1.5-16.6c-0.4-5.3-1.4-10.6-1.9-15.9
				c-1.2-10.8-3.6-21.7-9.8-30.8c-2.2-3.3-4.9-6.3-8.2-8.4c-2.7-1.7-5.8-2.7-8.9-3.7c-5.1-1.5-10.2-2.9-15.3-4.2
				c-0.6-0.1-1.2-0.3-1.6-0.8c-0.4-0.4-0.5-1-0.7-1.5c-1-2.7-4.1-4.1-7-4.6c-5.5-1-11.1-1.5-16.1-4.1c-6.3-3.3-15.1-9-17.8-15.9
				c-3.8-9.8-4-19.3-2-29.5c-5.9,2.5-13.2,2.8-19.6,3.3c-2.3,0.2-22.5,0.8-22.8-2c0.6,5.6,1.1,11.2,0.6,16.8
				c-0.9,8.8-4.1,14.7-11.6,19.1c-7.7,4.6-15.8,8.6-24.1,12C90.9,274.9,80.7,277.3,71.2,282.3z"/>
			<path class="st4" d="M178.3,221.7c-5.9,2.5-13.2,2.8-19.6,3.3c-2.3,0.2-22.5,0.8-22.8-2c0.6,5.6,1.1,11.2,0.6,16.8
				c-0.3,3.2-1,6.1-2,8.6c15.7-1.3,29.9-9.9,42.8-18.7C177.4,227,177.8,224.4,178.3,221.7z"/>
			<path class="st5" d="M223.4,328.9c-4.4-10.8-4.6-22.7-3.9-34.1c0.5-8,6.3-23.1-6.4-21.5c-2.1,17.1,0.3,36,2.5,53.1
				c-15.6,1.1-31.3,1.5-46.9,1.6c-14,0.1-29.8,1.9-43.5,0.2c-8.1-1-16.8-4.7-23.9-0.7c-1.6-10.9-3.1-21.8-4.7-32.8
				c-0.6-4.5-0.8-13.3-3.8-16.8c-6-7-5,3.1-3.6,7.6c2.1,6.9,3.9,13.9,5.2,21c1.1,6.1,2,12.3,0.9,18.5c-1.1,6.1-4.3,12.1-9.6,15.2
				c0.2-0.2,1.2,16.4,1.3,17.4c9.2,0.2,16.6,0.3,18.3,0.3c14.9-0.4,29.8-1,44.7-1.3c5.9-0.1,46.4-0.5,77.8,0.1
				C227.8,347.4,227.2,338.2,223.4,328.9z"/>
			<g>
				<path class="st6" d="M222.4,165.2c-1.2,34.9-31.9,56.9-64.8,58.3c-16.2,0.7-33.1-2.8-46.4-12.3c-15.1-10.9-22.7-30.3-24.1-48.4
					c-0.2-2.5-4-2.5-3.8,0c1.5,18.7,8.9,38.6,24.2,50.4c14.1,10.9,32.6,15,50.1,14.2c35-1.5,67.4-25.1,68.6-62.1
					C226.4,162.7,222.5,162.7,222.4,165.2L222.4,165.2z"/>
			</g>
			<g>
				<path class="st6" d="M121.1,167.3c8.2,0,8.3-12.8,0-12.8C112.9,154.5,112.8,167.3,121.1,167.3L121.1,167.3z"/>
			</g>
			<g>
				<path class="st6" d="M191.5,167.3c8.2,0,8.3-12.8,0-12.8C183.3,154.5,183.3,167.3,191.5,167.3L191.5,167.3z"/>
			</g>
			<g>
				<path class="st6" d="M157,192c2.5,0,2.5-3.8,0-3.8C154.6,188.2,154.6,192,157,192L157,192z"/>
			</g>
			<g>
				<path class="st6" d="M175.6,224.5c-1.2,12-1.6,24,7.2,33.4c7.3,7.8,17.9,11.8,27.7,15.6c2.3,0.9,3.3-2.8,1-3.7
					c-8.7-3.3-18-6.8-24.9-13.5c-9-8.7-8.3-20.3-7.1-31.8C179.7,222.1,175.8,222.1,175.6,224.5L175.6,224.5z"/>
			</g>
			<g>
				<path class="st6" d="M133.5,225.3c0.1,6.2,0.2,12.5-0.2,18.6c-0.6,7.8-4.1,10.8-10.4,14.4c-9.8,5.7-20.5,9.4-30.5,14.7
					c-2.2,1.2-0.2,4.5,1.9,3.3c11.7-6.2,24.8-9.9,35.6-17.9c10-7.3,7.6-22.3,7.3-33.2C137.3,222.8,133.4,222.8,133.5,225.3
					L133.5,225.3z"/>
			</g>
			<g>
				<path class="st6" d="M160.3,93.2c7.4,17.1,10.2,35.5,8.4,54.1c-0.2,2.5,3.6,2.4,3.8,0c1.9-19.3-1.2-38.3-8.9-56
					C162.7,89,159.3,91,160.3,93.2L160.3,93.2z"/>
			</g>
			<g>
				<path class="st6" d="M168.6,154.8c11.8,0.8,12-14.8,12.6-23c1-14.1-0.2-28.1-4.9-41.5c-0.8-2.3-4.5-1.3-3.7,1
					c3.3,9.3,4.9,19,5,28.9c0.1,7,1.4,31.5-9.1,30.8C166.1,150.8,166.1,154.6,168.6,154.8L168.6,154.8z"/>
			</g>
			<g>
				<path class="st6" d="M188,150.4c0.2-6.5-0.2-13-1.6-19.4c-1.5-7.1-5-13.7-6-20.9c-0.3-2.4-4.1-1.4-3.7,1
					c0.9,6.5,4,12.4,5.5,18.8c1.6,6.8,2.2,13.6,1.9,20.6C184.1,152.9,188,152.9,188,150.4L188,150.4z"/>
			</g>
			<g>
				<path class="st6" d="M175.5,93.1c23.2,10.9,15.5,51.1,44,55.6c2.4,0.4,3.5-3.3,1-3.7c-15.7-2.5-20-19.1-24.8-31.8
					c-3.6-9.6-8.7-18.8-18.3-23.4C175.2,88.7,173.3,92.1,175.5,93.1L175.5,93.1z"/>
			</g>
			<g>
				<path class="st6" d="M194.4,92.5c7.5,10.5,8.3,22.8,10.8,35.1c1.8,8.9,6.3,17.7,16,19.6c2.4,0.5,3.5-3.2,1-3.7
					c-12.7-2.5-13.3-17.4-15.1-27.6c-1.6-9-4-17.7-9.4-25.3C196.3,88.5,193,90.4,194.4,92.5L194.4,92.5z"/>
			</g>
			<g>
				<path class="st6" d="M206.2,106.3c6.4,9.5,11.5,19.8,14.9,30.7c2.5,7.9,4,16.3,10.9,21.8c1.9,1.5,4.7-1.2,2.7-2.7
					c-7.8-6.2-8.7-17.5-12-26.2c-3.4-9-7.8-17.5-13.2-25.5C208.1,102.3,204.8,104.3,206.2,106.3L206.2,106.3z"/>
			</g>
			<g>
				<path class="st6" d="M218.9,147.3c7.8,11.5,13.2,24.4,15.6,38.2c2.2,12.5,2.8,27.9-7.6,37c-1.9,1.6,0.9,4.3,2.7,2.7
					c10.2-9,10.9-23.3,9.3-35.9c-2-15.8-7.9-30.8-16.8-44C220.9,143.3,217.6,145.3,218.9,147.3L218.9,147.3z"/>
			</g>
			<g>
				<path class="st6" d="M153.9,94c7.7,10.6,11.7,22.9,15.4,35.4c0.7,2.4,4.4,1.4,3.7-1c-3.8-12.7-7.9-25.4-15.8-36.3
					C155.8,90.1,152.4,92,153.9,94L153.9,94z"/>
			</g>
			<g>
				<path class="st6" d="M151.9,93.2c0.6,17.3,0.8,36.6-12.8,49.4c-1.8,1.7,0.9,4.4,2.7,2.7c14.4-13.5,14.5-33.7,13.9-52.1
					C155.7,90.7,151.9,90.7,151.9,93.2L151.9,93.2z"/>
			</g>
			<g>
				<path class="st6" d="M140.8,94.1c0.4,8.9-0.5,17.7-2.1,26.4c-1.2,7-2,14.9-7.8,19.7c-1.9,1.6,0.8,4.3,2.7,2.7
					c5.7-4.8,7.1-11.9,8.4-19c1.8-9.9,3.1-19.8,2.6-29.9C144.5,91.6,140.7,91.6,140.8,94.1L140.8,94.1z"/>
			</g>
			<g>
				<path class="st6" d="M141.1,134.3c-2.9,3.8-6.8,8.9-12.3,8c-2.4-0.4-3.5,3.3-1,3.7c7.1,1.2,12-3.8,16-9
					C145.4,135.1,142.7,132.4,141.1,134.3L141.1,134.3z"/>
			</g>
			<g>
				<path class="st6" d="M140.2,94.3c-6.3,11.3-12.1,23-17.1,34.9c-3.6,8.4-6.4,17.8-0.4,25.8c1.5,2,4.8,0,3.3-1.9
					c-6.9-9.2-0.2-21,3.9-29.9c4.2-9.2,8.7-18.1,13.6-26.9C144.7,94.1,141.4,92.1,140.2,94.3L140.2,94.3z"/>
			</g>
			<g>
				<path class="st6" d="M79.9,182.6c2.1,2.1,4.9,3.3,7.9,3.1c2.5-0.2,2.5-4,0-3.8c-2,0.1-3.8-0.5-5.2-1.9
					C80.8,178.1,78.1,180.8,79.9,182.6L79.9,182.6z"/>
			</g>
			<g>
				<path class="st6" d="M220.8,189.3c5.9-0.7,11.1-3.9,14.1-9.2c1.2-2.1-2.1-4.1-3.3-1.9c-2.3,4-6.2,6.7-10.8,7.2
					C218.3,185.7,218.3,189.5,220.8,189.3L220.8,189.3z"/>
			</g>
			<g>
				<path class="st6" d="M225.3,328.9c0.7,9.3,0.9,18.6,0.6,27.9c-0.1,2.5,3.8,2.5,3.8,0c0.3-9.3,0.1-18.6-0.6-27.9
					C229,326.5,225.2,326.5,225.3,328.9L225.3,328.9z"/>
			</g>
			<g>
				<path class="st6" d="M85.1,275.1c-12.7,4.8-28.6,8.5-34.8,22.1c-8.1,18-10,40.1-10.4,59.7c-0.1,2.5,3.8,2.5,3.8,0
					c0.4-18.3,2.7-37,8.7-54.4c5.3-15.1,20.1-18.5,33.7-23.6C88.4,277.9,87.4,274.2,85.1,275.1L85.1,275.1z"/>
			</g>
			<g>
				<path class="st6" d="M220.2,277.6c8.1,2.9,16.6,5.3,24.4,8.9c8.5,4,12.1,11.6,14.9,20.2c5.3,15.9,6.9,32.7,5.5,49.4
					c-0.2,2.5,3.6,2.5,3.8,0c1.6-18.9-0.5-38.7-7.8-56.3c-2.7-6.6-6.6-12.4-13-15.9c-8.3-4.5-18-6.9-26.9-10
					C218.9,273,217.9,276.7,220.2,277.6L220.2,277.6z"/>
			</g>
			<g>
				<path class="st6" d="M159,51.8c20.3-6.8,41.2-4.8,58.8,7.8c16.2,11.7,26.6,29.5,32.9,48.2c6.7,19.7,9.2,40.5,12.4,61
					c1.7,10.6,3.7,21.1,6.1,31.6c2.4,10.7,3.3,31.1-13.2,30.2c-2.5-0.1-2.5,3.7,0,3.8c16.5,0.9,20.1-17.9,17.9-30.4
					c-1.9-10.5-4.5-20.8-6.3-31.3c-1.7-10.7-3.2-21.4-5-32c-5.8-33.5-17.4-69.8-48.5-88.1c-17.4-10.2-37.2-10.9-56.1-4.6
					C155.7,48.8,156.7,52.6,159,51.8L159,51.8z"/>
			</g>
			<g>
				<path class="st6" d="M254.3,188.6c2.2,7.3,3.7,14.8,4.1,22.4c0.4,6.9,1.1,16.1-4.6,21c-1.9,1.6,0.8,4.3,2.7,2.7
					c5.5-4.8,5.9-12.2,5.8-19c0-9.6-1.6-18.9-4.3-28.1C257.3,185.2,253.6,186.2,254.3,188.6L254.3,188.6z"/>
			</g>
			<g>
				<path class="st6" d="M273.7,237.1c17.1-25.7-4.8-54.8-8.9-80.8c-0.4-2.4-4.1-1.4-3.7,1c4,24.8,25.6,53.4,9.3,77.9
					C269,237.2,272.3,239.1,273.7,237.1L273.7,237.1z"/>
			</g>
			<g>
				<path class="st6" d="M253.5,180.1c2,18.7,3.8,40.6-12.5,53.8c-1.9,1.6,0.8,4.3,2.7,2.7c17.1-13.8,15.8-36.8,13.6-56.5
					C257.1,177.7,253.2,177.6,253.5,180.1L253.5,180.1z"/>
			</g>
			<g>
				<path class="st6" d="M213.1,209.5c0.4,9.7-2.9,18.5-9.6,25.5c-1.7,1.8,1,4.5,2.7,2.7c7.3-7.7,11.1-17.6,10.7-28.3
					C216.8,207,213,207,213.1,209.5L213.1,209.5z"/>
			</g>
			<g>
				<path class="st6" d="M200.7,239.4c20.9,3.7,29.1-18.4,32.9-34.6c0.6-2.4-3.1-3.4-3.7-1c-3.2,13.7-9.8,35.2-28.2,31.9
					C199.3,235.2,198.2,238.9,200.7,239.4L200.7,239.4z"/>
			</g>
			<g>
				<path class="st6" d="M188.9,236.2c13.7,0.3,20.5-12.3,24.4-23.6c0.8-2.3-2.9-3.3-3.7-1c-3.4,9.5-8.9,21-20.7,20.7
					C186.4,232.3,186.4,236.2,188.9,236.2L188.9,236.2z"/>
			</g>
			<g>
				<path class="st6" d="M190.2,219.9c-0.4,7.4-3.2,14.2-8.2,19.7c-1.7,1.8,1.1,4.6,2.7,2.7c5.7-6.3,8.9-13.9,9.3-22.4
					C194.2,217.4,190.3,217.4,190.2,219.9L190.2,219.9z"/>
			</g>
			<g>
				<path class="st6" d="M183.4,220.5c0.5,5.1-0.6,9.7-3.4,14c-1.4,2.1,2,4,3.3,1.9c3.1-4.7,4.5-10.3,3.9-15.9
					C187,218,183.2,218,183.4,220.5L183.4,220.5z"/>
			</g>
			<g>
				<path class="st6" d="M237.1,230.9c-3.1,2.9-7.3,3.5-11.2,1.9c-2.3-0.9-3.3,2.8-1,3.7c5.1,2,10.9,0.8,14.9-2.9
					C241.6,232,238.9,229.3,237.1,230.9L237.1,230.9z"/>
			</g>
			<g>
				<path class="st6" d="M151.5,48.5C119.4,37.4,88.6,60,75.3,88.3c-7.5,15.9-9.8,32.8-11.8,50.1c-1.2,10.4-3.1,20.5-5.9,30.6
					c-2.3,8.4-4.9,16.7-6.4,25.2c-1.9,11.4-3.5,43.1,14.1,43.1c2.5,0,2.5-3.8,0-3.8c-12.1,0-11.8-24.9-11.1-32.6
					c0.9-9.8,3.9-19.3,6.5-28.8c5.4-19.1,5.9-38.6,10-57.9c3.8-18.1,11.8-36,25.5-48.8c14.4-13.5,35.2-19.7,54.2-13.2
					C152.8,53,153.8,49.3,151.5,48.5L151.5,48.5z"/>
			</g>
			<g>
				<path class="st6" d="M67.6,189c1,9.3,3.3,18.4,7.1,27c3.2,7.1,7,15.1,14.9,17.7c2.4,0.8,3.4-2.9,1-3.7
					c-7.5-2.5-11.5-12.8-14.1-19.6c-2.6-6.9-4.3-14-5.1-21.4C71.2,186.6,67.4,186.6,67.6,189L67.6,189z"/>
			</g>
			<g>
				<path class="st6" d="M136.4,236.9c-5.7-3.4-9.4-9-10.6-15.5c-0.4-2.4-4.1-1.4-3.7,1c1.3,7.5,5.8,13.9,12.3,17.8
					C136.5,241.5,138.5,238.1,136.4,236.9L136.4,236.9z"/>
			</g>
			<g>
				<path class="st6" d="M126.3,234.3c-4.6-3.5-7.3-8.7-7.8-14.4c-0.2-2.5-4-2.5-3.8,0c0.6,7.2,3.9,13.3,9.7,17.7
					C126.4,239.1,128.3,235.8,126.3,234.3L126.3,234.3z"/>
			</g>
			<g>
				<path class="st6" d="M116,233.7c-1.9-5.8-2.4-11.8-1.4-17.9c0.4-2.4-3.3-3.5-3.7-1c-1.2,6.8-0.8,13.4,1.4,19.9
					C113.1,237,116.8,236,116,233.7L116,233.7z"/>
			</g>
			<g>
				<path class="st6" d="M115.6,233.7c-3,0.6-6.4,1.1-9.4,0.1c-4.6-1.6-6.1-5.5-7.9-9.7c-2.4-5.9-4.7-11.8-7.1-17.6
					c-0.9-2.3-4.6-1.3-3.7,1c2.1,5.2,4.2,10.5,6.3,15.7c1.3,3.3,2.4,7,4.6,9.8c4.4,5.7,11.7,5.7,18.1,4.4
					C119.1,236.9,118,233.2,115.6,233.7L115.6,233.7z"/>
			</g>
			<g>
				<path class="st6" d="M79.4,219.5c5,7.2,13,11.2,21.8,10.7c2.5-0.2,2.5-4,0-3.8c-7.3,0.5-14.2-2.7-18.5-8.8
					C81.3,215.6,78,217.5,79.4,219.5L79.4,219.5z"/>
			</g>
			<g>
				<path class="st6" d="M113.1,104.3c-10.1,13.6-6.9,32.2-16.9,45.8c-1.5,2,1.9,3.9,3.3,1.9c10-13.6,6.9-32.2,16.9-45.8
					C117.9,104.3,114.5,102.4,113.1,104.3L113.1,104.3z"/>
			</g>
			<g>
				<path class="st6" d="M97.3,118.4c-0.5,9.5-3.1,18.3-7.8,26.6c-3.6,6.3-8.1,12.2-10.9,19.1c-4.8,11.9-3.4,25.1,3.3,36
					c1.3,2.1,4.6,0.2,3.3-1.9c-8.8-14.4-6-29.1,2.5-42.8c7.3-11.8,12.8-22.8,13.5-36.8C101.3,116,97.4,116,97.3,118.4L97.3,118.4z"
					/>
			</g>
			<g>
				<path class="st6" d="M113.5,114.6c-2.6,13.2-4.7,26.9,2.7,38.9c1.3,2.1,4.6,0.2,3.3-1.9c-6.9-11.1-4.7-23.8-2.3-35.9
					C117.7,113.2,114,112.2,113.5,114.6L113.5,114.6z"/>
			</g>
			<g>
				<path class="st6" d="M59,194c-2.9,13.2-5.5,41.5,13.6,44c2.4,0.3,2.4-3.5,0-3.8c-15.8-2.1-12.2-28.9-9.9-39.1
					C63.2,192.6,59.5,191.6,59,194L59,194z"/>
			</g>
			<g>
				<path class="st6" d="M59.5,196.3c1.6,9.8,3.9,20.7,8.8,29.6c4.2,7.5,10.3,9.9,18.6,10.1c2.5,0.1,2.5-3.8,0-3.8
					c-4.6-0.1-9.1-0.6-12.4-4.1c-2.8-2.9-4.3-6.9-5.6-10.6c-2.6-7.2-4.4-14.6-5.6-22.2C62.8,192.9,59.1,193.9,59.5,196.3L59.5,196.3
					z"/>
			</g>
			<g>
				<path class="st6" d="M90.9,275c4,17.4,6.6,35,7.8,52.8c0.2,2.5,4,2.5,3.8,0c-1.3-18.1-3.9-36.1-7.9-53.8
					C94.1,271.5,90.4,272.6,90.9,275L90.9,275z"/>
			</g>
			<g>
				<path class="st6" d="M211,329c0.7,0,1.3,0,2,0c1,0,2-0.9,1.9-1.9c0-1-0.8-1.9-1.9-1.9c-0.7,0-1.3,0-2,0c-1,0-2,0.9-1.9,1.9
					C209.2,328.2,210,329,211,329L211,329z"/>
			</g>
			<path class="st7" d="M190.5,338.4c0-0.2-0.1-0.4-0.3-0.5c-0.1-0.1-0.3-0.1-0.5-0.1c-1.9,0.4-1.5,2.5-1.3,3.9
				c0.2,0.9,0.5,4.8,1,5.4c-2.2-2.6-5.8-3.9-9.1-2.7c0.4,1.5,2.1,2.3,3.6,2.7c1.5,0.4,3.2,0.8,4.2,2c-0.8,1.3-2.7,1.3-4.2,1.5
				c-1.7,0.2-3.4,0.9-4.7,2c0.4,0.9,1.6,0.9,2.5,0.8c2.3-0.2,4.7-0.4,7-0.7c-0.3,2.2,0,4.5,1,6.5c0.2,0.4,0.5,0.9,0.9,0.9
				c0.7,0.1,1-0.9,1-1.6c0.1-1.9,0.2-3.9,0.3-5.8c1.5,2.7,3.7,5.1,6.3,6.9c0.7-0.3,1-1.3,0.8-2.1c-0.2-0.8-0.7-1.5-1.2-2.1
				c-1.1-1.3-2.1-2.7-3.2-4c2.3,0,4.5-0.3,6.7-0.8c0.9-0.2,2-0.8,1.6-1.7c-2.9-0.5-5.9-0.6-8.8-0.2c2-0.2,4.3-3.4,5.3-4.9
				c0.2-0.3,0.4-0.7,0.3-1c-0.1-0.5-0.7-0.7-1.2-0.6c-0.5,0.1-0.9,0.4-1.3,0.8c-1.6,1.4-3.2,2.7-4.7,4.1c-0.5-0.4-0.6-1-0.8-1.7
				C191.4,343,191,340.7,190.5,338.4C190.5,338.4,190.5,338.4,190.5,338.4z"/>
			<path class="st7" d="M135.6,343.9c0.5-0.6,0.4-2.6,0.4-2.9c0-1.9,0.2-3.9,0.3-5.8c0-0.5,0.1-1.1,0.6-1.2c1.2,2.1,2.5,4.2,4.1,6.1
				c0.6,0.7,1.4,1.5,2.3,1.4c0.4-0.9-0.1-1.9-0.7-2.8c-1.2-1.7-2.3-3.3-3.5-5c2.7-0.2,5.4-0.4,8.1-0.5c0.5,0,1-0.1,1.4-0.3
				c0.4-0.3,0.6-0.8,0.4-1.2c-0.2-0.3-0.7-0.4-1.1-0.4c-6.8-0.5-13.5-0.9-20.3-1.4c-1.3-0.1-4.3-0.8-5,0.8c-0.3,0.7-0.1,1.5,0.4,2
				c0.7,0.7,1.8,0.6,2.8,0.5c1.8-0.2,3.6-0.4,5.3-0.6c-0.5,1.5-1.8,2.4-3.1,3.3c-1.2,0.9-2.6,2-2.7,3.5c0,0.3,0,0.7,0.2,1
				c0.5,0.7,1.6,0.4,2.3-0.1c2.4-1.6,3.5-4.5,5.8-6.2c-0.2,0.2,0.5,9.2,0.9,9.7C135.1,344.2,135.4,344.2,135.6,343.9z"/>
			<g>
				<path class="st6" d="M102,329.2c7.6-3.9,17.1,1.4,25.2,1.9c9,0.6,18.3,0.1,27.3-0.1c18.2-0.3,36.4-0.7,54.6-1.4
					c2.5-0.1,2.5-3.9,0-3.8c-19.8,0.7-39.7,1.2-59.5,1.5c-10.2,0.1-20.8,1-30.8-1.4c-6.5-1.6-12.4-3.2-18.7,0.1
					C97.9,327,99.9,330.3,102,329.2L102,329.2z"/>
			</g>
			<path class="st7" d="M97.2,342.7c0,0,0,0.1,0,0.1c0.1,2.5,0.1,5,0.2,7.4c2.5,0,5-0.3,7.5-0.3c0.6,0,1.2,0,1.7,0.4
				c0.5,0.3,0.8,1.1,0.4,1.5c-0.3,0.4-0.7,0.4-1.2,0.5c-3.1,0.5-6.2,1-9.2,1.5c3-0.5,5.2,2.8,7.5,3.8c-0.2,0.6-0.9,0.8-1.5,0.8
				c-1.3,0.2-2.6,0.5-3.8,0.2c-1.4-0.3-2.5-1.7-3.7-2.4c-0.4-0.3-0.9-0.5-1.4-0.5c-1,0-1.7,1-2.4,1.9c-1.6,2.1-4.1,1.5-6.4,0.9
				c-0.5-0.1,4.5-3.4,3.5-4.1c-0.7-0.4-2.8,0.1-3.5,0.3c-0.1-0.8-0.1-1.7,0-2.5c2-0.3,3.6-0.5,5.7-0.4c-0.4-2.3-1.7-4.3-2.8-6.4
				c-0.6-1.2-1-2.9,0-3.8c2.2,2.4,3.8,5.1,5.4,7.9c0.1,0.1,0.1,0.2,0.3,0.3c0.2,0.1,0.4-0.3,0.5-0.5c0.2-1,0.8-8.7,2.5-8.2
				C97.1,341.3,97.2,342.1,97.2,342.7z"/>
			<g>
				<path class="st6" d="M83.5,327c0.3,9.5,0.6,19.1,0.9,28.6c0.1,2.5,3.9,2.5,3.8,0c-0.3-9.5-0.6-19.1-0.9-28.6
					C87.3,324.5,83.4,324.5,83.5,327L83.5,327z"/>
			</g>
			<g>
				<path class="st6" d="M87.2,279.5c2,10.7,3.7,21.4,4.8,32.3c1.1,10.8,1.5,22.7-7.9,30.1c-1.9,1.5,0.8,4.2,2.7,2.7
					c8.7-6.7,10.2-17.6,9.5-27.9c-0.9-12.8-3-25.6-5.4-38.2C90.5,276,86.8,277.1,87.2,279.5L87.2,279.5z"/>
			</g>
			<g>
				<path class="st6" d="M41.7,359.9c25.3,0,50.7-0.1,76-0.1c40.4,0,80.8-0.1,121.2-0.1c9.3,0,18.5,0,27.8,0c2.5,0,2.5-3.8,0-3.8
					c-25.3,0-50.7,0.1-76,0.1c-40.4,0-80.8,0.1-121.2,0.1c-9.3,0-18.5,0-27.8,0C39.3,356.1,39.3,359.9,41.7,359.9L41.7,359.9z"/>
			</g>
			<path class="st7" d="M205.5,332.5c0,0.1,0.1,0.2,0.1,0.2c1.5,2.4,7.8-1.7,10-1.7c0.2,0,0.4,0,0.5,0.2c0.2,0.2,0.1,0.6,0,0.9
				c-0.8,2.1-1.8,4-2.4,6.2c-0.2,0.8-0.3,2,0.6,2.2c0.7,0.1,1.2-0.6,1.5-1.2c1-2.2,2-4.4,3.1-6.6c-0.1,2.8,0.5,5.5,1.7,8
				c0.3,0.6,0.7,1.2,1.4,1.4c0.9,0.2,1.8-0.7,2-1.6c0.1-1-0.3-1.9-0.7-2.8c-1.8-3.9-3.5-7.9-3.9-12.1c-0.3-3.3,0.2-6.7-0.3-10.1
				c-0.5-3.3-2,0.5-2.2,1.7c-0.3,2.6-0.6,5-0.1,7.5c0.2,1.3,0.5,2.9-0.6,3.6c-0.4,0.2-0.9,0.3-1.3,0.4c-2,0.3-4,0.5-5.9,0.8
				c-0.9,0.1-1.9,0.3-2.7,0.8C205.6,330.7,205.1,331.7,205.5,332.5z"/>
			<g>
				<path class="st6" d="M218.2,275.6c-0.3,13.3-1,26.7-0.7,40c0.2,10.3,1.9,20.7,8.3,29.1c1.5,1.9,4.8,0,3.3-1.9
					c-6.9-9-7.8-20.1-7.8-31.1c0-12,0.5-24.1,0.7-36.1C222.1,273.1,218.2,273.1,218.2,275.6L218.2,275.6z"/>
			</g>
			<g>
				<path class="st6" d="M211,271.9c-0.5,19.3,0.8,38.6,1.7,57.8c0.1,2.5,4,2.5,3.8,0c-0.9-19.3-2.2-38.5-1.7-57.8
					C214.9,269.4,211,269.4,211,271.9L211,271.9z"/>
			</g>
			<g>
				<path class="st6" d="M213.4,273.3c2.1,0.8,4.1,2,5.9,3.4c0.8,0.6,2.1,0.1,2.6-0.7c0.6-1,0.1-2-0.7-2.6c-2.1-1.6-4.4-2.8-6.8-3.8
					c-1-0.4-2.1,0.4-2.4,1.3C211.7,272,212.4,272.9,213.4,273.3L213.4,273.3z"/>
			</g>
			<rect x="148.5" y="162.7" class="st2" width="0" height="0"/>
			<g>
				<path class="st6" d="M88,278c1-1.1,2.2-1.7,3.8-1.7c2.5,0,2.5-3.8,0-3.8c-2.5,0-4.8,1-6.5,2.8C83.7,277.1,86.4,279.8,88,278
					L88,278z"/>
			</g>
			<ellipse class="st4" cx="155.4" cy="165.7" rx="10.6" ry="4.8"/>
		</g>
	</g>
</g>
</svg>
