<?xml version="1.0" encoding="utf-8"?>
<!-- Generator: Adobe Illustrator 25.2.3, SVG Export Plug-In . SVG Version: 6.00 Build 0)  -->
<svg version="1.1" id="Layer_1" xmlns="http://www.w3.org/2000/svg" xmlns:xlink="http://www.w3.org/1999/xlink" x="0px" y="0px"
	 viewBox="0 0 320 320" style="enable-background:new 0 0 320 320;" xml:space="preserve">
<style type="text/css">
	.st0{clip-path:url(#SVGID_2_);}
	.st1{fill:#A8877D;}
	.st2{fill:#FFC3BB;}
	.st3{fill:#FFE4D7;}
	.st4{fill:#F9D4C1;}
	.st5{fill:#FFD2B0;}
	.st6{fill:#8D7065;}
</style>
<g>
	<g>
		<defs>
			<circle id="SVGID_1_" cx="160" cy="160" r="160"/>
		</defs>
		<clipPath id="SVGID_2_">
			<use xlink:href="#SVGID_1_"  style="overflow:visible;"/>
		</clipPath>
		<g class="st0">
			<g>
				<path class="st1" d="M124.4,193.3c3.6-0.1,7.1-0.2,10.2-0.1c28.2,0.7,57.5,2.6,85.3-3.4c4-0.9,7.3-3.4,11.1-4.9
					c3.1-1.2,5.9-0.4,8.9-0.9c5.7-1.1,10.2-13,10.8-18.2c0.3-2.6,0.1-5.2-0.5-7.8c-0.5-2.4-1.2-4.7-2.2-6.9
					c-0.8-1.9-1.8-3.7-2.4-5.6c-2.2-6.6,0.4-13.4-1.4-20.2c-1.6-5.9-4.4-11.8-7.4-17c-1.4-2.4-2.9-4.8-4.8-6.8
					c-1.7-1.8-3.6-3.4-5.4-5.1c-5.5-5.4-7.9-10-15.1-13.3c-2.7-1.2-5.8-4.2-8.9-4.3c-2.2-0.1-4.7,2.6-6.4-0.4
					c-0.9-1.5-0.7-3.4-0.7-5.1c-0.1-4.6-2.1-7.9-4.6-11.6c-0.4-0.6-6.6-7.7-7.1-5.2c1.6-8.5,0.2-17.6-4.5-24.8s-12.9-12.2-21.5-12.2
					c-8.6-0.1-17.2,5.2-20.4,13.2c-13-0.3-27.9,13.3-25.7,27.1c0.5,3.1,2.3,5.8,3.4,8.7c3.1,8-2.8,11.1-7,16.7
					c-2,2.7-4.2,5.8-3.8,9.2c0.2,1.8,1.1,3.6,0.7,5.4c-1.5,6.5-9.1,9.8-12.4,15.2c-1.9,3.1-2.7,6.8-4.2,10.2
					c-2.1,4.7-5.4,8.6-8.1,12.9c-5.3,8.5-7.7,20.6-5.3,30.4c1.8,7.7,6.4,14.7,12.7,19.4C97.4,195.4,112.8,193.6,124.4,193.3z"/>
			</g>
			<g>
				<path class="st2" d="M124.9,111.1c0.8,0,1.6,0,2.4-0.2c5.7-1,9.5-6.4,12.2-11.5c2.1-4,3.8-8.1,5.3-12.3c0.3-0.7,0.5-1.5,1.1-2.1
					c0.7-0.6,1.7-0.8,2.6-1c2.9-0.7,5.7-2,8.1-3.8c0.5,2.5,3.4,3.6,5.9,4.2c4.9,1.2,9.8,2.4,14.8,3.6c3.6,0.9,7.4,1.8,10.9,0.6
					c15-5.2,6.8-28-4.5-32.1c-5.9-2.2-9.5-2.5-15.5,0.1c-4.7,2-9,5.2-12.2,9.2c-2.6,3.3-5.1,2-8.5,3.3c-1.9,0.7-5.5,5.2-6.7,4.7
					c-5.9-2.4-11.7-6.5-17.9-5.5c-2.6,0.4-5,1.7-7.1,3.4c-2.3,1.9-4.1,4.5-5.2,7.3c-0.9,2.3-9.1,18.3-6.7,19.8
					c3.9,2.3,7.1,5.6,10.7,8.3C117.7,109.2,121.2,111,124.9,111.1z"/>
			</g>
			<g>
				<path class="st3" d="M236.2,209.4c-2.3,1.1-4.8,1.4-7.5,0.3c-0.5-0.2,1.8-12.6,2.1-13.9c1.5-5.4,0.3-8-2.8-12.7
					c2.8-1.2,6.3-0.9,9.3-1.3c3.2-0.4,6.5-1.5,8.3-4.1c4.4,4.6,3.5,8.4,1.8,13.9c-1,3.3-1.9,7.5-3.8,10.4
					C241.8,204.9,239.3,207.9,236.2,209.4z"/>
			</g>
			<g>
				<path class="st3" d="M216.4,233.1c8.5-10.3,14-24,15.8-36.3c0.7-4.5,1.1-9.6-2.1-12.8c-3.1,1.9-6,4.7-9.7,5.4
					c-3.7,0.6-7-1.4-10.6-1.3c-5,0.2-8.2,1.4-13.3-0.1c-0.5-0.1-1.1-0.3-1.4-0.7c-0.4-0.5-0.4-1.2-0.4-1.8
					c0.1-13.3,0.9-27.7-6.5-39.6c-0.9-1.5-5-5.4-5.1-6.9c0.5,9.4,1.6,18.9,0.6,28.4c-0.9,9.1-4.1,14.8-9.3,22.1
					c-0.4,0.5-0.7,1-1.2,1.3c-0.5,0.2-1,0.3-1.5,0.3c-2.6,0.1-5.2,0.3-7.9,0.4c1.3-9.7-0.3-20.5-3.2-29.8
					c-2.3-7.5-5.9-17.9-12.1-23.1c4.9,9.7,6.3,23,5.7,33.8c-0.4,7.2-2.4,17.5-10.6,19.5c-3.7,0.9-8.3,0.4-11.7-1.2
					c0.8-16.6,2.7-31.2-6.1-46.5c0.3,0.5-5.8,9.4-6.4,10.5c-2.1,4.1-3.9,8.5-5,13c-2.1,8.1-2.6,15.8-1.8,24c0.1,1.3-6.7,0.6-7.4,0.3
					c-1.6-0.7-4.3-3.3-5.2-4.7c0.4,1.8-1.2,3.6-3,4s-3.7-0.2-5.4-0.9c-5.1-2.1-9.8-5.3-13.7-9.2c-5.9,12.7-0.7,30.1,14.6,32.1
					c4.5,0.6,5-1.7,8,1.6c2.5,2.7,3,7.5,4.8,10.7c2.4,4.1,5.9,7.9,9.4,11.2c7.8,7.3,16.2,11.4,26.7,13.2c1,6.3-0.9,14.2-3.6,19.9
					c-4.2,8.7-14.2,16.7-23.7,18.8c0.5,11,0.7,22,0.8,33c0,0.2,11.4,5.3,12.4,5.9c4.5,2.5,10.3,3.9,15.1,5.5
					c6,1.9,12.4,2.1,18.6,2.3c12.3,0.4,24.9-1.5,36.4-6.1c3-0.8,5.9-1.8,8.8-3c0.3-0.1,0.5-0.2,0.7-0.4c0.2-0.2,0.2-0.6,0.2-0.8
					c-0.2-7.6-0.5-15.3-0.6-22.9c-0.1-6.1,3.8-12,2.6-18.2c-1.9-0.4-3.7-0.8-5.5-1.4c-3-0.9-6-1.8-9-2.7c-1-0.3-2.1-0.6-3-1.2
					c-8.8-5.1-7.5-18.6-7.7-27.1c3.8-1.6,7.7-2,11.6-3.4c2.6-0.9,5.2-2,7.6-3.3C208.2,241.7,212.6,237.8,216.4,233.1z"/>
			</g>
			<g>
				<path class="st4" d="M184.2,263.2c-0.3-4-0.2-8.1-0.2-11.5c-14,2.2-28.4,1.5-42.3-1.4c0.9,6.3-1,13.9-3.7,19.6
					c-0.3,0.5-0.5,1.1-0.8,1.6C153.4,273.4,169.9,271.2,184.2,263.2z"/>
			</g>
			<g>
				<path class="st5" d="M142.3,215.1c-1.2-3.6-4.8-8.4-8.4-10.8c-12.9-6.9-28.2-2-35.9,8.8c0.7,0.1,1.5,0.6,2.6,1.8
					c2.5,2.7,3,7.5,4.8,10.7c2.4,4.1,5.9,7.9,9.4,11.2c4.9,4.6,10.5,8.3,16.6,11.1C142.5,240.5,144.7,226.7,142.3,215.1z"/>
				<path class="st5" d="M216.4,233.1c6-7.3,10.5-16.2,13.2-25.1c-10.3-8.5-26.6-9.3-35.9,0c-7.2,7.2-8.4,20.3-4.8,29.9
					c1.2,4.1,3.6,7.4,6.7,10.1c2.6-0.9,5.1-2,7.5-3.3C208.2,241.7,212.6,237.8,216.4,233.1z"/>
			</g>
			<path class="st2" d="M121.2,324c-2.6-0.9-5.1-1.5-7.4-1.6c2.2,0.1,0-35.7-0.7-39.3c-7,1.7-14.3,6.1-21,8.9
				c-8,3.3-15.9,6.6-23.9,9.9c-1.3,0.5-2.7,1.1-3.8,2c-2.1,1.7-3.2,4.4-4.6,6.8c-2.8,4.8-7.1,8.6-10.6,12.9
				c-7.9,9.5-12.3,21.8-12.1,34.1c10.6-0.2,21.1-0.4,31.7-0.5c10.1-0.2,20.8-1.4,30.8-0.3c19.4,2.1,39.8,1.6,59.4,1.3
				c8.8-0.1,17.6-0.3,26.4-0.6c7.1-0.2,14,1.4,20.7,0.9c5.6-0.3,9.6,0.4,15,1.2c6.5,1,13.7-0.1,20.3-0.7c13.1-1.3,26.4-3.4,39.5-0.6
				c1.3,0.3,2.8,0.5,3.5-0.6c0.4-0.7,0.3-1.5,0.1-2.3c-2.1-9.9-5.9-19.4-10.3-28.5c-1.7-3.6-3.1-7.8-5.2-11.1
				c-2.3-3.7-5.8-6.5-8.1-10.3c-1.1-1.8-2-3.7-3.4-5.2c-1.7-1.8-3.8-2.9-6-4c-2.7-1.4-40.7-16.1-41.3-14c-3.2,11.3-3.5,24.3-3.2,36
				c0.1,3.1-0.1,6.8-2.8,8.3c-12.2,6.7-26.9,11-41,10c-8.6-0.6-16.9-3.3-25.1-6C132.9,329.1,126.9,325.9,121.2,324z"/>
			<g>
				<path class="st6" d="M93.7,189c-2.7,28.6,17.3,52.8,43.8,61.5c26.8,8.7,65.7,2.4,83.3-21.3c9.6-12.9,13.7-29.7,12.5-45.6
					c-0.2-2.4-3.9-2.4-3.7,0c1.2,16.4-3.3,34.1-14.4,46.6c-12.8,14.4-34.7,19.8-53.3,19.9c-34.1,0.3-67.9-24.4-64.5-61.2
					C97.7,186.6,93.9,186.6,93.7,189L93.7,189z"/>
			</g>
			<g>
				<path class="st6" d="M76.1,181.3c-5.9,15.7,1.9,33.4,20.3,32.3c2.4-0.1,2.4-3.9,0-3.7c-16.1,0.9-21.7-14.2-16.7-27.6
					C80.6,180.1,77,179.1,76.1,181.3L76.1,181.3z"/>
			</g>
			<g>
				<path class="st6" d="M36.2,359.5c27.9,0,55.9-0.1,83.8-0.1c44.6,0,89.1-0.1,133.7-0.1c10.3,0,20.5,0,30.8,0c2.4,0,2.4-3.7,0-3.7
					c-27.9,0-55.9,0.1-83.8,0.1c-44.6,0-89.1,0.1-133.7,0.1c-10.3,0-20.5,0-30.8,0C33.8,355.8,33.8,359.5,36.2,359.5L36.2,359.5z"/>
			</g>
			<g>
				<path class="st6" d="M230.9,212.3c12.2-5,19.9-17.2,18.7-30.4c-0.2-2.4-4-2.4-3.7,0c1.1,11.4-5.2,22.4-15.9,26.8
					C227.7,209.6,228.7,213.2,230.9,212.3L230.9,212.3z"/>
			</g>
			<g>
				<path class="st6" d="M127.5,199.5c8,0,8-12.4,0-12.4C119.5,187,119.5,199.5,127.5,199.5L127.5,199.5z"/>
			</g>
			<g>
				<path class="st6" d="M199.9,200.1c8,0,8-12.4,0-12.4C191.9,187.6,191.9,200.1,199.9,200.1L199.9,200.1z"/>
			</g>
			<g>
				<path class="st6" d="M157.5,228c5,2,10.4,1.6,15.2-0.9c2.1-1.1,0.2-4.3-1.9-3.2c-3.9,2.1-8.2,2.2-12.3,0.5
					C156.3,223.5,155.3,227.1,157.5,228L157.5,228z"/>
			</g>
			<g>
				<path class="st6" d="M208.1,280.7c-2.8,14.2-3.8,28.5-3,43c0.1,2.4,3.9,2.4,3.7,0c-0.8-14.1,0.1-28.1,2.8-42
					C212.2,279.3,208.6,278.3,208.1,280.7L208.1,280.7z"/>
			</g>
			<g>
				<path class="st6" d="M111.9,283.5c1.8,12.6,2,25.2,0.7,37.8c-0.3,2.4,3.5,2.4,3.7,0c1.4-13,1.1-25.9-0.8-38.8
					C115.1,280.2,111.5,281.2,111.9,283.5L111.9,283.5z"/>
			</g>
			<g>
				<path class="st6" d="M116,324.3c6.9,3.9,13,7.2,20.9,8.9c7.8,1.7,15.6,3.7,23.6,4.2c2.4,0.1,2.4-3.6,0-3.7
					c-15-0.8-29.6-5.2-42.6-12.6C115.8,319.9,113.9,323.2,116,324.3L116,324.3z"/>
			</g>
			<g>
				<path class="st6" d="M162.2,337.2c7.9,0.5,16,1,23.6-1.4c7.5-2.4,13.9-7.2,21.8-8.6c2.4-0.4,1.4-4-1-3.6
					c-7.3,1.3-13.1,5.4-19.9,7.9c-7.9,3-16.3,2.4-24.5,1.9C159.8,333.3,159.8,337,162.2,337.2L162.2,337.2z"/>
			</g>
			<g>
				<path class="st6" d="M192.3,136.1c13.4,13,14.3,31.9,14.8,49.4c0.1,2.4,3.8,2.4,3.7,0c-0.5-18.5-1.8-38.4-15.9-52
					C193.3,131.8,190.6,134.5,192.3,136.1L192.3,136.1z"/>
			</g>
			<g>
				<path class="st6" d="M185.2,133.7c8.8,14.5,12,31.4,9,48.1c-0.4,2.3,3.2,3.4,3.6,1c3.2-17.7-0.1-35.6-9.4-51
					C187.2,129.8,184,131.7,185.2,133.7L185.2,133.7z"/>
			</g>
			<g>
				<path class="st6" d="M172.3,130.6c5.7,10.1,6.7,21.7,7.3,33.1c0.3,5.5,0.4,11.5-2.2,16.5c-0.6,1.2-6.4,8.5-8,7.5
					c-2-1.3-3.9,1.9-1.9,3.2c2.8,1.7,6.3-1.5,8.3-3.2c4.2-3.4,6.2-7.6,7.1-12.9c1.4-8.4,0.1-17.5-0.9-25.8c-0.9-7.2-2.9-14-6.5-20.3
					C174.3,126.6,171.1,128.5,172.3,130.6L172.3,130.6z"/>
			</g>
			<g>
				<path class="st6" d="M153.2,132.6c3,9.4,5.9,18.7,8.9,28.1c3.1,9.9,6.3,18.4,2.2,28.6c-0.9,2.2,2.7,3.2,3.6,1
					c3.6-9,2.1-16.9-0.7-25.9c-3.5-10.9-6.9-21.8-10.4-32.8C156,129.3,152.4,130.3,153.2,132.6L153.2,132.6z"/>
			</g>
			<g>
				<path class="st6" d="M126.4,139.4c6.2,14.4,9.5,31.2,6,46.7c-0.5,2.3,3.1,3.3,3.6,1c3.7-16.5,0.2-34.2-6.4-49.6
					C128.7,135.4,125.5,137.3,126.4,139.4L126.4,139.4z"/>
			</g>
			<g>
				<path class="st6" d="M122.2,140.3c-1.5,4.8-5.4,9.1-7.4,13.7c-1.6,3.6-2.8,7.4-3.7,11.3c-1.8,8.2-2,16.4-0.7,24.7
					c0.4,2.4,3.9,1.4,3.6-1c-1.3-9-0.8-18,1.8-26.7c1.2-4.2,2.9-8.2,5-12c1.7-3.1,4-5.7,5-9C126.5,138.9,122.9,138,122.2,140.3
					L122.2,140.3z"/>
			</g>
			<g>
				<path class="st6" d="M111.5,132.7c-8.8,9.5-15.1,21.2-17.3,34c-1.8,10.4,0.1,23.1,12,25.9c2.3,0.5,3.3-3,1-3.6
					c-13.2-3.1-10.5-19.5-7.5-29.1c2.9-9.3,7.9-17.6,14.5-24.7C115.7,133.6,113.1,131,111.5,132.7L111.5,132.7z"/>
			</g>
			<g>
				<path class="st6" d="M145,79.3c-1-0.9-1.6-2.1-1.9-3.4c-0.2-1-1.4-1.6-2.3-1.3c-1,0.3-1.5,1.3-1.3,2.3c0.4,1.9,1.4,3.7,2.8,5.1
					C144.1,83.5,146.8,80.9,145,79.3L145,79.3z"/>
			</g>
			<g>
				<path class="st6" d="M144.5,75.5c2.2-3.1,6.6-4.2,10-2.5c2.2,1,4-2.2,1.9-3.2c-5.4-2.6-11.6-1-15.1,3.9
					C139.9,75.5,143.1,77.4,144.5,75.5L144.5,75.5z"/>
			</g>
			<g>
				<path class="st6" d="M154.3,73.4c1,2,1.7,4.3,2,6.5c0.3,2.3,4,2.4,3.7,0c-0.4-3-1.2-5.7-2.5-8.4
					C156.4,69.3,153.2,71.2,154.3,73.4L154.3,73.4z"/>
			</g>
			<g>
				<path class="st6" d="M156.4,78c-3.8,1.8-7.7,3.3-11.7,4.4c-2.3,0.7-1.3,4.3,1,3.6c4.3-1.2,8.5-2.8,12.6-4.8
					C160.4,80.2,158.6,77,156.4,78L156.4,78z"/>
			</g>
			<g>
				<path class="st6" d="M155.1,70.1c6.3-6.5,20.8-17,30.2-10.9c10.5,6.8,12.6,28.9-3.8,28.7c-2.4,0-2.4,3.7,0,3.7
					c17.1,0.2,19.4-20.4,10.5-31.2c-11.1-13.5-29.8-2.9-39.4,7.1C150.8,69.2,153.4,71.8,155.1,70.1L155.1,70.1z"/>
			</g>
			<g>
				<path class="st6" d="M157.3,84c6.8,3.4,13.9,5.3,21.5,5.8c2.4,0.1,2.4-3.6,0-3.7c-6.9-0.4-13.4-2.2-19.6-5.3
					C157.1,79.7,155.2,83,157.3,84L157.3,84z"/>
			</g>
			<g>
				<path class="st6" d="M159.2,78c3.3-3.9,7.8-6.2,12.9-6.4c2.4-0.1,2.4-3.8,0-3.7c-6.1,0.3-11.6,2.9-15.6,7.5
					C155,77.2,157.6,79.8,159.2,78L159.2,78z"/>
			</g>
			<g>
				<path class="st6" d="M110.9,78.6c-4.8,5.6-7.9,12.2-9.1,19.5c-0.4,2.3,3.2,3.4,3.6,1c1.1-6.7,3.8-12.7,8.2-17.8
					C115,79.4,112.4,76.8,110.9,78.6L110.9,78.6z"/>
			</g>
			<g>
				<path class="st6" d="M143.5,85.2c-2.6,9-7.4,16.8-14.2,23.2c-1.8,1.6,0.9,4.3,2.6,2.6c7.3-6.8,12.4-15.3,15.1-24.9
					C147.7,83.8,144.1,82.8,143.5,85.2L143.5,85.2z"/>
			</g>
			<g>
				<path class="st6" d="M129.6,107.4c-7.6,3.4-16.7-0.2-20.3-7.6c-1.1-2.2-4.3-0.3-3.2,1.9c4.6,9.4,16,13.1,25.4,8.9
					C133.7,109.6,131.8,106.4,129.6,107.4L129.6,107.4z"/>
			</g>
			<g>
				<path class="st6" d="M140.1,77.9c-5.6,3.6-10.5,8-14.8,13.1c-1.5,1.8,1.1,4.5,2.6,2.6c4.1-4.9,8.7-9.1,14-12.5
					C144,79.8,142.1,76.5,140.1,77.9L140.1,77.9z"/>
			</g>
			<g>
				<path class="st6" d="M122.5,117.8c-0.8,7.1,1.3,13.7,5.7,19.2c1.5,1.9,4.1-0.8,2.6-2.6c-3.8-4.8-5.3-10.6-4.6-16.6
					C126.5,115.4,122.8,115.4,122.5,117.8L122.5,117.8z"/>
			</g>
			<g>
				<path class="st6" d="M116.5,115.6c-1.1,7.4-0.2,14.4,2.8,21.2c0.9,2.2,4.2,0.3,3.2-1.9c-2.5-5.8-3.3-12.1-2.4-18.4
					C120.4,114.2,116.8,113.2,116.5,115.6L116.5,115.6z"/>
			</g>
			<g>
				<path class="st6" d="M104.7,100.2c-3.6,5.4-9.5,8.6-12.9,14.3c-3.3,5.4-5.2,11.6-6.5,17.8c-1.1,5.2-2.3,10.9-0.8,16.2
					c1.5,5.2,5.7,8.4,10,11.3c2,1.4,3.8-1.9,1.9-3.2c-5.7-3.9-9.2-7.9-8.9-15.2c0.3-5.2,1.7-10.7,3.3-15.7
					c1.7-5.2,4.1-10.2,7.8-14.3c3-3.3,6.7-5.6,9.2-9.3C109.2,100.1,106,98.2,104.7,100.2L104.7,100.2z"/>
			</g>
			<g>
				<path class="st6" d="M99.2,113.1c-4.2,12.3-7.8,25-2,37.4c1,2.2,4.2,0.3,3.2-1.9c-5.3-11.4-1.5-23.4,2.3-34.5
					C103.6,111.8,100,110.9,99.2,113.1L99.2,113.1z"/>
			</g>
			<g>
				<path class="st6" d="M99.2,72.4c0.9-2.2,4-1.3,5.5-0.4c1.6,1,2.9,2.4,4.4,3.4c2.4,1.7,4.8,2.4,7.7,1.8c2.4-0.4,1.4-4-1-3.6
					c-5.1,0.9-8.3-5.9-13.3-6.4c-3.2-0.3-5.8,1.2-7,4.1C94.7,73.6,98.3,74.6,99.2,72.4L99.2,72.4z"/>
			</g>
			<g>
				<path class="st6" d="M174.5,56.7c4.6-1.7,8.6-1.7,13.2-0.2c3.3,1,6,1.7,9.4,1c2.3-0.5,1.3-4.1-1-3.6c-4.3,1-8.3-1.7-12.4-2.2
					c-3.5-0.4-6.9,0.1-10.2,1.4C171.2,54,172.2,57.6,174.5,56.7L174.5,56.7z"/>
			</g>
			<g>
				<path class="st6" d="M225.7,182.5c10.3,10.4,3.5,21.3,3.6,33.6c0,6.8,2.8,12.8,9.3,15.6c2.2,0.9,3.2-2.7,1-3.6
					c-11.4-4.8-4.8-20.1-4.1-28.9c0.6-7.5-2-14-7.2-19.3C226.6,178.2,224,180.8,225.7,182.5L225.7,182.5z"/>
			</g>
			<g>
				<path class="st6" d="M92.2,187c-11.6-1.7-16.1-17.1-16.1-27.1c0-11.1,5.6-20.4,11.4-29.5c1.3-2-1.9-3.9-3.2-1.9
					c-7.4,11.6-13.5,23.4-11.4,37.6c1.5,10,7.1,22.9,18.3,24.5C93.6,191,94.6,187.4,92.2,187L92.2,187z"/>
			</g>
			<g>
				<path class="st6" d="M141,135.6c11.4,13.5,14.2,32.1,7.7,48.5c-0.9,2.2,2.7,3.2,3.6,1c7-17.6,3.5-37.6-8.7-52.1
					C142,131.1,139.4,133.7,141,135.6L141,135.6z"/>
			</g>
			<g>
				<path class="st6" d="M205.5,135.5c18.9,8.7,27.2,30.4,18.6,49.5c-1,2.2,2.2,4.1,3.2,1.9c9.4-20.8,1-44.9-19.9-54.6
					C205.2,131.2,203.4,134.5,205.5,135.5L205.5,135.5z"/>
			</g>
			<g>
				<path class="st6" d="M155.3,82.9c-1.4,14.6,0.4,29,5.3,42.8c0.8,2.2,4.4,1.3,3.6-1c-4.8-13.5-6.5-27.5-5.2-41.8
					C159.3,80.5,155.6,80.6,155.3,82.9L155.3,82.9z"/>
			</g>
			<g>
				<path class="st6" d="M146.4,89.3c-1.1,11.1-5.2,25.7,1.1,35.9c1.3,2,4.5,0.2,3.2-1.9c-5.7-9.1-1.6-24-0.6-34
					C150.4,86.9,146.7,86.9,146.4,89.3L146.4,89.3z"/>
			</g>
			<g>
				<path class="st6" d="M143.1,126.6c-3.4-8.1-4.3-16.6-2.7-25.2c0.4-2.3-3.2-3.3-3.6-1c-1.8,9.7-0.8,19.1,3.1,28.1
					C140.8,130.7,144,128.8,143.1,126.6L143.1,126.6z"/>
			</g>
			<g>
				<path class="st6" d="M179.9,90.6c4.3,11,4.8,22.6,5.2,34.3c0.1,2.4,3.8,2.4,3.7,0c-0.3-12-0.9-24-5.3-35.3
					C182.6,87.4,179,88.3,179.9,90.6L179.9,90.6z"/>
			</g>
			<g>
				<path class="st6" d="M188.5,90.2c5.3,10.8,8.4,22.2,9.4,34.2c0.2,2.4,3.9,2.4,3.7,0c-1-12.6-4.3-24.7-9.9-36.1
					C190.7,86.2,187.5,88,188.5,90.2L188.5,90.2z"/>
			</g>
			<g>
				<path class="st6" d="M234.7,183.4c8,0.7,14.4-5.2,16.4-12.7c2.7-10.6-2.5-21.1-4.5-31.3c-0.5-2.3-4.1-1.4-3.6,1
					c1.4,6.9,4.1,13.6,4.9,20.6c1,8.6-2.6,19.6-13.1,18.7C232.4,179.4,232.4,183.2,234.7,183.4L234.7,183.4z"/>
			</g>
			<g>
				<path class="st6" d="M142.1,72.2c-9.9-4.5-24.2-9-30.4,3.1c-1.1,2.1,2.1,4,3.2,1.9c5.1-9.9,17.4-5.3,25.3-1.7
					C142.4,76.4,144.3,73.2,142.1,72.2L142.1,72.2z"/>
			</g>
			<g>
				<path class="st6" d="M141.2,72c-1.5-6.5-3.5-13.1-4.4-19.7c-0.3-1.2-0.4-2.5-0.3-3.8c-0.9-3.2,0.6-4.3,4.6-3.4
					c4.9-0.8,4.8-1.2,6.9,2.4c1.7,2.9,2.8,6.3,3.8,9.5c0.7,2.3,4.3,1.3,3.6-1c-2.1-7.2-7.7-21.6-18-16.8c-3.9,1.9-5.1,6.4-4.8,10.4
					c0.6,7.8,3.3,15.7,5.1,23.3C138.2,75.3,141.8,74.4,141.2,72L141.2,72z"/>
			</g>
			<g>
				<path class="st6" d="M146.2,53.3c-1.5,4.1-1.2,8.6,1.3,12.2c2,2.9,5.8,5.1,8.8,2.3c2.9-2.7,3.8-7.7,3.6-11.5
					c-0.2-5.2-2.7-8.1-4.9-12.4c-0.1,0.8-0.2,1.5-0.3,2.3c0.1-0.1,0.2-0.2,0.3-0.3c-0.6,0.2-1.2,0.3-1.8,0.5c0.1,0,0.2,0.1,0.3,0.1
					c2.3,0.6,3.3-3,1-3.6c-0.1,0-0.2-0.1-0.3-0.1c-0.6-0.2-1.4,0-1.8,0.5c-0.1,0.1-0.2,0.2-0.3,0.3c-0.6,0.7-0.7,1.5-0.3,2.3
					c1,2,2.6,3.4,3.4,5.6c1,2.5,1.2,5.2,0.8,7.9c-0.4,2.9-1.8,7.8-5.4,4.2c-2.3-2.3-1.9-6.5-0.9-9.1C150.6,52,147,51,146.2,53.3
					L146.2,53.3z"/>
			</g>
			<g>
				<path class="st6" d="M137,30.4c-20.4-1-34.5,26.9-20.2,42c1.7,1.7,4.3-0.9,2.6-2.6C107.3,57,120,33.3,137,34.1
					C139.4,34.2,139.4,30.5,137,30.4L137,30.4z"/>
			</g>
			<g>
				<path class="st6" d="M137.4,35.9C144.6,25,154.7,17,168.2,23c5.4,2.4,9.5,6.7,12,11.9c1.3,2.8,6,16.2,1.3,17.9
					c-2.2,0.8-1.3,4.4,1,3.6c6-2.2,4.6-11,3.5-15.9c-1.6-7.4-5.8-14.3-12.1-18.6c-6.2-4.3-14.5-5.8-21.8-3.8
					c-8.4,2.3-13.4,9-17.9,15.9C132.9,36,136.1,37.9,137.4,35.9L137.4,35.9z"/>
			</g>
			<g>
				<path class="st6" d="M164.6,32.2c0.5-0.3,3.7,3,4.2,3.6c1.5,1.7,2.7,3.7,3.5,5.8c1.4,3.8,1.5,7.8,0.4,11.7c-0.6,2.3,3,3.3,3.6,1
					c1.7-5.9,0.9-12.2-2.3-17.6c-1.8-3-7.1-10.1-11.3-7.7C160.7,30.2,162.5,33.4,164.6,32.2L164.6,32.2z"/>
			</g>
			<g>
				<path class="st6" d="M212.1,284.3c7.7,2.8,15.3,5.7,22.9,8.7c7.8,3.1,16.7,5.6,22.8,11.7c1.7,1.7,4.3-0.9,2.6-2.6
					c-5.6-5.5-12.9-8-20.1-10.9c-9-3.6-18.1-7.1-27.2-10.5C210.9,279.9,209.9,283.5,212.1,284.3L212.1,284.3z"/>
			</g>
			<g>
				<path class="st6" d="M257,303.9c5.5,8,11.5,15.9,16.3,24.4c5,9.1,7.8,18.9,9.3,29.2c0.3,2.4,3.9,1.4,3.6-1
					c-1.4-9.8-4.1-19.3-8.7-28.1c-4.8-9.3-11.4-17.7-17.3-26.3C258.8,300,255.6,301.9,257,303.9L257,303.9z"/>
			</g>
			<g>
				<path class="st6" d="M111.2,280.7c-8.8,3.1-17.4,6.7-26,10.3c-7.2,3-14.7,5.7-21,10.3c-1.9,1.4-0.1,4.6,1.9,3.2
					c6.7-4.9,14.5-7.6,22.1-10.8c8-3.3,15.9-6.6,24-9.5C114.4,283.5,113.4,279.9,111.2,280.7L111.2,280.7z"/>
			</g>
			<g>
				<path class="st6" d="M62.1,303.2c-6.3,7.6-13.8,15.1-18.5,23.8c-4.9,9.1-7,20-9.9,29.8c-0.7,2.3,2.9,3.3,3.6,1
					c2.8-9.5,4.7-20.2,9.5-28.9c4.6-8.5,11.8-15.7,17.9-23C66.3,304,63.7,301.3,62.1,303.2L62.1,303.2z"/>
			</g>
			<g>
				<path class="st6" d="M195.5,80.4c6.2,1.9,13.1,3.2,19,6c5.7,2.7,8.2,8.9,10.2,14.6c4,11.7,4.2,23.6,3.7,35.9
					c-0.1,2.4,3.6,2.4,3.7,0c0.6-14.3,0.1-28.4-5.7-41.8c-1.8-4.2-4.3-8.8-8.4-11.3c-6.2-3.7-14.7-5-21.6-7.1
					C194.2,76.1,193.2,79.7,195.5,80.4L195.5,80.4z"/>
			</g>
			<g>
				<path class="st6" d="M240.9,153.9c3.9-8.5,6.2-20.6,5-30c-1.3-10.1-9.2-20.9-16.7-27.5c-1.8-1.6-4.4,1.1-2.6,2.6
					c6.4,5.6,13.6,15.2,15.4,23.7c1.9,8.8-0.6,21.2-4.3,29.3C236.7,154.2,239.9,156.1,240.9,153.9L240.9,153.9z"/>
			</g>
			<g>
				<path class="st6" d="M249.5,312.8c-3.9,5.1-5.2,11-5.9,17.2c-0.9,8.6-1.4,17.3-2,26c-0.2,2.4,3.5,2.4,3.7,0
					c0.6-7.4,1.1-14.7,1.7-22.1c0.6-6.9,1.3-13.6,5.7-19.3C254.2,312.7,251,310.9,249.5,312.8L249.5,312.8z"/>
			</g>
			<g>
				<path class="st6" d="M75.4,310.7c3.7,8.3,4.7,16.6,4.9,25.7c0.1,7,1.3,13.7,2.8,20.5c0.5,2.3,4.1,1.3,3.6-1
					c-3.5-15.8-1.4-32-8.1-47.1C77.7,306.6,74.5,308.5,75.4,310.7L75.4,310.7z"/>
			</g>
			<g>
				<path class="st6" d="M116,289.4c16.6-4.2,27.7-21.1,27.9-37.8c0-2.4-3.7-2.4-3.7,0C140,266.7,130,282,115,285.8
					C112.7,286.4,113.7,290,116,289.4L116,289.4z"/>
			</g>
			<g>
				<path class="st6" d="M182.2,250.9c0.6,7.9-0.8,20.1,5,26.4c5,5.4,13.3,7.1,20.1,8.6c2.3,0.5,3.3-3.1,1-3.6
					c-5.9-1.3-12.9-2.6-17.5-6.7c-5.7-5.1-4.4-17.5-4.9-24.7C185.8,248.5,182.1,248.5,182.2,250.9L182.2,250.9z"/>
			</g>
			<g>
				<path class="st6" d="M98.2,188.7c0.3,4.4,0.8,8.9-0.1,13.2c-1.1,5.4-4.3,8-7.3,12.4c-3.7,5.3-4.6,11.4-3.2,17.7
					c0.5,2.3,4.1,1.3,3.6-1c-1.3-5.8-0.1-11.1,3.6-15.8c1.9-2.5,4-4.4,5.3-7.3c2.8-6,2.3-12.8,1.9-19.2
					C101.8,186.3,98.1,186.3,98.2,188.7L98.2,188.7z"/>
			</g>
			<ellipse class="st4" cx="167.2" cy="201.3" rx="10.9" ry="4.7"/>
		</g>
	</g>
</g>
</svg>
