<?xml version="1.0" encoding="utf-8"?>
<!-- Generator: Adobe Illustrator 25.2.3, SVG Export Plug-In . SVG Version: 6.00 Build 0)  -->
<svg version="1.1" id="Layer_1" xmlns="http://www.w3.org/2000/svg" xmlns:xlink="http://www.w3.org/1999/xlink" x="0px" y="0px"
	 viewBox="0 0 320 320.8" style="enable-background:new 0 0 320 320.8;" xml:space="preserve">
<style type="text/css">
	.st0{clip-path:url(#SVGID_2_);}
	.st1{fill:#FFE4D7;}
	.st2{fill:#FFD2B0;}
	.st3{fill:#F9D4C1;}
	.st4{fill:#FFDFDC;}
	.st5{fill:#F9DFC4;}
	.st6{fill:#8D7065;}
	.st7{fill:#FFFFFF;}
</style>
<g>
	<g>
		<defs>
			<circle id="SVGID_1_" cx="160" cy="160" r="160"/>
		</defs>
		<clipPath id="SVGID_2_">
			<use xlink:href="#SVGID_1_"  style="overflow:visible;"/>
		</clipPath>
		<g class="st0">
			<g>
				<path class="st1" d="M166.9,289.8c3.8-0.1,7.8,2.8,7.9,6.6c1.9-3.5,5.7-5.9,9.6-6.1c5-0.2,7.7,4.8,11.6,4.9
					c4.2,0.1,7.7-5.6,12.4-5.6c3,0,5.4,2.6,7.2,5c-2.7-3.5,18.2-4.7,19.4-4.8c-1.7-5.1-5.5-8.9-9.3-12.6c-1.9-1.8-3.8-3.7-6.1-5
					c-1.7-1-3.6-1.6-5.5-2.1c-9.9-3.1-19.6-7.2-28.4-12.9c-1.7-1.1-3.5-2.4-4.4-4.3c-2.1-4.5,0.4-10.8-0.2-15.6
					c7.3-2,14.7-4,21.5-7.3c20.7-10,30.7-28.2,33.6-50.3c0.6-4.4-2.5-52.3-7.4-49.4c-2.5,1.5-4.3,6.8-5.8,9.2
					c-4-3.2-10.1-13.4-11.9-18.7c1.7,4.9,1.8,10.4-0.5,15.1c-2.3,4.6-7.1,8.1-12.3,7.9c1.6-9.2-0.2-19-4.8-27.2
					c-0.6,8.5,0.6,19.6-7.1,25.5c-1.6,1.2-5.6,3.1-7.5,3.2c-0.3,0-8.2-0.8-6.5-2.6c-2.4,2.4-5.6,4.1-9,4.2c5.2-12.7,3.7-28-3.9-39.4
					c0.3,6.6,0.6,13.3-0.8,19.7c-1.4,6.5-4.6,12.8-10.1,16.4c-1.7,1.1-3.6,2-5.6,1.9s-4-1.3-4.6-3.2c-3.8,3.4-9.2,5-14.3,4.2
					c7-8.7,11.8-20.5,11.4-31.8c-4.4,5.5-9.4,11.1-13.5,16.9c-4.8,6.7-6.9,16.1-14.8,20.3c-1.6,0.9-3.3,1.4-4.8,2.4
					c-1.6,1.1-2.8,2.8-3.9,4.3c-5.7,7.4-17,8.8-22.5,16.4c-6.1,8.4-2.2,24.6,5.6,31.2c4.6,3.9,11.6,5,17.1,2.6
					c6.7-3,4.1-6.9,9.3-2.5c4.3,3.7,5.7,11.4,11.2,15.8c6.4,5.1,14,8.8,21.5,12.1c3.4,1.5,0.3,15.8-0.8,18.5
					c-6.5,15.4-34,25.5-48.7,30.2c-9.2,2.9-19.8,5.6-24.6,13.9c1.7,1.1,2.9,2.7,3.5,4.6c3.7-5.1,11.7-6.3,16.7-2.5
					c0.6,0.4,1.1,0.9,1.8,1.1c1,0.3,2.1-0.2,3.1-0.6c9.7-3.9,20.8-0.9,31.1-2.3c10.6-1.5,23.7-7,34-1.6
					C159.6,292.7,162.8,289.9,166.9,289.8z"/>
			</g>
			<g>
				<path class="st2" d="M194,194.7c-6.2,8.7-6.2,19.9-1.2,29.8c1.7,2.7,3.7,5.1,5.9,7.3c1.4-0.6,2.7-1.1,4-1.8
					c18.8-9.1,28.7-24.9,32.6-44.3C220.4,179.6,203.1,180.6,194,194.7z"/>
				<path class="st2" d="M139.3,191c-1.2-1.2-3.7-5-7.5-6.2c-7.5-2.5-14.9-2.5-22.4,0c-10.2,2.3-18.3,13.8-18.7,25.2
					c2.8,0.3,5.7,0,8.2-1.2c6.7-3,4.1-6.9,9.3-2.5c4.3,3.7,5.7,11.4,11.2,15.8c4.5,3.6,9.6,6.5,14.9,9.1
					C145.3,220.5,150.1,204.5,139.3,191z"/>
			</g>
			<g>
				<path class="st3" d="M180.5,247c0.2-2.9,0.8-5.9,0.7-8.6c-13.2,1-26.6,0.3-39.3-2.9c1.5,3.9-0.9,14.9-1.8,17.2
					c-0.2,0.6-0.5,1.1-0.8,1.7C153.6,256.1,168.4,254.2,180.5,247z"/>
			</g>
			<g>
				<path class="st4" d="M216.6,293.7c-2.6-3-6.7-4.3-10.6-4.1c-3.9,0.2-6.6,3.9-9.5,4.3c1-0.1-22.2-3.2-18.8,1.6
					c-2.3-3.2-6.3-5.1-10.2-4.9s-7.7,2.4-9.7,5.8c-2.2-3.2-6.5-4.3-10.4-4.1c-3.9,0.2-7.6,1.4-11.5,1.8c-9.9,1-17.6,8.9-27.7,5.5
					c-2.1-0.7-4.1-1.7-6.3-1.7c-2.2,0.1-4.2,1.3-6.4,1.8c-4.4,1-8.8-0.8-13.3-1.6s-9.9-0.2-12,3.8c-4-3.9-9.9-5.7-15.4-4.7
					c0,0,3.1,12,2.5,13.7c-1.2,3.7-7.8,8.6-10.2,12c-7.3,10.2-12.8,21.7-16.2,33.8c-0.2,0.6,111.5,3.4,121.8,3
					c25.6-1.1,50.9-2,76.5-1.7c6,0.1,12.1,0.1,18.1,0.2c9.5,0.1,18.9,0.2,28.4,0.3c0.6,0,10.1,0,10-0.2c-1.2-3.4-2.1-7-2.6-10.6
					c-0.4-2.9-0.5-5.7-0.9-8.6c-1.6-12-8-25.5-19.4-31.2c-5.6-2.8-12.8-5.4-13.9-11.6c-0.5-2.8,0.5-5.8-0.1-8.6
					c-2.2-11-12.3,3.2-10.6,4.5C232,286.9,221.9,287.7,216.6,293.7z"/>
			</g>
			<path class="st5" d="M225.9,209.2c-10,15.5-27.4,20.1-43.3,27.2c-0.9,0.4-1.8,0.8-2.3,1.7c-0.5,0.8-0.3,1.9-0.2,2.8
				c0.6,4.2,1.2,8.4,1.8,12.6c0.3,2.1,0.6,4.2,1.7,6c4.5,7.6,20.9,5,28.5,8.8c3.7,1.9,26.7,16.5,24.3,21.9c4.3-9.6,14.5-10.2,13.9,2
				c-0.2,3.3-1.1,7-3.9,8.9c15.8,3.7,29.5,15.6,35.2,30.8c6.7-3,11.3-10.1,11.2-17.4c-2.9,1.7-6.1,3.2-9.4,3.4
				c-3.4,0.2-7-1.3-8.5-4.3c-2.6-5.3,2.5-11,4-16.6c1.8-6.9-1.9-14.1-6.6-19.5c-11-12.6-23.1-20.1-21.7-38.8
				c1-12.7,6.8-24.6,7.4-37.7c0.6-12.2-1.3-24.8-6.1-36c-3.6-8.6,0.7-10.4,2.1-18.6c1.1-6.7-2.5-14.9-4.2-21.2
				c-4.5-16.6-10.2-31.4-21.7-44.4c-0.8-0.9-1.5-1.7-2.4-2.5c-19.5-19-52.8-37.4-79.3-21.5c-2.8,1.7-5.7,3.9-9,3.6
				c-2-0.1-3.7-1.2-5.5-2c-22.1-10.5-36.4,6.9-52.8,18.3c-4.7,3.3-8.2,7.9-11.3,12.7c-7,11-12.9,23.8-15.4,36.6
				c-2.4,12,1.5,24.8,2.1,37.1c0.4,9.1-0.5,18.7-5.5,26.3c-8.2,12.5-13.3,28.5-11.5,43.5c0.5,4.3,1.7,8.6,2.8,12.8
				c3.8,14,10,26.7,4.6,40.8c-4.6,12.1-13,22.4-18.2,34.3c-2.8,6.4-6.3,22.7,4.7,24.9c8.3,1.7,19.1-21,22.5-28.3
				c4.6-10.1,5.1-10.3,2.1-22.2c3.2-1,6.9-0.6,9.8,1.1c0.7,0.4,1.4,0.9,2.2,0.7c0.7-0.1,1.2-0.7,1.7-1.2c4.2-5,8.2-14.1,15-6.9
				c1.5,1.6,2.8,3.5,4.8,4.5c4.2,2.1,12.1-3,13.8-6.8c1.3-2.9,2.7-4.9,6-5.5c4.1,7.1,12.3,9.5,20.2,9.7c2.2,0,5-0.5,5.4-2.7
				c0.2-1.1-0.3-2.1-0.8-3.1c-8-17.4,11.5-27.8,6.6-43c-5-15.5-35.4-21.5-36.1-36.8c-4.7,4.9-11.9,6.8-18.3,4.3
				c-6.3-2.4-10.9-8.6-12.2-15.2c-1-5.5,0.2-16.2,3.7-21c3.9-5.4,11.6-5.4,16.7-9.6c3.4-2.8,5.7-6.8,9-9.7c3.2-2.8,7.4-4.4,10.5-7.3
				c2.4-2.2,4.1-5.1,5.7-8c4.3-7.5,15.6-18.5,15.6-27.3c1,12.4-2.6,25.2-9.9,35.3c5.4,0.4,11-1.4,15.1-5c-0.9,0.9,0,2.5,1.2,2.8
				s2.4-0.4,3.4-1.1c10.6-7,17-19.9,15.9-32.6c4.6,4.4,6.4,11,6.3,17.4c-0.1,6.3-2,12.5-3.9,18.6c3.4-0.7,6.3-3.4,7.4-6.7
				c2.5,7.8,11,4.6,14.7,0.7c5.5-5.9,8.4-15.3,8.2-23.2c5.2,7.9,4.8,18.1,4.2,27.6c3.5,0.9,7.3-0.3,9.9-2.7c2.7-2.4,4.3-5.7,5.1-9.2
				c1.2-4.8,0.7-10.5-3-13.9c7.1,6.6,6.9,15.4,9.1,24c8.8-3.2,10.4,21.6,11.2,26.3C232.6,182.5,233.4,197.6,225.9,209.2z"/>
			<g>
				<path class="st6" d="M98.9,165.4c-1,15.5,0.2,31.8,8.1,45.6c8.3,14.5,23.7,23.5,39.6,27.3c29.7,7,70.4-3.6,82.5-34.5
					c6.5-16.5,3.5-35,0.7-52c-0.4-2.4-4-1.4-3.6,1c2.8,17.4,6,37.1-2.3,53.5c-9.2,18.3-30.8,27.9-50.3,30
					c-20,2.2-42.6-3.3-56.8-18.2c-13.4-14-15.5-34.2-14.3-52.7C102.8,163,99.1,163,98.9,165.4L98.9,165.4z"/>
			</g>
			<g>
				<path class="st6" d="M135.9,180.4c8,0,8-12.4,0-12.4S127.9,180.4,135.9,180.4L135.9,180.4z"/>
			</g>
			<g>
				<path class="st6" d="M201.2,179.2c8,0,8-12.4,0-12.4S193.2,179.2,201.2,179.2L201.2,179.2z"/>
			</g>
			<g>
				<path class="st6" d="M168.5,204.8c2.4,0,2.4-3.7,0-3.7C166.1,201,166.1,204.8,168.5,204.8L168.5,204.8z"/>
			</g>
			<g>
				<path class="st6" d="M143.9,57.3c-11.7-3.4-24.3-6.9-36.4-3.4c-10.7,3-20.8,10.3-28.6,18c-16.1,16-27.6,41.7-27.1,64.6
					c0.3,13.9,3.8,27.1-1.2,40.6C46.3,188.7,39,199,36,211.1c-2.9,11.4-3,23.5-0.3,34.9c2.9,12,13.5,25.9,9.2,38.6
					c-2.1,6.3-7.6,10.7-11.5,15.8c-3.6,4.8-6.2,10.3-7.7,16.1c-2.6,10-2.8,23.1,5.1,30.7c1.7,1.7,4.4-1,2.6-2.6
					c-8.5-8.2-6.2-24.2-1.8-34c4-8.8,12.4-14.5,16.2-23.3c4-9.5,0-19.3-3.7-28.2c-4.7-11.5-7.5-23.2-6.4-35.8
					c1.1-12.6,6.2-23.3,11.8-34.5c4.5-9.1,7.9-18.2,7.8-28.6c-0.1-12.8-3.1-25-0.3-37.8c2.6-11.9,7-23.4,13.5-33.7
					c7-11.1,16.3-20,27.7-26.5c14.8-8.5,29.3-5.7,44.8-1.2C145.2,61.6,146.2,58,143.9,57.3L143.9,57.3z"/>
			</g>
			<g>
				<path class="st6" d="M190.3,114.1c6.3,8.3,9.3,17.9,8.6,28.3c-0.2,2.4,3.6,2.4,3.7,0c0.7-11-2.4-21.5-9.1-30.2
					C192.1,110.3,188.9,112.2,190.3,114.1L190.3,114.1z"/>
			</g>
			<g>
				<path class="st6" d="M207.2,118.4c1.5,4.9,2.8,10.2,2.7,15.4c-0.2,7.4-5.9,8.2-11.8,8.1c-2.4-0.1-2.4,3.7,0,3.7
					c5.4,0.1,11.6-0.3,14.4-5.8c3.2-6.4,0.3-16.1-1.6-22.4C210.1,115.1,206.5,116.1,207.2,118.4L207.2,118.4z"/>
			</g>
			<g>
				<path class="st6" d="M207.9,119.6c5.3,5.8,8.6,12.9,9.7,20.7c0.3,2.3,4,2.4,3.7,0c-1.1-8.9-4.7-16.7-10.7-23.4
					C208.9,115.2,206.3,117.8,207.9,119.6L207.9,119.6z"/>
			</g>
			<g>
				<path class="st6" d="M220.4,143.1c7.5-1.8,12.9-8.6,12.9-16.3c0-2.4-3.7-2.4-3.7,0c0,6.1-4.3,11.3-10.2,12.7
					C217.1,140,218.1,143.6,220.4,143.1L220.4,143.1z"/>
			</g>
			<g>
				<path class="st6" d="M230.8,128c0.9,3.2,1.7,6.4,2.1,9.7c0.3,2.3,4,2.4,3.7,0c-0.5-3.6-1.2-7.2-2.2-10.7
					C233.7,124.7,230.1,125.7,230.8,128L230.8,128z"/>
			</g>
			<g>
				<path class="st6" d="M237.2,139.3c7-7.2,8.7-17.6,4.5-26.7c-1-2.2-4.2-0.3-3.2,1.9c3.5,7.6,1.8,16.2-3.9,22.2
					C232.9,138.4,235.5,141,237.2,139.3L237.2,139.3z"/>
			</g>
			<g>
				<path class="st6" d="M189.8,112.8c3.8,12.9-0.2,35.3-18.5,29.7c-2.3-0.7-3.3,2.9-1,3.6c7.5,2.3,15.9,0,20.5-6.5
					c5.5-7.8,5.1-18.9,2.5-27.7C192.7,109.6,189.1,110.5,189.8,112.8L189.8,112.8z"/>
			</g>
			<g>
				<path class="st6" d="M172.7,136.5c-1.1,5.5-5.7,8.8-11.3,8.2c0.5,0.9,1.1,1.9,1.6,2.8c8.7-12.9,8.4-30.1-0.9-42.7
					c-1.4-1.9-4.6,0-3.2,1.9c8.6,11.6,9,27,0.9,38.9c-0.9,1.3,0.3,2.7,1.6,2.8c7.2,0.7,13.4-3.9,14.9-11
					C176.8,135.1,173.2,134.1,172.7,136.5L172.7,136.5z"/>
			</g>
			<g>
				<path class="st6" d="M158.2,105.5c4.8,14.7-2.3,39.2-21.3,37.4c-2.4-0.2-2.4,3.5,0,3.7c21.4,2.1,30.4-25.2,24.9-42.1
					C161,102.2,157.4,103.2,158.2,105.5L158.2,105.5z"/>
			</g>
			<g>
				<path class="st6" d="M139.2,136.5c-1.3,5.3-6.5,9-12,8.1c-2.3-0.4-3.4,3.2-1,3.6c7.4,1.3,14.8-3.3,16.6-10.7
					C143.3,135.1,139.7,134.1,139.2,136.5L139.2,136.5z"/>
			</g>
			<g>
				<path class="st6" d="M134.9,109.6c1.1,7.2-0.8,13.9-3.5,20.5c-2.1,5-4.8,13.5-10.5,15.2c-2,0.6-1.6,3.5,0.5,3.7
					c2.3,0.1,4.3-0.1,6.5-0.6c2.3-0.5,1.3-4.1-1-3.6c-1.8,0.5-3.7,0.7-5.5,0.4c0.2,1.2,0.3,2.4,0.5,3.7c7-2.2,9.7-10,12.3-16.1
					c3.5-7.8,5.5-15.6,4.3-24.2C138.1,106.2,134.5,107.2,134.9,109.6L134.9,109.6z"/>
			</g>
			<g>
				<path class="st6" d="M247.8,280.7c-4.3,0.4-8.2,2.9-10,6.9c-1,2.2,2.2,4.1,3.2,1.9c1.2-2.8,3.7-4.8,6.8-5.1
					C250.1,284.2,250.1,280.5,247.8,280.7L247.8,280.7z"/>
			</g>
			<g>
				<path class="st6" d="M239.2,289.7c-6.8-5-16.5-4-22.3,2.1c-1.7,1.7,1,4.4,2.6,2.6c4.7-5,12.2-5.5,17.8-1.5
					C239.3,294.4,241.1,291.1,239.2,289.7L239.2,289.7z"/>
			</g>
			<g>
				<path class="st6" d="M217.9,292.7c-6.8-7-17.7-5.7-22.7,2.6c-1.3,2.1,2,3.9,3.2,1.9c3.8-6.3,11.8-7.1,16.9-1.8
					C217,297,219.6,294.4,217.9,292.7L217.9,292.7z"/>
			</g>
			<g>
				<path class="st6" d="M197,295.2c-5.4-7.7-16.3-7.5-21.1,0.7c-1.2,2.1,2,4,3.2,1.9c3.3-5.6,10.8-6.1,14.6-0.7
					C195.2,299,198.4,297.1,197,295.2L197,295.2z"/>
			</g>
			<g>
				<path class="st6" d="M178.7,295.8c-4.1-9.9-16.1-7.7-21.3,0c-1.3,2,1.9,3.9,3.2,1.9c3.2-4.7,11.6-7.8,14.5-0.9
					C176,298.9,179.6,298,178.7,295.8L178.7,295.8z"/>
			</g>
			<g>
				<path class="st6" d="M159.4,295.4c-4.5-4-10.6-4.9-16.1-2.5c-2.2,1-0.3,4.2,1.9,3.2c3.9-1.7,8.4-0.9,11.6,1.9
					C158.5,299.6,161.2,297,159.4,295.4L159.4,295.4z"/>
			</g>
			<g>
				<path class="st6" d="M246.4,284.7c2.1,3.4,2.3,7.3,0.9,11c-0.9,2.2,2.7,3.2,3.6,1c1.8-4.6,1.3-9.7-1.3-13.9
					C248.4,280.7,245.2,282.6,246.4,284.7L246.4,284.7z"/>
			</g>
			<g>
				<path class="st6" d="M89.9,297.5c-5.5-5.5-16-4.5-20.3,1.9c-1.4,2,1.9,3.8,3.2,1.9c3-4.4,10.8-4.9,14.5-1.2
					C89,301.9,91.6,299.2,89.9,297.5L89.9,297.5z"/>
			</g>
			<g>
				<path class="st6" d="M72.3,300.7c-2.5-5.2-10.4-7.3-15.6-5.9c-2.3,0.6-1.3,4.2,1,3.6c3.7-1,9.6,0.4,11.4,4.2
					C70.1,304.8,73.3,302.9,72.3,300.7L72.3,300.7z"/>
			</g>
			<g>
				<path class="st6" d="M91.3,301.6c1.4-1.1,3.1-1.7,4.8-1.8c2.4-0.2,2.4-3.9,0-3.7c-2.8,0.2-5.2,1.2-7.4,2.9c-0.8,0.6-0.6,2,0,2.6
					C89.4,302.4,90.5,302.2,91.3,301.6L91.3,301.6z"/>
			</g>
			<g>
				<path class="st6" d="M68.7,298c1.2-6.4,10.3-10.2,16-11.5c2.3-0.5,1.4-4.1-1-3.6c-7.1,1.6-17,6.2-18.6,14.1
					C64.6,299.4,68.2,300.4,68.7,298L68.7,298z"/>
			</g>
			<g>
				<path class="st6" d="M60.3,311.1c-0.2-2.1-0.6-4.2-1.2-6.2c-0.5-1.8-1.5-5.4-3.2-6.2c2.2,1,4.1-2.2,1.9-3.2
					c-2.4-1.2-4.9,0.5-4.9,3.2c0,1.9,1.4,3.7,2,5.4c0.9,2.3,1.4,4.7,1.7,7.1C56.8,313.5,60.5,313.5,60.3,311.1L60.3,311.1z"/>
			</g>
			<g>
				<path class="st6" d="M97.7,322.3c-0.2,10,0.6,19.9,2.5,29.7c0.4,2.4,4,1.4,3.6-1c-1.8-9.5-2.6-19.1-2.3-28.7
					C101.5,319.9,97.8,319.9,97.7,322.3L97.7,322.3z"/>
			</g>
			<g>
				<path class="st7" d="M204.9,348.6c8,0,8-12.4,0-12.4S196.9,348.6,204.9,348.6L204.9,348.6z"/>
			</g>
			<g>
				<path class="st7" d="M270.2,350c8,0,8-12.4,0-12.4S262.2,350,270.2,350L270.2,350z"/>
			</g>
			<g>
				<path class="st7" d="M115.1,337.7c8,0,8-12.4,0-12.4C107.1,325.3,107.1,337.7,115.1,337.7L115.1,337.7z"/>
			</g>
			<g>
				<path class="st7" d="M36.7,347.9c0,0.5,0,0.9,0,1.4c0,1.6,0.7,3.3,1.8,4.4c1.1,1.1,2.8,1.9,4.4,1.8s3.3-0.6,4.4-1.8
					c1.1-1.2,1.8-2.7,1.8-4.4c0-0.5,0-0.9,0-1.4c0-1.6-0.7-3.3-1.8-4.4c-1.1-1.1-2.8-1.9-4.4-1.8s-3.3,0.6-4.4,1.8
					C37.5,344.7,36.7,346.2,36.7,347.9L36.7,347.9z"/>
			</g>
			<g>
				<path class="st7" d="M71.5,325.5c8,0,8-12.4,0-12.4S63.5,325.5,71.5,325.5L71.5,325.5z"/>
			</g>
			<g>
				<path class="st7" d="M233.5,311.9c8,0,8-12.4,0-12.4S225.5,311.9,233.5,311.9L233.5,311.9z"/>
			</g>
			<g>
				<path class="st6" d="M57.5,309.6c12,5.1,24.3,2,36.9,2.8c6.8,0.4,12.6,2.8,19.4,2c7-0.9,13.8-2,20.8-1.2c2.4,0.3,2.4-3.5,0-3.7
					c-5.4-0.6-10.6-0.1-16,0.6c-4,0.5-8.1,1.4-12.2,0.8c-2.9-0.5-5.7-1.5-8.7-1.8c-12.8-1.6-26.2,2.7-38.4-2.6
					C57.2,305.4,55.3,308.6,57.5,309.6L57.5,309.6z"/>
			</g>
			<g>
				<path class="st6" d="M155.4,310.5c7.9-3.2,17-0.9,25.2-0.1c7.8,0.8,15.9,2.2,23.7,1.3c3.4-0.4,6.4-1.4,9.4-2.8
					c5.2-2.3,8.7-2.2,14.2-2.4c7.6-0.3,14.4-3.6,21.1-7c2.1-1.1,0.3-4.3-1.9-3.2c-4,2-8.1,4.1-12.4,5.3c-4.4,1.3-8.6,0.9-13.1,1.1
					c-2.9,0.1-5.3,0.9-7.9,2c-4.9,2.2-8.8,3.4-14.2,3.6c-8.3,0.2-16.8-1.3-25-2.2c-6.9-0.7-13.6-1.9-20.2,0.8
					C152.2,307.8,153.2,311.4,155.4,310.5L155.4,310.5z"/>
			</g>
			<g>
				<path class="st6" d="M138.7,235.3c1.5,7.8,3.1,18-5,22.9c-2,1.2-0.2,4.5,1.9,3.2c9.7-5.9,8.5-17.4,6.7-27.1
					C141.8,231.9,138.2,232.9,138.7,235.3L138.7,235.3z"/>
			</g>
			<g>
				<path class="st6" d="M179.3,236.6c0,7.3,0,14.6,0,21.9c0,2.4,3.7,2.4,3.7,0c0-7.3,0-14.6,0-21.9
					C183,234.2,179.3,234.2,179.3,236.6L179.3,236.6z"/>
			</g>
			<g>
				<path class="st6" d="M179.1,251.6c3.8,10.7,15,14.3,25,17.3c6.2,1.9,12.6,3.7,17.9,7.6c5.6,4.2,8.6,10.8,14.1,15.1
					c1.9,1.5,4.5-1.2,2.6-2.6c-4.6-3.6-7.3-8.8-11.5-12.9c-3.3-3.2-7.3-5.5-11.5-7.2c-10.8-4.4-28.4-5.5-33-18.2
					C181.9,248.4,178.3,249.4,179.1,251.6L179.1,251.6z"/>
			</g>
			<g>
				<path class="st6" d="M228.1,139.9c0,8.4,6.6,13.7,10.6,20.5c6.4,10.8,4.9,19.8-1.5,29.9c-6,9.5-14,25-1.5,33.2
					c2,1.3,3.9-1.9,1.9-3.2c-14.7-9.7,6.2-29.7,8.8-40.5c1.4-5.9,0.2-12-2.4-17.5c-3.4-7.3-12.1-13.9-12.1-22.4
					C231.8,137.5,228.1,137.5,228.1,139.9L228.1,139.9z"/>
			</g>
			<g>
				<path class="st6" d="M33.3,360c28.5,0,57.1-0.1,85.6-0.1c45.3,0,90.6-0.1,135.8-0.1c10.5,0,21,0,31.5,0c2.4,0,2.4-3.7,0-3.7
					c-28.5,0-57.1,0.1-85.6,0.1c-45.3,0-90.6,0.1-135.8,0.1c-10.5,0-21,0-31.5,0C30.9,356.3,30.9,360,33.3,360L33.3,360z"/>
			</g>
			<g>
				<path class="st6" d="M58.9,307.9c-7.3,7.2-13.1,15.4-18.7,23.9c-4.9,7.5-10.1,15-9.5,24.3c0.2,2.4,3.9,2.4,3.7,0
					c-0.6-9.3,5.4-17,10.3-24.3c5.1-7.6,10.4-14.9,16.9-21.3C63.3,308.9,60.6,306.2,58.9,307.9L58.9,307.9z"/>
			</g>
			<g>
				<path class="st6" d="M250.1,304.9c10.4,5,21.2,11.8,26.5,22.5c4.9,9.9,1.7,21.9,7.9,31.3c1.3,2,4.5,0.1,3.2-1.9
					c-4-6.1-3.6-13.1-4.6-20.1c-0.7-5.1-2.3-9.9-5.1-14.3c-6.1-9.6-16.1-15.9-26.1-20.7C249.8,300.7,247.9,303.9,250.1,304.9
					L250.1,304.9z"/>
			</g>
			<g>
				<path class="st6" d="M238.3,319.6c5.9,11.7,9.3,24.2,10,37.4c0.1,2.4,3.9,2.4,3.7,0c-0.7-13.8-4.3-26.9-10.5-39.3
					C240.5,315.6,237.3,317.5,238.3,319.6L238.3,319.6z"/>
			</g>
			<g>
				<path class="st6" d="M87.6,328c0,12.3,9.2,20.5,16,29.7c1.4,1.9,4.6,0.1,3.2-1.9c-6.3-8.6-15.4-16.4-15.5-27.8
					C91.3,325.6,87.6,325.6,87.6,328L87.6,328z"/>
			</g>
			<g>
				<path class="st6" d="M227.2,84.4c9,8.3,13.3,19.7,17,31.1c4.2,13,7.7,26.7,3.3,40.2c-0.8,2.3,2.8,3.3,3.6,1
					c4.6-14.1,1.1-28.5-3.3-42.2c-3.9-12-8.5-24-17.9-32.7C228.1,80.1,225.5,82.8,227.2,84.4L227.2,84.4z"/>
			</g>
			<g>
				<path class="st6" d="M242.9,139.7c-1,9.3,3.5,16.9,7.4,24.9c5,10.3,7.6,21.3,7.4,32.8s-4.1,21.6-7.2,32.5
					c-2.4,8.5-3.9,17.8-0.8,26.3c2.8,7.8,8.9,11.8,15.1,16.7c8.8,6.9,13.1,16.9,10.7,28.1c-1.2,5.7-4,13,0.6,17.9
					c4.9,5.1,12.2,2.1,17.4-0.6c2.1-1.1,0.2-4.3-1.9-3.2c-5,2.6-14.7,5.5-14.4-4c0.1-4,1.8-7.8,2.3-11.7c0.9-6,0-12.2-2.7-17.6
					c-2.9-6.1-7.8-10.1-13.1-14.1c-8.7-6.6-12.9-14.3-12-25.5c0.8-9.7,5-18.6,7.3-27.9c2-8,2.7-16.2,2-24.4
					c-0.7-7.9-2.6-15.6-5.7-22.9c-3.8-8.9-9.9-17.1-8.8-27.2C246.9,137.3,243.1,137.3,242.9,139.7L242.9,139.7z"/>
			</g>
			<g>
				<path class="st6" d="M280.3,332.6c9.5,0.5,17.1-8.5,15.7-17.8c-0.4-2.4-4-1.4-3.6,1c1.1,7-5.2,13.4-12.1,13.1
					C277.9,328.7,277.9,332.5,280.3,332.6L280.3,332.6z"/>
			</g>
			<g>
				<path class="st6" d="M203.1,244c-0.4,6.2,1,12.2,2.8,18c1.2,3.8,2.7,7.2,6.4,9.1c2.1,1.1,4-2.1,1.9-3.2c-3.8-2-4.7-6.5-5.7-10.3
					c-1.2-4.5-2.1-8.9-1.7-13.6C207,241.6,203.3,241.7,203.1,244L203.1,244z"/>
			</g>
			<g>
				<path class="st6" d="M132.2,107.8C128,119,123,130,116.1,139.9c-3.3,4.8-7.1,9.2-11.4,13.2c-1.3,1.3-14.7,12.8-16.5,10.8
					c-1.6-1.8-4.2,0.8-2.6,2.6c3.3,3.8,9.7-1.5,12.6-3.5c6.1-4.1,11.5-9.1,16.2-14.8c9.6-11.6,16.2-25.3,21.4-39.4
					C136.6,106.6,133,105.6,132.2,107.8L132.2,107.8z"/>
			</g>
			<g>
				<path class="st6" d="M57.7,144.7c-0.8,12.4-3.7,24.3-8.8,35.6c-1,2.2,2.2,4.1,3.2,1.9c5.3-12,8.4-24.4,9.3-37.5
					C61.5,142.3,57.8,142.3,57.7,144.7L57.7,144.7z"/>
			</g>
			<g>
				<path class="st6" d="M127,241.3c2,5.5,3.3,11.2,3.6,17.1c0.3,5.2-0.6,10.3-0.5,15.4c0.1,6.5,2.3,13,8.7,15.8
					c2.2,1,4.1-2.2,1.9-3.2c-9.2-4.1-6.4-15.5-6.2-23.5c0.2-7.7-1.1-15.3-3.8-22.6C129.7,238,126.1,239,127,241.3L127,241.3z"/>
			</g>
			<g>
				<path class="st6" d="M104.2,247.1c5.5,11.4-2.5,26.2,6.1,36.6c3.6,4.3,9.1,6.2,14.4,7.2c5.3,1,11.3,2.3,16-1.2
					c1.9-1.4,0.1-4.6-1.9-3.2c-4.5,3.4-12.5,1.3-17.6-0.3c-7.5-2.4-11-7.6-11.4-15.2c-0.5-8.8,1.6-17.5-2.5-25.8
					C106.3,243,103.1,244.9,104.2,247.1L104.2,247.1z"/>
			</g>
			<g>
				<path class="st6" d="M104.3,277.3c-2.4,6.3-4.4,18.1-14.2,13.8c-4.9-2.2-6.1-8.6-11.1-10.8c-8.9-4-14.8,5.9-17.1,12.8
					c-0.8,2.3,2.8,3.3,3.6,1c1.1-3.4,3.5-10.2,8-10.5c5.1-0.4,7,3.2,9.6,6.5c2.4,3.1,5.3,5.2,9.3,5.5c11.1,0.9,12.5-9.2,15.5-17.2
					C108.8,276.1,105.2,275.1,104.3,277.3L104.3,277.3z"/>
			</g>
			<g>
				<path class="st6" d="M59.6,297c-0.6-7.1,0.9-14.9,6.2-19.9c4.6-4.3,11.6-3.5,15.8-8.3c3.6-4.2,4-10,3.5-15.3
					c-0.8-7.8-2.6-15.6-3.9-23.3c-0.4-2.4-4-1.4-3.6,1c1.4,8,3.6,16.4,3.9,24.5c0.2,4.5-0.6,9.7-4.8,12.4c-3,1.9-6.9,2-10,3.7
					C58,276.7,55,287.6,55.8,297C56.1,299.4,59.8,299.4,59.6,297L59.6,297z"/>
			</g>
			<g>
				<path class="st6" d="M99.1,169.3c-4.9-5.2-12.6-5.8-18.5-2c-6.7,4.3-9.6,12.9-9.3,20.6c0.8,16.9,18,28.7,33.6,20.5
					c2.1-1.1,0.2-4.3-1.9-3.2c-11.8,6.3-25.1-1.5-27.6-14.1c-1-5.4-0.2-11.4,2.8-16c4.1-6.3,12.6-9.1,18.2-3.1
					C98.1,173.7,100.8,171.1,99.1,169.3L99.1,169.3z"/>
			</g>
			<g>
				<path class="st6" d="M99.8,298.3c3.9-1.7,8.5-0.8,11.6,2.1c1.8,1.6,4.4-1,2.6-2.6c-4.4-4.1-10.6-5.1-16.1-2.7
					C95.7,296,97.6,299.3,99.8,298.3L99.8,298.3z"/>
			</g>
			<g>
				<path class="st6" d="M118.3,300.5c2.6-5.6,11.5-3.2,16.3-2.6c2.4,0.3,2.3-3.4,0-3.7c-6.3-0.8-16-2.8-19.5,4.4
					C114.1,300.8,117.3,302.7,118.3,300.5L118.3,300.5z"/>
			</g>
			<g>
				<path class="st6" d="M141.2,313.8c2.4,0.3,4.8-0.1,7.1-0.9c2.2-0.8,1.3-4.4-1-3.6c-2,0.7-4,1-6.1,0.8c-1-0.1-1.9,0.9-1.9,1.9
					C139.4,313,140.2,313.7,141.2,313.8L141.2,313.8z"/>
			</g>
			<g>
				<path class="st6" d="M88.2,150.5c0.3,12.5-11.9,18.6-18.5,27.5c-5.7,7.7-6.4,17-6.6,26.3c0,2.4,3.7,2.4,3.7,0
					c0.1-5.9,0.2-12.1,2.3-17.7c2.1-5.7,6.4-9.9,10.7-14c6.3-6.1,12.2-12.8,12-22.1C91.9,148.1,88.1,148.1,88.2,150.5L88.2,150.5z"
					/>
			</g>
			<g>
				<path class="st6" d="M149.2,57.1c6.9-2.9,13.9-5.5,21.5-4.8c7.6,0.8,14.6,4.5,21.4,7.7c11.5,5.3,25.3,10.1,31.5,22
					c1.1,2.1,4.3,0.2,3.2-1.9C220,67,204.7,61.8,192,55.9c-6.7-3.1-13.6-6.6-21-7.3c-8-0.8-15.5,1.9-22.8,4.9
					C146,54.4,147,58,149.2,57.1L149.2,57.1z"/>
			</g>
			<ellipse class="st3" cx="169.5" cy="176.4" rx="10.2" ry="4.7"/>
		</g>
	</g>
</g>
</svg>
