<svg xmlns="http://www.w3.org/2000/svg" viewBox="0 0 345.57 344.39"><defs><style>.cls-1{isolation:isolate;}.cls-2{fill:#e1be99;}.cls-3,.cls-6{mix-blend-mode:multiply;}.cls-4{fill:#40220f;}.cls-5{fill:#fbdc9a;}.cls-6{fill:#dcdddd;}</style></defs><g class="cls-1"><g id="圖層_2" data-name="圖層 2"><g id="圖層_1-2" data-name="圖層 1"><path class="cls-2" d="M326,189.35c-5.13,1.37-30.47,15.24-38.36,26.78S273,251.06,268.13,256.29c-3.46,3.72-12.08,12.59-16.78,17.41,2.84,6.35,5.28,12.87,7.41,19.17,2.36,7,4.86,14,6.87,21.12a28.17,28.17,0,0,1,6.34-5.33c16.66-21.35,23.64-37.75,28.73-46.58s9.38-16.26,16-22.35,29-22.3,24.3-36.75S331.07,188,326,189.35Z"/><g class="cls-3"><path class="cls-2" d="M328.76,192.48l-.33-.14a4.09,4.09,0,0,0-4.26.9l-1.1-.56a3.53,3.53,0,0,0-3.55-.05,13.46,13.46,0,0,0-1.69-.42c-3.19-.59-4.64,3.24-3.09,5.55a3.58,3.58,0,0,0-1.34,1.31,8,8,0,0,0-2-.07,3.38,3.38,0,0,0-3.07,3.63,12.91,12.91,0,0,0-2.45-.08,3,3,0,0,0-3.16,3.63,12.33,12.33,0,0,1-4.51.7c-4.64-.42-6.53,5.84-2.59,8.27,3.11,1.92,5.72,4.08,9,5.56-.41,1.63-.92,3.11-1.18,3.95a26.17,26.17,0,0,0-1,11.22c.34,2.74,1,7.29,3.44,9.06a4,4,0,0,0,4.5.56,2.52,2.52,0,0,0,1.47-2.19s0,.08,0,.13a3.2,3.2,0,0,0,0-2.3c0-.23,0-.45,0-.67a3.49,3.49,0,0,0,2.34-.87c2.11-1.78,4.1-3.53,4.68-6a3.62,3.62,0,0,0,2.79-2.18,19,19,0,0,0,1-2.9,3.8,3.8,0,0,0,1.54,0,8.09,8.09,0,0,0,1.4,0c3.12-.17,4.18-3.17,4.22-6.06a3.64,3.64,0,0,0,1.69-2.07,4.3,4.3,0,0,0,3.41-2.36,4.37,4.37,0,0,0,3.87-3,7.26,7.26,0,0,0,.22-3.88,4.37,4.37,0,0,0,.12-4.37c-.1-.2-.25-.56-.43-1a4.31,4.31,0,0,0,.53-4.85c-.77-3.67-4.16-6.93-7.43-8.55A2.92,2.92,0,0,0,328.76,192.48Z"/><path class="cls-2" d="M280.35,236.61c1.37,4.86,4,12.18,9.4,13.83,1.41.43,3.42.07,3.77-1.67,1-4.84-2.42-9.26-4.08-13.6-1.17-3-1.28-10.67-6-10.46C278.09,225,279.44,233.38,280.35,236.61Z"/><path class="cls-2" d="M273.44,246.91c-3.46,2.78-2.59,9.91-1.88,13.78.84,4.51,3.78,10.42,8.88,11a3.28,3.28,0,0,0,3.6-4c-.57-3.18-3-5.78-3.85-8.94-1-3.82-.39-8.31-3.37-11.36A2.47,2.47,0,0,0,273.44,246.91Z"/><path class="cls-2" d="M261.09,265.62a3.33,3.33,0,0,0-2.59,1.81c-2.83,3.8-1.34,10.06.14,14.1,1.57,4.28,5.68,8.45,10.3,9a4,4,0,0,0,4-5.92c-1.42-2.54-3.65-4.47-4.84-7.13-1.55-3.49-.68-7-3-10.3a4.25,4.25,0,0,0-3.86-1.59Z"/></g><path class="cls-4" d="M321.39,186.71c-25.29,9.62-40.61,28.69-49.67,53.22a74.56,74.56,0,0,1-19.2,29,8.49,8.49,0,0,1-2.51,1.85c2.37,5,4.47,10.18,6.35,15.3-.07-.24-.15-.48-.22-.72-1.25-4-3-8.08,1.81-11.14,10.4-9,16.46-19.18,21.09-30.7,6.48-16.3,14.32-32.29,30.31-41.57a90.64,90.64,0,0,1,18.67-8c5.6-1.7,12.36,6.36,9.92,13.28-2.37,6.5-6,13.53-11.13,18-15.62,13.18-29.09,28.24-36.5,47.24-5.31,13.74-15.59,23.54-22.78,35.74-.52.9-1.84,1.42-3,2,.71,2.33,1.38,4.68,2,7l0,0c17.06-13.28,25.58-32.58,36-50.62,2.33-4.05,3.18-9.27,6.31-12.55,9.1-10.17,18.95-19.75,28.68-29.4,8.33-8.3,10-17.84,6-28.61C340.2,187.23,330.08,183.39,321.39,186.71Z"/><path class="cls-2" d="M35.12,223.92A144.62,144.62,0,0,1,51.4,235.47C48.77,248.08,43,271.19,42.47,277s-1,17.33-1,17.33c-5.78,13.13-18.91,28.89-18.91,43.07a53.8,53.8,0,0,0,.49,7H276.82c5.42-24.41,4.4-55.68-12.16-79.5-21.54-31-27.84-43.08-27.84-43.08l.53-4.72c14.7-15.76,25.73-30.47,23.11-52S257.83,121,228.94,96.8c-13.13-44.12-22.06-74.06-25.74-84S193.75.67,189.55,8.55s-27.32,54.11-27.32,54.11c-7.88,1.57-17.86,1.05-17.86,1.05-20-.53-39.92,0-46.22,2.1C81.86,43.75,61.91,17,59.28,14.86s-8.41-1-8.93,2.1S37.22,69.49,36.69,95.22C25.14,109.41,12,125.16,9.38,130.42S4.13,169.81,3.6,173s3.15,9.46,6.83,19.44S27.76,219.71,35.12,223.92Z"/><path class="cls-5" d="M52.58,170.34c22.06,1.18,59.09,1.18,59.09,1.18-.78,9.85-5.51,26.79-16.94,30.33s-30.33,0-33.88-1.57S49.43,188.46,52.58,170.34Z"/><path class="cls-5" d="M167.62,167.18c4.72,15.76,5.12,23.25,17.33,26.4s31.91-3.55,34.67-7.09,6.69-15,5.51-22.46-3.94-6.69-3.94-6.69C201.1,160.49,167.62,167.18,167.62,167.18Z"/><g class="cls-3"><path class="cls-2" d="M143.66,106.31C142.2,94,142.17,81.22,140.23,69a4.5,4.5,0,0,0-8.77-.53c-3.64,11.77-1.13,25.39.14,37.39a253.24,253.24,0,0,0,7.61,40.69c1,3.72,6.55,1.82,6.64-1.49A266.93,266.93,0,0,0,143.66,106.31Z"/><path class="cls-2" d="M120.58,115.12c-.85-7.74-.81-15.72-1.17-23.51-.24-5.06-6.91-3.43-7.61.65-2.45,14.22-3,31.8,4,44.93,1.73,3.24,7.13,2.5,7.07-1.58C122.74,128.7,121.34,122,120.58,115.12Z"/><path class="cls-2" d="M160.85,88.28c-1.06-3.37-6.2-2.59-7,.54-1.6,6.34.32,12.54,1,18.93,1,9.33,3.8,18.78,6.45,27.75,1.07,3.66,6.61,1.88,6.63-1.48A154.8,154.8,0,0,0,160.85,88.28Z"/><path class="cls-2" d="M97.69,117.28c-4.53,10.24-7.5,19.88-6,31.24.34,2.61,3.45,2.27,4.36.26,2.27-5,3-10.35,3.6-15.76.62-5.08,2.14-9.68,2.51-14.82C102.38,115.26,98.8,114.79,97.69,117.28Z"/><path class="cls-2" d="M188.65,127.42c-2.1-5-5.73-12.07-10.17-15.18a1.71,1.71,0,0,0-2.57.93c-1.47,5.15.52,10,2.74,14.71,2.87,6.06,3.68,13.3,8.36,18.28,1.64,1.75,3.82.52,4.25-1.56C192.53,138.52,191,133.06,188.65,127.42Z"/><path class="cls-2" d="M251.39,147.61c-1,.77-2.29.75-3.28,1.11a7.59,7.59,0,0,0-3.67,2.46,10.78,10.78,0,0,0-3.86,3.79c-.73,1.39-.41,3.37,1.45,3.54a6.88,6.88,0,0,0,3.83-.93c.72-.37,1.45-.68,2.2-1a3.63,3.63,0,0,0,1-.83c.66-.29,1.66-.36,2.3-.58a13.66,13.66,0,0,0,4.25-2C259.19,150.42,255.16,144.59,251.39,147.61Z"/><path class="cls-2" d="M256.55,166.42a4.39,4.39,0,0,0-4.12.41,17,17,0,0,0-1.56,1.11c.77-.59-.66.35-.67.36a17.08,17.08,0,0,0-2.8,1.95,9.46,9.46,0,0,0-2,3.08c-1.3,2.74,1.67,5.26,4.21,4.13l.29-.13c-.1,0,1-.42,1.22-.52.51-.27,1.4-.54,2.19-.87a17.26,17.26,0,0,0,4.18-2.27A4.37,4.37,0,0,0,256.55,166.42Z"/><path class="cls-2" d="M36,175c-1.26-5.39-6.31-6.29-11.19-7.22-3.19-.6-6.34-1.06-9.47-1.93s-5.66-2.5-8.61-3.47c-2.62-.87-5.73,1.78-5,4.59,1.43,5.73,8.16,8.4,13.48,9.68,3.6.87,7.31,1.27,10.94,2,3.05.62,5.54,1.22,8.26-.48A3.16,3.16,0,0,0,36,175Z"/><path class="cls-2" d="M25.57,195c-1.56-3.52-4.3-3.86-7.84-4.27C14.61,190.32,10.89,188,8,190a2.54,2.54,0,0,0-.47,4.11c3.93,3.61,11.14,5.31,16.26,4.41A2.68,2.68,0,0,0,25.57,195Z"/><path class="cls-2" d="M225,257.7c-9.88-.78-18.6,2.85-28.14,4.91-5.68,1.23-11.47,1.55-17.18,2.58-3.82.7-7,2.4-10.58,3.54-2.65.86-4.22,5.69-.72,6.65,2.9.8,4.49.08,7.38-.4,6.55-1.08,13.17-.89,19.74-1.78,11.15-1.51,21.81-3.87,30.71-11C227.88,260.91,227.21,257.87,225,257.7Z"/><path class="cls-2" d="M244.7,237.68c-3.71-2.92-8.39-.4-12,1.59-2.19,1.2-3.38,2.64-5.16,4.27-1.56,1.45-3.73,1.49-5.29,2.93-1.25,1.13-.19,3.52,1.52,2.66,1.17-.59,3.58-.39,4.88-.53a25.37,25.37,0,0,0,5.11-1c3.62-1.19,8.05-1.15,11-3.64A4.17,4.17,0,0,0,244.7,237.68Z"/><path class="cls-2" d="M259.58,264.78c-6.67-1.27-16.83,5-22.74,7.35-5,2-9.23,5.84-14.37,7.23a77.43,77.43,0,0,0-13.49,5,2.23,2.23,0,0,0,0,4,1.53,1.53,0,0,0,1.41,0c-1.75,1.07,6.46-1.4,7.51-1.72,4.9-1.51,9.56-1.65,14.55-2.28,9.25-1.18,17.93-6.37,26.88-8.84a5.88,5.88,0,0,0,4.28-5c0-.13,0-.25.05-.37C264.11,267.25,262.13,265.27,259.58,264.78Z"/><path class="cls-2" d="M121.89,269.43c-5.46-4.83-15.67-3.8-22.61-4.94-7.68-1.26-15.23-3.21-22.9-1.09-1.39.39-1.9,2.63-.34,3.19,7.44,2.66,14.38,6.15,22.23,7.59,7.56,1.39,17,4.59,23.64-.4A2.88,2.88,0,0,0,121.89,269.43Z"/><path class="cls-2" d="M64.18,280a37.89,37.89,0,0,0-2.92-2.89c-1.54-1.16-3.67-1.68-5.43-2.38-3.62-1.43-6.94-3.55-11-2.69s-5,7.18-.94,8.77c6.33,2.49,13.17,7.93,19.79,3.35A2.57,2.57,0,0,0,64.18,280Z"/><path class="cls-2" d="M197.78,294.66c-5.09-4.43-12.84-1.05-18.91-.17-7.83,1.14-15.68-1.26-23.16,1.88a2.46,2.46,0,0,0,0,4.4c7.37,2.67,15.44,4.58,23.29,4,6.08-.48,14.33-.44,18.76-5A3.4,3.4,0,0,0,197.78,294.66Z"/><path class="cls-2" d="M167.86,330c-1.3-4.29-7-3.57-10.47-3.43-2,.08-4.49-.08-6.35.9-1.64.86-3,3.24-2.22,5.08,1.76,4,7.21,3.19,10.88,3.34C162.9,336.06,169.25,334.59,167.86,330Z"/><path class="cls-2" d="M193.34,344.39c.21-.11.43-.21.63-.33,3-1.61,3.32-8.25-1.1-7.94A74.52,74.52,0,0,0,178.32,339c-5.57,1.53-11.29,2.37-16.41,5.19l-.3.2Z"/><path class="cls-2" d="M118.55,300.11c-3.37-3.91-8-3.21-12.87-3.41-6.18-.25-12.7-2-18.82-1.64-4,.25-5.55,5.64-1.73,7.48,5.35,2.58,11.46,3.25,17.3,3.72,5.33.43,11.34,1.72,15.65-2A3.13,3.13,0,0,0,118.55,300.11Z"/><path class="cls-2" d="M96.23,322.05c-4.24-4.24-10.62-2.93-16.17-3.66-4.24-.57-10.42-2.68-13.81,1-1.28,1.39-1.9,3.54-.6,5.17,2.54,3.17,9.5,3.84,13.32,4.38,5.45.75,12.42,1.56,16.76-2.49C96.79,325.45,97.42,323.24,96.23,322.05Z"/><path class="cls-2" d="M116.52,344.39a3.9,3.9,0,0,0-.11-2.22c0-.18-.11-.36-.16-.54a3.51,3.51,0,0,0-3-2.18c-4.41-.77-9.4.71-13.91.56-5.18-.18-8.57-.52-13.37,1.7a2.74,2.74,0,0,0-1.31,2.68Z"/><path class="cls-2" d="M250,300.27c-4.71-.33-9.51,2.08-14,3.45-5.09,1.56-10.62,2.56-15.41,4.91-2,1-2.1,4.25.06,5.12,4.55,1.83,10.09.27,14.79-.45,5.48-.84,12.42-2.24,16.28-6.46C253.62,304.73,253.5,300.52,250,300.27Z"/><path class="cls-2" d="M276.8,315.06c-6.36-.68-13.2,3.75-19,6-3.47,1.34-7,2.61-10.45,4-2,.78-3.59,1.21-5.46,2.12-.66.32-1,1.54-1.42,1.72a2.24,2.24,0,0,0,0,4c4,2,11.16-.42,15.13-1.55a151.19,151.19,0,0,0,22.26-8.07C281.62,321.53,281,315.5,276.8,315.06Z"/><path class="cls-2" d="M51.25,310.07c-2.56-4-5.07-7.72-9.34-9.89s-6.66,4.22-4.81,7.18c.72,1.15,1.77,1.93,2.48,3.09,1,1.54,2,3,3,4.55,1.92,3,2.12,6.93,4.94,9.25a3.09,3.09,0,0,0,4-.29C55.62,319.88,54.05,314.42,51.25,310.07Z"/><path class="cls-2" d="M32.34,342.06c.17.77.33,1.55.49,2.33h9.54a55.45,55.45,0,0,0-2.63-10.75c-1.55-4.36-8.62-12.08-13.47-8.2a4.2,4.2,0,0,0,0,6.33A18.66,18.66,0,0,1,32.34,342.06Z"/></g><path class="cls-6" d="M69.52,54.41a3.5,3.5,0,0,0-1.93-2.95c-.19-1.62-.46-3.27-.81-5.06a2.73,2.73,0,0,0-1.73-2.24l-.37-.08a3,3,0,0,0-3.37,1.22c-.85,1.62-2.3,2.69-3,4.46-1.07,2.69-1.37,5.41-2.12,8.19-1.29,4.82-2.36,10.24-1.8,15.25.43,3.91,1.75,7.81,6.37,8.07a5.73,5.73,0,0,0,5.79-3.48C73.44,74.93,70.19,59.8,69.52,54.41Z"/><path class="cls-6" d="M206,58.88c-1.91-9.2-3-18.94-7.8-27.2-2.26-3.91-7.28.27-6.87,3.6.24,1.95.5,3.91.75,5.87A5.26,5.26,0,0,0,190,44.44c-1.51,7.27-2.12,15,1.31,21.73a3.07,3.07,0,0,0,1.59,1.55c0,2.26,1.14,4.72,3.77,4.79C204.83,72.71,207.56,66.14,206,58.88Z"/><path class="cls-6" d="M146.86,178.87a4.72,4.72,0,0,0-4-.63,12.82,12.82,0,0,0-1.23.44l-.2,0c-1.86.27-3.21,2.25-3.39,4-.21,2,1.22,4.63,3.53,4.52a8.28,8.28,0,0,0,1.55-.21,3.42,3.42,0,0,0,.81.15,4.06,4.06,0,0,0,2.87-1.06,5.34,5.34,0,0,0,1.67-3.35A4.16,4.16,0,0,0,146.86,178.87Z"/><path class="cls-6" d="M190.74,240.59c-11.94-2.08-23.25,7.2-35.38,7.27s-27.55-1.65-39.06,2.86c-2.59,1-2.67,5.61.07,6.47,6.87,2.13,14.58,1.33,21.73,1.52,6.61.19,13.45.85,20.05.25,11.62-1,26.61-4.8,34.26-14.28A2.57,2.57,0,0,0,190.74,240.59Z"/><path class="cls-4" d="M42.09,232.34c5,2.48,5.37,5.88,4.19,10.33-3.4,13.47-7.72,26.55-7.59,40.81a42.37,42.37,0,0,1-2.75,15c-1.83,4.44-5.49,8.24-8.11,12.42a57,57,0,0,0-8.78,33.44h7.48c-.78-15.15,4.38-29.08,14.78-41.42,3.92-4.84,7.06-8.5,4.18-14.91-.78-1.83-.13-4.31-.13-6.54,1.31-7.72,2.49-14.13,3.93-20.54,1.18-5.23,2.61-10.33,3.92-15.43.79-3,1.31-6.15,6-4.06,1.44.53,3.79-1.17,5.75-1.7-1.17-1.7-2-4-3.66-4.84-12.43-6.54-25.51-11.9-34.8-23.28C12,194.14,3.9,175.17,8.34,151.36c2-10.07,2.62-20.14,9.68-28.12s14.39-15.3,21.72-22.89c1.83-1.7,4.18-3,5.75-4.84,1.18-1.31,1.71-3.27,2.49-4.84-1.44.13-3,.65-4.32.26s-3.4-1.83-3.4-2.62c1.57-12.82,3-25.63,5.23-38.32C47.2,40.57,49.68,31.28,52,22a42.56,42.56,0,0,1,2.62-6.14c1.57,1.17,3.4,2.09,4.58,3.66,10.46,13.21,20.8,26.55,31,40.16a12.39,12.39,0,0,1,2.09,7.45c-.13,4.19,1.05,5.24,5.1,4.19,20.41-5.89,41.21-6.28,62.27-3.66a28.43,28.43,0,0,0,5.76,0c2.35-.13,4.58-.53,6.8-.79-1.05-1.57-3-2.88-3.14-4.58-.39-2.87-.52-6.41.65-8.89,6.28-13,12.82-25.64,19.62-38.33,1.71-3.14,4.19-5.89,6.28-8.89,1.83,3.27,4.19,6.27,5.24,9.81,6.67,21.71,13.08,43.43,19.49,65.14.39,1.44,0,3,.13,4.45a25.77,25.77,0,0,0-3.66-1.44A20.87,20.87,0,0,0,212.8,84c.65,1.44.92,3.4,2,4.45,7.85,7.58,16.48,14.52,23.68,22.89,7.59,8.63,12.82,18.83,13.73,30.87.66,9.81,2.36,19.75,2.23,29.56-.13,6.41-2.75,12.69-4.45,19-2.88,9.81-7.19,18.84-15.83,24.85-7.32,5.24-15,9.81-22.5,14.91-1.7,1.31-2.61,3.54-3.92,5.37,2.48.52,5.49,2.09,7.45,1.18,5-2.36,9.29-6,14.26-8.38,1.83-.91,5.89-.52,6.81.79,9.41,13.6,19,27.34,27.47,41.47,11.64,19.22,14,40.81,11.64,62.39a104.4,104.4,0,0,1-1.89,11.07h7.71c3.88-15.38,3.26-31.26.72-46.91-2.88-16.74-11.38-31.92-20.93-46.18-6-8.89-12.95-17.13-19.1-26-1.05-1.57-.52-5.1.52-7.06,2.88-5.36,6.81-10.21,9.94-15.44,6-10.2,10.47-20.93,10.21-33.09-.26-6.93-.53-14-1.44-20.93s-1.44-13.87-4.06-19.89c-5.23-12.29-12.29-23.54-22.5-32.57A20.59,20.59,0,0,1,228.63,87c-3.14-10.34-5.76-20.8-8.9-31.4-1.17-3.92-2-7.59-3-11-3.79-12.82-7.45-25.77-12-38.19-1.05-2.88-5.23-6-8.24-6.41-2.62-.26-6.93,2.48-8.24,5-9.16,16.48-17.79,33.22-26.3,50-1.83,3.53-3.79,5-8.24,5-16.22.13-32.57-1.57-48.66,2.35-2,.4-5.62-1.3-7.06-3C86,44.23,74.53,28.8,62.63,13.88c-2-2.35-5.89-5.23-8.11-4.71-3,.79-6.8,4.19-7.59,7.2C43.66,28.8,41.05,41.48,39,54.3c-1.83,10.86-2.61,22-4.05,33-.53,3.4-.92,7.32-2.88,9.81-5.1,6.41-11,12.16-16.48,18C8.74,122.46,4,130.7,3.5,140.9,3,147.57,1.41,154.11,1,160.78c-.39,7.46-2.23,15.7.26,22.37C9,204.08,21.29,222.13,42.09,232.34Z"/><path class="cls-4" d="M42.75,169.68c2.09-1.31,4.31-2.49,6.41-2.49,12.68.27,25.24,1.18,37.93,1.05,9.81-.13,19.75-1.57,29.56-2.49a13.15,13.15,0,0,1,3.14.53,23.78,23.78,0,0,0-1.44,3.14c-1.3,3.4-3.27,6.67-3.53,10.2-.52,11.38-9.55,23.81-20.8,25.12a105.28,105.28,0,0,1-29.3-1.31c-9.94-1.7-18-12.3-16.74-22.37.65-4.71-1-8.37-5.23-11.38m32.7,5.89c-4.71-.66-9.42-2-14.13-1.71-2.35.14-6.41,2.88-6.54,4.71-.52,11.91,7.33,19.76,19.49,19.89.79,0,2.36-1.18,2.36-1.7-.27-6.68-.66-13.22-1.18-21.19m32.7,0c-4.05-.27-8.24-.27-12.3-.66-4.83-.52-6,2.09-6,6.15-.13,5.75-.39,11.64-.53,17.4,0,.26,1.18.91,1.71.78,9.54-2.62,18.31-13,17.13-23.67"/><path class="cls-4" d="M164.4,172.29c.65-3.4-7.06-3.53-2.22-7.32a17,17,0,0,1,8.37-3A241.35,241.35,0,0,0,225,151.5c1.84-.53,4.06.39,6.15.52-.39,2.22-.91,4.45-1.31,6.67a49.29,49.29,0,0,0-1.17,8.63c-.4,9.29-3,17.92-10.47,23.55a32.12,32.12,0,0,1-14.65,5.49c-11.51,1.71-23.54,2.75-31.91-7.45-3.67-4.32-4.85-10.6-7.2-16.62m47.75,14.39c5.36-3.14,10.46-15.17,9.28-20.93-.78-3.53-2.61-4.58-6-3.92-11.78,2.22-11.78,2.22-11.78,14.26v5.23c.13,3,.27,5.89.27,8.9a68.9,68.9,0,0,0,8.24-3.54m-32.05.66c2.88,1,5.62,2.48,8.5,3.14.78.13,3.14-1.7,3.14-2.75,0-3.53-1.05-6.93-1.05-10.46-.26-10.21-.13-10.21-9.94-8.9-9,1.31-11,6.41-5.36,14.13,1,1.57,2.75,2.88,4.71,4.84"/><path class="cls-4" d="M100.3,242.93c2,.4,3.4,1.18,4.71,1.31,11.38.52,22.63,1.57,34,1.18s22.76-2.62,34.28-3.67c1.7-.13,3.66,1.18,5.49,1.84-1.7,1.57-3.27,4-5.23,4.44A201.56,201.56,0,0,1,121.1,252a153.1,153.1,0,0,1-21.71-2.62c-2.49-.39-4.58-2.61-6.94-3.92,2.49-.79,4.84-1.7,7.85-2.49"/><path class="cls-4" d="M189,38.61c1.18-4.84,2-9.29,3.14-13.61.26-.78,2.49-1.17,3.67-1.83.52,1,1.43,2.09,1.3,3-1.44,7.72-2.88,15.3-4.31,23-.79,3.53-2.23,7.2-2,10.73.13,2.75,2.36,5.23,3.93,7.72.65,1.17,2.22,1.83,3.27,2.87,1.31,1.57,2.35,3.27,3.53,5-2.62,0-5.75.92-8-.13-8.5-3.92-11.12-10.72-8.63-19.75,1.44-5.49,2.48-11.12,4.05-17"/><path class="cls-4" d="M74.53,75.89C70.35,79,66.69,82,62.63,84.52c-1.05.66-3.14-.65-4.71-1a36.11,36.11,0,0,1,2.22-3.67c4.06-4.71,10.86-8,8.77-16-1.57-5.49-3.4-10.72-5.23-16.09-.13-.39-.66-.65-.66-1,0-3,.13-6.15.13-9.16,2,2,4.32,3.79,5.89,6.15,5.1,8.11,7.19,17.27,7.59,26.68.13,1.7-1.18,3.4-2.1,5.5"/><path class="cls-4" d="M136.67,204.74c5.36-5.24,8.24-5.24,18.05.39,2.22,1.18,3.92,3.4,5.76,5.1-3,.26-6.55,1.44-9,.39-5-2.22-8.76-2.09-13.08,1.31-2.09,1.7-5.23,2-8,2.88,1.31-2.88,2.49-5.76,3.92-8.5.27-.53,1.31-.92,2.36-1.57"/><path class="cls-4" d="M37.25,205.39c-.91-1.18-2.09-2.23-2-2.49,1.83-3.13,10.33-4.44,13.08-2,1.05.92,1.44,2.36,2.1,3.53-2.62,1.05-5.24,2.49-7.85,3-1.57.26-3.41-1.17-5.37-2.09"/><path class="cls-4" d="M242.63,187.73c-2,1.18-3.54,2.88-5.11,2.75-2.61-.26-5.1-1.44-7.72-2.23,2.36-1.83,4.32-4.44,6.94-5.23,3-1.05,6.67-.78,5.89,4.71"/><path class="cls-4" d="M40.52,219.12c-.52-1.17-.91-2.48-.65-2.61a41.17,41.17,0,0,1,7.06-3.14c2-.65,4.19-.39,6.28-.65-2,2.74-3.4,5.88-6,7.71-1.18.92-4.19-.65-6.68-1.31"/><path class="cls-4" d="M227.58,200.81c2.75-3.92,10.2-5.1,12.95-2.22.52.65-1.57,4.84-2.09,4.84a59.12,59.12,0,0,1-10.86-2.62"/><path class="cls-4" d="M138.63,184.46c.52-.39.65-.39.92-.39l7.84,1.17c-.91,1.31-1.7,3.67-2.87,3.93-3.14.52-6.8.78-5.89-4.71"/></g></g></g></svg>