<svg xmlns="http://www.w3.org/2000/svg" viewBox="0 0 165.13 90.24"><defs><style>.cls-1{isolation:isolate;}.cls-2{fill:#e1be99;}.cls-3{fill:#40220f;}.cls-4{mix-blend-mode:multiply;}</style></defs><g class="cls-1"><g id="圖層_2" data-name="圖層 2"><g id="圖層_1-2" data-name="圖層 1"><path class="cls-2" d="M4.5.05V60.53S-1.94,82.71,19,84.32s30.57-9.66,30.57-9.66L56.8,4.26A511.67,511.67,0,0,0,4.5.05Z"/><path class="cls-3" d="M59.24,6.68a3.31,3.31,0,0,0-1-2.24l-4.05-.5a3.28,3.28,0,0,0-1.64,2.21c-4.37,18.4-1.92,39.9-5.68,58.48C47,72.5,42,74.2,35.42,77.11a3.5,3.5,0,0,0-.86.55c-6,5.22-6.28,2.52-8.41-1.35A3.4,3.4,0,0,0,20.41,76l-.24.34a3.41,3.41,0,0,1-5.05.51C10.67,73,3,71.68,7,64.9c5.49-11.73.38-24,0-35.93C6.19,25.52,7,12.71,7.32.12,5.08.06,2.83,0,.59,0,1.12,23.37,2.15,46.78.06,69.64a13.41,13.41,0,0,0,6.74,13c15,8.3,34.67,7.72,46.1-6.13a3.35,3.35,0,0,0,.73-2.31C52.57,53.33,60.91,28.56,59.24,6.68Z"/><g class="cls-4"><path class="cls-2" d="M36.25,18c-4.33-4.34-10.85-3-16.51-3.75-4.33-.57-10.64-2.73-14.11,1-1.3,1.42-1.94,3.61-.61,5.28,2.59,3.23,9.7,3.92,13.6,4.46,5.57.78,12.68,1.6,17.11-2.54C36.82,21.49,37.46,19.23,36.25,18Z"/><path class="cls-2" d="M56.85,38.55c-.05-.18-.11-.36-.17-.54a3.57,3.57,0,0,0-3-2.23c-4.5-.79-9.6.73-14.2.57-5.29-.18-8.75-.53-13.65,1.73-1.37.64-2,3.3-.47,4.15,6.43,3.53,12.9,4.29,20.21,3.08C48.92,44.75,58.7,44.46,56.85,38.55Z"/><path class="cls-2" d="M42.14,58.73C37.88,53.54,31.55,55,25.47,54.8c-5.42-.18-11.59-2.06-16.76-.06-2.9,1.12-3.12,6.52.08,7.4,9.23,2.54,25.37,8.3,33,0A2.64,2.64,0,0,0,42.14,58.73Z"/></g><path class="cls-2" d="M114.38,14.22V68.65l10.27,11s8.56,7.88,19.82,6.27,12.87-16.08,12.87-16.08V36.29c0-3.74,1.09-13.85,2.29-23.81C144.54,12.28,129.46,13.41,114.38,14.22Z"/><path class="cls-3" d="M165.13,12.61c-2.73-.09-5.45-.15-8.17-.16-.11.66-.23,1.31-.38,2-1.3,16.29-7.57,32.27-3.2,48.35,1.72,6.37-1.39,14.12-5.88,18.16-2.53.87-2.68-.3-2.94-2.09A3,3,0,0,0,139,77.66c-3,4.65-7.86,8.31-9.38,0-.38-8.64-8.26-3.45-11.48-9.22-4.31-17.67-2.1-36.3-2-54.37-2.38.13-4.76.26-7.14.37-.64,21.64,3.37,50.29,3.13,63.39,13.39,12.68,39.25,20.75,48-2.16l-1.69-21.39C159,40.68,163,26.55,165.13,12.61Z"/><g class="cls-4"><path class="cls-2" d="M133.52,21.34c-1.33-4.37-7.2-3.64-10.69-3.5-2.08.08-4.59-.08-6.49.92-1.67.88-3.09,3.31-2.27,5.19,1.8,4.1,7.37,3.25,11.11,3.41C128.45,27.49,134.93,26,133.52,21.34Z"/><path class="cls-2" d="M159.05,27.55a77,77,0,0,0-14.86,2.94c-5.69,1.57-11.52,2.43-16.75,5.3-1.81,1-2.21,4.24.06,5,10.86,3.65,22.74.19,32.68-5.13C163.25,34,163.56,27.23,159.05,27.55Z"/><path class="cls-2" d="M148.76,50.86c-4.44-3-10.25-1.7-15.36-2.15-5.87-.51-12.48-2.1-17.78,1-1.81,1.07-2.61,4.06-.62,5.43,4.85,3.35,11.63,3,17.34,3.76s12.24.4,16.45-4.08C149.78,53.81,150.19,51.82,148.76,50.86Z"/></g></g></g></g></svg>