<?xml version="1.0" encoding="utf-8"?>
<!-- Generator: Adobe Illustrator 25.2.3, SVG Export Plug-In . SVG Version: 6.00 Build 0)  -->
<svg version="1.1" id="圖層_1" xmlns="http://www.w3.org/2000/svg" xmlns:xlink="http://www.w3.org/1999/xlink" x="0px" y="0px"
	 viewBox="0 0 1670 808" style="enable-background:new 0 0 1670 808;" xml:space="preserve">
<style type="text/css">
	.st0{fill:#E3C7A3;}
	.st1{fill:#B79366;stroke:#946130;stroke-width:3;stroke-miterlimit:10;}
	.st2{fill:none;stroke:#946130;stroke-width:3;stroke-linecap:round;stroke-linejoin:round;}
	.st3{fill:#FFFFFF;stroke:#946130;stroke-width:3;stroke-linecap:round;stroke-linejoin:round;}
	.st4{fill:#E3C7A3;stroke:#946130;stroke-width:3;stroke-linecap:round;stroke-linejoin:round;}
	.st5{fill:#875A23;}
	.st6{fill:#E3C7A3;stroke:#946130;stroke-width:3;stroke-linecap:round;stroke-linejoin:round;stroke-miterlimit:4;}
	.st7{fill:none;stroke:#946130;stroke-width:6;stroke-linecap:round;stroke-linejoin:round;}
	.st8{fill:#FFFFFF;stroke:#946130;stroke-width:2;stroke-linecap:round;stroke-linejoin:round;}
	.st9{fill:#E3C7A3;stroke:#946130;stroke-width:3.0014;stroke-linecap:round;stroke-linejoin:round;stroke-miterlimit:4.0019;}
	.st10{fill:#FFFFFF;}
	.st11{fill:#F9ECDE;stroke:#946130;stroke-width:3;stroke-linecap:round;stroke-linejoin:round;}
	.st12{fill:#B79366;}
	.st13{fill:#E3C7A3;stroke:#946130;stroke-width:3;stroke-miterlimit:10;}
	.st14{fill:none;stroke:#946130;stroke-width:2;stroke-linecap:round;stroke-linejoin:round;}
	.st15{fill:none;stroke:#946130;stroke-width:5;stroke-linecap:round;stroke-linejoin:round;}
</style>
<g id="Mask_Group_2" transform="translate(-2232 925)">
	<g id="Group_617" transform="translate(2280.625 -531.525)">
		<path id="Path_2828" class="st0" d="M1231.9,330.4c0,11.5-9.4,20.9-20.9,20.9l0,0H360.7c-11.5,0-20.9-9.4-20.9-20.9l0,0l0,0
			c0-11.5,9.4-20.9,20.9-20.9H1211C1222.5,309.5,1231.9,318.9,1231.9,330.4L1231.9,330.4L1231.9,330.4z"/>
		<g id="Group_569" transform="translate(608.877 -258.168)">
			<g id="Group_568" transform="translate(0 0)">
				<path id="Path_2829" class="st1" d="M118,45.4l39.7-9.8c0,0,9.1,6.5,1.3,16.3C158.6,52.4,118,45.4,118,45.4z"/>
				<path id="Path_2830" class="st1" d="M113.1,23.3l26.3-31.4c0,0,11.2-0.1,10.7,12.4C150,5,113.1,23.3,113.1,23.3z"/>
				<path id="Path_2831" class="st1" d="M97,25.3L85-13.9c0,0,6-9.5,16.2-2.2C101.8-15.6,97,25.3,97,25.3z"/>
			</g>
		</g>
		<g id="Group_571" transform="translate(657.287 298.661)">
			<g id="Group_570">
				<path id="Path_2832" class="st1" d="M123.7-7.3L87.8-4.5c0,0-7-7,1.2-14.3C89.5-19.2,123.7-7.3,123.7-7.3z"/>
				<path id="Path_2833" class="st1" d="M124.8,12.6L97.5,36.1c0,0-9.8-1.5-7.5-12.3C90.1,23.2,124.8,12.6,124.8,12.6z"/>
				<path id="Path_2834" class="st1" d="M139,13.2l4.8,35.7c0,0-6.6,7.3-14.4-0.4C129,48.1,139,13.2,139,13.2z"/>
			</g>
		</g>
		<g id="Group_572" transform="translate(515.086 109.258)">
			<path id="Path_2835" class="st0" d="M104.5,16.2h-5.4L96.9,30h-6.7l2.2-13.7H85v-6.1h8.4l1.5-8.8h-7.4v-6.1h8.4l2.3-13.9h6.6
				l-2.3,13.9h5.4l2.3-13.9h6.7l-2.3,13.9h7.7v6.1h-8.7l-1.5,8.8h7.7v6.1h-8.7L108.9,30h-6.7L104.5,16.2z M100.1,10.1h5.4l1.5-8.8
				h-5.4L100.1,10.1z"/>
		</g>
		<g id="Group_573" transform="translate(276.474 -245.294)">
			<path id="Path_2836" class="st0" d="M231,565.5c-5.9-0.1-10.6-4.8-10.7-10.7v-40.4H95.7c-5.9-0.1-10.6-4.8-10.7-10.7v-41.9
				c0-6.9,1.7-12.5,5.1-17l118.3-149.2c2.4-2.9,4.5-4.8,6.5-5.7c2.6-1,5.3-1.5,8.1-1.4h59.7c5.9,0.1,10.6,4.8,10.7,10.7v151.9h34
				c5.9,0.1,10.6,4.8,10.7,10.7v41.9c-0.1,5.9-4.8,10.6-10.7,10.7h-34v40.4c-0.1,5.9-4.8,10.6-10.7,10.7L231,565.5z M222.3,451.2
				v-72.8l-57.8,72.8H222.3z"/>
			<path id="Path_2837" class="st0" d="M532.8,164.1c19.8,0,36.8,2.9,51,8.7s26,13.6,35.4,23.3c9.4,9.8,16.5,21.4,21,34.2
				c4.6,13.2,7.4,27,8.1,40.9c0.5,11.3,0.8,23.2,0.8,35.6c0,12.4-0.3,24-0.8,34.8c-0.7,14-3.5,27.8-8.1,40.9
				c-4.4,12.8-11.6,24.5-21,34.2c-9.4,9.8-21.2,17.5-35.4,23.3c-14.2,5.8-31.3,8.7-51,8.7c-19.8,0-36.8-2.9-51-8.7
				c-14.2-5.8-26-13.6-35.4-23.3c-9.4-9.8-16.5-21.4-21-34.2c-4.6-13.2-7.4-27-8.1-41c-0.5-10.8-0.8-22.4-0.8-34.8
				c0-12.4,0.3-24.3,0.8-35.6c0.7-14,3.5-27.8,8.1-41c4.4-12.8,11.6-24.5,21-34.2c9.4-9.8,21.2-17.5,35.4-23.3
				C496,167,513,164.1,532.8,164.1z M575.1,339.7c1.1-22.4,1.1-44.6,0-66.5c-0.5-6.1-1.4-12.2-3-18.2c-1.3-5.2-3.7-10.1-6.9-14.4
				c-3.4-4.2-7.7-7.6-12.7-9.7c-5.3-2.4-11.9-3.6-19.8-3.6c-7.9,0-14.5,1.2-19.8,3.6c-5,2.1-9.3,5.5-12.7,9.7
				c-3.3,4.3-5.7,9.2-7.1,14.4c-1.6,5.9-2.6,12-2.8,18.2c-1.3,22.1-1.3,44.3,0,66.5c0.2,6.1,1.1,12.2,2.6,18.2
				c1.3,5.3,3.7,10.2,7.1,14.4c3.5,4.2,7.9,7.5,12.9,9.7c5.3,2.4,11.9,3.6,19.8,3.6s14.5-1.2,19.8-3.6c5-2.2,9.4-5.5,12.9-9.7
				c3.4-4.3,5.8-9.2,7.1-14.4C574.1,352,574.9,345.9,575.1,339.7L575.1,339.7z"/>
			<path id="Path_2838" class="st0" d="M840.4,258.1c-5.9-0.1-10.6-4.8-10.7-10.7v-40.4H705.1c-2.8,0-5.6-1.1-7.5-3.2
				c-2.1-2-3.2-4.7-3.2-7.5v-41.9c0-6.9,1.7-12.5,5.1-17L817.9-11.7c2.4-2.9,4.6-4.8,6.5-5.7c2.6-1,5.3-1.5,8.1-1.4h59.7
				c2.8,0,5.6,1.1,7.5,3.2c2,2,3.2,4.7,3.2,7.5v151.9h34c2.8,0,5.6,1.1,7.5,3.2c2,2,3.2,4.7,3.2,7.5v41.9c0,2.8-1.1,5.6-3.2,7.5
				c-2,2-4.7,3.2-7.5,3.2h-34v40.4c-0.1,5.9-4.8,10.6-10.7,10.7H840.4z M831.7,143.8V71L774,143.8L831.7,143.8z"/>
		</g>
		<g id="Group_574" transform="translate(269.493 -230.887)">
			<path id="Path_2839" class="st2" d="M231,521.4c-5.9-0.1-10.6-4.8-10.7-10.7v-40.4H95.7c-5.9-0.1-10.6-4.8-10.7-10.7v-41.9
				c0-6.9,1.7-12.5,5.1-17l118.3-149.2c2.4-2.9,4.5-4.8,6.5-5.7c2.6-1,5.3-1.5,8.1-1.4h59.7c5.9,0.1,10.6,4.8,10.7,10.7v151.9h34
				c5.9,0.1,10.6,4.8,10.7,10.7v41.9c-0.1,5.9-4.8,10.6-10.7,10.7h-34v40.4c-0.1,5.9-4.8,10.6-10.7,10.7L231,521.4z M222.3,407.1
				v-72.8l-57.8,72.8H222.3z"/>
			<path id="Path_2840" class="st2" d="M504.8,164.1c19.8,0,36.8,2.9,51,8.7s26,13.6,35.4,23.3c9.4,9.8,16.5,21.4,21,34.2
				c4.6,13.2,7.4,27,8.1,41c0.5,11.3,0.8,23.2,0.8,35.6c0,12.4-0.3,24-0.8,34.8c-0.7,14-3.5,27.8-8.1,40.9
				c-4.5,12.8-11.6,24.5-21,34.2c-9.4,9.8-21.2,17.5-35.4,23.3s-31.3,8.7-51,8.7c-19.8,0-36.8-2.9-51-8.7
				c-14.2-5.8-26-13.6-35.4-23.3c-9.4-9.8-16.5-21.4-21-34.2c-4.6-13.2-7.4-27-8.1-41c-0.5-10.8-0.8-22.4-0.8-34.8
				c0-12.4,0.3-24.3,0.8-35.6c0.7-14,3.5-27.8,8.1-41c4.4-12.8,11.6-24.5,21-34.2c9.4-9.8,21.2-17.5,35.4-23.3
				C468,167,485,164.1,504.8,164.1z M547.1,339.7c1.1-22.4,1.1-44.6,0-66.5c-0.5-6.1-1.5-12.2-3-18.2c-1.3-5.2-3.7-10.1-6.9-14.4
				c-3.4-4.2-7.7-7.6-12.7-9.7c-5.3-2.4-11.9-3.6-19.8-3.6s-14.5,1.2-19.8,3.6c-5,2.1-9.3,5.5-12.7,9.7c-3.3,4.3-5.7,9.2-7.1,14.4
				c-1.6,5.9-2.6,12-2.8,18.2c-1.3,22.1-1.3,44.3,0,66.5c0.2,6.1,1.1,12.2,2.6,18.2c1.3,5.3,3.7,10.2,7.1,14.4
				c3.5,4.2,7.9,7.5,12.9,9.7c5.3,2.4,11.9,3.6,19.8,3.6s14.5-1.2,19.8-3.6c5-2.2,9.4-5.5,12.9-9.7c3.4-4.3,5.8-9.2,7.1-14.4
				C546.1,352,546.9,345.9,547.1,339.7z"/>
			<path id="Path_2841" class="st2" d="M814.8,258.1c-5.9-0.1-10.6-4.8-10.7-10.7v-40.4H679.5c-2.8,0-5.6-1.1-7.5-3.2
				c-2.1-2-3.2-4.7-3.2-7.5v-41.9c0-6.9,1.7-12.5,5.1-17L792.3-11.7c2.4-2.9,4.5-4.8,6.5-5.7c2.6-1,5.3-1.5,8.1-1.4h59.7
				c2.8,0,5.6,1.1,7.5,3.2c2,2,3.2,4.7,3.2,7.5v151.9h34c2.8,0,5.6,1.1,7.5,3.2c2,2,3.2,4.7,3.2,7.5v41.9c0,2.8-1.1,5.6-3.2,7.5
				c-2,2-4.7,3.2-7.5,3.2h-34v40.4c-0.1,5.9-4.8,10.6-10.7,10.7H814.8z M806.1,143.8V71l-57.8,72.8H806.1z"/>
		</g>
		<line id="Line_3" class="st2" x1="362.7" y1="307.8" x2="1196.3" y2="307.8"/>
		<g id="Group_583" transform="translate(-427.269 -355.083)">
			<path id="Path_2842" class="st3" d="M944,637.5l-7.2,21.9l-16.3-0.4l5.4-18.2"/>
			<g id="Group_582">
				<g id="Group_575" transform="translate(852.374 293.408)">
					<path id="Path_2843" class="st3" d="M153.2,13.5l-9.9,0.8c2.4,20.3-6.2,35.2-17.5,45.9l10.9,17.2
						C156.4,51.5,153.2,13.5,153.2,13.5z"/>
					<path id="Path_2844" class="st4" d="M85,83l9.2,17.6c20.3-2.3,33.7-11.5,42.6-23.1l-10.9-17.2C108.5,76.6,85,83,85,83z"/>
					<path id="Path_2845" class="st5" d="M153.1,17.9l-9.2-0.2c-0.4-0.2-0.7-0.5-1.1-0.9c-0.5-0.5,0.5-2.4,0.5-2.4s-3.4-5.3-4.2-9.9
						s-4.4-9-2.2-9.1s2.3,3.9,3.4,3.4c0.5-0.2,0.7-3.8,0.1-7.3s-2-6.9-0.5-6.6c3.1,0.6,4.7,11.8,4.7,11.8s0.2-3.6,0.2-7.4
						c0-4.1-0.2-8.3,1.7-8.3c1.7,0,1.6,3.7,2.1,7.5c0.3,2.4,0.8,4.9,1.4,7.2c0,0,0.8-12.2,2.2-11s0.4,12.2,1.1,12.1s1.7-7.6,2.8-7
						s-0.1,13.7-0.1,13.7s0.4,7.7-2.5,11.2C153.6,15,154.9,17.4,153.1,17.9z"/>
					
						<rect id="Rectangle_1142" x="127.4" y="55.8" transform="matrix(0.848 -0.53 0.53 0.848 -16.2328 81.0633)" class="st6" width="11.6" height="26"/>
				</g>
				<g id="Group_577" transform="translate(1.758)">
					<g id="Group_576">
						<path id="Path_2846" class="st5" d="M149,194.9c38.3,29.6,61.7,68.6,67.6,112.6c10.4,77.3,69.9,119.6,124.3,127.2
							c63.7,8.9,118.8-24.8,147.3-90.1c16.7-38.2,40.2-69.1,69.8-91.8c23.7-18.2,51.4-31,82.1-38.3c52-12.3,94.7-4.1,96.5-3.8
							l-4.5,23.2c-0.4-0.1-40.2-7.5-87.4,3.8c-62.3,14.9-107.6,54.1-134.8,116.3c-16.8,38.6-42.7,68.4-74.9,86.3
							c-29.5,16.4-63.2,22.6-97.4,17.8c-35.4-5.1-68.4-21.3-94.1-46.2c-27.6-26.8-45.1-61.9-50.4-101.3c-5.1-38.1-24.7-70.6-58-96.6
							c-15.2-11.9-32.1-21.5-50.1-28.4l7.6-22.4C93.7,163.6,120.4,172.7,149,194.9z"/>
					</g>
				</g>
				<path id="Path_2847" class="st7" d="M85,197c0,0,80.9,37.7,118.7,130.4s227.8,191.9,292.6,32s229.8-132.1,229.8-132.1"/>
				<path id="Path_2848" class="st3" d="M856.4,220.2c0,12.2-9.9,22.1-22.1,22.1H729.8c-12.2,0-22.1-9.9-22.1-22.1l0,0
					c0-12.2,9.9-22.1,22.1-22.1h104.5C846.5,198.1,856.4,208,856.4,220.2z"/>
				<path id="Path_2849" class="st0" d="M827.6,224.6H733c-9.3,0-17.4-6.4-19.4-15.5c-1.6,2.9-2.4,6.2-2.4,9.5c0,11,8.9,20,20,20
					h94.6c11,0,20-8.9,20-20c0-1.5-0.2-3-0.5-4.5C841.7,220.6,835,224.7,827.6,224.6z"/>
				<path id="Path_2850" class="st3" d="M902.9,228.3c0,22.8-18.4,41.2-41.2,41.2c0,0,0,0,0,0l0,0c-22.8,0-41.2-18.4-41.2-41.2
					c0,0,0,0,0,0V212c0-22.8,18.4-41.2,41.2-41.2c0,0,0,0,0,0l0,0c22.8,0,41.2,18.4,41.2,41.2c0,0,0,0,0,0V228.3z"/>
				<path id="Path_2851" class="st0" d="M874,247.4c-20.2,0-36.5-16.3-36.5-36.5c0,0,0,0,0,0v-14.4c0-4.7,0.9-9.4,2.7-13.8
					c-10.1,6.8-16.1,18.1-16.1,30.3v14.4c0,20.2,16.3,36.5,36.5,36.5c0,0,0,0,0,0c14.8,0,28.2-9,33.8-22.7
					C888.4,245.2,881.2,247.4,874,247.4z"/>
				<path id="Rectangle_1143" class="st3" d="M920,142.4h59.8c31.9,0,57.8,25.9,57.8,57.8l0,0v40c0,31.9-25.9,57.8-57.8,57.8l0,0
					H920c-31.9,0-57.8-25.9-57.8-57.8c0,0,0,0,0,0v-40C862.2,168.2,888.1,142.4,920,142.4C920,142.4,920,142.4,920,142.4z"/>
				<path id="Path_2852" class="st0" d="M1006.7,270.5h-76.6c-23.8,0-43.2-19.3-43.2-43.2c0,0,0,0,0,0v-58.3c0-5.4,1-10.8,3-15.8
					c-14.5,7.4-23.6,22.2-23.6,38.5V250c0,23.8,19.3,43.2,43.2,43.2c0,0,0,0,0,0h76.6c17.7,0,33.7-10.8,40.2-27.3
					C1020.2,268.9,1013.5,270.5,1006.7,270.5z"/>
				<path id="Path_2853" class="st3" d="M1044.7,111.6c-6.6-0.1-14,0.5-19.4,3.4c-0.1,0-11.7,5.1-16.6,16.2
					c-8.7,18.8-14.5,52.2-14.5,90.3c0,58.8,13.8,106.5,30.9,106.5c1.6,0,14.6,0.7,19.6,0.7c20,0,36.2-9.9,36.2-22.1v-173
					C1081,121.5,1064.7,111.6,1044.7,111.6z"/>
				<path id="Path_2854" class="st0" d="M972.9,248.8c0,1.5-1.2,2.7-2.7,2.7l0,0c-1.5,0-2.7-1.2-2.7-2.7v-67.3
					c0-1.5,1.2-2.7,2.7-2.7l0,0c1.5,0,2.7,1.2,2.7,2.7V248.8z"/>
				<path id="Path_2855" class="st0" d="M953.4,248.8c0,1.5-1.2,2.7-2.7,2.7l0,0c-1.5,0-2.7-1.2-2.7-2.7v-67.3
					c0-1.5,1.2-2.7,2.7-2.7l0,0c1.5,0,2.7,1.2,2.7,2.7V248.8z"/>
				<path id="Path_2856" class="st1" d="M1097.2,221.5c0,58.8-13.8,106.5-30.9,106.5c-17.1,0-30.9-47.7-30.9-106.5
					s13.8-106.5,30.9-106.5S1097.2,162.7,1097.2,221.5z"/>
				<path id="Path_2857" class="st5" d="M1059.1,238.4c0,2.3-1.8,4.1-4.1,4.1l0,0l0,0c-2.3,0-4.1-1.8-4.1-4.1c0,0,0,0,0,0v-36
					c0-2.3,1.8-4.1,4.1-4.1l0,0c2.3,0,4.1,1.8,4.1,4.1V238.4z"/>
				<path id="Path_2858" class="st5" d="M1082.2,224.5c0,2.3-1.8,4.1-4.1,4.1l0,0c-2.3,0-4.1-1.8-4.1-4.1c0,0,0,0,0,0v-36
					c0-2.3,1.8-4.1,4.1-4.1l0,0c2.3,0,4.1,1.8,4.1,4.1V224.5z"/>
				<g id="Group_581" transform="translate(805.409 291.052)">
					<path id="Path_2859" class="st3" d="M190.8,337l-3.2,18.7l-17.8,2.8l4-18.3"/>
					<path id="Path_2860" class="st5" d="M109.7,76.2c0,0-26.8,4-24.6,30c0.7,8.8,15.8,84.9,15.8,84.9l70.3-6.7
						c0,0-18.9-96.9-30.9-104.9S109.7,76.2,109.7,76.2z"/>
					<path id="Path_2861" class="st5" d="M100.9,191.1c2.4,14.2,6.1,28.2,11,41.8c11.4,30.5,21.2,45.7,18.5,68.4
						c-4.1,33.9-17,53-17,53l29.7,4.8c0,0,18.5-62.3,15.8-71.2c-4.8-41.8-9.3-106.3-9.3-106.3L100.9,191.1z"/>
					<path id="Path_2862" class="st5" d="M166.4,173.8c0,0,35.5,51.7,37.1,88.3c1.3,29.8-10.5,83.4-10.5,83.4l-24.8-0.8
						c0,0,8.9-68.2,3.4-84.7c-16.1-28.9-40.1-64.1-40.1-64.1L166.4,173.8z"/>
					<path id="Path_2863" class="st0" d="M102.5,87.3c0,0,18.1-5.4,24.9,13s0.8,31.5-10.2,33.4C94.3,137.9,78,90.1,102.5,87.3z"/>
					<path id="Path_2864" class="st0" d="M146.5,103.5c0.6,1.9-7.4,6.8-7.4,6.8c-1.2-3.2-2.8-6.4-4.5-9.4c-1.4-2.4-3.1-4.6-4.9-6.6
						c-3.1-2.9-7.1-6.9-11.6-8.9c-1.6-0.8-3.3-1.4-5.1-1.8c-3.6-0.9-3.8-4.6-0.2-5.2c1.8-0.5,3.7-0.8,5.6-0.7
						c1.9,0.1,3.8,0.3,5.7,0.9c1.9,0.4,3.8,1,5.6,1.8c1.8,0.8,3.4,1.8,5,2.9C136.5,84.4,143.1,92.8,146.5,103.5z"/>
					<g id="Group_578" transform="translate(5.88 36.651)">
						<path id="Path_2865" class="st5" d="M104.5,7.3L101.8,25L89.4,13.6L85,4.8l5-4.7c0,0,18.7-15.1,21.7-18.6s12.9,15.8,4.4,23.8"
							/>
						<path id="Path_2866" class="st3" d="M99.7,21.9l1.5,21.7c0,0,7.7,3.9,12.1,3.3c2.6-0.3,5-1.7,6.7-3.7L112.9,22L99.7,21.9z"/>
						<path id="Path_2867" class="st8" d="M114.4,1.2l-13.2,5.2c0,0,1.4,6,1.1,6.7l-3.8,2.3c-1.8,1.3-2,4.2-0.4,6.5s4.4,3.2,6.3,1.9
							c0.4-0.3,0.8-0.7,1-1.1c3.8,3.9,6.6,5.6,11.6,5.6C126.5,28.4,114.4,1.2,114.4,1.2z"/>
					</g>
					<path id="Path_2868" class="st3" d="M155.5,15.3h-7.6c0.9,17.2-8.1,33.1-18.4,45.6L143,72.1C156,44.6,155.5,15.3,155.5,15.3z"
						/>
					<path id="Path_2869" class="st4" d="M100,87.9c-1.8,2.1-3.4,4.5-4.7,6.9c-2.5,4.7-2.5,11.1,1.5,13.5c12.8,8.8,24.9-5.6,32.7-15
						c1.6-2,3.1-3.9,4.5-6s2.7-4.1,4-6.3c0.9-1.5,1.8-2.8,2.6-4.3c0.8-1.6,1.6-3.1,2.4-4.7l-13.5-11.2
						C129.3,61.1,104.1,83.5,100,87.9z"/>
					
						<rect id="Rectangle_1144" x="132.2" y="52" transform="matrix(0.6397 -0.7686 0.7686 0.6397 -0.2506 129.4861)" class="st9" width="11.6" height="26"/>
					<path id="Path_2870" class="st3" d="M163.8,165.9c0,0-42.9,11.9-65.9,9l1.7,20.6c0,0,44.5-11,65.4-21.9c0.4-0.2,0-1.2,0-1.2
						L163.8,165.9z"/>
					<g id="Group_579" transform="translate(79.831 370.348)">
						<path id="Path_2871" class="st4" d="M103.8-1.3l-1.6-2L86.4-4.4L85,0c0,0,46,5.2,46.8,1.8c0.3-0.7,0.4-1.5,0.4-2.3L103.8-1.3z
							"/>
						<path id="Path_2872" class="st4" d="M103.8-1.3l28.4,0.8c-0.2-1.2,1.8-2.4-4.7-6.3c-3.6-2.1-11.1-2.2-13.8-4.2
							c-2.8-2.1-5.2-4.8-7-7.9c0,0-6.1,7.4-9.5,6s-7.4-2.7-7.4-2.7L86.4-4.4l15.8,1.1L103.8-1.3z"/>
					</g>
					<g id="Group_580" transform="translate(24.257 382.325)">
						<path id="Path_2873" class="st4" d="M103.8-1.4l-1.5-2.1L86.5-5.2L85-0.9c0,0,45.7,7,46.7,3.6c0.3-0.7,0.5-1.5,0.5-2.3
							L103.8-1.4z"/>
						<path id="Path_2874" class="st4" d="M103.8-1.4l28.3,1.9c-0.1-1.2,1.9-2.4-4.5-6.4c-3.5-2.2-11-2.6-13.6-4.7
							c-2.7-2.3-5-5-6.7-8.1c0,0-6.4,7.2-9.7,5.6s-7.3-3-7.3-3l-3.9,11l15.8,1.7L103.8-1.4z"/>
					</g>
					<path id="Path_2875" class="st5" d="M156.7,18.7l-9.3-0.4c-0.4-0.3-0.7-0.6-1.1-0.9c-0.5-0.5,0.6-2.4,0.6-2.4s-3.3-5.5-4-10.2
						s-4.2-9.3-2-9.3s2.2,4,3.3,3.5c0.6-0.2,0.8-3.9,0.3-7.4s-1.9-7.1-0.3-6.7c3.1,0.7,4.5,12.1,4.5,12.1s0.3-3.7,0.4-7.5
						c0.1-4.1,0-8.4,2-8.4c1.7,0.1,1.6,3.9,1.9,7.6c0.3,2.5,0.7,5,1.2,7.4c0,0,1.2-12.4,2.5-11.1s0,12.4,0.8,12.4s2-7.7,3.1-7
						s-0.4,13.9-0.4,13.9s0.2,7.8-2.9,11.4C157.3,15.8,158.5,18.2,156.7,18.7z"/>
				</g>
				<path id="Path_2876" class="st10" d="M949.7,412.9c1,2.6,0.9,5-0.1,5.4s-2.7-1.3-3.7-3.9c-1-2.6-0.9-5,0.1-5.4
					C947.1,408.6,948.7,410.4,949.7,412.9z"/>
				<path id="Path_2877" class="st10" d="M958.4,407.6c1,2.6,0.9,5-0.1,5.4s-2.7-1.3-3.7-3.9s-0.9-5,0.1-5.4
					C955.8,403.3,957.5,405.1,958.4,407.6z"/>
			</g>
			<path id="Rectangle_1145" class="st11" d="M903.8,463.6h14.6c3.5,0,6.4,2.9,6.4,6.4v32.1c0,3.5-2.9,6.4-6.4,6.4l0,0h-14.6
				c-3.5,0-6.4-2.9-6.4-6.4c0,0,0,0,0,0V470C897.4,466.5,900.2,463.6,903.8,463.6z"/>
		</g>
		<path id="Path_2878" class="st12" d="M1196.8,183.2c-0.1-1.6-0.2-3-0.3-4.4s-0.1-2.7-0.2-3.9s-0.1-2.3-0.1-3.3c0-1.3,0-2.4,0-3.3
			c2.3-2.2,18.6-19.6,5.2-44.3c0,0-24.8,18-5.6,44.3c-0.1,0.9-0.3,2-0.4,3.3c-0.3,2-0.4,4.4-0.6,7.2c-0.1,1.4-0.1,2.9-0.2,4.5
			c-0.1,1.6,0.1,3.2,0.2,4.9c0.1,1.3,0.2,2.7,0.3,4.2c-0.9-1.2-2.1-2.8-3.4-4.4c-0.6-0.8-1.2-1.6-1.8-2.4c-0.2-0.3-0.4-0.5-0.6-0.8
			c3.7-34.2-21-39-21-39c0.6,36,15.2,39.2,19.7,39.3c0.3,0.4,0.7,0.8,1.1,1.3c0.6,0.7,1.2,1.5,1.8,2.3c1.2,1.6,2.4,3.2,3.4,4.4
			c0.1,0.1,0.2,0.3,0.3,0.4s0.3,0.2,0.4,0.3s0.2,0.2,0.3,0.3c0.2,1.7,0.4,3.4,0.6,5.2c0.1,1,0.2,2,0.3,3s0.3,2,0.5,3
			c0.3,2,0.7,4.1,1,6.3c0.4,2.1,0.8,4.2,1.3,6.4c0.2,1,0.5,2.1,0.7,3.1c-0.1-0.3-0.3-0.5-0.5-0.8c-0.3-0.5-0.6-1-0.9-1.5
			c-0.6-1-1.2-2-1.7-2.9c-0.6-0.9-1.2-1.7-1.7-2.5c-0.1-0.2-0.2-0.3-0.3-0.5c-0.1-0.1-0.3-0.3-0.4-0.4c-0.1-0.1-0.2-0.2-0.3-0.3
			c-0.7-5.3-5.2-26.3-31.1-31c0,0-1.7,30.6,30.8,32.2c0,0.1,0,0.1,0.1,0.2c0.1,0.2,0.2,0.3,0.3,0.5c0.5,0.7,1,1.5,1.6,2.4
			c0.5,0.9,1.1,1.9,1.7,2.9c0.3,0.5,0.6,1,0.9,1.5c0.3,0.5,0.5,0.9,0.8,1.4c0.5,1,0.9,1.8,1.3,2.6c0.1,0.2,0.2,0.4,0.3,0.5
			c0.1,0.1,0.1,0.2,0.2,0.3c0.9,4,1.9,8,2.6,12c0.4,2.2,0.7,4.5,1,6.7c0.1,1.1,0.2,2.2,0.3,3.3c0.1,1.1,0.2,2.2,0.2,3.3
			c0,0.3,0,0.5,0,0.7c-0.1-0.1-0.1-0.3-0.2-0.5c-0.4-0.7-0.8-1.4-1.2-2c-0.4-0.7-0.9-1.4-1.4-2.1c-0.5-0.7-1.1-1.4-1.7-2
			c-0.6-0.6-1.1-1.2-1.8-1.7c0.2-0.1,0.3-0.1,0.5-0.1c0,0-8.4-25.3-35.8-20.5c0,0,6.4,28.9,34,21.1c0.2,0.1,0.3,0.2,0.5,0.4
			c0.6,0.5,1.2,1.1,1.8,1.7c0.6,0.6,1.1,1.3,1.6,1.9c0.5,0.7,1,1.3,1.4,2c0.4,0.7,0.8,1.3,1.1,2c0.4,0.6,0.6,1.3,0.9,1.8
			c0.2,0.3,0.2,0.6,0.4,0.8c0,0,0,0.1,0.1,0.1c0,1,0,2-0.1,3c0,1.1-0.1,2.2-0.1,3.2c-0.1,1.1-0.2,2.1-0.3,3.2s-0.2,2.1-0.3,3.1
			c-0.2,1-0.3,2-0.5,3.1c-0.3,2-0.6,4-1.1,5.9c-0.4,1.9-0.8,3.7-1.2,5.5c-0.1,0.4-0.2,0.8-0.3,1.2c-0.1-0.4-0.2-0.8-0.3-1.2
			c-0.5-1.6-1.3-3.1-2.2-4.6c-0.1-0.1-0.1-0.3-0.3-0.4s-0.3-0.2-0.4-0.3c-0.2-0.1-0.3-0.2-0.4-0.3c-0.2-2.8-2.8-23.3-25.5-25.7
			c0,0-1.5,26.9,25,26c0.1,0.2,0.1,0.3,0.2,0.5c0,0.1,0.1,0.3,0.1,0.4s0.2,0.2,0.3,0.4c0.9,1.3,1.6,2.7,2.1,4.2
			c0.3,0.8,0.5,1.6,0.6,2.5c0.1,0.4,0.1,0.8,0.1,1.1c0,0.1,0,0.1,0,0.2c-0.1,0.3-0.2,0.6-0.3,1c-0.2,0.8-0.4,1.6-0.7,2.4
			s-0.5,1.5-0.7,2.3c-0.4,1.5-0.7,2.9-1.1,4.3c-0.6,2.7-1.3,5-1.9,6.9c-1.1,3.8-1.7,6.1-1.7,6.1s0.9-2.1,2.5-5.8
			c0.8-1.8,1.8-4.1,2.8-6.7c0.3-0.9,0.7-1.8,1.1-2.8l0.3-0.1c0.1-0.1,0.3-0.1,0.4-0.2s0.2-0.2,0.4-0.3c0.3-0.3,0.6-0.5,0.9-0.7
			c0.3-0.2,0.7-0.5,1.1-0.7s0.7-0.5,1.1-0.8c0.4-0.2,0.8-0.4,1.3-0.6c0.4-0.2,0.8-0.4,1.3-0.6c0.4-0.2,0.9-0.3,1.3-0.5
			c0.4-0.1,0.8-0.3,1.2-0.4c0.4-0.1,0.8-0.2,1.1-0.3c0.2,0,0.3,0,0.5-0.1c0.1,0,0.1-0.1,0.2-0.1c4.7,1.2,26.3,5.5,40.7-17
			c0,0-27.4-12.9-41.2,16c-0.1,0-0.3,0.1-0.4,0.1c-0.4,0.1-0.8,0.2-1.2,0.3c-0.4,0.1-0.9,0.2-1.3,0.4c-0.4,0.2-0.9,0.3-1.4,0.5
			c-0.5,0.2-0.9,0.4-1.3,0.6c-0.4,0.2-0.9,0.5-1.3,0.7c-0.4,0.2-0.8,0.5-1.2,0.8l-1.1,0.8c-0.2,0.1-0.3,0.2-0.5,0.4
			c0.4-1.3,0.7-2.7,1.1-4.1c0.4-1.7,0.9-3.4,1.4-5.2c0.4-1.8,0.8-3.7,1.2-5.6c0.5-1.9,0.8-3.9,1.1-6c0.2-1,0.3-2.1,0.5-3.1
			c0.1-0.5,0.1-1.1,0.2-1.6c0.1,0,0.1,0,0.2-0.1c0.1,0,0.2-0.2,0.3-0.3c0.7-0.7,1.6-1.6,2.6-2.6s1.9-1.9,2.6-2.6
			c0.1-0.1,0.1-0.1,0.2-0.2c6-0.9,26-5.6,30.8-30.8c0,0-30.7-1.9-32.5,30.7c-0.6,0.6-1.2,1.3-1.9,1.9c-0.7,0.7-1.4,1.4-2,2
			c0.1-1,0.2-2,0.3-3.1c0-1.1,0.1-2.2,0.1-3.3c0.2-2.2,0.1-4.5,0-6.8c0-1.1-0.1-2.3-0.2-3.4c-0.1-1.1-0.2-2.3-0.3-3.4
			c-0.2-1.7-0.5-3.4-0.7-5.1c0-0.2,0.1-0.4,0.1-0.6c0.1-1.1,0.2-2.3,0.4-3.6c0.2-1.3,0.4-2.8,0.7-4.2c0.5-2.8,1.1-5.7,1.6-7.8
			c0.1-0.2,0.1-0.5,0.2-0.8c0-0.1,0-0.3,0-0.4c3-1.5,24.8-13.3,15.2-40c0,0-30.2,18.6-16,39.4c0,0,0,0.1,0,0.1
			c-0.1,0.2-0.2,0.4-0.3,0.7s-0.1,0.5-0.2,0.8c-0.5,2.1-1.1,5-1.6,7.8c-0.3,1.4-0.5,2.9-0.7,4.2c0,0.1,0,0.2,0,0.3
			c-0.7-3.7-1.6-7.4-2.5-11c-0.5-2.2-1-4.3-1.5-6.5s-0.9-4.3-1.3-6.4c-0.3-2.1-0.7-4.2-1-6.2c-0.2-1-0.3-2-0.5-3
			c-0.1-1-0.2-2-0.3-2.9c-0.2-1.7-0.4-3.4-0.5-5.1c0.1-0.5,0.2-0.9,0.3-1.4c0.1-0.6,0.3-1.2,0.5-1.8c0.2-0.6,0.4-1.2,0.6-1.8
			c0.2-0.6,0.5-1.1,0.7-1.6c0.5-1,1-1.9,1.6-2.8c0.1-0.2,0.3-0.4,0.4-0.6s0.2-0.4,0.3-0.6c0,0,0,0,0,0c4.7-1.5,19.9-7.7,15.9-26.6
			c0,0-21.8,5.1-17.3,26.7c-0.1,0.1-0.1,0.2-0.2,0.3c-0.6,0.9-1.2,1.9-1.7,2.9c-0.3,0.6-0.6,1.1-0.8,1.7c-0.2,0.5-0.4,1.1-0.6,1.6
			c0-0.7-0.1-1.4-0.1-2.1C1196.9,186.3,1196.9,184.7,1196.8,183.2z"/>
		<g id="Group_588" transform="translate(248.45 86.411)">
			<g id="Group_584">
				<path id="Path_2879" class="st0" d="M92.4-15.1c0,2.1-1.7,3.7-3.7,3.7S85-13,85-15.1c0-2.1,1.7-3.7,3.7-3.7l0,0
					C90.8-18.8,92.4-17.2,92.4-15.1z"/>
				<path id="Path_2880" class="st0" d="M113.6-15.1c0,2.1-1.7,3.7-3.7,3.7s-3.7-1.7-3.7-3.7c0-2.1,1.7-3.7,3.7-3.7l0,0
					C111.9-18.8,113.6-17.2,113.6-15.1z"/>
				<path id="Path_2881" class="st0" d="M134.8-15.1c0,2.1-1.7,3.7-3.7,3.7s-3.7-1.7-3.7-3.7c0-2.1,1.7-3.7,3.7-3.7c0,0,0,0,0,0
					C133.1-18.8,134.8-17.2,134.8-15.1L134.8-15.1z"/>
				<path id="Path_2882" class="st0" d="M155.9-15.1c0,2.1-1.7,3.7-3.7,3.7s-3.7-1.7-3.7-3.7c0-2.1,1.7-3.7,3.7-3.7l0,0
					C154.3-18.8,155.9-17.2,155.9-15.1C155.9-15.1,155.9-15.1,155.9-15.1z"/>
				<path id="Path_2883" class="st0" d="M177.1-15.1c0,2.1-1.7,3.7-3.7,3.7s-3.7-1.7-3.7-3.7c0-2.1,1.7-3.7,3.7-3.7l0,0
					C175.4-18.8,177.1-17.2,177.1-15.1z"/>
				<path id="Path_2884" class="st0" d="M198.2-15.1c0,2.1-1.7,3.7-3.7,3.7s-3.7-1.7-3.7-3.7c0-2.1,1.7-3.7,3.7-3.7c0,0,0,0,0,0
					C196.6-18.8,198.2-17.2,198.2-15.1z"/>
			</g>
			<g id="Group_585" transform="translate(0 23.143)">
				<path id="Path_2885" class="st0" d="M92.4-15.1c0,2.1-1.7,3.7-3.7,3.7c-2.1,0-3.7-1.7-3.7-3.7c0-2.1,1.7-3.7,3.7-3.7
					c0,0,0,0,0,0C90.8-18.8,92.4-17.2,92.4-15.1z"/>
				<path id="Path_2886" class="st0" d="M113.6-15.1c0,2.1-1.7,3.7-3.7,3.7c-2.1,0-3.7-1.7-3.7-3.7c0-2.1,1.7-3.7,3.7-3.7
					c0,0,0,0,0,0C111.9-18.8,113.6-17.2,113.6-15.1z"/>
				<path id="Path_2887" class="st0" d="M134.8-15.1c0,2.1-1.7,3.7-3.7,3.7c-2.1,0-3.7-1.7-3.7-3.7c0-2.1,1.7-3.7,3.7-3.7
					c0,0,0,0,0,0C133.1-18.8,134.8-17.2,134.8-15.1z"/>
				<path id="Path_2888" class="st0" d="M155.9-15.1c0,2.1-1.7,3.7-3.7,3.7c-2.1,0-3.7-1.7-3.7-3.7c0-2.1,1.7-3.7,3.7-3.7
					c0,0,0,0,0,0C154.3-18.8,155.9-17.2,155.9-15.1z"/>
				<path id="Path_2889" class="st0" d="M177.1-15.1c0,2.1-1.7,3.7-3.7,3.7c-2.1,0-3.7-1.7-3.7-3.7c0-2.1,1.7-3.7,3.7-3.7
					c0,0,0,0,0,0C175.4-18.8,177.1-17.2,177.1-15.1z"/>
				<path id="Path_2890" class="st0" d="M198.2-15.1c0,2.1-1.7,3.7-3.7,3.7c-2.1,0-3.7-1.7-3.7-3.7c0-2.1,1.7-3.7,3.7-3.7
					c0,0,0,0,0,0C196.6-18.8,198.2-17.2,198.2-15.1z"/>
			</g>
			<g id="Group_586" transform="translate(0 46.285)">
				<path id="Path_2891" class="st0" d="M92.4-15.1c0,2.1-1.7,3.7-3.7,3.7c-2.1,0-3.7-1.7-3.7-3.7c0-2.1,1.7-3.7,3.7-3.7
					C90.8-18.8,92.4-17.2,92.4-15.1z"/>
				<path id="Path_2892" class="st0" d="M113.6-15.1c0,2.1-1.7,3.7-3.7,3.7c-2.1,0-3.7-1.7-3.7-3.7c0-2.1,1.7-3.7,3.7-3.7
					C111.9-18.8,113.6-17.2,113.6-15.1C113.6-15.1,113.6-15.1,113.6-15.1z"/>
				<path id="Path_2893" class="st0" d="M134.8-15.1c0,2.1-1.7,3.7-3.7,3.7s-3.7-1.7-3.7-3.7c0-2.1,1.7-3.7,3.7-3.7c0,0,0,0,0,0
					C133.1-18.8,134.8-17.2,134.8-15.1C134.8-15.1,134.8-15.1,134.8-15.1z"/>
				<path id="Path_2894" class="st0" d="M155.9-15.1c0,2.1-1.7,3.7-3.7,3.7c-2.1,0-3.7-1.7-3.7-3.7c0-2.1,1.7-3.7,3.7-3.7
					C154.3-18.8,155.9-17.2,155.9-15.1C155.9-15.1,155.9-15.1,155.9-15.1z"/>
				<path id="Path_2895" class="st0" d="M177.1-15.1c0,2.1-1.7,3.7-3.7,3.7c-2.1,0-3.7-1.7-3.7-3.7c0-2.1,1.7-3.7,3.7-3.7
					C175.4-18.8,177.1-17.2,177.1-15.1z"/>
				<path id="Path_2896" class="st0" d="M198.2-15.1c0,2.1-1.7,3.7-3.7,3.7c-2.1,0-3.7-1.7-3.7-3.7c0-2.1,1.7-3.7,3.7-3.7
					c0,0,0,0,0,0C196.6-18.8,198.2-17.2,198.2-15.1z"/>
			</g>
			<g id="Group_587" transform="translate(0 69.43)">
				<path id="Path_2897" class="st0" d="M92.4-15.1c0,2.1-1.7,3.7-3.7,3.7c-2.1,0-3.7-1.7-3.7-3.7c0-2.1,1.7-3.7,3.7-3.7
					c0,0,0,0,0,0C90.8-18.8,92.4-17.2,92.4-15.1C92.4-15.1,92.4-15.1,92.4-15.1z"/>
				<path id="Path_2898" class="st0" d="M113.6-15.1c0,2.1-1.7,3.7-3.7,3.7c-2.1,0-3.7-1.7-3.7-3.7c0-2.1,1.7-3.7,3.7-3.7
					c0,0,0,0,0,0C111.9-18.8,113.6-17.2,113.6-15.1C113.6-15.1,113.6-15.1,113.6-15.1z"/>
				<path id="Path_2899" class="st0" d="M134.8-15.1c0,2.1-1.7,3.7-3.7,3.7c-2.1,0-3.7-1.7-3.7-3.7c0-2.1,1.7-3.7,3.7-3.7
					c0,0,0,0,0,0C133.1-18.8,134.8-17.2,134.8-15.1C134.8-15.1,134.8-15.1,134.8-15.1z"/>
				<path id="Path_2900" class="st0" d="M155.9-15.1c0,2.1-1.7,3.7-3.7,3.7c-2.1,0-3.7-1.7-3.7-3.7c0-2.1,1.7-3.7,3.7-3.7
					c0,0,0,0,0,0C154.3-18.8,155.9-17.2,155.9-15.1C155.9-15.1,155.9-15.1,155.9-15.1z"/>
				<path id="Path_2901" class="st0" d="M177.1-15.1c0,2.1-1.7,3.7-3.7,3.7c-2.1,0-3.7-1.7-3.7-3.7c0-2.1,1.7-3.7,3.7-3.7
					c0,0,0,0,0,0C175.4-18.8,177.1-17.2,177.1-15.1C177.1-15.1,177.1-15.1,177.1-15.1z"/>
				<path id="Path_2902" class="st0" d="M198.2-15.1c0,2.1-1.7,3.7-3.7,3.7c-2.1,0-3.7-1.7-3.7-3.7c0-2.1,1.7-3.7,3.7-3.7
					c0,0,0,0,0,0C196.6-18.8,198.2-17.2,198.2-15.1C198.2-15.1,198.2-15.1,198.2-15.1z"/>
			</g>
		</g>
		<g id="Group_594" transform="translate(681.296 -109.984)">
			<g id="Group_593" transform="translate(0 0)">
				<g id="Group_589">
					<path id="Path_2903" class="st12" d="M90.5-16.1c0,1.5-1.2,2.7-2.7,2.7c-1.5,0-2.7-1.2-2.7-2.7c0-1.5,1.2-2.7,2.7-2.7
						C89.3-18.8,90.5-17.6,90.5-16.1z"/>
					<path id="Path_2904" class="st12" d="M106-16.1c0,1.5-1.2,2.7-2.7,2.7c-1.5,0-2.7-1.2-2.7-2.7c0-1.5,1.2-2.7,2.7-2.7
						C104.8-18.8,106-17.6,106-16.1z"/>
					<path id="Path_2905" class="st12" d="M121.6-16.1c0,1.5-1.2,2.7-2.7,2.7c-1.5,0-2.7-1.2-2.7-2.7c0-1.5,1.2-2.7,2.7-2.7
						C120.4-18.8,121.6-17.6,121.6-16.1z"/>
					<path id="Path_2906" class="st12" d="M137.2-16.1c0,1.5-1.2,2.7-2.7,2.7c-1.5,0-2.7-1.2-2.7-2.7c0-1.5,1.2-2.7,2.7-2.7l0,0
						C136-18.8,137.2-17.6,137.2-16.1C137.2-16.1,137.2-16.1,137.2-16.1z"/>
					<path id="Path_2907" class="st12" d="M152.8-16.1c0,1.5-1.2,2.7-2.7,2.7c-1.5,0-2.7-1.2-2.7-2.7c0-1.5,1.2-2.7,2.7-2.7l0,0
						C151.5-18.8,152.8-17.6,152.8-16.1z"/>
					<path id="Path_2908" class="st12" d="M168.3-16.1c0,1.5-1.2,2.7-2.7,2.7c-1.5,0-2.7-1.2-2.7-2.7c0-1.5,1.2-2.7,2.7-2.7
						c0,0,0,0,0,0C167.1-18.8,168.3-17.6,168.3-16.1z"/>
				</g>
				<g id="Group_590" transform="translate(0 17.033)">
					<path id="Path_2909" class="st12" d="M90.5-16.1c0,1.5-1.2,2.7-2.7,2.7l0,0c-1.5,0-2.7-1.2-2.7-2.7c0,0,0,0,0,0
						c0-1.5,1.2-2.7,2.7-2.7C89.2-18.8,90.5-17.6,90.5-16.1C90.5-16.1,90.5-16.1,90.5-16.1z"/>
					<path id="Path_2910" class="st12" d="M106-16.1c0,1.5-1.2,2.7-2.7,2.7l0,0c-1.5,0-2.7-1.2-2.7-2.7c0-1.5,1.2-2.7,2.7-2.7
						C104.8-18.8,106-17.6,106-16.1L106-16.1z"/>
					<path id="Path_2911" class="st12" d="M121.6-16.1c0,1.5-1.2,2.7-2.7,2.7c-1.5,0-2.7-1.2-2.7-2.7c0-1.5,1.2-2.7,2.7-2.7
						C120.4-18.8,121.6-17.6,121.6-16.1z"/>
					<path id="Path_2912" class="st12" d="M137.2-16.1c0,1.5-1.2,2.7-2.7,2.7c0,0,0,0,0,0c-1.5,0-2.7-1.2-2.7-2.7
						c0-1.5,1.2-2.7,2.7-2.7C136-18.8,137.2-17.6,137.2-16.1z"/>
					<path id="Path_2913" class="st12" d="M152.8-16.1c0,1.5-1.2,2.7-2.7,2.7c-1.5,0-2.7-1.2-2.7-2.7c0-1.5,1.2-2.7,2.7-2.7
						C151.5-18.8,152.8-17.6,152.8-16.1z"/>
					<path id="Path_2914" class="st12" d="M168.3-16.1c0,1.5-1.2,2.7-2.7,2.7c-1.5,0-2.7-1.2-2.7-2.7c0-1.5,1.2-2.7,2.7-2.7
						C167.1-18.8,168.3-17.6,168.3-16.1z"/>
				</g>
				<g id="Group_591" transform="translate(0 34.064)">
					<path id="Path_2915" class="st12" d="M90.5-16.1c0,1.5-1.2,2.7-2.7,2.7c-1.5,0-2.7-1.2-2.7-2.7c0,0,0,0,0,0
						c0-1.5,1.2-2.7,2.7-2.7C89.2-18.8,90.5-17.6,90.5-16.1C90.5-16.1,90.5-16.1,90.5-16.1z"/>
					<path id="Path_2916" class="st12" d="M106-16.1c0,1.5-1.2,2.7-2.7,2.7c-1.5,0-2.7-1.2-2.7-2.7c0-1.5,1.2-2.7,2.7-2.7
						C104.8-18.8,106-17.6,106-16.1z"/>
					<path id="Path_2917" class="st12" d="M121.6-16.1c0,1.5-1.2,2.7-2.7,2.7c-1.5,0-2.7-1.2-2.7-2.7c0-1.5,1.2-2.7,2.7-2.7
						C120.4-18.8,121.6-17.6,121.6-16.1z"/>
					<path id="Path_2918" class="st12" d="M137.2-16.1c0,1.5-1.2,2.7-2.7,2.7c0,0,0,0,0,0c-1.5,0-2.7-1.2-2.7-2.7c0,0,0,0,0,0
						c0-1.5,1.2-2.7,2.7-2.7l0,0C136-18.8,137.2-17.6,137.2-16.1C137.2-16.1,137.2-16.1,137.2-16.1z"/>
					<path id="Path_2919" class="st12" d="M152.8-16.1c0,1.5-1.2,2.7-2.7,2.7c-1.5,0-2.7-1.2-2.7-2.7c0,0,0,0,0,0
						c0-1.5,1.2-2.7,2.7-2.7l0,0C151.5-18.8,152.8-17.6,152.8-16.1z"/>
					<path id="Path_2920" class="st12" d="M168.3-16.1c0,1.5-1.2,2.7-2.7,2.7c-1.5,0-2.7-1.2-2.7-2.7c0,0,0,0,0,0
						c0-1.5,1.2-2.7,2.7-2.7c0,0,0,0,0,0C167.1-18.8,168.3-17.6,168.3-16.1z"/>
				</g>
				<g id="Group_592" transform="translate(0 51.097)">
					<path id="Path_2921" class="st12" d="M90.5-16.1c0,1.5-1.2,2.7-2.7,2.7c-1.5,0-2.7-1.2-2.7-2.7s1.2-2.7,2.7-2.7l0,0
						C89.3-18.8,90.5-17.6,90.5-16.1C90.5-16.1,90.5-16.1,90.5-16.1z"/>
					<path id="Path_2922" class="st12" d="M106-16.1c0,1.5-1.2,2.7-2.7,2.7c-1.5,0-2.7-1.2-2.7-2.7s1.2-2.7,2.7-2.7l0,0
						C104.8-18.8,106-17.6,106-16.1C106-16.1,106-16.1,106-16.1z"/>
					<path id="Path_2923" class="st12" d="M121.6-16.1c0,1.5-1.2,2.7-2.7,2.7c-1.5,0-2.7-1.2-2.7-2.7s1.2-2.7,2.7-2.7c0,0,0,0,0,0
						C120.4-18.8,121.6-17.6,121.6-16.1C121.6-16.1,121.6-16.1,121.6-16.1z"/>
					<path id="Path_2924" class="st12" d="M137.2-16.1c0,1.5-1.2,2.7-2.7,2.7c-1.5,0-2.7-1.2-2.7-2.7c0-1.5,1.2-2.7,2.7-2.7
						c0,0,0,0,0,0C136-18.8,137.2-17.6,137.2-16.1C137.2-16.1,137.2-16.1,137.2-16.1z"/>
					<path id="Path_2925" class="st12" d="M152.8-16.1c0,1.5-1.2,2.7-2.7,2.7c-1.5,0-2.7-1.2-2.7-2.7c0-1.5,1.2-2.7,2.7-2.7
						C151.5-18.8,152.8-17.6,152.8-16.1C152.8-16.1,152.8-16.1,152.8-16.1z"/>
					<path id="Path_2926" class="st12" d="M168.3-16.1c0,1.5-1.2,2.7-2.7,2.7c-1.5,0-2.7-1.2-2.7-2.7c0-1.5,1.2-2.7,2.7-2.7
						c0,0,0,0,0,0C167.1-18.8,168.3-17.6,168.3-16.1C168.3-16.1,168.3-16.1,168.3-16.1z"/>
				</g>
			</g>
		</g>
		<g id="Group_596" transform="translate(536.377 213.696)">
			<path id="Path_2927" class="st1" d="M118.2,78.9c0,0-20.8-104.5-1.9-97.4s21.6,87.8,13,99.3"/>
			<path id="Path_2928" class="st4" d="M116.2,82.8c0,0-3.7-42.7-24.1-40.4s9.3,37.1,14.5,40.4"/>
			<path id="Path_2929" class="st13" d="M92.5,24.9c0,0-5.6,16.7,9.3,13.7s10.5-3.5,10.5-3.5"/>
			<path id="Path_2930" class="st11" d="M120.6,82.4c0,0-4.8-63.8-11.9-66.4s-18.9,3-16.3,8.9s20,57.9,20,57.9"/>
			<path id="Path_2931" class="st13" d="M162.8,12.4c0,0,4.8,20.1-4.5,26.8S142,33.6,142,33.6l-1.5-21.9"/>
			<path id="Path_2932" class="st11" d="M124.5,81.2c0,0,5.2-84.8,23.4-79.6s14.9,15.2,14.9,15.2s-4.5-4.1-7.1,1.1s-16,64.7-16,64.7
				"/>
			<path id="Path_2933" class="st13" d="M132.7,81.3c0,0,7.4-42.2,27.6-38.2s-12.5,36.1-18,39"/>
			<path id="Path_2934" class="st14" d="M116-13.3c0,0,9.8,61,6.4,94.4"/>
			<path id="Path_2935" class="st14" d="M101.9,19.5c0,0,12.6,44.2,13.8,59.5"/>
			<path id="Path_2936" class="st14" d="M91.8,48.1c0,0,14.9,22.3,17.1,32"/>
			<path id="Path_2937" class="st14" d="M148.7,7.6c0,0-15.2,45.7-19.3,70.6"/>
			<g id="Group_595" transform="translate(51.251 68.637)">
				<path id="Path_2938" class="st14" d="M85.4,12.3L85,12.1c6.2-10.7,13-21,20.5-30.9l0.3,0.2C98.4-8.7,91.6,1.6,85.4,12.3z"/>
			</g>
			<rect id="Rectangle_1146" x="95.4" y="79.3" class="st1" width="61.5" height="13.8"/>
		</g>
		<path id="Path_2939" class="st0" d="M1179.5,93.1V85h-6.5c-0.5-2.7-1.6-5.2-3.1-7.5l4.6-4.6l-5.8-5.8l-4.6,4.6
			c-2.3-1.5-4.8-2.6-7.5-3.1v-6.5h-8.1v6.5c-2.7,0.5-5.2,1.6-7.5,3.1l-4.6-4.6l-5.8,5.8l4.6,4.6c-1.5,2.3-2.6,4.8-3.1,7.5h-6.5v8.1
			h6.5c0.5,2.7,1.6,5.2,3.1,7.5l-4.6,4.6l5.8,5.8l4.6-4.6c2.3,1.5,4.8,2.6,7.5,3.1v6.5h8.1v-6.5c2.7-0.5,5.2-1.6,7.5-3.1l4.6,4.6
			l5.8-5.8l-4.6-4.6c1.5-2.3,2.6-4.8,3.1-7.5L1179.5,93.1z M1152.6,100.6c-6.4,0-11.5-5.2-11.5-11.5c0-6.4,5.2-11.5,11.5-11.5
			c6.4,0,11.5,5.2,11.5,11.5C1164.1,95.4,1158.9,100.6,1152.6,100.6L1152.6,100.6z"/>
		<path id="Path_2940" class="st12" d="M917.9-120.8v-5.7h-4.6c-0.4-1.9-1.1-3.7-2.2-5.2l3.2-3.2l-4-4l-3.2,3.2
			c-1.6-1.1-3.4-1.8-5.2-2.2v-4.6h-5.7v4.6c-1.9,0.4-3.7,1.1-5.2,2.2l-3.2-3.2l-4,4l3.2,3.2c-1.1,1.6-1.8,3.4-2.2,5.2h-4.6v5.7h4.6
			c0.4,1.9,1.1,3.7,2.2,5.2l-3.2,3.2l4,4l3.2-3.2c1.6,1.1,3.4,1.8,5.2,2.2v4.6h5.7v-4.6c1.9-0.4,3.7-1.1,5.2-2.2l3.2,3.2l4-4
			l-3.2-3.2c1.1-1.6,1.8-3.4,2.2-5.2L917.9-120.8z M899.1-115.6c-4.5,0-8.1-3.6-8.1-8.1c0-4.5,3.6-8.1,8.1-8.1
			c4.5,0,8.1,3.6,8.1,8.1C907.2-119.2,903.6-115.6,899.1-115.6z"/>
		<g id="Group_610" transform="translate(701.159 2.452)">
			<g id="Group_607" transform="translate(0)">
				<path id="Path_2941" class="st3" d="M218.5,248.2c0,8-6.5,14.5-14.5,14.5c0,0,0,0,0,0H99.5c-8,0-14.5-6.5-14.5-14.5c0,0,0,0,0,0
					l0,0c0-8,6.5-14.5,14.5-14.5c0,0,0,0,0,0H204C212,233.7,218.5,240.2,218.5,248.2C218.5,248.2,218.5,248.2,218.5,248.2z"/>
				<path id="Path_2942" class="st3" d="M218.5,164.6c0,8-6.5,14.5-14.5,14.5c0,0,0,0,0,0H99.5c-8,0-14.5-6.5-14.5-14.5c0,0,0,0,0,0
					l0,0c0-8,6.5-14.5,14.5-14.5c0,0,0,0,0,0H204C212,150.1,218.5,156.6,218.5,164.6C218.5,164.6,218.5,164.6,218.5,164.6z"/>
				<path id="Path_2943" class="st0" d="M155.4,169.1c0,3.8-3.1,7-7,7c0,0,0,0,0,0H98.2c-3.8,0-7-3.1-7-7c0,0,0,0,0,0l0,0
					c0-3.8,3.1-7,7-7c0,0,0,0,0,0h50.2C152.2,162.1,155.4,165.2,155.4,169.1C155.4,169.1,155.4,169.1,155.4,169.1L155.4,169.1z"/>
				<path id="Path_2944" class="st0" d="M157.8,251.7c0,3.8-3.1,7-7,7c0,0,0,0,0,0h-50.2c-3.8,0-7-3.1-7-7c0,0,0,0,0,0l0,0
					c0-3.8,3.1-7,7-7c0,0,0,0,0,0h50.2C154.6,244.8,157.8,247.9,157.8,251.7C157.8,251.7,157.8,251.7,157.8,251.7L157.8,251.7z"/>
				<g id="Group_606" transform="translate(60.738)">
					<g id="Group_598" transform="translate(354.273)">
						<g id="Group_597">
							<path id="Path_2945" class="st5" d="M124.6,215.7c-22.5,0-37.6-1.1-39.6-1.2l2.1-28.7c1.5,0.1,143.4,9.9,219-33.2
								c-9.3-6.8-17.9-14.5-25.8-23C254,101,242.8,70.1,250.4,47c6.7-20.2,21.1-31.9,39.6-31.9h0.1c28.5,0,61.4,29,73.4,64.8
								c8.4,24.9,5.4,48.5-7.9,67.7c20.9,8.6,44.7,12.2,68.8,6.3c54.8-13.5,97.8-73.2,124.6-172.7l27.8,7.5
								c-15.6,58-36.8,104-63,136.8c-23.8,29.8-51.5,48.7-82.5,56.4c-27.3,6.7-56.8,4.3-85.4-7.1c-4.2-1.7-8.3-3.5-12.4-5.5
								C276.5,209.5,179.1,215.7,124.6,215.7z M290.1,43.9L290.1,43.9c-2.5,0-8.3,0-12.3,12.2c-3.4,10.4,2.6,31.1,23.8,54
								c8.5,9.1,18,17.1,28.3,23.9c12.2-15.3,10.6-32.3,6.3-44.9C327.7,63.6,304.4,43.9,290.1,43.9z"/>
							<path id="Path_2946" class="st15" d="M347.2,140.4c40-57.2-55.2-145.6-75.6-84C249.3,123.7,472,305.5,556-6.9"/>
							<path id="Path_2947" class="st15" d="M102.2,197.9c0,0,144.2,10.6,220.1-35.7"/>
						</g>
					</g>
					<g id="Group_603" transform="translate(70.429 28.242)">
						<path id="Path_2948" class="st3" d="M307.9,231.7l8.2,17.5l-16.6,4.7l-7.6-17.8"/>
						<path id="Path_2949" class="st3" d="M204.5,242.7l4.6,18.4l-16.3,4.2l-0.7-21.2"/>
						<path id="Path_2950" class="st5" d="M221.5,23.6c0,0,22.2,13.4,28.5,32.2c6.3,18.8,12.8,101.2,23.2,114.9s44,58.7,44,58.7
							l-25.8,14.8c0,0-38.6-52.7-47.7-68S219.6,92,219.6,92s-19.4,53.3-20.4,75.2s14.7,81,14.7,81l-26,0.8c0,0-16.3-55.6-17.9-84.3
							s18.5-113.3,18.5-113.3"/>
						<g id="Group_599" transform="translate(14.8 10.798)">
							<path id="Path_2951" class="st4" d="M122.7,60.9c4.6-14.5,6.9-31.5,2.7-49.2C113.7-38.6,99.1-14.6,99.1-1
								c0,0,4.8,28.5,2.2,57.1C105.2,58.8,111.9,61.6,122.7,60.9z"/>
							<path id="Path_2952" class="st3" d="M101.3,56.1c-1.6,17.8-6.1,35.6-16.3,46.7l12.7,3.3c11.1-13.3,19.6-28.7,25-45.2
								C111.9,61.6,105.2,58.8,101.3,56.1z"/>
						</g>
						<path id="Path_2953" class="st5" d="M111.1,9.3c0,0,4.7-27.3,33.4-23.5s77.1,37.6,77.1,37.6s-16.9,34.8-31,35.2
							s-79.4-27.3-79.4-47.5"/>
						<path id="Path_2954" class="st4" d="M101.7,114.8l-5.4,9.6L85,133.8l25.1,1.6l-2.3-7.5l2.8-11.3"/>
						<path id="Path_2955" class="st0" d="M143.3,35c0,0-12-19.8-7.3-31.4s9.2-12.4,9.2-12.4s-20.7-8.8-24.9,8.8
							s10.9,29.6,10.9,29.6L143.3,35z"/>
						<path id="Path_2956" class="st0" d="M148.4,30.5c0,0-17.6-37.5,11.4-34.7c24.2,2.4,37.8,27.5,33.7,33.9S148.4,30.5,148.4,30.5
							z"/>
						<g id="Group_600" transform="translate(183.774 266.467)">
							<path id="Path_2957" class="st4" d="M118.1,0.9l1.5-2.6L137.7-6l2.4,4.8c0,0-52.1,14.7-53.7,10.9C86,8.9,85.6,8,85.5,7.1
								L118.1,0.9z"/>
							<path id="Path_2958" class="st4" d="M118.1,0.9L85.5,7.1c0-1.4-2.6-2.5,4.3-8.1c3.7-3.1,12.4-4.6,15.1-7.5
								c2.8-3,5.1-6.5,6.6-10.4c0,0,8.4,7.4,12.1,5.2s8.1-4.5,8.1-4.5L137.7-6l-18.1,4.2L118.1,0.9z"/>
						</g>
						<g id="Group_601" transform="translate(74.99 272.371)">
							<path id="Path_2959" class="st4" d="M118.4,1.8l1.9-2.3l18.6-0.7l1.4,5.1c0,0-53.9,4.6-54.8,0.6c-0.3-0.9-0.4-1.8-0.4-2.7
								L118.4,1.8z"/>
							<path id="Path_2960" class="st4" d="M118.4,1.8H85.1c0.2-1.4-2-2.9,5.8-7.2c4.2-2.3,13-2.2,16.2-4.5c3.4-2.4,6.2-5.5,8.4-9
								c0,0,6.9,8.9,10.9,7.4s8.8-2.9,8.8-2.9l3.7,13.1l-18.6,0.7L118.4,1.8z"/>
						</g>
						<g id="Group_602" transform="translate(6.516)">
							<path id="Path_2961" class="st3" d="M111.8-4.8l11.4,0.5c0,0,4,5,3.2,10.4c-0.8,5.2-4.2,8-7.8,8.5s-5.9-7.5-5.9-7.5"/>
							<path id="Path_2962" class="st3" d="M90.9,6.8c0,0,14.4,28.8,20.7,20.7s4.2-31.3,4.2-31.3S103.5-5.7,90.9,6.8z"/>
							<path id="Path_2963" class="st5" d="M106.8,4.6l4.9,2.6c0,0-1.1-2.7,0.5-3.4s5,1.3,4.1,4.8l3.3-5.2l-3.8-9.8"/>
							<path id="Path_2964" class="st5" d="M116.3-6.4c0,0-0.8-14.2-14.6-12.3C93.6-17.6,77.2-3.5,89.4,8.7
								C89.4,8.7,109.1,12.8,116.3-6.4z"/>
						</g>
						<path id="Path_2965" class="st3" d="M181.1,56.9c0,0,41.7-10,39.6-33.4l8.9,6.4c0,0-2.9,13.2-12.2,20.5
							c-8.6,6.7-20.2,10.3-29.9,9.8L181.1,56.9z"/>
						
							<rect id="Rectangle_1147" x="119.7" y="51.6" transform="matrix(0.1945 -0.9809 0.9809 0.1945 34.3213 178.8885)" class="st4" width="12.7" height="33.9"/>
					</g>
					<g id="Group_605" transform="translate(0 118.305)">
						<g id="Group_604">
							<path id="Path_2966" class="st3" d="M132.5-18.8c-6.2,0-12.4,1-18.2,3.2c-0.1,0-10.7,4.9-15.6,15.2
								C90.5,17.3,85,48.7,85,84.5c0,55.3,13,100.1,29,100.1c1.5,0,13.4,0.7,18.4,0.7c18.8,0,34-9.3,34-20.7V1.9
								C166.5-9.5,151.3-18.8,132.5-18.8z"/>
							<path id="Path_2967" class="st13" d="M181.7,84.5c0,55.3-13,100.1-29,100.1s-29-44.8-29-100.1s13-100.1,29-100.1
								S181.7,29.2,181.7,84.5z"/>
						</g>
						<path id="Path_2968" class="st3" d="M311.5,83.6c0-12.2,9.9-22.1,22.1-22.1h104.5c12.2,0,22.1,9.9,22.1,22.1l0,0
							c0,12.2-9.9,22.1-22.1,22.1H333.5C321.4,105.6,311.5,95.7,311.5,83.6z"/>
						<path id="Path_2969" class="st0" d="M446.8,66.7c-0.7,9.9-9,17.6-19,17.7h-90.3c-3.8,0-7.5-1.1-10.7-3.3
							c0,0.5-0.1,0.9-0.1,1.4c0,10.5,8.5,19.1,19.1,19.1h90.3c10.5,0,19.1-8.5,19.1-19.1C455.2,76.1,452,70.2,446.8,66.7z"/>
						<path id="Path_2970" class="st3" d="M265,75.4c0-22.8,18.5-41.2,41.2-41.2c0,0,0,0,0,0l0,0c22.8,0,41.2,18.5,41.2,41.2
							c0,0,0,0,0,0v16.3c0,22.8-18.4,41.2-41.2,41.2c0,0,0,0,0,0l0,0c-22.8,0-41.2-18.5-41.2-41.2c0,0,0,0,0,0V75.4z"/>
						<path id="Path_2971" class="st0" d="M323.4,107.5c-20.6,0-37.2-16.7-37.2-37.2c0,0,0,0,0,0V55.6c0-5,1-9.9,2.9-14.4
							c-11.6,6.6-18.7,18.9-18.7,32.3v14.7c0,20.6,16.7,37.2,37.2,37.2c15,0,28.5-9,34.3-22.8C336.3,105.8,329.9,107.5,323.4,107.5z
							"/>
						<path id="Path_2972" class="st3" d="M259.2,5.8h-82.4c-6.6,0-13.1,1.4-19,4.1c-15.6,33.6-22.8,108.8,0,147.4
							c6,2.7,12.5,4.1,19,4.1h82.4c25.7,0,46.4-20.8,46.5-46.4c0,0,0,0,0,0V52.2C305.7,26.6,284.9,5.8,259.2,5.8z"/>
						<path id="Path_2973" class="st0" d="M288.6,132.2h-74.1c-5.9,0-11.7-1.2-17.1-3.7c-17-28.9-15.4-80.3-6.4-114.2h-11.5
							c-5.9,0-11.7,1.2-17.1,3.7c-14,30.2-20.5,97.8,0,132.5c5.4,2.4,11.2,3.7,17.1,3.7h74.1c15.4,0,29.5-8.4,36.8-22
							C289.8,132.2,289.2,132.2,288.6,132.2z"/>
					</g>
				</g>
			</g>
			<g id="Group_609" transform="translate(159.467 49.043)">
				<g id="Group_608" transform="translate(17.913)">
					<path id="Path_2974" class="st4" d="M124.8,45.7c1.8-10.8,2.5-35-1-46.9C114.2-33.7,100-13.6,100-1.6c0,0,1.6,22.9,0.5,48.2
						C108.6,47.3,116.8,47,124.8,45.7z"/>
					<path id="Path_2975" class="st3" d="M100.5,46.7C99.6,67.1,97,91.5,85,104.5l9.1,2.6c0,0,25-27,30.8-61.4
						C116.8,47,108.6,47.3,100.5,46.7z"/>
				</g>
				<rect id="Rectangle_1148" x="112.7" y="44.3" class="st4" width="34.3" height="14.4"/>
				<path id="Path_2976" class="st5" d="M113.8,104.2l-9.9-3.8c-0.5,0.1-1,0.2-1.5,0.4c-0.7,0.3-0.5,2.7-0.5,2.7s-5.9,4.2-8.7,8.7
					s-8.6,7.7-6.3,8.7s4.1-3.1,5.1-2.1c0.5,0.5-0.9,4.4-3.1,7.8c-2.2,3.5-5.1,6.5-3.4,6.8c3.5,0.7,10.1-10.5,10.1-10.5
					s-1.3,3.9-3,7.9c-1.8,4.3-3.8,8.7-1.8,9.5c1.8,0.7,3.4-3.3,5.5-7c1.4-2.5,2.9-4.8,4.6-7.1c0,0-4.5,13.4-2.5,12.6
					s5.7-12.8,6.5-12.4s-1.5,8.9,0,8.7s5.9-14.6,5.9-14.6s3.8-8,2.2-13.1C113.1,107.5,115.5,105.5,113.8,104.2z"/>
			</g>
		</g>
		<g id="Group_611" transform="translate(961.702 67.888)">
			<path id="Path_2977" class="st4" d="M121.4,7.4c1.5,2.4,0.8,5.6-1.6,7.1c0,0,0,0,0,0L108.2,22c-2.4,1.5-5.6,0.8-7.1-1.6
				c0,0,0,0,0,0L85.8-3.4C84.3-5.8,85-9,87.4-10.5c0,0,0,0,0,0L99.1-18c2.4-1.5,5.6-0.8,7.1,1.6c0,0,0,0,0,0L121.4,7.4z"/>
			<path id="Path_2978" class="st4" d="M91.7,4.6c0,0,14.7-0.6,21-11.6"/>
		</g>
		<g id="Group_612" transform="translate(875.412 -14.288)">
			<path id="Path_2979" class="st5" d="M171.8-2.5c0,9-7.3,16.3-16.3,16.3h-54.2c-9,0-16.3-7.3-16.3-16.3c0,0,0,0,0,0l0,0
				c0-9,7.3-16.3,16.3-16.3l0,0h54.2C164.5-18.8,171.8-11.5,171.8-2.5z"/>
			<rect id="Rectangle_1149" x="85" y="-2.5" class="st5" width="19.3" height="16.2"/>
		</g>
		<path id="Path_2980" class="st12" d="M432.9-45.7H354c-13.1,0-23.7,12.1-23.7,27s10.6,27,23.7,27h78.9c0.7,0,1.4,0,2.1-0.1h21.6
			v-26.9C456.6-33.6,446-45.7,432.9-45.7z"/>
		<g id="Group_613" transform="translate(900.728 -0.96)">
			<circle id="Ellipse_40" class="st10" cx="87.4" cy="-16.4" r="2.4"/>
			<circle id="Ellipse_41" class="st10" cx="103.1" cy="-16.4" r="2.4"/>
			<circle id="Ellipse_42" class="st10" cx="118.8" cy="-16.4" r="2.4"/>
		</g>
		<g id="Group_614" transform="translate(276.768 -13.147)">
			<path id="Path_2981" class="st10" d="M95.2-0.5h-2.8l-1.2,7.2h-3.5l1.2-7.2H85v-3.2h4.4l0.8-4.6h-3.9v-3.2h4.4l1.2-7.3h3.5
				l-1.2,7.3H97l1.2-7.3h3.5l-1.2,7.3h4v3.2h-4.6l-0.8,4.6h4v3.2h-4.5l-1.2,7.2H94L95.2-0.5z M92.9-3.7h2.8l0.8-4.6h-2.8L92.9-3.7z"
				/>
		</g>
		<g id="Group_615" transform="translate(300.878 -13.147)">
			<path id="Path_2982" class="st10" d="M95.2-0.5h-2.8l-1.2,7.2h-3.5l1.2-7.2H85v-3.2h4.4l0.8-4.6h-3.9v-3.2h4.4l1.2-7.3h3.5
				l-1.2,7.3H97l1.2-7.3h3.5l-1.2,7.3h4v3.2h-4.6l-0.8,4.6h4v3.2h-4.5l-1.2,7.2H94L95.2-0.5z M92.9-3.7h2.8l0.8-4.6h-2.8L92.9-3.7z"
				/>
		</g>
		<g id="Group_616" transform="translate(324.988 -13.147)">
			<path id="Path_2983" class="st10" d="M95.2-0.5h-2.8l-1.2,7.2h-3.5l1.2-7.2H85v-3.2h4.4l0.8-4.6h-3.9v-3.2h4.4l1.2-7.3h3.5
				l-1.2,7.3H97l1.2-7.3h3.5l-1.2,7.3h4v3.2h-4.6l-0.8,4.6h4v3.2h-4.5l-1.2,7.2H94L95.2-0.5z M92.9-3.7h2.8l0.8-4.6h-2.8L92.9-3.7z"
				/>
		</g>
	</g>
</g>
</svg>
